/* XPM */
static char *qrybtn_export[]={
"16 16 6 1",
"# c None",
". c #008000",
"a c #00ff00",
"b c #808000",
"c c #c0c000",
"d c #ffff00",
"...........#####",
".aaaaaaaaa.#####",
".aaaaaaaaa.#####",
"........aa.#####",
"#######.aa.#####",
"#######.aa.#####",
"#####...aa...###",
"bbbccc.aaaa.cbbb",
"bcccccc.aa.ccccb",
"bcdccccc..cccdcb",
"bcdcdccccccdcdcb",
"bcdcddddddddcdcb",
"bcddccccccccddcb",
"bbcddddccddddcb#",
"##bcccddddcccb##",
"###bbbccccbbb###"};
