/* XPM */
static char *collate_rev[]={
"77 49 3 1",
". c None",
"# c #000000",
"a c #ffffff",
"................#####################...................#####################",
"................#aaaaaaaaaaaaaaaaaaa#...................#aaaaaaaaaaaaaaaaaaa#",
"................#aaaaaaaaaaaaaaaaaaa#...................#aaaaaaaaaaaaaaaaaaa#",
"................#aaaaaaaaaaaaaaaaaaa#...................#aaaaaaaaaaaaaaaaaaa#",
"................#aaaaaaaaaaaaaaaaaaa#...................#aaaaaaaaaaaaaaaaaaa#",
"................#aaaaaaaaaaaaaaaaaaa#...................#aaaaaaaaaaaaaaaaaaa#",
"................#aaaaaaaaaaaaaaaaaaa#...................#aaaaaaaaaaaaaaaaaaa#",
"................#aaaaaaaaaaaaaaaaaaa#...................#aaaaaaaaaaaaaaaaaaa#",
"................#aaaaaaaaaaaaaaaaaaa#...................#aaaaaaaaaaaaaaaaaaa#",
"................#aaaaaaaaaaaaaaaaaaa#...................#aaaaaaaaaaaaaaaaaaa#",
"................#aaaaaaaaaaaaaaaaaaa#...................#aaaaaaaaaaaaaaaaaaa#",
"................#aaaaaaaaaaaaaaaaaaa#...................#aaaaaaaaaaaaaaaaaaa#",
"........#####################aaaaaaa#...........#####################aaaaaaa#",
"........#aaaaaaaaaaaaaaaaaaa#aa#aaaa#...........#aaaaaaaaaaaaaaaaaaa#aa#aaaa#",
"........#aaaaaaaaaaaaaaaaaaa####aaaa#...........#aaaaaaaaaaaaaaaaaaa####aaaa#",
"........#aaaaaaaaaaaaaaaaaaa#aa#aaaa#...........#aaaaaaaaaaaaaaaaaaa#aa#aaaa#",
"........#aaaaaaaaaaaaaaaaaaa#aa#aaaa#...........#aaaaaaaaaaaaaaaaaaa#aa#aaaa#",
"........#aaaaaaaaaaaaaaaaaaa#aa#aaaa#...........#aaaaaaaaaaaaaaaaaaa#aa#aaaa#",
"........#aaaaaaaaaaaaaaaaaaa#aa#aaaa#...........#aaaaaaaaaaaaaaaaaaa#aa#aaaa#",
"........#aaaaaaaaaaaaaaaaaaa#####aaa#...........#aaaaaaaaaaaaaaaaaaa#####aaa#",
"........#aaaaaaaaaaaaaaaaaaa#aaaaaaa#...........#aaaaaaaaaaaaaaaaaaa#aaaaaaa#",
"........#aaaaaaaaaaaaaaaaaaa#aaaaaaa#...........#aaaaaaaaaaaaaaaaaaa#aaaaaaa#",
"........#aaaaaaaaaaaaaaaaaaa#aaaaaaa#...........#aaaaaaaaaaaaaaaaaaa#aaaaaaa#",
"........#aaaaaaaaaaaaaaaaaaa#aaaaaaa#...........#aaaaaaaaaaaaaaaaaaa#aaaaaaa#",
"#####################aaaaaaa#########...#####################aaaaaaa#########",
"#aaaaaaaaaaaaaaaaaaa#a##aaaa#...........#aaaaaaaaaaaaaaaaaaa#a##aaaa#........",
"#aaaaaaaaaaaaaaaaaaa##aa#aaa#...........#aaaaaaaaaaaaaaaaaaa##aa#aaa#........",
"#aaaaaaaaaaaaaaaaaaa#aaa#aaa#...........#aaaaaaaaaaaaaaaaaaa#aaa#aaa#........",
"#aaaaaaaaaaaaaaaaaaa#aa#aaaa#...........#aaaaaaaaaaaaaaaaaaa#aa#aaaa#........",
"#aaaaaaaaaaaaaaaaaaa#a#aaaaa#...........#aaaaaaaaaaaaaaaaaaa#a#aaaaa#........",
"#aaaaaaaaaaaaaaaaaaa##aaaaaa#...........#aaaaaaaaaaaaaaaaaaa##aaaaaa#........",
"#aaaaaaaaaaaaaaaaaaa#####aaa#...........#aaaaaaaaaaaaaaaaaaa#####aaa#........",
"#aaaaaaaaaaaaaaaaaaa#aaaaaaa#...........#aaaaaaaaaaaaaaaaaaa#aaaaaaa#........",
"#aaaaaaaaaaaaaaaaaaa#aaaaaaa#...........#aaaaaaaaaaaaaaaaaaa#aaaaaaa#........",
"#aaaaaaaaaaaaaaaaaaa#aaaaaaa#...........#aaaaaaaaaaaaaaaaaaa#aaaaaaa#........",
"#aaaaaaaaaaaaaaaaaaa#aaaaaaa#...........#aaaaaaaaaaaaaaaaaaa#aaaaaaa#........",
"#aaaaaaaaaaaaaaaaaaa#########...........#aaaaaaaaaaaaaaaaaaa#########........",
"#aaaaaaaaaaaaa##aaaa#...................#aaaaaaaaaaaaa##aaaa#................",
"#aaaaaaaaaaaa#aa#aaa#...................#aaaaaaaaaaaa#aa#aaa#................",
"#aaaaaaaaaaaaaaa#aaa#...................#aaaaaaaaaaaaaaa#aaa#................",
"#aaaaaaaaaaaaa##aaaa#...................#aaaaaaaaaaaaa##aaaa#................",
"#aaaaaaaaaaaaaaa#aaa#...................#aaaaaaaaaaaaaaa#aaa#................",
"#aaaaaaaaaaaa#aa#aaa#...................#aaaaaaaaaaaa#aa#aaa#................",
"#aaaaaaaaaaaaa##aaaa#...................#aaaaaaaaaaaaa##aaaa#................",
"#aaaaaaaaaaaaaaaaaaa#...................#aaaaaaaaaaaaaaaaaaa#................",
"#aaaaaaaaaaaaaaaaaaa#...................#aaaaaaaaaaaaaaaaaaa#................",
"#aaaaaaaaaaaaaaaaaaa#...................#aaaaaaaaaaaaaaaaaaa#................",
"#aaaaaaaaaaaaaaaaaaa#...................#aaaaaaaaaaaaaaaaaaa#................",
"#####################...................#####################................"};
