/* XPM */
static char *dupl_none[]={
"32 33 5 1",
". c None",
"c c #000000",
"# c #848284",
"a c #dcdcdc",
"b c #ffffff",
"................................",
"................................",
"................................",
"................................",
"................................",
"........#############...........",
"........#abbbbbbbbbba#..........",
"........#abbbbbbbbbbab#.........",
"........#abbbbbbbbbbcccc........",
"........#abbbbbbbbbbbaac........",
"........#abbbbbbbbbbbbac........",
"........#abbbbbbbbbbbbac........",
"........#abbbbbbbbbbbbac........",
"........#abbbbb##bbbbbac........",
"........#abbbbb##bbbbbac........",
"........#abbbb####bbbbac........",
"........#abbbb#b##bbbbac........",
"........#abbb######bbbac........",
"........#abbb#bbb##bbbac........",
"........#abb###b####bbac........",
"........#abbbbbbbbbbbbac........",
"........#abbbbbbbbbbbbac........",
"........#abbbbbbbbbbbbac........",
"........#abbbbbbbbbbbbac........",
"........#abbbbbbbbbbbbac........",
"........#abbbbbbbbbbbbac........",
"........#aaaaaaaaaaaaaac........",
"........cccccccccccccccc........",
"................................",
"................................",
"................................",
"................................",
"................................"};
