/* XPM */
static char *dupl_long[]={
"32 33 5 1",
". c None",
"c c #000000",
"# c #848284",
"a c #dcdcdc",
"b c #ffffff",
"................................",
"................................",
"................................",
"................................",
"................................",
"................................",
"................................",
".....########.....########......",
"...##abbbbbba##.##.bbbbbba#.....",
"..#abbbbbbbbbb#c#bbbbbbbbab#....",
"..#bbbbbbbbbbb.cabbbbbbbbcccc...",
"..#bbbbbbbbbbbacabbbbbbbbbbac...",
"..#bbbbb##bbbbacabbbb##bbbbac...",
"..#bbbbb##bbbbacabbbb##bbbbac...",
"..#bbbb####bbbacabbb####bbbac...",
"..#bbbb#b##bbbacabbb#b##bbbac...",
"..#bbb######bbacabb######bbac...",
"..#bbb#bbb##bbacabb#bbb##bbac...",
"..#bb###b####bacab###b####bac...",
"..#bbbbbbbbbbbacabbbbbbbbbbac...",
"..#bbbbbbbbbbbacabbbbbbbbbbac...",
"..#bbbbbbbbbbbacabbbbbbbbbbac...",
"..#baaaaaaaaabacaaaaaaaaaabac...",
"..#aacccccccc#aca#cccccccc#ac...",
"..#cc........c#c#c........ccc...",
"..c...........ccc...........c...",
"...............c................",
"................................",
"................................",
"................................",
"................................",
"................................",
"................................"};
