/* XPM */
static char *dupl_short[]={
"32 33 5 1",
". c None",
"c c #000000",
"# c #848284",
"a c #dcdcdc",
"b c #ffffff",
"................................",
"..........#########.............",
".........#abbbbbbba#............",
".........#bbbbbbbbab#...........",
"........#abbbbbbbbcccc..........",
"........#bbbbbbbbbbbac..........",
"........#bbbbb##bbbbac..........",
"........#bbbbb##bbbbac..........",
"........#bbbb####bbbac..........",
"........#bbbb#b##bbbac..........",
"........#bbb######bbac..........",
"........#bbb#bbb##bbac..........",
"........#bb###b####bac..........",
"........#abbbbbbbbbbac..........",
".........#bbbbbbbbbbb#c.........",
".........##aaaaaaaaaaa#c........",
"..........ccccccccccccccc.......",
".........##aaaaaaaaaaa#c........",
".........#bbbbbbbbbbb#c.........",
"........#bbbbbbbbbbbac..........",
"........#bbbbbbbbbbbac..........",
"........#bbbbb##bbbbac..........",
"........#bbbbb##bbbbac..........",
"........#bbbb####bbbac..........",
"........#bbbb#b##bbbac..........",
"........#bbb######bbac..........",
"........#bbb#bbb##bbac..........",
"........#bb###b####bac..........",
"........#abbbbbbbbbbac..........",
".........#bbbbbbbbbbb#c.........",
".........#aaaaaaaaaaaac.........",
"..........cccccccccccccc........",
"................................"};
