/* XPM */
static char * helded_xpm[] = {
"19 19 317 2",
"  	c None",
". 	c #FCEFF6",
"+ 	c #FAFBFD",
"@ 	c #F4F8F7",
"# 	c #FFFDFD",
"$ 	c #FFFBFB",
"% 	c #FFEFEE",
"& 	c #FFFAF6",
"* 	c #EBE2D9",
"= 	c #FFFCF5",
"- 	c #FFFEFD",
"; 	c #FDFBFC",
"> 	c #E9E8E6",
", 	c #FFFFFB",
"' 	c #F6F7F1",
") 	c #FCFFF8",
"! 	c #FAFCF9",
"~ 	c #F9FDFE",
"{ 	c #FAFDFF",
"] 	c #FCFFFF",
"^ 	c #FFFDFF",
"/ 	c #FBFFFF",
"( 	c #F8FFFF",
"_ 	c #EAF3EE",
": 	c #FCFFFB",
"< 	c #FFFFFA",
"[ 	c #FFFFF8",
"} 	c #0A1207",
"| 	c #061007",
"1 	c #FBFCFF",
"2 	c #F8F7FD",
"3 	c #FFFEFF",
"4 	c #ECECEC",
"5 	c #FFFFFD",
"6 	c #FEFFFD",
"7 	c #FCFEFD",
"8 	c #FEFFFF",
"9 	c #F8F8FF",
"0 	c #FEFEFF",
"a 	c #F4FDFC",
"b 	c #F3FEFA",
"c 	c #F7FFFF",
"d 	c #F8FFFB",
"e 	c #F0FAF2",
"f 	c #F5FFF6",
"g 	c #000600",
"h 	c #E5F0E8",
"i 	c #050608",
"j 	c #0B0A0F",
"k 	c #000000",
"l 	c #FCFCFA",
"m 	c #FBFCF7",
"n 	c #EDEDEB",
"o 	c #FCFDFF",
"p 	c #F2F8F6",
"q 	c #EBF6EE",
"r 	c #F7FFFB",
"s 	c #031006",
"t 	c #F0F8ED",
"u 	c #FEFFF8",
"v 	c #F5F6F0",
"w 	c #FFFFF7",
"x 	c #F0F0E6",
"y 	c #0B0B00",
"z 	c #070800",
"A 	c #030300",
"B 	c #EBE9EC",
"C 	c #EDF5F7",
"D 	c #FFFFFF",
"E 	c #F6F2F3",
"F 	c #E8F8EE",
"G 	c #000900",
"H 	c #EFEFE7",
"I 	c #FFFEF4",
"J 	c #FFFDEE",
"K 	c #FFFFED",
"L 	c #F4F6E0",
"M 	c #FCFEE8",
"N 	c #FFFFEB",
"O 	c #F5F7E2",
"P 	c #030100",
"Q 	c #010100",
"R 	c #FDFBFF",
"S 	c #F9FFFF",
"T 	c #FFF7FB",
"U 	c #FFFBFF",
"V 	c #F3EFEC",
"W 	c #000400",
"X 	c #F2FCF3",
"Y 	c #FFFBF8",
"Z 	c #FFF6EC",
"` 	c #FFFFE6",
" .	c #F0F1CF",
"..	c #FFFFE1",
"+.	c #EEEECC",
"@.	c #FFFFE4",
"#.	c #FFFEE9",
"$.	c #0C0A00",
"%.	c #FBF7F4",
"&.	c #FEFCFF",
"*.	c #FFF8FC",
"=.	c #FFF7FD",
"-.	c #FFE8EF",
";.	c #FFF4F8",
">.	c #100000",
",.	c #FFF7F0",
"'.	c #FFF0EE",
").	c #FFF7EC",
"!.	c #FFFCDF",
"~.	c #FFFFDB",
"{.	c #F9FCD1",
"].	c #F8FBCE",
"^.	c #FFFFD8",
"/.	c #FBFFD8",
"(.	c #F1F4D5",
"_.	c #010300",
":.	c #FEFEFC",
"<.	c #FFF4F3",
"[.	c #FFF3F6",
"}.	c #FFE1ED",
"|.	c #913945",
"1.	c #863F43",
"2.	c #884846",
"3.	c #8C4B47",
"4.	c #FFF2E4",
"5.	c #FFF2D8",
"6.	c #FFFFDF",
"7.	c #F3F9CB",
"8.	c #FFFFD3",
"9.	c #E9F4BC",
"0.	c #F6FFCE",
"a.	c #F4FFD6",
"b.	c #020D00",
"c.	c #FBFFF8",
"d.	c #FFFEF9",
"e.	c #FFF7F6",
"f.	c #FFD5DA",
"g.	c #B64557",
"h.	c #A62D3E",
"i.	c #8A3938",
"j.	c #7B302A",
"k.	c #882623",
"l.	c #440000",
"m.	c #FFF8E3",
"n.	c #FDF9D6",
"o.	c #F7FCC6",
"p.	c #FFFFCD",
"q.	c #FEFFD1",
"r.	c #A1AE80",
"s.	c #000700",
"t.	c #FBFFF6",
"u.	c #ECF1F4",
"v.	c #FFFFF5",
"w.	c #FFE9EB",
"x.	c #AF4A58",
"y.	c #A7112C",
"z.	c #7F0009",
"A.	c #FFF2E1",
"B.	c #FFCDB8",
"C.	c #900B0E",
"D.	c #991218",
"E.	c #2E0000",
"F.	c #FFF6D8",
"G.	c #F9EBC4",
"H.	c #FFFFCF",
"I.	c #EBEEB9",
"J.	c #010600",
"K.	c #FEFFE8",
"L.	c #FFFFF2",
"M.	c #7B3639",
"N.	c #AA2B3E",
"O.	c #AD001B",
"P.	c #AC1929",
"Q.	c #FFF7DC",
"R.	c #F2C9AB",
"S.	c #AE1118",
"T.	c #AF0512",
"U.	c #72241A",
"V.	c #220400",
"W.	c #FFF4D1",
"X.	c #FFF6CB",
"Y.	c #FFF3C3",
"Z.	c #070500",
"`.	c #FFFFEA",
" +	c #FEFFF7",
".+	c #FAFBFF",
"++	c #FFFFEE",
"@+	c #9A4E50",
"#+	c #A01528",
"$+	c #C60726",
"%+	c #910002",
"&+	c #FFEFD1",
"*+	c #FFF5D4",
"=+	c #B1030C",
"-+	c #B7000A",
";+	c #71140C",
">+	c #220000",
",+	c #FFEACA",
"'+	c #FFEDC7",
")+	c #FFFED3",
"!+	c #FCEDC4",
"~+	c #0A0100",
"{+	c #FBFAFF",
"]+	c #FFFEEC",
"^+	c #884242",
"/+	c #90101D",
"(+	c #C00925",
"_+	c #A90817",
":+	c #FFEFD8",
"<+	c #FFBFA4",
"[+	c #BF141A",
"}+	c #B3010D",
"|+	c #8B3128",
"1+	c #FFF7DA",
"2+	c #FFF9D6",
"3+	c #FFEBC5",
"4+	c #B2A07C",
"5+	c #1A0F00",
"6+	c #FFFCE9",
"7+	c #E9E6DF",
"8+	c #FFFBEE",
"9+	c #83524D",
"0+	c #8E2F35",
"a+	c #AB1427",
"b+	c #9D0512",
"c+	c #79180F",
"d+	c #8B2E1F",
"e+	c #930101",
"f+	c #9A100E",
"g+	c #6A2213",
"h+	c #1D0000",
"i+	c #FFF7D8",
"j+	c #FFF7D4",
"k+	c #150600",
"l+	c #F5F0DD",
"m+	c #ECEDF1",
"n+	c #FFF8F3",
"o+	c #FFF1EC",
"p+	c #854948",
"q+	c #81121B",
"r+	c #93141F",
"s+	c #FFDDDC",
"t+	c #FFE0DA",
"u+	c #84110C",
"v+	c #832116",
"w+	c #260000",
"x+	c #FFFADF",
"y+	c #B8A988",
"z+	c #100700",
"A+	c #F9F3DB",
"B+	c #FFFFF1",
"C+	c #FBFAF5",
"D+	c #FFF6F9",
"E+	c #FFFCF6",
"F+	c #FFF3EF",
"G+	c #844244",
"H+	c #7D2028",
"I+	c #751016",
"J+	c #811F20",
"K+	c #691A13",
"L+	c #2A0000",
"M+	c #150000",
"N+	c #B6AD8E",
"O+	c #B8B393",
"P+	c #060300",
"Q+	c #FCFCE0",
"R+	c #FFFFEC",
"S+	c #F4F6E8",
"T+	c #FEFFFB",
"U+	c #E9EDEE",
"V+	c #FFF5FE",
"W+	c #FEFAF7",
"X+	c #FFFEF8",
"Y+	c #FFF2F1",
"Z+	c #834B4E",
"`+	c #985054",
" @	c #813B3B",
".@	c #270000",
"+@	c #FFF8E4",
"@@	c #FFFFE3",
"#@	c #010500",
"$@	c #000500",
"%@	c #F2F7E0",
"&@	c #FBFFF0",
"*@	c #FCFFF6",
"=@	c #FFF5FF",
"-@	c #FFFAF8",
";@	c #FFF3EC",
">@	c #FFF5EE",
",@	c #FFF6EF",
"'@	c #FFF9EB",
")@	c #FEFEE2",
"!@	c #F9FFE6",
"~@	c #F9FFE8",
"{@	c #F9FFEA",
"]@	c #F5FFE9",
"^@	c #F9FFF1",
"/@	c #F5FDF0",
"(@	c #F6FDF5",
"_@	c #EDF2EC",
":@	c #F7FBFA",
"<@	c #FFF7FF",
"[@	c #ECF0F1",
"}@	c #F5F7F2",
"|@	c #F8FFF8",
"1@	c #F5FBED",
"2@	c #FFFAF3",
"3@	c #FFFBEF",
"4@	c #EEFDE0",
"5@	c #F4FFE8",
"6@	c #F1FDE7",
"7@	c #F9FFF3",
"8@	c #EFFAEC",
"9@	c #FBFFFA",
"0@	c #F5FAF4",
"a@	c #FCFFFD",
"b@	c #F8FAF7",
". + @ # $ % & * = - ; > , ' ) ! ~ { ] ",
"^ / ( _ : < [ } | 1 2 3 4 5 6 7 8 9 0 ",
"1 a b c d e f g h i j k l m , n o 3 9 ",
"/ ] ] p q r s t u v w x y z A [ 5 B 3 ",
"C D E D : F G H I J K L M N O P Q 3 R ",
"S ^ T U V W X Y Z `  .....+.@.#.$.%.&.",
"/ *.=.-.;.>.,.'.).!.~.{.].^./.(._.[ D ",
":.<.[.}.|.1.2.3.4.5.6.7.8.9.0.a.b.c.] ",
"d.e.f.g.h.i.j.k.l.m.n.^.o.p.q.r.s.t.u.",
"v.w.x.y.z.A.B.C.D.E.F.G.8.H.I.J.K.u ] ",
"L.M.N.O.P.Q.R.S.T.U.V.W.X.Y.8.Z.`. +.+",
"++@+#+$+%+&+*+=+-+;+>+,+'+)+!+~+`.[ {+",
"]+^+/+(+_+:+<+[+}+|+>+1+2+3+4+5+6+7+3 ",
"8+9+0+a+b+c+d+e+f+g+h+i+,+j+k+@.l+< m+",
"n+o+p+q+r+s+t+u+v+w+x+i+*+y+z+A+B+C+8 ",
"D+E+F+G+H+I+J+K+L+M+N+6.O+P+Q+R+S+T+U+",
"V+W+X+Y+Z+`+ @.@+@@@#@g $@K.%@&@*@: ] ",
"=@U l -@& ;@>@,@'@)@!@~@{@]@^@/@(@_@:@",
"<@3 [@5 }@|@1@2@3@`.4@5@6@7@8@9@0@a@b@"};
