/* XPM */
static char *pagesheet_2[]={
"32 32 5 1",
". c None",
"b c #c3c3c3",
"c c #000000",
"# c #848284",
"a c #ffffff",
"................................",
"................................",
"................................",
"................................",
".#############################..",
".#aaaaaaaaaaaaaaaaaaaaaaaaaabc..",
".#aaaaaaaaaaaaaaaaaaaaaaaaaabc..",
".#aaaaaaaaaaaaaaaaaaaaaaaaaabc..",
".#a###########aa###########abc..",
".#aaaaaaaaaaaaaaaaaaaaaaaaaabc..",
".#a###########aa###########abc..",
".#aaaaaaaaaaaaaaaaaaaaaaaaaabc..",
".#a###########aa###########abc..",
".#aaaaaaaaaaaaaaaaaaaaaaaaaabc..",
".#a###########aa###########abc..",
".#aaaaaaaaaaaaaaaaaaaaaaaaaabc..",
".#a###########aa###########abc..",
".#aaaaaaaaaaaaaaaaaaaaaaaaaabc..",
".#a###########aa###########abc..",
".#aaaaaaaaaaaaaaaaaaaaaaaaaabc..",
".#a###########aa###########abc..",
".#aaaaaaaaaaaaaaaaaaaaaaaaaabc..",
".#a###########aa###########abc..",
".#aaaaaaaaaaaaaaaaaaaaaaaaaabc..",
".#aaaaaaaaaaaaaaaaaaaaaaaaaabc..",
".#bbbbbbbbbbbbbbbbbbbbbbbbbbbc..",
".ccccccccccccccccccccccccccccc..",
"................................",
"................................",
"................................",
"................................",
"................................"};
