/* XPM */
static char * pending_xpm[] = {
"19 18 209 2",
"  	c None",
". 	c #FFFFFF",
"+ 	c #FFFFFB",
"@ 	c #FBFFF8",
"# 	c #EBF2EA",
"$ 	c #FCFFFA",
"% 	c #FCFFF8",
"& 	c #F7FDF3",
"* 	c #FCFFFD",
"= 	c #01010B",
"- 	c #F1EFFC",
"; 	c #030004",
"> 	c #040000",
", 	c #070206",
"' 	c #FFFDFF",
") 	c #EAE5E9",
"! 	c #FFFEFF",
"~ 	c #F4F3F1",
"{ 	c #FFFFFD",
"] 	c #FDFDFB",
"^ 	c #FBFAF6",
"/ 	c #0B0A06",
"( 	c #F5F1F2",
"_ 	c #FFFCFB",
": 	c #FFFEFA",
"< 	c #F8F4EB",
"[ 	c #FFFFF4",
"} 	c #030100",
"| 	c #0E0C00",
"1 	c #F6F7E9",
"2 	c #FAFAF2",
"3 	c #F5F5F3",
"4 	c #F6F2F1",
"5 	c #FFFEFB",
"6 	c #F0EDE8",
"7 	c #030000",
"8 	c #FFFEF8",
"9 	c #FFFDF4",
"0 	c #F9F5E9",
"a 	c #FFFEEF",
"b 	c #FDFCE8",
"c 	c #F3F3DB",
"d 	c #F5F5DB",
"e 	c #FDFDE3",
"f 	c #161802",
"g 	c #010200",
"h 	c #FFFFF6",
"i 	c #F9F9F9",
"j 	c #EEECED",
"k 	c #F9F5F2",
"l 	c #FFFFFA",
"m 	c #050200",
"n 	c #FEFBF2",
"o 	c #FFFFF3",
"p 	c #FFFFEF",
"q 	c #FFFFEC",
"r 	c #FFFFE6",
"s 	c #FFFFE4",
"t 	c #DCDFC4",
"u 	c #101200",
"v 	c #E7E6E1",
"w 	c #FEFDF9",
"x 	c #F4F2E3",
"y 	c #FEFBE8",
"z 	c #FFFFE8",
"A 	c #F2F1D3",
"B 	c #FAFBDB",
"C 	c #EFF0CE",
"D 	c #FEFFDB",
"E 	c #F1F2D0",
"F 	c #010300",
"G 	c #FEFDF8",
"H 	c #9D9D9D",
"I 	c #FBFAF8",
"J 	c #F2F1EC",
"K 	c #060400",
"L 	c #F8F7E3",
"M 	c #FFFFEA",
"N 	c #FEFCE3",
"O 	c #F9F9D7",
"P 	c #FFFFDD",
"Q 	c #FFFFDC",
"R 	c #FFFFDA",
"S 	c #F5F8CD",
"T 	c #F4F6CF",
"U 	c #FFFFE3",
"V 	c #020400",
"W 	c #EDEEE0",
"X 	c #DCDCDC",
"Y 	c #FCFBE9",
"Z 	c #030300",
"` 	c #F8F9D9",
" .	c #FFFFDE",
"..	c #EEEFC7",
"+.	c #FFFFD8",
"@.	c #F3F7C5",
"#.	c #FBFFCD",
"$.	c #FDFFD1",
"%.	c #FFFFD7",
"&.	c #A7AB88",
"*.	c #050800",
"=.	c #FFFFF1",
"-.	c #F9F9ED",
";.	c #FBFCEA",
">.	c #040400",
",.	c #EEF0C9",
"'.	c #FFFFD9",
").	c #FBFDCE",
"!.	c #FFFFD3",
"~.	c #F9FBC9",
"{.	c #FFFFD1",
"].	c #FDFFCC",
"^.	c #010500",
"/.	c #F8FBE0",
"(.	c #FBFCEC",
"_.	c #FFFFE1",
":.	c #F5F7CF",
"<.	c #FFFFD6",
"[.	c #F8FCC9",
"}.	c #FFFFCF",
"|.	c #F6F9C0",
"1.	c #FFFFCD",
"2.	c #FBFFC6",
"3.	c #F3F8C0",
"4.	c #F7FCC6",
"5.	c #F6F9CA",
"6.	c #F6F5F0",
"7.	c #FEFEFF",
"8.	c #F8FBDC",
"9.	c #F8FAD5",
"0.	c #F3F6C9",
"a.	c #FFFFD0",
"b.	c #EFF3B8",
"c.	c #FFFFCC",
"d.	c #FFFFCE",
"e.	c #F9FEC6",
"f.	c #FFFFD2",
"g.	c #EDF0C3",
"h.	c #161A00",
"i.	c #F9FBE3",
"j.	c #BEC1A2",
"k.	c #F4F6D1",
"l.	c #FEFFD4",
"m.	c #F5F8BF",
"n.	c #DFE2AD",
"o.	c #F5F9C7",
"p.	c #B5B88D",
"q.	c #FCFEE8",
"r.	c #F5F5EB",
"s.	c #010400",
"t.	c #060700",
"u.	c #A6A881",
"v.	c #F7F9C7",
"w.	c #FBFDCB",
"x.	c #F8FAC9",
"y.	c #FFFFD4",
"z.	c #F1F4C5",
"A.	c #F7FACF",
"B.	c #030500",
"C.	c #FCFFE4",
"D.	c #FCFBFF",
"E.	c #FDFEEE",
"F.	c #FFFFED",
"G.	c #050600",
"H.	c #030400",
"I.	c #B4B58D",
"J.	c #F3F4CC",
"K.	c #D5D7AF",
"L.	c #B6B893",
"M.	c #F8F7F5",
"N.	c #F8F6FB",
"O.	c #FBFAFF",
"P.	c #F5F5ED",
"Q.	c #FAFAF0",
"R.	c #040300",
"S.	c #B9B899",
"T.	c #939474",
"U.	c #0C0C00",
"V.	c #FEFEE6",
"W.	c #F4F5E5",
"X.	c #FFFFF8",
"Y.	c #FCFAFB",
"Z.	c #FAF6F5",
"`.	c #FFFDFA",
" +	c #F8F5F0",
".+	c #F7F3EA",
"++	c #FFFFF0",
"@+	c #040200",
"#+	c #FEFCFF",
"$+	c #FEFBFF",
"%+	c #EFEDFA",
"&+	c #F6F3FE",
"*+	c #FFFCFF",
"=+	c #F8F3FA",
"-+	c #EEE8EC",
";+	c #FCFAE5",
">+	c #F3F2E0",
",+	c #FCFAED",
"'+	c #FEFEF6",
")+	c #F4F2F3",
"!+	c #FCF9FF",
"~+	c #FDFAFF",
"{+	c #FBF5FF",
"]+	c #FFFAFF",
"^+	c #EEE9ED",
"/+	c #FFFDF6",
"(+	c #FEFCEF",
"_+	c #F2F3E5",
":+	c #FCFAFF",
". . . . . . . . . . . . . . . . . . + ",
"@ # $ % & * = - ; > , ' ) ' ! ~ + + + ",
"{ ] + ^ + / ( _ : < [ } | } 1 [ 2 + 3 ",
"! ! 4 5 6 7 8 9 0 a b c d e f g h + i ",
"j { k l m n [ o p q r r s s t u [ v . ",
"! w l h } x p y z A B C D E r F [ G H ",
"I J [ K L M N s O P Q R S T U V W l X ",
"l [ Y Z r `  ...R +.@.#.$.%.&.*.=.l . ",
"-.;.>.U ,.'.).!.~.{.{.].!.+.^./.(.l i ",
"p F _.:.<.[.}.|.1.}.2.3.4.5.^.z o 6.7.",
"F 8.9.0.a.1.b.c.1.d.2.e.f.g.h.i.o + 7.",
"V j.k.l.[.3.c.m.c.n.{.{.o.p.^.q.r.{ ! ",
"q s.t.u.+.{.v.w.x.<.y.z.A.B.C.p l ' D.",
"E.F.M G.H.B.I.R Q J.K.Q L.H.q.[ M.N.O.",
"P.Q.[ =.F.q K R.R.S._.T.U.V.W.X.! ' ' ",
"! Y.Z.`. +X..+++q @+Z >.q p [ + #+$+%+",
"&+' *+=+' ' -+5 o ;+q q >+,+'+)+!+*+' ",
"*+' ' ~+{+]+' ^+/+o (+_+[ X.w ! *+*+:+"};
