/* XPM */
static char *printer_remote[]={
"16 16 17 1",
"b c #808080",
"k c #e1e1e1",
". c None",
"l c #a0a0a0",
"a c #c3c3c3",
"j c #e6e6e6",
"m c #00ff00",
"f c #808000",
"i c #e3e3e3",
"# c #000000",
"g c #c0ffc0",
"h c #ffff00",
"o c #eaeaea",
"n c #f2f2f2",
"d c #585858",
"c c #dcdcdc",
"e c #ffffff",
".......##.......",
"......#aa##.....",
".....#bcdaa##...",
"....#bec#dbfa#..",
"...#bec#dbghc#..",
"..#ijklllcmcd#..",
"..#aaannlccdd#..",
"..#cllaanoddd#..",
"..##cclladdd#...",
"....##cladd#....",
".....###ad#.....",
".....l#.##......",
".....l#.........",
"llllfff#llllllll",
"####hef#########",
"....####........"};
