/* XPM */
static char *rev_portrait[]={
"32 32 5 1",
". c None",
"b c #000000",
"# c #848284",
"c c #c6c3c6",
"a c #ffffff",
"................................",
"...##################...........",
"...#aaaaaaaaaaaaaaaa#b..........",
"...#aaaaaaaaaaaaaaaa##b.........",
"...#aaaaaaaaaaaaaaaa#c#b........",
"...#aaaaaaaaaaaaaaaa#ac#b.......",
"...#aaaaaaaaaaaaaaaa#aac#b......",
"...#aaaaaaaaaaaaaaaa#bbbbbb.....",
"...#aaaaaaaaaaaaaaaaaaaaacb.....",
"...#aaaaaaaaaaaaaaaaaaaaacb.....",
"...#aaaaaaaaaaaaaaaaaaaaacb.....",
"...#aaaa######aaaa####aaacb.....",
"...#aaaaac##caaaaaa#caaaacb.....",
"...#aaaaaa###aaaaac#aaaaacb.....",
"...#aaaaaac##caaaa#caaaaacb.....",
"...#aaaaaaa########aaaaaacb.....",
"...#aaaaaaac##caac#aaaaaacb.....",
"...#aaaaaaaa###aa#caaaaaacb.....",
"...#aaaaaaaac##ac#aaaaaaacb.....",
"...#aaaaaaaaa####caaaaaaacb.....",
"...#aaaaaaaaac###aaaaaaaacb.....",
"...#aaaaaaaaaa##caaaaaaaacb.....",
"...#aaaaaaaaaac#aaaaaaaaacb.....",
"...#aaaaaaaaaaaaaaaaaaaaacb.....",
"...#aaaaaaaaaaaaaaaaaaaaacb.....",
"...#aaaaaaaaaaaaaaaaaaaaacb.....",
"...#aaaaaaaaaaaaaaaaaaaaacb.....",
"...#aaaaaaaaaaaaaaaaaaaaacb.....",
"...#ccccccccccccccccccccccb.....",
"...bbbbbbbbbbbbbbbbbbbbbbbb.....",
"................................",
"................................"};
