/* XPM */
static char *uncollate[] = {
"93 37 3 1",
". c None",
"# c #ffffff",
"a c #000000",
"........aaaaaaaaaaaaaaaaaaaaa...........aaaaaaaaaaaaaaaaaaaaa...........aaaaaaaaaaaaaaaaaaaaa",
"........a###################a...........a###################a...........a###################a",
"........a###################a...........a###################a...........a###################a",
"........a###################a...........a###################a...........a###################a",
"........a###################a...........a###################a...........a###################a",
"........a###################a...........a###################a...........a###################a",
"........a###################a...........a###################a...........a###################a",
"........a###################a...........a###################a...........a###################a",
"........a###################a...........a###################a...........a###################a",
"........a###################a...........a###################a...........a###################a",
"........a###################a...........a###################a...........a###################a",
"........a###################a...........a###################a...........a###################a",
"aaaaaaaaaaaaaaaaaaaaa#######a...aaaaaaaaaaaaaaaaaaaaa#######a...aaaaaaaaaaaaaaaaaaaaa#######a",
"a###################a##a####a...a###################a#aa####a...a###################a#aa####a",
"a###################aaaa####a...a###################aa##a###a...a###################aa##a###a",
"a###################a##a####a...a###################a###a###a...a###################a###a###a",
"a###################a##a####a...a###################a##a####a...a###################a#aa####a",
"a###################a##a####a...a###################a#a#####a...a###################a###a###a",
"a###################a##a####a...a###################aa######a...a###################aa##a###a",
"a###################aaaaa###a...a###################aaaaa###a...a###################a#aa####a",
"a###################a#######a...a###################a#######a...a###################a#######a",
"a###################a#######a...a###################a#######a...a###################a#######a",
"a###################a#######a...a###################a#######a...a###################a#######a",
"a###################a#######a...a###################a#######a...a###################a#######a",
"a###################aaaaaaaaa...a###################aaaaaaaaa...a###################aaaaaaaaa",
"a##############a####a...........a#############aa####a...........a#############aa####a........",
"a############aaa####a...........a############a##a###a...........a############a##a###a........",
"a##############a####a...........a###############a###a...........a###############a###a........",
"a##############a####a...........a##############a####a...........a#############aa####a........",
"a##############a####a...........a#############a#####a...........a###############a###a........",
"a##############a####a...........a############a######a...........a############a##a###a........",
"a############aaaa###a...........a############aaaa###a...........a#############aa####a........",
"a###################a...........a###################a...........a###################a........",
"a###################a...........a###################a...........a###################a........",
"a###################a...........a###################a...........a###################a........",
"a###################a...........a###################a...........a###################a........",
"aaaaaaaaaaaaaaaaaaaaa...........aaaaaaaaaaaaaaaaaaaaa...........aaaaaaaaaaaaaaaaaaaaa........"};
