/* XPM */ 
static char * tsqlitedataset_xpm[] = {
"23 23 84 1",
" 	c None",
"!	c black",
"#	c #FF0000",
"$	c #888689",
"%	c #817F82",
"&	c #807E81",
"'	c #828083",
"(	c #878588",
")	c #8A888B",
"*	c #848287",
"+	c #838182",
",	c #8B8883",
"-	c #86837E",
".	c #858386",
"0	c #C5C3C6",
"1	c #BCBABD",
"2	c #C0BEC1",
"3	c #C1BFC2",
"4	c #C0BFBD",
"5	c #7E7C81",
"6	c #7D7B7E",
"7	c #817F80",
"8	c #888687",
"9	c #878586",
":	c #8C8A8B",
";	c #8A8889",
"<	c #88868B",
"=	c #868487",
">	c #FFFEFF",
"?	c #F3F1F2",
"@	c #D7D5D6",
"A	c #FCFAFB",
"B	c #FEFCFD",
"C	c #FFFDFE",
"D	c #FEFCFF",
"E	c #807F85",
"F	c #848285",
"G	c #D1CFD0",
"H	c #BAB8B9",
"I	c #C8C6C7",
"J	c #D0CFCD",
"K	c #C2C1BF",
"L	c #C3C2C0",
"M	c #C6C4C5",
"N	c #C5C5C7",
"O	c #FBFAFF",
"P	c #89888E",
"Q	c #FDFBFC",
"R	c #BFBDBE",
"S	c #FDFCFA",
"T	c #FFFFFD",
"U	c #FCFCFE",
"V	c #87888D",
"W	c #838184",
"X	c #CECCCD",
"Y	c #C1BFC0",
"Z	c #C4C2C3",
"[	c #C5C3C4",
"]	c white",
"^	c #7C7D81",
"_	c #F4F2F3",
"`	c #FFFDFF",
"a	c #F4F4F4",
"b	c #88888A",
"c	c #D4D2D5",
"d	c #BEBCBF",
"e	c #F8F6F9",
"f	c #C6C4C9",
"g	c #BCBABF",
"h	c #C9C7CA",
"i	c #7C7C7E",
"j	c #8B898C",
"k	c #BEBCC1",
"l	c #FFFCFF",
"m	c #838186",
"n	c #8B898E",
"o	c #89868D",
"p	c #807D84",
"q	c #838089",
"r	c #7D7A83",
"s	c #807D86",
"t	c #8A858B",
"u	c #807E83",
"v	c #7F7C83",
"        ###   ###  #   ",
"       #   # #   # #   ",
"       #     #   # #   ",
"        ###  #   # #   ",
"###        # # # # #   ",
"##     #   # #  ## #   ",
"# #     ###   #### ####",
"   #              #    ",
"    $%&$%$'()(*+,-* #  ",
"    .####01233###45 #  ",
"    6#788#9:;#7+$#< #  ",
"    =#>>?@#AB#C>D>E #  ",
" #  F#GH>I#JK#LMNOP    ",
"#   .#Q>QR#SST###UV####",
"####W#XY>R#ZZ[MZ]#^ #  ",
"#   W#_>>Z#>>>`>a#b #  ",
" #  =#cde#>df#ghh#i #  ",
"    j####k>`l`###>'    ",
"    &$mn*opqqrsqtuv####",
"   #               #   ",
"# #                ### ",
"##                 #   ",
"###                ####"};