/* XPM */
static char * tsqlite3dataset_xpm[] = {
"23 23 79 1",
" 	c None",
".	c #0839FF",
"+	c #888689",
"@	c #817F82",
"#	c #807E81",
"$	c #828083",
"%	c #878588",
"&	c #8A888B",
"*	c #848287",
"=	c #838182",
"-	c #8B8883",
";	c #86837E",
">	c #858386",
",	c #C5C3C6",
"'	c #BCBABD",
")	c #C0BEC1",
"!	c #C1BFC2",
"~	c #C0BFBD",
"{	c #7E7C81",
"]	c #7D7B7E",
"^	c #817F80",
"/	c #888687",
"(	c #878586",
"_	c #8C8A8B",
":	c #88868B",
"<	c #868487",
"[	c #FFFEFF",
"}	c #F3F1F2",
"|	c #D7D5D6",
"1	c #FFFFFD",
"2	c #FCFAFB",
"3	c #FEFCFD",
"4	c #FFFDFE",
"5	c #FEFCFF",
"6	c #807F85",
"7	c #848285",
"8	c #D1CFD0",
"9	c #BAB8B9",
"0	c #C8C6C7",
"a	c #D0CFCD",
"b	c #C2C1BF",
"c	c #C3C2C0",
"d	c #C6C4C5",
"e	c #C5C5C7",
"f	c #89888E",
"g	c #FDFBFC",
"h	c #BFBDBE",
"i	c #FDFCFA",
"j	c #FCFCFE",
"k	c #87888D",
"l	c #838184",
"m	c #CECCCD",
"n	c #C1BFC0",
"o	c #BCBABF",
"p	c #C4C2C3",
"q	c #C5C3C4",
"r	c #FFFFFF",
"s	c #7C7D81",
"t	c #F4F2F3",
"u	c #FFFDFF",
"v	c #F4F4F4",
"w	c #88888A",
"x	c #D4D2D5",
"y	c #BEBCBF",
"z	c #F8F6F9",
"A	c #7C7C7E",
"B	c #8B898C",
"C	c #BEBCC1",
"D	c #FFFCFF",
"E	c #838186",
"F	c #8B898E",
"G	c #89868D",
"H	c #807D84",
"I	c #838089",
"J	c #7D7A83",
"K	c #807D86",
"L	c #8A858B",
"M	c #807E83",
"N	c #7F7C83",
"        ...   ...  .   ",
"       .   . .   . .   ",
"       .     .   . .   ",
"        ...  .   . .   ",
"...        . . . . .   ",
"..     .   . .  .. .   ",
". .     ...   .... ....",
"   .              .    ",
"    +@#+@+$%&%*=-;* .  ",
"    >,,,,,')!....~{ .  ",
"    ]^^//((_.=^=+.: .  ",
"    <[[[}|12314[5.6 .  ",
" .. 7[89[01abccde.f    ",
".   >[g[gh1ii1...jk....",
"....l[mn[h1opqdpr.s .  ",
".   l[t[[p1[[[u[v.w .  ",
" .  <[xyzc[a.oooo.A .  ",
"    B[[[[C[uD....[$    ",
"    #+EF*GHIIJKILMN....",
"   .               .   ",
". .                ... ",
"..                 .   ",
"...                ...."};
