/* XPM */
static char * anchortopbottom_xpm[] = {
"26 26 42 1",
" 	c None",
".	c #F4F4F4",
"+	c #C8C8C8",
"@	c #BEBEBE",
"#	c #C6C6C6",
"$	c #B8B8B8",
"%	c #C1C1C1",
"&	c #BFBFBF",
"*	c #808080",
"=	c #000000",
"-	c #FFFFFF",
";	c #BCBCBC",
">	c #C0C0C0",
",	c #BDBDBD",
"'	c #F8F8F8",
")	c #C5C5C5",
"!	c #BBBBBB",
"~	c #B7B7B7",
"{	c #B6B6B6",
"]	c #CFCFCF",
"^	c #BABABA",
"/	c #FEFEFE",
"(	c #7C7C7C",
"_	c #8B8B8B",
":	c #767676",
"<	c #828282",
"[	c #878787",
"}	c #7A7A7A",
"|	c #7F7F7F",
"1	c #888888",
"2	c #7D7D7D",
"3	c #898989",
"4	c #020202",
"5	c #050505",
"6	c #010101",
"7	c #EFEFEF",
"8	c #F0F0F0",
"9	c #FCFCFC",
"0	c #030303",
"a	c #C7C7C7",
"b	c #C4C4C4",
"c	c #B9B9B9",
"   .+@#$+@#$+@#+@#$%&*=   ",
"   -;%>,;%>,;%>;%>,%&*=   ",
"   '&)!%&)!%&)!&)!%%&*=   ",
"   '&)!%&)!%&)!&)!%%&*=   ",
"   -;%>,;%>,;%>;%>,%&*=   ",
"   .+@#$+@#$+@#+@#$%&*=   ",
"   -%;,)%;,)%;,%;,)%&*=   ",
"   -%;,)%&;+~~>#{]^%&*=   ",
"   /(_:<[}|||||||||123=   ",
"   =4=5=6===========4=    ",
"                          ",
"                          ",
"                          ",
"                          ",
"                          ",
"                          ",
"   '-7--8-----------9-0   ",
"   -%;,)%&%&ab%%&&%%&*=   ",
"   .+@#$ab%%,c%%&b%%&*=   ",
"   -;%>,,c%%b>%%&c%%&*=   ",
"   '&)!%b>%%)@%%&>%%&*=   ",
"   '&)!%)@%%,>%%&@%%&*=   ",
"   -;%>,,>%%cb%%&>%%&*=   ",
"   .+@#$cb%%]^%%&b%%&*=   ",
"   -%;,)]^%%&>#{]^%%&*=   ",
"   -%;,)%&;+~>#{]^%%&*=   "};
