/* XPM */
static char * anchorrightright_xpm[] = {
"26 26 27 1",
" 	c None",
".	c #FFFFFF",
"+	c #FCFCFC",
"@	c #030303",
"#	c #BEBEBE",
"$	c #BBBBBB",
"%	c #CCCCCC",
"&	c #BFBFBF",
"*	c #BABABA",
"=	c #C1C1C1",
"-	c #808080",
";	c #000000",
">	c #C5C5C5",
",	c #BDBDBD",
"'	c #C0C0C0",
")	c #C7C7C7",
"!	c #C4C4C4",
"~	c #B9B9B9",
"{	c #B7B7B7",
"]	c #C6C6C6",
"^	c #B6B6B6",
"/	c #CFCFCF",
"(	c #7F7F7F",
"_	c #888888",
":	c #7D7D7D",
"<	c #898989",
"[	c #020202",
"                          ",
".......+.@                ",
"#$%&*&=&-;                ",
">##=*&=&-;                ",
",''=)!=&-;                ",
"~!!=,~=&-;                ",
"*&&=!'=&-;                ",
"!''=~!=&-;                ",
"!''=,'=&-;                ",
">##=~!=&-;                ",
"{']^/*=&-;                ",
"((((((_:<;                ",
";;;;;;;[;;                ",
"                          ",
".......+.@                ",
"#$%&*&=&-;                ",
">##=*&=&-;                ",
",''=)!=&-;                ",
"~!!=,~=&-;                ",
"*&&=!'=&-;                ",
"!''=~!=&-;                ",
"!''=,'=&-;                ",
">##=~!=&-;                ",
"{']^/*=&-;                ",
"((((((_:<;                ",
";;;;;;;[;;                "};
