/* XPM */
static char * anchorbottombottom_xpm[] = {
"26 26 35 1",
" 	c None",
".	c #FFFFFF",
"+	c #C1C1C1",
"@	c #BCBCBC",
"#	c #BDBDBD",
"$	c #CCCCCC",
"%	c #BFBFBF",
"&	c #BABABA",
"*	c #808080",
"=	c #000000",
"-	c #F4F4F4",
";	c #C8C8C8",
">	c #BEBEBE",
",	c #C6C6C6",
"'	c #C0C0C0",
")	c #C7C7C7",
"!	c #C4C4C4",
"~	c #F8F8F8",
"{	c #C5C5C5",
"]	c #BBBBBB",
"^	c #B9B9B9",
"/	c #FEFEFE",
"(	c #7C7C7C",
"_	c #8B8B8B",
":	c #767676",
"<	c #828282",
"[	c #878787",
"}	c #7A7A7A",
"|	c #7F7F7F",
"1	c #888888",
"2	c #7D7D7D",
"3	c #898989",
"4	c #020202",
"5	c #050505",
"6	c #010101",
" .+@#$%&%+%*= .+@#$%&%+%*=",
" -;>,>+&%+%*= -;>,>+&%+%*=",
" .@+''+)!+%*= .@+''+)!+%*=",
" .@+''+)!+%*= .@+''+)!+%*=",
" ~%{]!+#^+%*= ~%{]!+#^+%*=",
" ~%{]%+!'+%*= ~%{]%+!'+%*=",
" .@+''+^!+%*= .@+''+^!+%*=",
" -;>,!+#^+%*= -;>,!+#^+%*=",
" ~%{]!+#^+%*= ~%{]!+#^+%*=",
" ~%{]%+!'+%*= ~%{]%+!'+%*=",
" .+@#{+%@+%*= .+@#{+%@+%*=",
" /(_:<[}|123= /(_:<[}|123=",
" =4=5=6===4=  =4=5=6===4= ",
"                          ",
"                          ",
"                          ",
"                          ",
"                          ",
"                          ",
"                          ",
"                          ",
"                          ",
"                          ",
"                          ",
"                          ",
"                          "};
