/* XPM */
static char * ActiveBreakPoint_xpm[] = {
"11 11 5 1",
" 	c None",
".	c #000000",
"+	c #FF0000",
"@	c #00FF00",
"#	c #008000",
"   .....   ",
"  .+++++.  ",
" .+++++@#. ",
".++++++@#+.",
".+++++@#++.",
".+++++@#++.",
".+@++@#+++.",
".++@+@#+++.",
" .++@#+++. ",
"  .+++++.  ",
"   .....   "};
