/* XPM */
static char * bookmark7_xpm[] = {
"11 11 11 1",
" 	c None",
".	c #000000",
"+	c #336041",
"@	c #8DA695",
"#	c #BBCABF",
"$	c #5F826A",
"%	c #D1DBD4",
"&	c #FFFFFF",
"*	c #E7ECE9",
"=	c #A3B7AA",
"-	c #779580",
"   .....   ",
"  .+++++.  ",
" .+@####$. ",
".++@##%&$+.",
".+++++*@++.",
".++++=*+++.",
".++++&@+++.",
".+++-&++++.",
" .++#%+++. ",
"  .+$$++.  ",
"   .....   "};
