/* XPM */
static char * bookmark2_xpm[] = {
"11 11 12 1",
" 	c None",
".	c #000000",
"+	c #336041",
"@	c #8DA695",
"#	c #BBCABF",
"$	c #A3B7AA",
"%	c #497155",
"&	c #FFFFFF",
"*	c #E7ECE9",
"=	c #779580",
"-	c #D1DBD4",
";	c #5F826A",
"   .....   ",
"  .+++++.  ",
" .++@#$%+. ",
".++@&#**++.",
".++@@+=&++.",
".+++++--++.",
".+++%*-%++.",
".++%*#++++.",
" .+#&&&&+. ",
"  .;====.  ",
"   .....   "};
