/* XPM */
static char * UnknownBreakPoint_xpm[] = {
"11 11 5 1",
" 	c None",
".	c #000000",
"+	c #FF0000",
"@	c #FFFF00",
"#	c #FF8000",
"   .....   ",
"  .+++++.  ",
" .++@@@#+. ",
".++@+++@#+.",
".++++++@#+.",
".+++++@#++.",
".++++@#+++.",
".+++++++++.",
" .+++@#++. ",
"  .+++++.  ",
"   .....   "};
