/* XPM */
static char * implementation_unit_22x22_xpm[] = {
"22 22 45 1",
" 	c None",
".	c #024266",
"+	c #AEDDE9",
"@	c #A6D6E3",
"#	c #A0D2E0",
"$	c #9BD0E0",
"%	c #96CFDF",
"&	c #ABDAE6",
"*	c #80BED2",
"=	c #A8D8E5",
"-	c #79B8CD",
";	c #A2D4E2",
">	c #72B1C8",
",	c #73B2C9",
"'	c #99CCDC",
")	c #6BAAC3",
"!	c #6CABC4",
"~	c #A9DAE7",
"{	c #9ACDDC",
"]	c #89C0D2",
"^	c #65A5C0",
"/	c #6FADC5",
"(	c #91C6D7",
"_	c #98CADB",
":	c #86BAD0",
"<	c #67A1BC",
"[	c #A2D3E2",
"}	c #5F9FBB",
"|	c #5898B7",
"1	c #89BCD0",
"2	c #5192B2",
"3	c #619BB9",
"4	c #4B8CAE",
"5	c #4788AA",
"6	c #4C8CAD",
"7	c #4F8EAE",
"8	c #4485A9",
"9	c #4D8DAE",
"0	c #3D7FA5",
"a	c #4686AA",
"b	c #3679A0",
"c	c #397CA3",
"d	c #30729C",
"e	c #2F729C",
"f	c #296C97",
"                      ",
"                      ",
"        .....         ",
"       .+@#$%.        ",
"       .&****.        ",
"       .=----.        ",
"       .;>,,,.        ",
"   .....')!!!.....    ",
"  .~~~~{]^^^^/(_:<.   ",
"  .[}}}}}}}}}}}}}}.   ",
"  ._||||||||||||||.   ",
"  .122222222222222.   ",
"  .344456444444444.   ",
"   .....78888.....    ",
"       .90000.        ",
"       .abbbb.        ",
"       .cdddd.        ",
"       .effff.        ",
"        .....         ",
"                      ",
"                      ",
"                      "};
