/* XPM */
static char * srctype_package_22x22_xpm[] = {
"22 22 232 2",
"  	c None",
". 	c #8F7F6E",
"+ 	c #8B7C6B",
"@ 	c #887969",
"# 	c #857666",
"$ 	c #817364",
"% 	c #7E7062",
"& 	c #7B6D5F",
"* 	c #776B5D",
"= 	c #74685A",
"- 	c #8A7B6A",
"; 	c #FFFFFF",
"> 	c #73675A",
", 	c #898989",
"' 	c #6A6054",
") 	c #867767",
"! 	c #6F6357",
"~ 	c #C9C9C9",
"{ 	c #827464",
"] 	c #828282",
"^ 	c #C6C6C6",
"/ 	c #5D544A",
"( 	c #7E7061",
"_ 	c #665C51",
": 	c #63594E",
"< 	c #60564C",
"[ 	c #5C5449",
"} 	c #595147",
"| 	c #494214",
"1 	c #796C5E",
"2 	c #5C5B5B",
"3 	c #FEFCFB",
"4 	c #A4A4A4",
"5 	c #747474",
"6 	c #554D44",
"7 	c #FEF9D9",
"8 	c #FEF9D4",
"9 	c #75695B",
"0 	c #CC0606",
"a 	c #FDFBF9",
"b 	c #FCF7F3",
"c 	c #FAF4EE",
"d 	c #F0EAE6",
"e 	c #C1BAB3",
"f 	c #504941",
"g 	c #FEFBE4",
"h 	c #FEFADF",
"i 	c #FEF9DA",
"j 	c #FEF9D5",
"k 	c #FEF8CF",
"l 	c #716558",
"m 	c #5A5552",
"n 	c #7E7873",
"o 	c #9F958D",
"p 	c #7D746E",
"q 	c #D8D0C8",
"r 	c #4C463E",
"s 	c #FEFCEF",
"t 	c #FEFBEA",
"u 	c #FEFBE5",
"v 	c #FEFAE0",
"w 	c #FBF5F0",
"x 	c #F9F1EA",
"y 	c #F8EEE5",
"z 	c #F7EADF",
"A 	c #F5E7DA",
"B 	c #D6CABF",
"C 	c #48423B",
"D 	c #FEFDFB",
"E 	c #FEFDF5",
"F 	c #FEFCF0",
"G 	c #FEFBEB",
"H 	c #FEFBE6",
"I 	c #FEFADC",
"J 	c #FEF9D6",
"K 	c #FEF8D1",
"L 	c #685E52",
"M 	c #807C79",
"N 	c #5A5653",
"O 	c #C0B5AC",
"P 	c #998778",
"Q 	c #7B6F65",
"R 	c #7A6D62",
"S 	c #D3C3B4",
"T 	c #443F38",
"U 	c #F8EEC3",
"V 	c #F7EBC0",
"W 	c #FEFCF1",
"X 	c #FEFCEC",
"Y 	c #FEFAE2",
"Z 	c #FEF9D7",
"` 	c #FEF8D2",
" .	c #645A4F",
"..	c #FAF2EC",
"+.	c #F9EFE7",
"@.	c #F7EBE1",
"#.	c #F6E8DC",
"$.	c #F4E4D6",
"%.	c #F3E0D0",
"&.	c #F2DDCB",
"*.	c #D1BCAA",
"=.	c #3F3B35",
"-.	c #F6EABD",
";.	c #F4E8B9",
">.	c #F2E6B5",
",.	c #F0E4B1",
"'.	c #FEFADD",
").	c #FEF9D8",
"!.	c #FEF8D3",
"~.	c #60574C",
"{.	c #7F7A76",
"].	c #595551",
"^.	c #7B6F64",
"/.	c #564C45",
"(.	c #786A5C",
"_.	c #CEB6A0",
":.	c #3B3732",
"<.	c #F3E7B7",
"[.	c #F1E4B3",
"}.	c #EFE2AF",
"|.	c #EEE0AB",
"1.	c #ECDEA7",
"2.	c #FEFADE",
"3.	c #C3AE59",
"4.	c #5C5349",
"5.	c #F8EDE3",
"6.	c #F6E9DD",
"7.	c #F5E5D8",
"8.	c #F3E2D2",
"9.	c #F2DECD",
"0.	c #F1DAC7",
"a.	c #EFD7C2",
"b.	c #EED3BC",
"c.	c #CCAF97",
"d.	c #37342F",
"e.	c #F0E3B1",
"f.	c #EEE1AD",
"g.	c #EDDFA9",
"h.	c #EBDDA5",
"i.	c #E9DAA1",
"j.	c #E7D89D",
"k.	c #E6D699",
"l.	c #C6B05B",
"m.	c #BCA954",
"n.	c #574F46",
"o.	c #D7CCC1",
"p.	c #D5C7BA",
"q.	c #D3C2B3",
"r.	c #D1BEAC",
"s.	c #CFB9A5",
"t.	c #CEB49F",
"u.	c #CCB097",
"v.	c #CAAB90",
"w.	c #C9A88C",
"x.	c #33302C",
"y.	c #EDE0AA",
"z.	c #ECDEA6",
"A.	c #EADBA2",
"B.	c #E8D99E",
"C.	c #E6D79A",
"D.	c #E5D596",
"E.	c #E3D392",
"F.	c #BFAB56",
"G.	c #B6A34F",
"H.	c #534C43",
"I.	c #504940",
"J.	c #49433C",
"K.	c #464039",
"L.	c #423E37",
"M.	c #3F3B34",
"N.	c #3C3832",
"O.	c #383530",
"P.	c #35322D",
"Q.	c #322F2B",
"R.	c #2F2D29",
"S.	c #EBDCA4",
"T.	c #E9DAA0",
"U.	c #E7D89C",
"V.	c #E5D698",
"W.	c #E4D494",
"X.	c #E2D190",
"Y.	c #E0CF8C",
"Z.	c #B9A551",
"`.	c #AF9D4A",
" +	c #A69643",
".+	c #9D8E3C",
"++	c #948636",
"@+	c #8B7E2F",
"#+	c #827628",
"$+	c #E4D596",
"%+	c #E2D292",
"&+	c #E1D08E",
"*+	c #DFCE8A",
"=+	c #DDCC86",
"-+	c #B2A04C",
";+	c #A99845",
">+	c #A0903E",
",+	c #978837",
"'+	c #8E8031",
")+	c #85782A",
"!+	c #7C7123",
"~+	c #E5D598",
"{+	c #E3D394",
"]+	c #E1D190",
"^+	c #DECD88",
"/+	c #DCCB84",
"(+	c #DAC880",
"_+	c #AC9A47",
":+	c #A29240",
"<+	c #998A39",
"[+	c #908333",
"}+	c #877B2C",
"|+	c #7E7325",
"1+	c #756B1E",
"2+	c #DFCE89",
"3+	c #DDCC85",
"4+	c #DBC981",
"5+	c #D9C77D",
"6+	c #D8C579",
"7+	c #A59442",
"8+	c #9C8D3B",
"9+	c #938535",
"0+	c #8A7D2E",
"a+	c #817527",
"b+	c #D8C67B",
"c+	c #D7C477",
"d+	c #D5C273",
"e+	c #9F8F3D",
"f+	c #968737",
"g+	c #8C7F30",
"h+	c #D2BE6D",
"i+	c #988938",
"                    . + @ # $ % & * =       ",
"                    - ; ; ; ; ; ; > , '     ",
"                    ) ; ; ; ; ; ; ! ; ~ '   ",
"                    { ; ] ~ ] ^ ; ' ~ ; , / ",
"                    ( ; ; ; ; ; ; _ : < [ } ",
"              | |   1 ; ] 2 ~ ] ~ 3 ^ 4 5 6 ",
"          | | 7 8 | 9 ; 0 ; ; ; a b c d e f ",
"      | | g h i j k l ; 0 0 ^ ] m n o p q r ",
"  | | s t u v 0 0 0 0 0 0 0 0 w x y z A B C ",
"| D E F G H 0 I J K L ; 0 0 M N O P Q R S T ",
"| U V W X 0 Y I Z `  .; 0 ..+.@.#.$.%.&.*.=.",
"| -.;.>.,.0 Y '.).!.~.; {.].O P ^./.P (._.:.",
"| <.[.}.|.1.0 2.7 3.4.; 5.6.7.8.9.0.a.b.c.d.",
"| e.f.g.h.i.j.k.l.m.n.q o.p.q.r.s.t.u.v.w.x.",
"| y.z.A.B.C.D.E.F.G.H.I.r J.K.L.M.N.O.P.Q.R.",
"| S.T.U.V.W.X.Y.Z.`. +.+++@+#+|             ",
"| B.C.$+%+&+*+=+-+;+>+,+'+)+!+|             ",
"| ~+{+]+Y.^+/+(+_+:+<+[+}+|+1+|             ",
"  | | 2+3+4+5+6+7+8+9+0+a+| |               ",
"      | | b+c+d+e+f+g+| |                   ",
"          | | h+i+| |                       ",
"              | |                           "};
