/* XPM */
static char * srctype_unit_22x22_xpm[] = {
"21 19 83 1",
" 	c None",
".	c #000000",
"+	c #388785",
"@	c #308280",
"#	c #529695",
"$	c #49918F",
"%	c #3F8A89",
"&	c #368584",
"*	c #2D807E",
"=	c #69A4A2",
"-	c #62A09E",
";	c #5B9B9A",
">	c #519594",
",	c #468F8D",
"'	c #3B8887",
")	c #328381",
"!	c #287D7B",
"~	c #76ACAB",
"{	c #72A9A8",
"]	c #6AA4A3",
"^	c #619F9D",
"/	c #569897",
"(	c #4B9290",
"_	c #3F8B89",
":	c #358583",
"<	c #2B7F7D",
"[	c #217977",
"}	c #72AAA8",
"|	c #78ADAC",
"1	c #7EB0AF",
"2	c #80B2B1",
"3	c #7BAEAD",
"4	c #70A8A7",
"5	c #66A2A0",
"6	c #5A9B99",
"7	c #4E9492",
"8	c #428D8B",
"9	c #237A78",
"0	c #197472",
"a	c #A0C5C4",
"b	c #7DB0AF",
"c	c #7AAEAD",
"d	c #82B3B2",
"e	c #89B7B6",
"f	c #7EB1B0",
"g	c #73AAA9",
"h	c #68A3A1",
"i	c #5A9B9A",
"j	c #4F9493",
"k	c #438D8C",
"l	c #2E817F",
"m	c #247B79",
"n	c #0F6E6C",
"o	c #277C7B",
"p	c #7FB1B0",
"q	c #65A2A0",
"r	c #599B99",
"s	c #046765",
"t	c #0E6D6B",
"u	c #75ABAA",
"v	c #69A4A3",
"w	c #609F9D",
"x	c #559897",
"y	c #4A918F",
"z	c #177371",
"A	c #0D6D6B",
"B	c #036765",
"C	c #026664",
"D	c #66A3A1",
"E	c #599A99",
"F	c #448E8C",
"G	c #1F7876",
"H	c #157270",
"I	c #0B6C6A",
"J	c #3E8A89",
"K	c #1B7573",
"L	c #116F6D",
"M	c #B3B3B3",
"N	c #458E8C",
"O	c #FFFFFF",
"P	c #297E7C",
"Q	c #CBCBCB",
"R	c #8E8E8E",
"           ..        ",
"         ..+@.       ",
"       ..#$%&*.      ",
"     ..=-;>,')!.     ",
"   ..~~{]^/(_:<[.    ",
" ..}|12345678+*90.   ",
"..abcdefghijk+lm0n.  ",
".o.abbpc4qr78+*90ns. ",
".to.abu4vwxy_:<[zABC.",
".Cto.abDwEjF')!GHIC..",
" .Cto.ab/j,J&*mKL..M ",
"  .Cto.abNJ+@!G..OOM ",
"   .Cto.ab&@P..OOOOM.",
"    .Cto.ab..OOOOQR..",
"     .Cto..OOOOQR..  ",
"      .Ct.OOOQR..    ",
"       .C.OQR..      ",
"        ..R..        ",
"         ..          "};
