/* XPM */
static char * SyExporterHTML_xpm[] = {
"20 21 8 1",
" 	c None",
".	c #7F7F7F",
"+	c #BFBFBF",
"@	c #FFFFFF",
"#	c #000000",
"$	c #0000FF",
"%	c #FF0000",
"&	c #00FF00",
"..........++++++++++",
".@@@@@@@@#++++++++++",
".@####@@@#++++++++++",
".@@@@@@@@#++++++++++",
".@$$$@%%@#+++$$$$$$$",
".@@@@@@@@#++++++++++",
".@@@&&&&@#++++++$$$$",
".@@@@@@@@#+++++$++++",
".@$$$@@@@#+++++$++++",
".@@@@@@@@#+++++$$$$$",
".#########+++++$++++",
"+++++++++++++++$++++",
"+++++++++++++++$$$$$",
"+$$+++++++++++++++++",
"+$$++++++++++++$+++$",
"+$$+$+++++++++$$$$$+",
"+$$+$$++++++++++++++",
"+$$$$$$+++++++++$$$$",
"++$$$$$++++++++$++++",
"++++$$++++++++++$+++",
"++++$++++++++$$$$$$$"};
