/* XPM */
static char * SynAutoComplete_xpm[] = {
"18 18 8 1",
" 	c None",
".	c #7F7F7F",
"+	c #BFBFBF",
"@	c #FFFFFF",
"#	c #000000",
"$	c #00007F",
"%	c #7F0000",
"&	c #0000FF",
"................++",
".@@@@@@@@@@@@@@#++",
".@@$$@$@$@$$@@@#++",
".@$@@@$@$@$@$@@#++",
".@@@$@$@$@$@$@@#++",
".@$$@@@$@@$@$@@#++",
".@@@@@@$@@@@@@@#++",
".@@@@@$###########",
".@%%%%%#+++++++++#",
".@@@@@@#+&&&&++++#",
".@%%%%%#+++++++++#",
".@@@@@@#++&&+&&&+#",
".@%%%%%#+++++++++#",
".@@@@@@#+&&&+++++#",
".@%%%%%#+++++++++#",
".@@@@@@###########",
".@@@@@@@@@@@@@@#++",
".###############++"};
