/* XPM */
static char *tsynunixshellscriptsyn[]={
"18 20 150 2",
".y c #000000",
"at c #0000ff",
"as c #00ff00",
".H c #010200",
".G c #030100",
"#l c #040000",
"#x c #0b0700",
".R c #0f0400",
".F c #0f0b00",
".T c #120b00",
".E c #130b08",
"#a c #1c0f06",
".S c #201801",
"## c #231c14",
".Q c #271a11",
".1 c #2f2116",
"#m c #3b2f23",
".0 c #3e332f",
"#y c #403728",
".P c #443935",
".D c #443e40",
".Z c #48433f",
"#b c #4d3c2c",
".2 c #5b4a38",
"ac c #6c6346",
"#i c #6e5f58",
"an c #6e6441",
".5 c #6f6144",
"#6 c #717775",
".j c #717984",
"#7 c #727272",
"am c #736643",
".3 c #746347",
".O c #746b6c",
"ad c #756e5e",
".C c #777077",
"#3 c #796e5c",
".N c #7a7476",
"a. c #7b6c57",
"#9 c #7c7064",
".A c #7c7c7e",
".# c #7c7c84",
"#T c #7c877f",
".t c #7d827b",
"#8 c #7e7975",
".r c #7e7f79",
".7 c #7f726a",
".p c #7f7c85",
"#R c #80715e",
".J c #807f84",
"Qt c #808080",
"#w c #808476",
".q c #817f82",
".s c #83867d",
"#k c #848679",
"#5 c #848f8b",
".o c #878391",
".V c #888380",
".n c #888693",
".h c #88918c",
"#u c #89786e",
"#h c #8a7a6b",
".I c #8a8b85",
".f c #8a8c89",
".v c #8a8e97",
"#G c #8b7b6e",
".w c #8b919d",
".i c #8b9596",
"#. c #8c8c82",
".c c #8e8c9a",
".Y c #8e8e86",
"#H c #8e988d",
".X c #92938b",
"#v c #929a8d",
".l c #939499",
".g c #939a93",
"#4 c #948a80",
".u c #949a98",
".W c #958f93",
"#W c #968f87",
".U c #969082",
".M c #969593",
".a c #9696a0",
".8 c #978c8a",
".K c #97979f",
".e c #98999e",
"#j c #989c8e",
".k c #989faf",
".9 c #9a9c91",
".L c #9b9c97",
".z c #9c9c9c",
".b c #9d9ba9",
".d c #9f9daa",
"#U c #9fa69f",
"#I c #a0a89d",
"al c #a19273",
".B c #a39ea5",
"#V c #a4a59f",
"#J c #a5a59d",
"a# c #a99a79",
"#S c #a99b90",
"#K c #aaa297",
".6 c #b4a892",
"ao c #b7b094",
"#X c #baad9d",
"aq c #bdb8b2",
"#2 c #beaf90",
"ag c #bec7c6",
"af c #c0cac9",
"ah c #c1c1c3",
"ai c #c3bebb",
".m c #c3c2ca",
"aj c #c9bfb6",
"#f c #cebc98",
"ak c #cfc2af",
"ae c #cfc8c0",
"#o c #d4bfa2",
"#Q c #d4c4a2",
"ap c #d4cec2",
"#d c #d5c19e",
"#L c #d6c7b4",
"#A c #d9c4a5",
"#z c #d9c8b4",
".4 c #d9caa9",
"#E c #dcc9a8",
"#F c #dccbb9",
"#N c #ddc79e",
"#0 c #e3d2a6",
"#t c #e3d2c0",
"#Y c #e5d5bb",
"#D c #e6d1a6",
"#M c #e7d4b6",
"#Z c #e7d5af",
"#C c #e8d2a3",
"#r c #e8d2a9",
"#O c #e8d3a6",
"#c c #e8d4bb",
"#1 c #e8d9b0",
"#p c #ead3aa",
"#P c #ecd9af",
"#n c #ecdac6",
"#g c #efe0c3",
"ab c #f0e3c0",
"#s c #f1debe",
"#e c #f4e1b9",
"#B c #f9e2b8",
"#q c #fce5b9",
"ar c #ff0000",
"aa c #fff1ca",
".x c #ffffff",
"Qt.#.a.b.c.d.e.f.g.h.i.j.kQtQtQtQtQt",
"Qt.l.m.n.o.p.q.r.s.t.u.v.w.x.x.x.x.y",
"Qt.z.A.B.C.D.E.F.G.H.I.J.K.x.x.x.x.y",
"Qt.L.M.N.O.P.Q.R.S.T.U.V.W.x.x.x.x.y",
"Qt.X.Y.Z.0.1.2.3.4.5.6.7.8.x.x.x.x.y",
"Qt.9#.###a#b#c#d#e#f#g#h#i.x.x.x.x.y",
"Qt#j#k#l#m#n#o#p#q#r#s#t#u.x.x.x.x.y",
"Qt#v#w#x#y#z#A#B#C#D#E#F#G.x.x.x.x.y",
"Qt#H#I#J#K#L#M#N#O#P#Q#R#S.x.x.x.x.y",
"Qt#T#U#V#W#X#Y#Z#0#1#2#3#4.x.x.x.x.y",
"Qt#5#6#7#8#9a.a#aaabacadae.x.x.x.x.y",
"Qtafagahaiajakalamanaoapaq.x.x.x.x.y",
"Qt.x.x.x.x.x.x.x.x.x.x.x.x.x.x.x.x.y",
"Qt.x.x.x.xarar.xasasasas.x.x.x.x.x.y",
"Qt.x.x.x.x.x.x.x.x.x.x.x.x.x.x.x.x.y",
"Qt.x.x.x.xatatatatat.xararar.x.x.x.y",
"Qt.x.x.x.x.x.x.x.x.x.x.x.x.x.x.x.x.y",
"Qt.x.x.y.y.y.x.x.x.x.x.x.x.x.x.x.x.y",
"Qt.x.x.x.x.x.x.x.x.x.x.x.x.x.x.x.x.y",
"Qt.y.y.y.y.y.y.y.y.y.y.y.y.y.y.y.y.y"};
