/* XPM */
static char *tsynpythonsyn[]={
"21 22 10 1",
"# c #000000",
"f c #0000ff",
"g c #00ff00",
"a c #808000",
"c c #808080",
"b c #c0c0c0",
". c #c3c3c3",
"h c #ff0000",
"d c #ffff00",
"e c #ffffff",
".......##.###........",
"......#aa#aaa#bbbbbbb",
".....#######aa#cccccc",
".....#dd#ddd#a#eeeee#",
".....#df#dff#a#eeeee#",
".....#df#dff#a#eeeee#",
".....#dd#ddd#a##eeee#",
"....####a###aaa#eeee#",
"..##aaaaaaaaaaa#eeee#",
".#aaaaaaaaaaaaageeee#",
"#aaaaaaaaaaagaggeeee#",
"#a#aa#aaaagagggeeeee#",
"#aaaaaaagagg##eeeeee#",
"#ggagagaggg##eeeeeee#",
"#gggggggg###eeeeeeee#",
".#gagaga###ggggeeeee#",
"..bceeeeeeeeeeeeeeee#",
"..bceeeefffffehhheee#",
"..bceeeeeeeeeeeeeeee#",
"..bcee###eeeeeeeeeee#",
"..bceeeeeeeeeeeeeeee#",
"..bc#################"};
