/* XPM */
static char *tsynpassyn[]={
"17 19 5 1",
"# c #000000",
"a c #0000ff",
"c c #00ff00",
"b c #ff0000",
". c #ffffff",
"................#",
"................#",
"..aa..aa...aa...#",
"..a.a...a.a.....#",
"..a.a.a.a...a...#",
"..aa...aa.aa....#",
"..a.............#",
"..a.............#",
"..####.bbb......#",
"................#",
"..###...........#",
"................#",
"....bb.cccc.....#",
"................#",
"....aaaaa.bbb...#",
"................#",
"..###...........#",
"................#",
"#################"};
