/* XPM */
static char * SynMultiSyn_xpm[] = {
"18 20 8 1",
" 	c None",
".	c #7F7F7F",
"+	c #FFFFFF",
"@	c #000000",
"#	c #FF0000",
"$	c #00FF00",
"%	c #0000FF",
"&	c #00FFFF",
"..................",
".++++++++++++++++@",
".++++++++++++++++@",
".++@@@@+###++++++@",
".++++++++++++++++@",
".++@@@+++++++++++@",
".++++++++++++++++@",
".++++##+$$$$+++++@",
".++++++++++++++++@",
".++#############+@",
".++#+++++++++++#+@",
".++#+%%%%%+&&&+#+@",
".++#+++++++++++#+@",
".++#+&&&+%%%%++#+@",
".++#+++++++++++#+@",
".++#############+@",
".++++++++++++++++@",
".++@@@+++++++++++@",
".++++++++++++++++@",
".@@@@@@@@@@@@@@@@@"};
