/* XPM */
static char * tsynpassyn_xpm[] = {
"18 13 7 1",
" 	c None",
".	c #7F7F7F",
"+	c #FFFFFF",
"@	c #000000",
"#	c #FF0000",
"$	c #00FF00",
"%	c #0000FF",
"..................",
".++++++++++++++++@",
".++@@@@+###++++++@",
".++++++++++++++++@",
".++@@@+++++++++++@",
".++++++++++++++++@",
".++++##+$$$$+++++@",
".++++++++++++++++@",
".++++%%%%%+###+++@",
".++++++++++++++++@",
".++@@@+++++++++++@",
".++++++++++++++++@",
".@@@@@@@@@@@@@@@@@"};
