/* XPM */
static char *execute[]={
"16 16 3 1",
". c None",
"# c #808000",
"a c #ffff00",
"................",
".######.........",
".#aaaa#.........",
"..#aaaa#........",
"...#aaaa#.......",
"....#aaaa#......",
".....#aaa#......",
"....#aaa#.......",
"...#aaa#........",
"....#aaa#.......",
".....#aa#.......",
"......#aa#......",
"......#aa#......",
".......#aa#.....",
"........#a#.....",
".........##....."};
