/* XPM */
static char *file[] = {
/* columns rows colors chars-per-pixel */
"16 16 66 1",
"  c black",
". c #181418",
"X c #202020",
"o c #292429",
"O c #313031",
"+ c #393439",
"@ c #4A3018",
"# c #523418",
"$ c #523420",
"% c #414041",
"& c #4A444A",
"* c #4A484A",
"= c #4A4C4A",
"- c #524C52",
"; c #52504A",
": c #5A5552",
"> c #6A696A",
", c #737173",
"< c #BD7D41",
"1 c #CD8952",
"2 c #E6A56A",
"3 c #EEAA6A",
"4 c #FFAE62",
"5 c #8B8D8B",
"6 c #949594",
"7 c #9C9594",
"8 c #9C959C",
"9 c #9C999C",
"0 c #A4A1A4",
"q c #A4A5A4",
"w c #ACA5A4",
"e c #ACAAAC",
"r c #ACAEAC",
"t c #B4AEAC",
"y c #B4B2B4",
"u c #B4B6B4",
"i c #BDB6B4",
"p c #BDBABD",
"a c #BDBEBD",
"s c #C5BEBD",
"d c #C5BEC5",
"f c #FFC283",
"g c #FFC683",
"h c #FFC68B",
"j c #FFD69C",
"k c #FFD6A4",
"l c #C5C2C5",
"z c #C5C6C5",
"x c #CDC6C5",
"c c #CDC6CD",
"v c #CDCECD",
"b c #D5CED5",
"n c #D5D2D5",
"m c #D5D6D5",
"M c #DED6DE",
"N c #DEDADE",
"B c gray87",
"V c #E6DEDE",
"C c #E6DEE6",
"Z c #E6E2E6",
"A c #E6E6E6",
"S c #EEEAEE",
"D c #F6EEF6",
"F c #FFF6FF",
"G c #FFFAFF",
"H c gray100",
/* pixels */
"HHHHHH   HHHHHHH",
"HHHHH  H   H HHH",
"HHHH HHHH    HHH",
"HHHHHHHHHH   HHH",
"HHHHHHHHH    HHH",
"H$@#@HHHHHHHHHHH",
"$2kh3#$#$#$HHHHH",
"@jhg4444444 HHHH",
"$f1;GFDAMvcapuOH",
"@g@BVSAZxar06*HH",
"$<:NCZZMzit0>XHH",
"@@vvmMnbpy08*HHH",
"$:nsccclyw0,.HHH",
"@dqrryee975*HHHH",
"o*-=-=-*&%+XHHHH",
"HHHHHHHHHHHHHHHH"
};
