/* XPM */
static char * arrowright_blue16_xpm[] = {
"16 16 116 2",
"  	c None",
". 	c #0073E8",
"+ 	c #178AFF",
"@ 	c #2D95FF",
"# 	c #2591FF",
"$ 	c #007DFC",
"% 	c #0062C6",
"& 	c #3398FF",
"* 	c #95C9FF",
"= 	c #BFDFFF",
"- 	c #A7D2FF",
"; 	c #8DC5FF",
"> 	c #73B8FF",
", 	c #399BFF",
"' 	c #006FE0",
") 	c #0068D2",
"! 	c #5DADFF",
"~ 	c #D3E9FF",
"{ 	c #97CAFF",
"] 	c #3F9EFF",
"^ 	c #1F8EFF",
"/ 	c #0D85FF",
"( 	c #1388FF",
"_ 	c #0581FF",
": 	c #006AD6",
"< 	c #00448A",
"[ 	c #0075EC",
"} 	c #43A0FF",
"| 	c #C7E3FF",
"1 	c #5BACFF",
"2 	c #007CFA",
"3 	c #0E7EEF",
"4 	c #AAD3FD",
"5 	c #93C8FE",
"6 	c #0577EA",
"7 	c #0070E2",
"8 	c #006EDE",
"9 	c #0061C4",
"0 	c #00468E",
"a 	c #A9D3FF",
"b 	c #0077F0",
"c 	c #228EFC",
"d 	c #F5FAFF",
"e 	c #FFFFFF",
"f 	c #8ABEF4",
"g 	c #026DDA",
"h 	c #0066CE",
"i 	c #0069D4",
"j 	c #004FA0",
"k 	c #81BFFF",
"l 	c #007EFF",
"m 	c #0078F2",
"n 	c #49A2FD",
"o 	c #E3F0FD",
"p 	c #92C0EF",
"q 	c #0064CA",
"r 	c #0054AA",
"s 	c #003266",
"t 	c #419FFF",
"u 	c #4AA0F7",
"v 	c #4BA3FD",
"w 	c #4AA3FD",
"x 	c #3C9AFA",
"y 	c #80B8F1",
"z 	c #FAFCFE",
"A 	c #A3C8EE",
"B 	c #1875D4",
"C 	c #0063C8",
"D 	c #005BB8",
"E 	c #0B84FF",
"F 	c #FDFEFE",
"G 	c #BAD3EC",
"H 	c #005EBE",
"I 	c #005DBC",
"J 	c #003872",
"K 	c #004790",
"L 	c #007BF8",
"M 	c #C0DFFE",
"N 	c #BEDCFA",
"O 	c #BDDAF7",
"P 	c #BDDBFA",
"Q 	c #B9D9F9",
"R 	c #BCDAF8",
"S 	c #F8FAFD",
"T 	c #F2F7FB",
"U 	c #6AA0D7",
"V 	c #00346A",
"W 	c #003C7A",
"X 	c #0060C2",
"Y 	c #89B4DF",
"Z 	c #F6F9FD",
"` 	c #5290D0",
" .	c #005CBA",
"..	c #0058B2",
"+.	c #002F60",
"@.	c #0059B4",
"#.	c #006BD8",
"$.	c #0861BC",
"%.	c #96BCE3",
"&.	c #F7FAFD",
"*.	c #5492D1",
"=.	c #005FC0",
"-.	c #004D9C",
";.	c #003974",
">.	c #2070C3",
",.	c #DEEAF6",
"'.	c #EDF3FA",
").	c #5D97D3",
"!.	c #00356C",
"~.	c #004994",
"{.	c #004388",
"].	c #002850",
"^.	c #003164",
"/.	c #004B98",
"(.	c #00264C",
"_.	c #003062",
"          . + @ # $ %           ",
"      & & * = - ; > , ' '       ",
"    ) ! ~ { ] ^ / ( ( _ : <     ",
"  [ } | 1 2 3 4 5 6 7 8 ' 9 0   ",
"  [ a ! . b c d e f g : h i 0   ",
"j & k l m $ $ n o e p g ) q r s ",
"j t & u v w w x y z e A B C D s ",
"j # E e e e e e e F e e G H I J ",
"K L 2 M N O P Q R S e T U I I V ",
"W ' b 8 X I H I Y F Z `  .H ..+.",
"W @.b #.X H $.%.e &.*. . .=.-.+.",
"  ;.8 #.q I >.,.'.). . .I X !.  ",
"  ;.~.) C I D D  . . .I X < !.  ",
"    ;.{.=.X I D I I =.X < ].    ",
"      ^.^./.D I I  .-.!.!.      ",
"          (.+.J J _.].          "};
