/* XPM */
static char * arrowup_blue16_xpm[] = {
"16 16 118 2",
"  	c None",
". 	c #0073E8",
"+ 	c #178AFF",
"@ 	c #2D95FF",
"# 	c #2591FF",
"$ 	c #007DFC",
"% 	c #0062C6",
"& 	c #3398FF",
"* 	c #95C9FF",
"= 	c #BFDFFF",
"- 	c #A7D2FF",
"; 	c #8DC5FF",
"> 	c #73B8FF",
", 	c #399BFF",
"' 	c #006FE0",
") 	c #0068D2",
"! 	c #5DADFF",
"~ 	c #D3E9FF",
"{ 	c #97CAFF",
"] 	c #3F9EFF",
"^ 	c #1F8EFF",
"/ 	c #0D85FF",
"( 	c #1388FF",
"_ 	c #0581FF",
": 	c #006AD6",
"< 	c #00448A",
"[ 	c #0075EC",
"} 	c #43A0FF",
"| 	c #C7E3FF",
"1 	c #5BACFF",
"2 	c #007CFA",
"3 	c #0076EE",
"4 	c #6AB2FC",
"5 	c #BADCFE",
"6 	c #1881EC",
"7 	c #0070E2",
"8 	c #006EDE",
"9 	c #0061C4",
"0 	c #00468E",
"a 	c #A9D3FF",
"b 	c #0077F0",
"c 	c #52A7FD",
"d 	c #F2F8FF",
"e 	c #FFFFFF",
"f 	c #A3CCF6",
"g 	c #026DDA",
"h 	c #0066CE",
"i 	c #0069D4",
"j 	c #004FA0",
"k 	c #81BFFF",
"l 	c #007EFF",
"m 	c #0078F2",
"n 	c #54A8FD",
"o 	c #F6FAFF",
"p 	c #92C0EF",
"q 	c #0064CA",
"r 	c #0054AA",
"s 	c #003266",
"t 	c #419FFF",
"u 	c #0079F4",
"v 	c #5DACFD",
"w 	c #F7FBFF",
"x 	c #FDFEFF",
"y 	c #F8FBFF",
"z 	c #FAFCFE",
"A 	c #8AB9E9",
"B 	c #056AD1",
"C 	c #0063C8",
"D 	c #005BB8",
"E 	c #0B84FF",
"F 	c #EDF6FF",
"G 	c #89C3FF",
"H 	c #BCDDFF",
"I 	c #80AFDF",
"J 	c #E3EDF7",
"K 	c #93BAE2",
"L 	c #005EBE",
"M 	c #005DBC",
"N 	c #003872",
"O 	c #004790",
"P 	c #007BF8",
"Q 	c #DEEDFC",
"R 	c #96C4F3",
"S 	c #0074EA",
"T 	c #B9D9F9",
"U 	c #3C82C9",
"V 	c #498BCE",
"W 	c #F5F9FC",
"X 	c #AAC9E8",
"Y 	c #00346A",
"Z 	c #003C7A",
"` 	c #2074CA",
" .	c #0862BE",
"..	c #BDD5EE",
"+.	c #4A8BCE",
"@.	c #005CBA",
"#.	c #2272C3",
"$.	c #0E65BE",
"%.	c #0058B2",
"&.	c #002F60",
"*.	c #0059B4",
"=.	c #006BD8",
"-.	c #0060C2",
";.	c #BDD5ED",
">.	c #005FC0",
",.	c #004D9C",
"'.	c #003974",
").	c #BED5ED",
"!.	c #4B8CCE",
"~.	c #00356C",
"{.	c #004994",
"].	c #C0D6ED",
"^.	c #004388",
"/.	c #002850",
"(.	c #003164",
"_.	c #004B98",
":.	c #00264C",
"<.	c #003062",
"          . + @ # $ %           ",
"      & & * = - ; > , ' '       ",
"    ) ! ~ { ] ^ / ( ( _ : <     ",
"  [ } | 1 2 3 4 5 6 7 8 ' 9 0   ",
"  [ a ! . b c d e f g : h i 0   ",
"j & k l m n o e e e p g ) q r s ",
"j t & u v w x y x z e A B C D s ",
"j # E $ F e G H e I J e K L M N ",
"O P 2 2 Q R S T e U V W X M M Y ",
"Z ' b 8 `  .L ..e +.@.#.$.L %.&.",
"Z *.b =.-.L @.;.e +.@.@.@.>.,.&.",
"  '.8 =.q M @.).e !.@.@.M -.~.  ",
"  '.{.) C M D ].e +.@.M -.< ~.  ",
"    '.^.>.-.M D M M >.-.< /.    ",
"      (.(._.D M M @.,.~.~.      ",
"          :.&.N N <./.          "};
