/* XPM */
static char * preferences16_xpm[] = {
"16 16 128 2",
"  	c None",
". 	c #969697",
"+ 	c #E4E4E5",
"@ 	c #E9E9EA",
"# 	c #BCBCBC",
"$ 	c #9E9EA3",
"% 	c #E0E0E1",
"& 	c #C7C7C6",
"* 	c #A3A3A5",
"= 	c #A5A5B3",
"- 	c #B2B2B2",
"; 	c #A0A0A0",
"> 	c #969699",
", 	c #A0A0AB",
"' 	c #E2E3E5",
") 	c #AFAFAE",
"! 	c #A1A1AB",
"~ 	c #B6B6D8",
"{ 	c #B48913",
"] 	c #BE8F0D",
"^ 	c #E2E5EC",
"/ 	c #B2B2B1",
"( 	c #A2A2AC",
"_ 	c #B6B8E0",
": 	c #C19A1E",
"< 	c #BA9322",
"[ 	c #AA800E",
"} 	c #D3A220",
"| 	c #EBBC36",
"1 	c #E0E2E9",
"2 	c #B4B6DD",
"3 	c #FDE165",
"4 	c #E6CA68",
"5 	c #A47905",
"6 	c #B88C14",
"7 	c #CD9D1F",
"8 	c #DDAC27",
"9 	c #EFC547",
"0 	c #B4B5DC",
"a 	c #FBE47C",
"b 	c #F9ECAC",
"c 	c #E0CB8A",
"d 	c #C4A548",
"e 	c #BC921E",
"f 	c #DFAD27",
"g 	c #E3B431",
"h 	c #F4CF5A",
"i 	c #E2E3E9",
"j 	c #B3B3B2",
"k 	c #B5B7E1",
"l 	c #FADC59",
"m 	c #FFF09C",
"n 	c #FCEFB5",
"o 	c #BD9B3D",
"p 	c #B88E1C",
"q 	c #DEAD28",
"r 	c #E7BB3F",
"s 	c #F6D76D",
"t 	c #D3C791",
"u 	c #D8BC45",
"v 	c #FFD202",
"w 	c #FED314",
"x 	c #FBD21E",
"y 	c #CB9E0C",
"z 	c #C09113",
"A 	c #D7A622",
"B 	c #EAC34E",
"C 	c #F7DF81",
"D 	c #FFEF92",
"E 	c #E8D371",
"F 	c #CCB85C",
"G 	c #C9B250",
"H 	c #EBC72A",
"I 	c #FFD107",
"J 	c #FECF04",
"K 	c #FED009",
"L 	c #F5C908",
"M 	c #E1B40E",
"N 	c #D7BA60",
"O 	c #D2B048",
"P 	c #E0BE53",
"Q 	c #FFED95",
"R 	c #FFEF8D",
"S 	c #FFE55A",
"T 	c #FFDA27",
"U 	c #FFD81C",
"V 	c #FFE252",
"W 	c #FFE879",
"X 	c #FFEB7D",
"Y 	c #EECB3F",
"Z 	c #D9B131",
"` 	c #CEA42C",
" .	c #B48C20",
"..	c #BD982C",
"+.	c #D5B54E",
"@.	c #EFDB85",
"#.	c #DEC051",
"$.	c #ECC839",
"%.	c #FFD71E",
"&.	c #FFDB3A",
"*.	c #F1D45F",
"=.	c #DFC675",
"-.	c #ECE1B0",
";.	c #E1CE90",
">.	c #B58B1B",
",.	c #C9A532",
"'.	c #DCB837",
").	c #D9AE14",
"!.	c #CBA111",
"~.	c #F0C71D",
"{.	c #F8D748",
"].	c #CAA634",
"^.	c #DDC15C",
"/.	c #DEC467",
"(.	c #C6A43F",
"_.	c #C9A32B",
":.	c #CCA524",
"<.	c #AE840F",
"[.	c #C39A14",
"}.	c #D6AE24",
"|.	c #D5B133",
"1.	c #B48B18",
"2.	c #AF8717",
"3.	c #CCAB43",
"4.	c #CBA83D",
"5.	c #C9A120",
"6.	c #CFAA2C",
"7.	c #AC8210",
"            . . . .             ",
"          . + @ # $ .           ",
"          . % & * = .           ",
"          . - ; > , .           ",
"          . ' ) ! ~ .           ",
"      { ] . ^ / ( _ . : <       ",
"    [ } | . 1 / ( 2 . 3 4 5     ",
"  6 7 8 9 . 1 / ( 0 . a b c d   ",
"  e f g h . i j ( k . l m n o   ",
"  p q r s t . . . . u v w x y   ",
"  z A B C D E F G H I J K L M   ",
"  N O P Q R S T U V W X Y Z `   ",
"   ...+.@.#.$.%.&.*.=.-.;.>.    ",
"      ,.'.).!.~.{.].^./.(.      ",
"      _.:.<.[.}.|.1.2.3.4.      ",
"              5.6.7.            "};
