/* XPM */
static char * dbgridgrayedcb[] = {
/* columns rows colors chars-per-pixel */
"13 13 6 1",
" 	c None",
".	c #808080",
"+	c #FFFFFF",
"@	c #404040",
"#	c #D4D0C8",
"$	c #000000",
/* pixels */
"############+",
"#..........#+",
"#.##########+",
"#.#######.##+",
"#.######..##+",
"#.#.###...##+",
"#.#..#...###+",
"#.#.....####+",
"#.##...#####+",
"#.###.######+",
"#.##########+",
"############+",
"+++++++++++++"
};
