/* XPM */
static char * dbnavrefresh_xpm[] = {
"20 19 58 1",
" 	c None",
".	c #3C3C3C",
"+	c #ACACAC",
"@	c #E6E6E6",
"#	c #D3D3D3",
"$	c #F5F5F5",
"%	c #D0D0D0",
"&	c #919191",
"*	c #A9A9A9",
"=	c #D1D1D1",
"-	c #A1A1A1",
";	c #707070",
">	c #6C6C6C",
",	c #777777",
"'	c #000000",
")	c #9F9F9F",
"!	c #8B8B8B",
"~	c #989898",
"{	c #7C7C7C",
"]	c #D8D8D8",
"^	c #444444",
"/	c #494949",
"(	c #FFFFFF",
"_	c #E5E5E5",
":	c #B2B2B2",
"<	c #1A1A1A",
"[	c #080808",
"}	c #141414",
"|	c #585858",
"1	c #8F8F8F",
"2	c #2B2B2B",
"3	c #EDEDED",
"4	c #A2A2A2",
"5	c #939393",
"6	c #111111",
"7	c #595959",
"8	c #6D6D6D",
"9	c #7F7F7F",
"0	c #1B1B1B",
"a	c #6A6A6A",
"b	c #D5D5D5",
"c	c #7A7A7A",
"d	c #9C9C9C",
"e	c #0B0B0B",
"f	c #232323",
"g	c #9E9E9E",
"h	c #5B5B5B",
"i	c #5F5F5F",
"j	c #6E6E6E",
"k	c #5A5A5A",
"l	c #696969",
"m	c #090909",
"n	c #020202",
"o	c #131313",
"p	c #171717",
"q	c #151515",
"r	c #2F2F2F",
"s	c #191919",
"                    ",
"          ....      ",
"        ..+@#+..    ",
"      ..$%&&&*@+.   ",
".    .$=-;;>>>,*@'  ",
"..  .$);>!~~~!{>*+' ",
".]..$)>!~{'''^/{>(' ",
".]_:)>~{'<'  [}^|1+2",
".345>~{'       627(2",
".3;89>'         0.a2",
".bc8{d2         ef2 ",
".ghijkl2        m2' ",
".'''''''n       02  ",
"               o2[  ",
"              p2q   ",
"             0rs    ",
"            p2'     ",
"          '''       ",
"                    "};
