/* XPM */
static char * dbnavlast_xpm[] = {
"16 18 70 1",
" 	c None",
".	c #323232",
"+	c #5D5D5D",
"@	c #000000",
"#	c #C4C4C4",
"$	c #010101",
"%	c #040404",
"&	c #090909",
"*	c #313131",
"=	c #C5C5C5",
"-	c #E4E4E4",
";	c #0D0D0D",
">	c #C0C0C0",
",	c #A4A4A4",
"'	c #909090",
")	c #515151",
"!	c #2D2D2D",
"~	c #B7B7B7",
"{	c #EFEFEF",
"]	c #DCDCDC",
"^	c #181818",
"/	c #B1B1B1",
"(	c #E8E8E8",
"_	c #282828",
":	c #AFAFAF",
"<	c #E0E0E0",
"[	c #1A1A1A",
"}	c #AEAEAE",
"|	c #FFFFFF",
"1	c #929292",
"2	c #727272",
"3	c #0C0C0C",
"4	c #242424",
"5	c #C7C7C7",
"6	c #9A9A9A",
"7	c #8E8E8E",
"8	c #141414",
"9	c #ACACAC",
"0	c #0E0E0E",
"a	c #1F1F1F",
"b	c #A5A5A5",
"c	c #989898",
"d	c #888888",
"e	c #1B1B1B",
"f	c #ADADAD",
"g	c #858585",
"h	c #838383",
"i	c #868686",
"j	c #C1C1C1",
"k	c #0F0F0F",
"l	c #737373",
"m	c #161616",
"n	c #747474",
"o	c #3A3A3A",
"p	c #A3A3A3",
"q	c #121212",
"r	c #979797",
"s	c #8B8B8B",
"t	c #7A7A7A",
"u	c #8A8A8A",
"v	c #949494",
"w	c #101010",
"x	c #6F6F6F",
"y	c #E6E6E6",
"z	c #222222",
"A	c #6B6B6B",
"B	c #707070",
"C	c #616161",
"D	c #6E6E6E",
"E	c #3F3F3F",
"..              ",
".+@             ",
".#+@      $%&&%$",
"*=-+@     ;>,')%",
"!~{]+@    ^/(~)&",
"_:<~]+@   [}|123",
"4:567]+@  89|120",
"ab5cd7]+@ 89|120",
"e6fghi1j+@k:|1l0",
"m'6hh7fno@0p|1l0",
"qgch7fno@ 0r|s20",
";tu7fno@  0v|s20",
"&t6fno@   wxys2@",
"%n6no@    zA]s2@",
"@Bno@     $Cs2)@",
"@Do@      @@@@@@",
"@E@             ",
"@@              "};
