/* XPM */
static char * dbnavinsert_xpm[] = {
"18 16 85 1",
" 	c None",
".	c #010101",
"+	c #040404",
"@	c #030303",
"#	c #060606",
"$	c #000000",
"%	c #191919",
"&	c #050505",
"*	c #020202",
"=	c #323232",
"-	c #4A4A4A",
";	c #7B7B7B",
">	c #686868",
",	c #5E5E5E",
"'	c #626262",
")	c #616161",
"!	c #606060",
"~	c #5F5F5F",
"{	c #535353",
"]	c #4C4C4C",
"^	c #3E3E3E",
"/	c #0A0A0A",
"(	c #979797",
"_	c #EEEEEE",
":	c #B1B1B1",
"<	c #9C9C9C",
"[	c #939393",
"}	c #868686",
"|	c #848484",
"1	c #838383",
"2	c #8E8E8E",
"3	c #969696",
"4	c #B0B0B0",
"5	c #6B6B6B",
"6	c #585858",
"7	c #393939",
"8	c #0B0B0B",
"9	c #FFFFFF",
"0	c #C1C1C1",
"a	c #A1A1A1",
"b	c #909090",
"c	c #B5B5B5",
"d	c #898989",
"e	c #646464",
"f	c #353535",
"g	c #0D0D0D",
"h	c #A5A5A5",
"i	c #919191",
"j	c #A2A2A2",
"k	c #8D8D8D",
"l	c #3A3A3A",
"m	c #101010",
"n	c #858585",
"o	c #696969",
"p	c #989898",
"q	c #373737",
"r	c #111111",
"s	c #727272",
"t	c #434343",
"u	c #959595",
"v	c #545454",
"w	c #181818",
"x	c #1A1A1A",
"y	c #141414",
"z	c #0F0F0F",
"A	c #0E0E0E",
"B	c #222222",
"C	c #C0C0C0",
"D	c #AEAEAE",
"E	c #ACACAC",
"F	c #AFAFAF",
"G	c #A3A3A3",
"H	c #949494",
"I	c #6F6F6F",
"J	c #090909",
"K	c #A4A4A4",
"L	c #E8E8E8",
"M	c #E6E6E6",
"N	c #DCDCDC",
"O	c #8B8B8B",
"P	c #B7B7B7",
"Q	c #929292",
"R	c #515151",
"S	c #737373",
"T	c #0C0C0C",
".++@#$$$$$$$%&@@*$",
"=-;>,'')!~~,~{]^=/",
" =(_:<[}|12345678 ",
"  =[90ab|13cdefg  ",
"   =<90hi3jk5lm   ",
"    =<90ajno7m    ",
"     =p90|5qr     ",
"      =h_stm      ",
"       =uvm       ",
"        =8        ",
"  .gwxyzzAAAmB.$  ",
"  +C:DEFFG(HI5)$  ",
"  JKL9999999MNO$  ",
"  JbPQQQQQOOOOs$  ",
"  +RRssSSSssssR$  ",
"  .+JTAAAAAA$$$$  "};
