<?xml version="1.0" encoding="UTF-8" standalone="no"?>
<!-- Created with Inkscape (http://www.inkscape.org/) -->
<svg
   xmlns:svg="http://www.w3.org/2000/svg"
   xmlns="http://www.w3.org/2000/svg"
   version="1.0"
   width="215.89999mm"
   height="279.39999mm"
   viewBox="0 0 215.9 279.4"
   id="svg22046"
   xml:space="preserve">
 <defs
   id="defs22048">
  <style
   type="text/css"
   id="style22050" />
 </defs>
 <g
   transform="matrix(2.5,0,0,2.5,0,0)"
   id="Layer_x0020_1">
  
  <path
   d="M 68.8728,29.2879 L 68.8728,26.5297 L 78.8472,26.5133 L 78.8472,35.2485 C 77.3173,36.4713 75.7381,37.387 74.1095,38.0067 C 72.4809,38.6208 70.8084,38.9279 69.0976,38.9279 C 66.7835,38.9279 64.6779,38.4344 62.7916,37.4419 C 60.8998,36.4548 59.4741,35.0182 58.509,33.1483 C 57.5439,31.273 57.0613,29.1783 57.0613,26.8642 C 57.0613,24.5721 57.5439,22.4336 58.5035,20.4486 C 59.4576,18.4581 60.8395,16.983 62.638,16.0179 C 64.4366,15.0583 66.5094,14.5757 68.8563,14.5757 C 70.5562,14.5757 72.097,14.8499 73.4734,15.4038 C 74.8498,15.9521 75.93,16.7198 76.7087,17.7068 C 77.4928,18.6938 78.085,19.977 78.4963,21.5617 L 75.6832,22.3349 C 75.3268,21.134 74.8881,20.1908 74.3672,19.5054 C 73.8408,18.82 73.0896,18.2716 72.1135,17.8604 C 71.1429,17.4491 70.0572,17.2407 68.8728,17.2407 C 67.447,17.2407 66.2133,17.4601 65.1769,17.8933 C 64.135,18.3264 63.3015,18.8967 62.66,19.6041 C 62.0239,20.3115 61.5304,21.0846 61.1739,21.9346 C 60.5762,23.3877 60.2747,24.9669 60.2747,26.6723 C 60.2747,28.7725 60.6366,30.5272 61.3604,31.9419 C 62.0842,33.3567 63.137,34.404 64.5189,35.0895 C 65.9007,35.7749 67.3648,36.1204 68.9166,36.1204 C 70.271,36.1204 71.5871,35.8571 72.8702,35.3362 C 74.1588,34.8208 75.1294,34.2669 75.7929,33.6747 L 75.7929,29.2879 L 68.8728,29.2879 L 68.8728,29.2879 z "
   style="fill:#135288;fill-rule:nonzero;stroke:#135288"
   id="path22054" />
  <path
   d="M 44.0534,29.2879 L 44.0534,26.5297 L 54.0278,26.5133 L 54.0278,35.2485 C 52.4979,36.4713 50.9187,37.387 49.2901,38.0067 C 47.6615,38.6208 45.989,38.9279 44.2782,38.9279 C 41.9641,38.9279 39.8585,38.4344 37.9722,37.4419 C 36.0804,36.4548 34.6547,35.0182 33.6896,33.1483 C 32.7245,31.273 32.2419,29.1783 32.2419,26.8642 C 32.2419,24.5721 32.7245,22.4336 33.6841,20.4486 C 34.6382,18.4581 36.0201,16.983 37.8186,16.0179 C 39.6172,15.0583 41.69,14.5757 44.0369,14.5757 C 45.7368,14.5757 47.2776,14.8499 48.654,15.4038 C 50.0304,15.9521 51.1106,16.7198 51.8893,17.7068 C 52.6734,18.6938 53.2656,19.977 53.6769,21.5617 L 50.8638,22.3349 C 50.5074,21.134 50.0687,20.1908 49.5478,19.5054 C 49.0214,18.82 48.2702,18.2716 47.2941,17.8604 C 46.3235,17.4491 45.2378,17.2407 44.0534,17.2407 C 42.6276,17.2407 41.3939,17.4601 40.3575,17.8933 C 39.3156,18.3264 38.4821,18.8967 37.8406,19.6041 C 37.2045,20.3115 36.711,21.0846 36.3545,21.9346 C 35.7568,23.3877 35.4553,24.9669 35.4553,26.6723 C 35.4553,28.7725 35.8172,30.5272 36.541,31.9419 C 37.2648,33.3567 38.3176,34.404 39.6995,35.0895 C 41.0813,35.7749 42.5454,36.1204 44.0972,36.1204 C 45.4516,36.1204 46.7677,35.8571 48.0508,35.3362 C 49.3394,34.8208 50.31,34.2669 50.9735,33.6747 L 50.9735,29.2879 L 44.0534,29.2879 L 44.0534,29.2879 z "
   style="fill:#135288;fill-rule:nonzero;stroke:#135288"
   id="path22056" />
  <polygon
   points="9.2704,38.5276 18.3182,14.976 21.6741,14.976 31.3141,38.5276 27.7608,38.5276 25.0135,31.3936 15.1652,31.3936 12.5825,38.5276 9.2704,38.5276 "
   style="fill:#135288;fill-rule:nonzero;stroke:#135288"
   id="polygon22058" />
  <path
   d="M 16.0645,28.8547 L 24.0539,28.8547 L 21.5918,22.3349 C 20.8461,20.3553 20.2868,18.7267 19.9249,17.4491 C 19.6233,18.9625 19.201,20.4595 18.6527,21.951 L 16.0645,28.8547 z "
   style="fill:#ffffff;fill-rule:nonzero;stroke:#135288"
   id="path22060" />
  <path
   d="M 158.082,30.9604 L 161.0212,30.7027 C 161.1583,31.8816 161.4818,32.8467 161.9918,33.6034 C 162.5017,34.3602 163.2913,34.9688 164.3606,35.4349 C 165.4299,35.901 166.6363,36.1313 167.9742,36.1313 C 169.1642,36.1313 170.2115,35.9558 171.1218,35.6049 C 172.032,35.2485 172.712,34.7659 173.1561,34.1518 C 173.6003,33.5321 173.8251,32.8632 173.8251,32.1339 C 173.8251,31.3936 173.6113,30.752 173.1781,30.1982 C 172.7504,29.6444 172.043,29.1837 171.0614,28.8109 C 170.4254,28.5641 169.0326,28.1803 166.8666,27.6593 C 164.7061,27.1384 163.1872,26.6504 162.3208,26.1898 C 161.1967,25.603 160.3577,24.8682 159.8039,23.9964 C 159.2555,23.1245 158.9813,22.1484 158.9813,21.0627 C 158.9813,19.8783 159.3158,18.7651 159.9903,17.7342 C 160.6648,16.6979 161.6518,15.9137 162.9459,15.3763 C 164.2455,14.8444 165.6821,14.5757 167.2669,14.5757 C 169.0161,14.5757 170.5515,14.8554 171.8895,15.4202 C 173.2219,15.9795 174.2473,16.8075 174.9657,17.8987 C 175.6785,18.9899 176.0679,20.2292 176.1227,21.6111 L 173.1342,21.8359 C 172.9697,20.3499 172.4268,19.2203 171.5001,18.4635 C 170.5734,17.7013 169.208,17.323 167.3985,17.323 C 165.5122,17.323 164.1413,17.6684 163.2749,18.3593 C 162.414,19.0503 161.9808,19.8838 161.9808,20.8543 C 161.9808,21.7043 162.2879,22.4007 162.8965,22.9435 C 163.4997,23.4919 165.0625,24.0512 167.5959,24.6215 C 170.1293,25.1973 171.8675,25.6962 172.8107,26.124 C 174.1815,26.76 175.196,27.5606 175.8485,28.5257 C 176.5011,29.4963 176.8246,30.6149 176.8246,31.8761 C 176.8246,33.1319 176.4682,34.3108 175.7498,35.4185 C 175.0315,36.5261 174.0006,37.387 172.6571,38.0067 C 171.3137,38.6208 169.8002,38.9279 168.1223,38.9279 C 165.9892,38.9279 164.2016,38.6208 162.7649,37.9957 C 161.3228,37.3761 160.1932,36.4439 159.3707,35.1936 C 158.5536,33.9489 158.1204,32.5342 158.082,30.9604 L 158.082,30.9604 z "
   style="fill:#135288;fill-rule:nonzero;stroke:#135288"
   id="path22062" />
  <polygon
   points="135.379,38.5276 144.427,14.976 147.783,14.976 157.423,38.5276 153.869,38.5276 151.122,31.3936 141.274,31.3936 138.691,38.5276 135.379,38.5276 "
   style="fill:#135288;fill-rule:nonzero;stroke:#135288"
   id="polygon22064" />
  <path
   d="M 142.173,28.8547 L 150.1624,28.8547 L 147.7003,22.3349 C 146.9546,20.3553 146.3953,18.7267 146.0334,17.4491 C 145.7318,18.9625 145.3095,20.4595 144.7612,21.951 L 142.173,28.8547 z "
   style="fill:#ffffff;fill-rule:nonzero;stroke:#135288"
   id="path22066" />
  <path
   d="M 119.234,38.5276 L 119.234,14.976 L 128.1172,14.976 C 129.68,14.976 130.8754,15.0528 131.6979,15.2009 C 132.8549,15.3928 133.8255,15.7602 134.6096,16.303 C 135.3883,16.8404 136.0189,17.6026 136.496,18.5732 C 136.973,19.5493 137.2088,20.6185 137.2088,21.7865 C 137.2088,23.788 136.5727,25.4879 135.3006,26.8752 C 134.0229,28.257 131.7198,28.9534 128.3914,28.9534 L 122.3486,28.9534 L 122.3486,38.5276 L 119.234,38.5276 L 119.234,38.5276 z "
   style="fill:#135288;fill-rule:nonzero;stroke:#135288"
   id="path22068" />
  <path
   d="M 122.349,26.1733 L 128.4411,26.1733 C 130.4536,26.1733 131.8847,25.8004 132.7292,25.0492 C 133.5737,24.298 133.9959,23.2451 133.9959,21.8852 C 133.9959,20.8982 133.7491,20.0537 133.2501,19.3519 C 132.7511,18.65 132.0986,18.1894 131.2816,17.9645 C 130.7552,17.8275 129.7901,17.7562 128.3753,17.7562 L 122.349,17.7562 L 122.349,26.1733 L 122.349,26.1733 z "
   style="fill:#ffffff;fill-rule:nonzero;stroke:#135288"
   id="path22070" />
  <polygon
   points="175.039,50.0567 175.039,43.4912 176.297,43.4912 176.297,50.0567 175.039,50.0567 "
   style="fill:#af756f;fill-rule:nonzero"
   id="polygon22072" />
  <path
   d="M 170.879,46.7518 L 169.7371,46.5454 C 169.8655,46.0853 170.0856,45.746 170.399,45.5243 C 170.7139,45.3042 171.1786,45.1926 171.7961,45.1926 C 172.3587,45.1926 172.776,45.2598 173.0511,45.3928 C 173.3248,45.5258 173.5189,45.694 173.6305,45.8988 C 173.7421,46.1037 173.7986,46.4782 173.7986,47.0254 L 173.7849,48.4944 C 173.7849,48.9118 173.8048,49.2205 173.846,49.4193 C 173.8858,49.6165 173.9622,49.8305 174.0723,50.0567 L 172.8264,50.0567 C 172.7943,49.9726 172.7531,49.8488 172.7057,49.6852 C 172.6858,49.6103 172.6705,49.5614 172.6613,49.537 C 172.4458,49.7464 172.2165,49.9023 171.9719,50.0078 C 171.7273,50.1117 171.4659,50.1637 171.1877,50.1637 C 170.6986,50.1637 170.3118,50.0307 170.0306,49.7663 C 169.7478,49.5003 169.6071,49.164 169.6071,48.7574 C 169.6071,48.4899 169.6713,48.2499 169.7997,48.0389 C 169.9281,47.828 170.1085,47.6674 170.3393,47.5559 C 170.5702,47.4443 170.9049,47.3464 171.3406,47.2624 C 171.9276,47.1523 172.3357,47.0483 172.562,46.9536 L 172.562,46.8282 C 172.562,46.5852 172.5024,46.414 172.3831,46.31 C 172.2639,46.2076 172.0392,46.1556 171.7075,46.1556 C 171.4828,46.1556 171.3085,46.2 171.1831,46.2886 C 171.0578,46.3758 170.9569,46.5301 170.879,46.7518 L 170.879,46.7518 z "
   style="fill:#af756f;fill-rule:nonzero"
   id="path22074" />
  <path
   d="M 172.562,47.7729 C 172.4015,47.8264 172.1462,47.8906 171.7961,47.9655 C 171.4476,48.0404 171.2198,48.1138 171.1113,48.1841 C 170.9477,48.3018 170.8652,48.4486 170.8652,48.6274 C 170.8652,48.8047 170.9309,48.9561 171.0624,49.0845 C 171.1938,49.2129 171.3605,49.2771 171.5638,49.2771 C 171.7915,49.2771 172.0071,49.2022 172.2134,49.0539 C 172.3663,48.9408 172.4657,48.8017 172.5131,48.6366 C 172.5467,48.5296 172.562,48.3248 172.562,48.0236 L 172.562,47.7729 z "
   style="fill:#ffffff;fill-rule:nonzero"
   id="path22076" />
  <path
   d="M 168.985,46.7075 L 167.7438,46.9306 C 167.7025,46.683 167.6077,46.4965 167.4594,46.3712 C 167.3112,46.2458 167.1201,46.1831 166.8847,46.1831 C 166.5698,46.1831 166.3206,46.2917 166.1341,46.5072 C 165.9476,46.7243 165.8544,47.0866 165.8544,47.5941 C 165.8544,48.1581 165.9492,48.5571 166.1387,48.7895 C 166.3283,49.0218 166.582,49.138 166.9015,49.138 C 167.1415,49.138 167.3356,49.0707 167.4885,48.9347 C 167.6414,48.7986 167.7484,48.5648 167.811,48.2346 L 169.0477,48.444 C 168.9193,49.0111 168.6717,49.4407 168.3078,49.7296 C 167.944,50.02 167.4564,50.1637 166.8434,50.1637 C 166.1479,50.1637 165.593,49.9451 165.1803,49.5064 C 164.7659,49.0677 164.5595,48.4593 164.5595,47.6827 C 164.5595,46.8985 164.7674,46.2871 165.1818,45.8499 C 165.5976,45.4112 166.1586,45.1926 166.8663,45.1926 C 167.4457,45.1926 167.9058,45.3179 168.2482,45.5671 C 168.5891,45.8163 168.8352,46.1969 168.985,46.7075 L 168.985,46.7075 z "
   style="fill:#af756f;fill-rule:nonzero"
   id="path22078" />
  <path
   d="M 159.293,48.6993 L 160.5557,48.5067 C 160.6092,48.7512 160.7177,48.9377 160.8828,49.0646 C 161.0464,49.1915 161.2757,49.2557 161.5722,49.2557 C 161.8978,49.2557 162.1424,49.1961 162.306,49.0753 C 162.4176,48.9928 162.4726,48.8797 162.4726,48.7405 C 162.4726,48.6442 162.442,48.5648 162.3824,48.5021 C 162.3197,48.4425 162.1791,48.3874 161.962,48.337 C 160.947,48.1138 160.3035,47.909 160.0314,47.724 C 159.6553,47.4672 159.4673,47.1095 159.4673,46.6524 C 159.4673,46.2412 159.6293,45.8942 159.9549,45.6145 C 160.2805,45.3332 160.785,45.1926 161.4683,45.1926 C 162.1195,45.1926 162.6041,45.2996 162.9205,45.5105 C 163.2369,45.723 163.454,46.0364 163.5732,46.4522 L 162.387,46.6708 C 162.3365,46.4858 162.2402,46.3436 162.0981,46.2458 C 161.9559,46.1465 161.7541,46.0975 161.4912,46.0975 C 161.1595,46.0975 160.9226,46.1434 160.7789,46.2366 C 160.6841,46.3024 160.6367,46.388 160.6367,46.4919 C 160.6367,46.5821 160.678,46.657 160.7621,46.7197 C 160.8752,46.8038 161.2665,46.9215 161.9376,47.0743 C 162.6071,47.2257 163.0749,47.4122 163.3409,47.6338 C 163.6038,47.8585 163.7352,48.1704 163.7352,48.5693 C 163.7352,49.005 163.5533,49.381 163.188,49.6944 C 162.8242,50.0078 162.2861,50.1637 161.5722,50.1637 C 160.9241,50.1637 160.412,50.0322 160.0329,49.7693 C 159.6553,49.5079 159.4092,49.1502 159.293,48.6993 L 159.293,48.6993 z "
   style="fill:#af756f;fill-rule:nonzero"
   id="path22080" />
  <path
   d="M 155.575,46.7518 L 154.4331,46.5454 C 154.5615,46.0853 154.7816,45.746 155.095,45.5243 C 155.4099,45.3042 155.8746,45.1926 156.4921,45.1926 C 157.0547,45.1926 157.472,45.2598 157.7471,45.3928 C 158.0208,45.5258 158.2149,45.694 158.3265,45.8988 C 158.4381,46.1037 158.4946,46.4782 158.4946,47.0254 L 158.4809,48.4944 C 158.4809,48.9118 158.5008,49.2205 158.542,49.4193 C 158.5818,49.6165 158.6582,49.8305 158.7683,50.0567 L 157.5224,50.0567 C 157.4903,49.9726 157.4491,49.8488 157.4017,49.6852 C 157.3818,49.6103 157.3665,49.5614 157.3573,49.537 C 157.1418,49.7464 156.9125,49.9023 156.6679,50.0078 C 156.4233,50.1117 156.1619,50.1637 155.8837,50.1637 C 155.3946,50.1637 155.0078,50.0307 154.7266,49.7663 C 154.4438,49.5003 154.3031,49.164 154.3031,48.7574 C 154.3031,48.4899 154.3673,48.2499 154.4957,48.0389 C 154.6241,47.828 154.8045,47.6674 155.0353,47.5559 C 155.2662,47.4443 155.6009,47.3464 156.0366,47.2624 C 156.6236,47.1523 157.0317,47.0483 157.258,46.9536 L 157.258,46.8282 C 157.258,46.5852 157.1984,46.414 157.0791,46.31 C 156.9599,46.2076 156.7352,46.1556 156.4035,46.1556 C 156.1788,46.1556 156.0045,46.2 155.8791,46.2886 C 155.7538,46.3758 155.6529,46.5301 155.575,46.7518 L 155.575,46.7518 z "
   style="fill:#af756f;fill-rule:nonzero"
   id="path22082" />
  <path
   d="M 157.258,47.7729 C 157.0975,47.8264 156.8422,47.8906 156.4921,47.9655 C 156.1436,48.0404 155.9158,48.1138 155.8073,48.1841 C 155.6437,48.3018 155.5612,48.4486 155.5612,48.6274 C 155.5612,48.8047 155.6269,48.9561 155.7584,49.0845 C 155.8898,49.2129 156.0565,49.2771 156.2598,49.2771 C 156.4875,49.2771 156.7031,49.2022 156.9094,49.0539 C 157.0623,48.9408 157.1617,48.8017 157.2091,48.6366 C 157.2427,48.5296 157.258,48.3248 157.258,48.0236 L 157.258,47.7729 z "
   style="fill:#ffffff;fill-rule:nonzero"
   id="path22084" />
  <path
   d="M 148.527,50.0567 L 148.527,43.4912 L 150.6533,43.4912 C 151.4589,43.4912 151.9848,43.5248 152.2294,43.5906 C 152.6054,43.6884 152.9218,43.9024 153.1756,44.2326 C 153.4293,44.5628 153.5562,44.9893 153.5562,45.5105 C 153.5562,45.9141 153.4828,46.2535 153.3361,46.5271 C 153.1893,46.8022 153.0044,47.0178 152.7781,47.1752 C 152.5534,47.3311 152.3241,47.4351 152.0918,47.4855 C 151.7754,47.5482 151.3168,47.5803 150.716,47.5803 L 149.8523,47.5803 L 149.8523,50.0567 L 148.527,50.0567 z "
   style="fill:#af756f;fill-rule:nonzero"
   id="path22086" />
  <path
   d="M 149.852,44.6025 L 149.852,46.4644 L 150.5766,46.4644 C 151.0994,46.4644 151.4495,46.4308 151.6253,46.362 C 151.801,46.2932 151.9386,46.1862 152.0395,46.0395 C 152.1389,45.8927 152.1893,45.723 152.1893,45.5289 C 152.1893,45.2904 152.119,45.0932 151.9784,44.9373 C 151.8393,44.7829 151.6604,44.6851 151.4464,44.6469 C 151.2874,44.6163 150.9695,44.6025 150.4925,44.6025 L 149.852,44.6025 L 149.852,44.6025 z "
   style="fill:#ffffff;fill-rule:nonzero"
   id="path22088" />
  <path
   d="M 145.095,45.3011 L 145.095,46.3039 L 144.2359,46.3039 L 144.2359,48.2208 C 144.2359,48.6091 144.2435,48.8353 144.2603,48.8995 C 144.2772,48.9637 144.3138,49.0157 144.3719,49.0585 C 144.43,49.0998 144.5019,49.1212 144.5844,49.1212 C 144.7021,49.1212 144.8703,49.0799 145.0919,49.0004 L 145.1989,49.9757 C 144.9054,50.101 144.5752,50.1637 144.2038,50.1637 C 143.9775,50.1637 143.7727,50.1255 143.5908,50.0506 C 143.4089,49.9742 143.2759,49.8748 143.1903,49.754 C 143.1047,49.6333 143.0466,49.4697 143.013,49.2633 C 142.987,49.1181 142.9732,48.8216 142.9732,48.3767 L 142.9732,46.3039 L 142.3954,46.3039 L 142.3954,45.3011 L 142.9732,45.3011 L 142.9732,44.3549 L 144.2359,43.6212 L 144.2359,45.3011 L 145.095,45.3011 L 145.095,45.3011 z "
   style="fill:#af756f;fill-rule:nonzero"
   id="path22090" />
  <path
   d="M 141.961,46.7075 L 140.7198,46.9306 C 140.6785,46.683 140.5837,46.4965 140.4354,46.3712 C 140.2872,46.2458 140.0961,46.1831 139.8607,46.1831 C 139.5458,46.1831 139.2966,46.2917 139.1101,46.5072 C 138.9236,46.7243 138.8304,47.0866 138.8304,47.5941 C 138.8304,48.1581 138.9252,48.5571 139.1147,48.7895 C 139.3043,49.0218 139.558,49.138 139.8775,49.138 C 140.1175,49.138 140.3116,49.0707 140.4645,48.9347 C 140.6174,48.7986 140.7244,48.5648 140.787,48.2346 L 142.0237,48.444 C 141.8953,49.0111 141.6477,49.4407 141.2838,49.7296 C 140.92,50.02 140.4324,50.1637 139.8194,50.1637 C 139.1239,50.1637 138.569,49.9451 138.1563,49.5064 C 137.742,49.0677 137.5356,48.4593 137.5356,47.6827 C 137.5356,46.8985 137.7435,46.2871 138.1578,45.8499 C 138.5736,45.4112 139.1346,45.1926 139.8423,45.1926 C 140.4217,45.1926 140.8818,45.3179 141.2242,45.5671 C 141.5651,45.8163 141.8112,46.1969 141.961,46.7075 L 141.961,46.7075 z "
   style="fill:#af756f;fill-rule:nonzero"
   id="path22092" />
  <path
   d="M 135.466,48.5434 L 136.721,48.7528 C 136.559,49.2129 136.3052,49.563 135.9567,49.8029 C 135.6097,50.0445 135.174,50.1637 134.6512,50.1637 C 133.8243,50.1637 133.2128,49.8947 132.8154,49.3535 C 132.502,48.9209 132.3445,48.3737 132.3445,47.7148 C 132.3445,46.9261 132.5509,46.3085 132.9636,45.8621 C 133.3748,45.4158 133.8961,45.1926 134.5259,45.1926 C 135.2337,45.1926 135.7916,45.4265 136.2013,45.8942 C 136.6094,46.362 136.8051,47.0774 136.7883,48.042 L 133.6347,48.042 C 133.6439,48.4149 133.7448,48.7054 133.9389,48.9118 C 134.133,49.1196 134.3761,49.2236 134.665,49.2236 C 134.8622,49.2236 135.0273,49.1701 135.1618,49.0631 C 135.2963,48.9546 135.3987,48.7818 135.466,48.5434 z "
   style="fill:#af756f;fill-rule:nonzero"
   id="path22094" />
  <path
   d="M 135.538,47.2715 C 135.5288,46.9062 135.4355,46.6295 135.2567,46.44 C 135.0778,46.2504 134.8592,46.1556 134.6024,46.1556 C 134.3273,46.1556 134.101,46.2565 133.9222,46.4568 C 133.7433,46.6555 133.6547,46.9276 133.6577,47.2715 L 135.538,47.2715 L 135.538,47.2715 z "
   style="fill:#ffffff;fill-rule:nonzero"
   id="path22096" />
  <path
   d="M 131.396,45.3011 L 131.396,49.9084 C 131.396,50.5153 131.3562,50.9433 131.2783,51.1925 C 131.1988,51.4416 131.0459,51.6358 130.8212,51.7764 C 130.595,51.917 130.3076,51.9874 129.9591,51.9874 C 129.8337,51.9874 129.6977,51.9751 129.554,51.9537 C 129.4088,51.9308 129.2528,51.8972 129.0862,51.8528 L 129.3048,50.7782 C 129.3644,50.7889 129.421,50.7996 129.473,50.8073 C 129.5249,50.8149 129.5739,50.818 129.6182,50.818 C 129.7466,50.818 129.8521,50.7904 129.9346,50.7354 C 130.0172,50.6804 130.0707,50.6131 130.0982,50.5352 C 130.1242,50.4587 130.1379,50.2248 130.1379,49.8366 L 130.1379,45.3011 L 131.396,45.3011 z "
   style="fill:#af756f;fill-rule:nonzero"
   id="path22098" />
  <polygon
   points="130.137,44.656 130.137,43.4912 131.396,43.4912 131.396,44.656 130.137,44.656 "
   style="fill:#af756f;fill-rule:nonzero"
   id="polygon22100" />
  <path
   d="M 124.509,50.0567 L 124.509,43.4912 L 125.7671,43.4912 L 125.7671,45.856 C 126.1554,45.4142 126.614,45.1926 127.1459,45.1926 C 127.7253,45.1926 128.2037,45.4035 128.5844,45.8224 C 128.9635,46.2412 129.153,46.8435 129.153,47.6292 C 129.153,48.4409 128.9589,49.0677 128.5721,49.5064 C 128.1854,49.9451 127.7161,50.1637 127.1643,50.1637 C 126.8922,50.1637 126.6247,50.0964 126.3602,49.9604 C 126.0958,49.8243 125.868,49.6241 125.6769,49.3581 L 125.6769,50.0567 L 124.509,50.0567 L 124.509,50.0567 z "
   style="fill:#af756f;fill-rule:nonzero"
   id="path22102" />
  <path
   d="M 125.758,47.5757 C 125.758,48.0679 125.836,48.4318 125.9904,48.6687 C 126.209,49.0035 126.4979,49.1701 126.8602,49.1701 C 127.1369,49.1701 127.3738,49.0509 127.5695,48.8139 C 127.7651,48.577 127.863,48.2025 127.863,47.6919 C 127.863,47.1492 127.7636,46.7564 127.5664,46.5164 C 127.3707,46.2764 127.1185,46.1556 126.8097,46.1556 C 126.5086,46.1556 126.2579,46.2733 126.0576,46.5072 C 125.8574,46.7426 125.758,47.0973 125.758,47.5757 z "
   style="fill:#ffffff;fill-rule:nonzero"
   id="path22104" />
  <path
   d="M 117.169,46.8145 C 117.169,46.1449 117.2683,45.5839 117.4686,45.1299 C 117.6184,44.7967 117.8217,44.4955 118.08,44.2295 C 118.3384,43.9651 118.6212,43.7679 118.9284,43.6395 C 119.3381,43.4652 119.8089,43.3796 120.3439,43.3796 C 121.3116,43.3796 122.0851,43.6792 122.6659,44.28 C 123.2468,44.8792 123.5373,45.7139 123.5373,46.7824 C 123.5373,47.8432 123.2483,48.6718 122.6721,49.271 C 122.0958,49.8687 121.3253,50.1683 120.3623,50.1683 C 119.3855,50.1683 118.6089,49.8702 118.0327,49.2756 C 117.4564,48.6794 117.169,47.8585 117.169,46.8145 L 117.169,46.8145 z "
   style="fill:#af756f;fill-rule:nonzero"
   id="path22106" />
  <path
   d="M 118.534,46.7701 C 118.534,47.5131 118.7068,48.0771 119.0492,48.4608 C 119.3931,48.8445 119.8288,49.0356 120.3577,49.0356 C 120.8851,49.0356 121.3192,48.846 121.6586,48.4639 C 121.9964,48.0832 122.1661,47.5131 122.1661,46.7518 C 122.1661,45.9997 122.001,45.4387 121.6723,45.0672 C 121.3421,44.6973 120.9034,44.5123 120.3577,44.5123 C 119.8105,44.5123 119.3702,44.7004 119.0354,45.0749 C 118.7022,45.4494 118.534,46.0135 118.534,46.7701 L 118.534,46.7701 z "
   style="fill:#ffffff;fill-rule:nonzero"
   id="path22108" />
  <path
   d="M 112.516,50.0567 L 111.2579,50.0567 L 111.2579,45.3011 L 112.4258,45.3011 L 112.4258,45.9768 C 112.6261,45.6573 112.8064,45.4463 112.9654,45.3455 C 113.1259,45.2446 113.3063,45.1926 113.5096,45.1926 C 113.797,45.1926 114.0722,45.2721 114.3381,45.4311 L 113.9483,46.5271 C 113.7374,46.391 113.5402,46.3222 113.3583,46.3222 C 113.181,46.3222 113.0327,46.3696 112.9104,46.4675 C 112.7866,46.5638 112.6918,46.7396 112.6215,46.9933 C 112.5512,47.2471 112.516,47.779 112.516,48.5877 L 112.516,50.0567 L 112.516,50.0567 z "
   style="fill:#af756f;fill-rule:nonzero"
   id="path22110" />
  <path
   d="M 105.417,47.6109 C 105.417,47.1936 105.5209,46.7885 105.7258,46.3972 C 105.9321,46.0074 106.2241,45.7077 106.6017,45.5029 C 106.9792,45.2965 107.4011,45.1926 107.8674,45.1926 C 108.5858,45.1926 109.1759,45.4265 109.636,45.8942 C 110.0961,46.362 110.3254,46.952 110.3254,47.6659 C 110.3254,48.3844 110.0931,48.9805 109.6299,49.4544 C 109.1652,49.9283 108.5812,50.1637 107.8765,50.1637 C 107.4394,50.1637 107.0251,50.0659 106.6292,49.8687 C 106.2333,49.6715 105.9321,49.3826 105.7258,49.0019 C 105.5209,48.6213 105.417,48.1581 105.417,47.6109 L 105.417,47.6109 z "
   style="fill:#af756f;fill-rule:nonzero"
   id="path22112" />
  <path
   d="M 106.707,47.6781 C 106.707,48.1505 106.8186,48.5113 107.0433,48.7619 C 107.2665,49.0126 107.5432,49.138 107.8719,49.138 C 108.2005,49.138 108.4757,49.0126 108.6973,48.7619 C 108.9205,48.5113 109.0321,48.1474 109.0321,47.669 C 109.0321,47.2043 108.9205,46.845 108.6973,46.5943 C 108.4757,46.3436 108.2005,46.2183 107.8719,46.2183 C 107.5432,46.2183 107.2665,46.3436 107.0433,46.5943 C 106.8186,46.845 106.707,47.2073 106.707,47.6781 z "
   style="fill:#ffffff;fill-rule:nonzero"
   id="path22114" />
  <path
   d="M 102.102,45.3011 L 102.8007,45.3011 L 102.8007,44.9419 C 102.8007,44.5429 102.8435,44.2433 102.9291,44.0461 C 103.0147,43.8489 103.1706,43.6884 103.3984,43.5646 C 103.6277,43.4408 103.9166,43.3796 104.2651,43.3796 C 104.6243,43.3796 104.9744,43.4331 105.3183,43.5401 L 105.1487,44.4191 C 104.9484,44.3702 104.7558,44.3473 104.5708,44.3473 C 104.3874,44.3473 104.2575,44.3885 104.178,44.4741 C 104.0985,44.5597 104.0603,44.7233 104.0603,44.9648 L 104.0603,45.3011 L 105.0004,45.3011 L 105.0004,46.2901 L 104.0603,46.2901 L 104.0603,50.0567 L 102.8007,50.0567 L 102.8007,46.2901 L 102.102,46.2901 L 102.102,45.3011 L 102.102,45.3011 z "
   style="fill:#af756f;fill-rule:nonzero"
   id="path22116" />
  <path
   d="M 94.4089,45.3011 L 95.748,45.3011 L 96.8853,48.6779 L 97.9966,45.3011 L 99.299,45.3011 L 97.6205,49.8778 L 97.3194,50.7064 C 97.2093,50.9831 97.1039,51.1955 97.0045,51.3423 C 96.9036,51.489 96.789,51.6067 96.659,51.6985 C 96.5291,51.7886 96.3701,51.8605 96.1806,51.9109 C 95.991,51.9614 95.777,51.9874 95.537,51.9874 C 95.2955,51.9874 95.0585,51.9614 94.8247,51.9109 L 94.7131,50.925 C 94.9103,50.9647 95.0876,50.9831 95.2466,50.9831 C 95.5385,50.9831 95.7556,50.8974 95.8962,50.7262 C 96.0353,50.555 96.1439,50.3364 96.2188,50.0705 L 94.4089,45.3011 L 94.4089,45.3011 z "
   style="fill:#af756f;fill-rule:nonzero"
   id="path22118" />
  <path
   d="M 92.6402,50.0567 L 91.3821,50.0567 L 91.3821,45.3011 L 92.55,45.3011 L 92.55,45.9768 C 92.7503,45.6573 92.9306,45.4463 93.0896,45.3455 C 93.2501,45.2446 93.4305,45.1926 93.6338,45.1926 C 93.9212,45.1926 94.1964,45.2721 94.4623,45.4311 L 94.0725,46.5271 C 93.8616,46.391 93.6644,46.3222 93.4825,46.3222 C 93.3052,46.3222 93.1569,46.3696 93.0346,46.4675 C 92.9108,46.5638 92.816,46.7396 92.7457,46.9933 C 92.6754,47.2471 92.6402,47.779 92.6402,48.5877 L 92.6402,50.0567 L 92.6402,50.0567 z "
   style="fill:#af756f;fill-rule:nonzero"
   id="path22120" />
  <path
   d="M 90.5613,45.3011 L 90.5613,46.3039 L 89.7022,46.3039 L 89.7022,48.2208 C 89.7022,48.6091 89.7098,48.8353 89.7266,48.8995 C 89.7435,48.9637 89.7801,49.0157 89.8382,49.0585 C 89.8963,49.0998 89.9682,49.1212 90.0507,49.1212 C 90.1684,49.1212 90.3366,49.0799 90.5582,49.0004 L 90.6652,49.9757 C 90.3717,50.101 90.0415,50.1637 89.6701,50.1637 C 89.4438,50.1637 89.239,50.1255 89.0571,50.0506 C 88.8752,49.9742 88.7422,49.8748 88.6566,49.754 C 88.571,49.6333 88.5129,49.4697 88.4793,49.2633 C 88.4533,49.1181 88.4395,48.8216 88.4395,48.3767 L 88.4395,46.3039 L 87.8617,46.3039 L 87.8617,45.3011 L 88.4395,45.3011 L 88.4395,44.3549 L 89.7022,43.6212 L 89.7022,45.3011 L 90.5613,45.3011 L 90.5613,45.3011 z "
   style="fill:#af756f;fill-rule:nonzero"
   id="path22122" />
  <path
   d="M 86.0335,48.5434 L 87.2885,48.7528 C 87.1265,49.2129 86.8727,49.563 86.5242,49.8029 C 86.1772,50.0445 85.7415,50.1637 85.2187,50.1637 C 84.3918,50.1637 83.7803,49.8947 83.3829,49.3535 C 83.0695,48.9209 82.912,48.3737 82.912,47.7148 C 82.912,46.9261 83.1184,46.3085 83.5311,45.8621 C 83.9423,45.4158 84.4636,45.1926 85.0934,45.1926 C 85.8012,45.1926 86.3591,45.4265 86.7688,45.8942 C 87.1769,46.362 87.3726,47.0774 87.3558,48.042 L 84.2022,48.042 C 84.2114,48.4149 84.3123,48.7054 84.5064,48.9118 C 84.7005,49.1196 84.9436,49.2236 85.2325,49.2236 C 85.4297,49.2236 85.5948,49.1701 85.7293,49.0631 C 85.8638,48.9546 85.9662,48.7818 86.0335,48.5434 L 86.0335,48.5434 z "
   style="fill:#af756f;fill-rule:nonzero"
   id="path22124" />
  <path
   d="M 86.1054,47.2715 C 86.0962,46.9062 86.0029,46.6295 85.8241,46.44 C 85.6452,46.2504 85.4266,46.1556 85.1698,46.1556 C 84.8947,46.1556 84.6684,46.2565 84.4896,46.4568 C 84.3107,46.6555 84.2221,46.9276 84.2251,47.2715 L 86.1054,47.2715 L 86.1054,47.2715 z "
   style="fill:#ffffff;fill-rule:nonzero"
   id="path22126" />
  <path
   d="M 75.0304,45.3011 L 76.1906,45.3011 L 76.1906,45.9493 C 76.6049,45.4448 77.1001,45.1926 77.6734,45.1926 C 77.9776,45.1926 78.242,45.2553 78.4652,45.3806 C 78.6899,45.506 78.8734,45.6955 79.017,45.9493 C 79.2249,45.6955 79.4512,45.506 79.6927,45.3806 C 79.9342,45.2553 80.1926,45.1926 80.4677,45.1926 C 80.8162,45.1926 81.1128,45.2644 81.3543,45.4066 C 81.5958,45.5472 81.7762,45.7567 81.8955,46.0303 C 81.9826,46.2336 82.0254,46.5622 82.0254,47.0162 L 82.0254,50.0567 L 80.7673,50.0567 L 80.7673,47.3388 C 80.7673,46.8664 80.7245,46.5622 80.6374,46.4247 C 80.5212,46.2458 80.3424,46.1556 80.1008,46.1556 C 79.9235,46.1556 79.7584,46.2091 79.6025,46.3177 C 79.4481,46.4247 79.3365,46.5821 79.2677,46.79 C 79.1989,46.9979 79.1638,47.325 79.1638,47.7729 L 79.1638,50.0567 L 77.9057,50.0567 L 77.9057,47.4504 C 77.9057,46.9872 77.8828,46.6891 77.8385,46.5546 C 77.7941,46.4201 77.7238,46.3207 77.6306,46.255 C 77.5358,46.1893 77.4089,46.1556 77.2469,46.1556 C 77.0527,46.1556 76.8785,46.2076 76.7241,46.3131 C 76.5682,46.417 76.4566,46.5684 76.3893,46.7656 C 76.3221,46.9627 76.2884,47.2883 76.2884,47.7454 L 76.2884,50.0567 L 75.0304,50.0567 L 75.0304,45.3011 L 75.0304,45.3011 z "
   style="fill:#af756f;fill-rule:nonzero"
   id="path22128" />
  <path
   d="M 69.2308,47.6109 C 69.2308,47.1936 69.3347,46.7885 69.5396,46.3972 C 69.7459,46.0074 70.0379,45.7077 70.4155,45.5029 C 70.793,45.2965 71.2149,45.1926 71.6812,45.1926 C 72.3996,45.1926 72.9897,45.4265 73.4498,45.8942 C 73.9099,46.362 74.1392,46.952 74.1392,47.6659 C 74.1392,48.3844 73.9069,48.9805 73.4437,49.4544 C 72.979,49.9283 72.395,50.1637 71.6903,50.1637 C 71.2532,50.1637 70.8389,50.0659 70.443,49.8687 C 70.0471,49.6715 69.7459,49.3826 69.5396,49.0019 C 69.3347,48.6213 69.2308,48.1581 69.2308,47.6109 L 69.2308,47.6109 z "
   style="fill:#af756f;fill-rule:nonzero"
   id="path22130" />
  <path
   d="M 70.5209,47.6781 C 70.5209,48.1505 70.6325,48.5113 70.8572,48.7619 C 71.0804,49.0126 71.3571,49.138 71.6858,49.138 C 72.0144,49.138 72.2896,49.0126 72.5112,48.7619 C 72.7344,48.5113 72.846,48.1474 72.846,47.669 C 72.846,47.2043 72.7344,46.845 72.5112,46.5943 C 72.2896,46.3436 72.0144,46.2183 71.6858,46.2183 C 71.3571,46.2183 71.0804,46.3436 70.8572,46.5943 C 70.6325,46.845 70.5209,47.2073 70.5209,47.6781 z "
   style="fill:#ffffff;fill-rule:nonzero"
   id="path22132" />
  <path
   d="M 67.1748,48.5434 L 68.4298,48.7528 C 68.2678,49.2129 68.014,49.563 67.6655,49.8029 C 67.3185,50.0445 66.8828,50.1637 66.36,50.1637 C 65.5331,50.1637 64.9216,49.8947 64.5242,49.3535 C 64.2108,48.9209 64.0533,48.3737 64.0533,47.7148 C 64.0533,46.9261 64.2597,46.3085 64.6724,45.8621 C 65.0836,45.4158 65.6049,45.1926 66.2347,45.1926 C 66.9425,45.1926 67.5004,45.4265 67.9101,45.8942 C 68.3182,46.362 68.5139,47.0774 68.4971,48.042 L 65.3435,48.042 C 65.3527,48.4149 65.4536,48.7054 65.6477,48.9118 C 65.8418,49.1196 66.0849,49.2236 66.3738,49.2236 C 66.571,49.2236 66.7361,49.1701 66.8706,49.0631 C 67.0051,48.9546 67.1075,48.7818 67.1748,48.5434 L 67.1748,48.5434 z "
   style="fill:#af756f;fill-rule:nonzero"
   id="path22134" />
  <path
   d="M 67.2467,47.2715 C 67.2375,46.9062 67.1442,46.6295 66.9654,46.44 C 66.7865,46.2504 66.5679,46.1556 66.3111,46.1556 C 66.036,46.1556 65.8097,46.2565 65.6309,46.4568 C 65.452,46.6555 65.3634,46.9276 65.3664,47.2715 L 67.2467,47.2715 L 67.2467,47.2715 z "
   style="fill:#ffffff;fill-rule:nonzero"
   id="path22136" />
  <path
   d="M 60.351,47.643 L 60.351,46.5363 L 63.208,46.5363 L 63.208,49.1517 C 62.9298,49.4208 62.5278,49.6577 62.0004,49.8626 C 61.473,50.0659 60.9395,50.1683 60.3999,50.1683 C 59.7136,50.1683 59.1144,50.0246 58.6038,49.7372 C 58.0932,49.4483 57.7095,49.0371 57.4527,48.5006 C 57.1959,47.964 57.0675,47.3816 57.0675,46.7518 C 57.0675,46.0685 57.2112,45.4601 57.4971,44.9281 C 57.7844,44.3977 58.2033,43.9896 58.7567,43.7068 C 59.177,43.4882 59.7014,43.3796 60.3281,43.3796 C 61.1429,43.3796 61.7803,43.5508 62.2374,43.8917 C 62.6959,44.2341 62.991,44.7065 63.1224,45.3103 L 61.8063,45.5564 C 61.713,45.2339 61.5388,44.9786 61.2835,44.7921 C 61.0282,44.6056 60.7103,44.5123 60.3281,44.5123 C 59.7487,44.5123 59.2886,44.6958 58.9462,45.0627 C 58.6038,45.4311 58.4341,45.9752 58.4341,46.6983 C 58.4341,47.4764 58.6069,48.0618 58.9539,48.4516 C 59.2993,48.8414 59.7533,49.0356 60.3143,49.0356 C 60.5925,49.0356 60.8708,48.9805 61.1505,48.872 C 61.4287,48.7635 61.6687,48.6305 61.869,48.4761 L 61.869,47.643 L 60.351,47.643 L 60.351,47.643 z "
   style="fill:#af756f;fill-rule:nonzero"
   id="path22138" />
  <path
   d="M 53.4631,50.0567 L 52.205,50.0567 L 52.205,47.6292 C 52.205,47.1156 52.1775,46.7839 52.124,46.6326 C 52.0705,46.4828 51.9818,46.3651 51.8611,46.281 C 51.7403,46.1984 51.5951,46.1556 51.4254,46.1556 C 51.2068,46.1556 51.0111,46.2152 50.8384,46.3345 C 50.6657,46.4552 50.5464,46.6127 50.4822,46.8099 C 50.418,47.0071 50.3859,47.3709 50.3859,47.9029 L 50.3859,50.0567 L 49.1279,50.0567 L 49.1279,45.3011 L 50.2957,45.3011 L 50.2957,45.9997 C 50.7115,45.4616 51.2343,45.1926 51.8641,45.1926 C 52.1408,45.1926 52.3961,45.243 52.6254,45.3424 C 52.8547,45.4433 53.0289,45.5702 53.1466,45.7261 C 53.2644,45.882 53.3469,46.0578 53.3928,46.255 C 53.4401,46.4522 53.4631,46.7335 53.4631,47.1003 L 53.4631,50.0567 L 53.4631,50.0567 z "
   style="fill:#af756f;fill-rule:nonzero"
   id="path22140" />
  <polygon
   points="46.5888,50.0567 46.5888,45.3011 47.8469,45.3011 47.8469,50.0567 46.5888,50.0567 "
   style="fill:#af756f;fill-rule:nonzero"
   id="polygon22142" />
  <polygon
   points="46.5888,44.656 46.5888,43.4912 47.8469,43.4912 47.8469,44.656 46.5888,44.656 "
   style="fill:#af756f;fill-rule:nonzero"
   id="polygon22144" />
  <path
   d="M 42.428,46.7518 L 41.2861,46.5454 C 41.4145,46.0853 41.6346,45.746 41.948,45.5243 C 42.2629,45.3042 42.7276,45.1926 43.3451,45.1926 C 43.9077,45.1926 44.325,45.2598 44.6001,45.3928 C 44.8738,45.5258 45.0679,45.694 45.1795,45.8988 C 45.2911,46.1037 45.3476,46.4782 45.3476,47.0254 L 45.3339,48.4944 C 45.3339,48.9118 45.3538,49.2205 45.395,49.4193 C 45.4348,49.6165 45.5112,49.8305 45.6213,50.0567 L 44.3754,50.0567 C 44.3433,49.9726 44.3021,49.8488 44.2547,49.6852 C 44.2348,49.6103 44.2195,49.5614 44.2103,49.537 C 43.9948,49.7464 43.7655,49.9023 43.5209,50.0078 C 43.2763,50.1117 43.0149,50.1637 42.7367,50.1637 C 42.2476,50.1637 41.8608,50.0307 41.5796,49.7663 C 41.2968,49.5003 41.1561,49.164 41.1561,48.7574 C 41.1561,48.4899 41.2203,48.2499 41.3487,48.0389 C 41.4771,47.828 41.6575,47.6674 41.8883,47.5559 C 42.1192,47.4443 42.4539,47.3464 42.8896,47.2624 C 43.4766,47.1523 43.8847,47.0483 44.111,46.9536 L 44.111,46.8282 C 44.111,46.5852 44.0514,46.414 43.9321,46.31 C 43.8129,46.2076 43.5882,46.1556 43.2565,46.1556 C 43.0318,46.1556 42.8575,46.2 42.7321,46.2886 C 42.6068,46.3758 42.5059,46.5301 42.428,46.7518 L 42.428,46.7518 z "
   style="fill:#af756f;fill-rule:nonzero"
   id="path22146" />
  <path
   d="M 44.111,47.7729 C 43.9505,47.8264 43.6952,47.8906 43.3451,47.9655 C 42.9966,48.0404 42.7688,48.1138 42.6603,48.1841 C 42.4967,48.3018 42.4142,48.4486 42.4142,48.6274 C 42.4142,48.8047 42.4799,48.9561 42.6114,49.0845 C 42.7428,49.2129 42.9095,49.2771 43.1128,49.2771 C 43.3405,49.2771 43.5561,49.2022 43.7624,49.0539 C 43.9153,48.9408 44.0147,48.8017 44.0621,48.6366 C 44.0957,48.5296 44.111,48.3248 44.111,48.0236 L 44.111,47.7729 z "
   style="fill:#ffffff;fill-rule:nonzero"
   id="path22148" />
  <path
   d="M 39.1229,50.0567 L 37.8648,50.0567 L 37.8648,45.3011 L 39.0327,45.3011 L 39.0327,45.9768 C 39.233,45.6573 39.4133,45.4463 39.5723,45.3455 C 39.7328,45.2446 39.9132,45.1926 40.1165,45.1926 C 40.404,45.1926 40.6792,45.2721 40.9451,45.4311 L 40.5553,46.5271 C 40.3443,46.391 40.1471,46.3222 39.9652,46.3222 C 39.7879,46.3222 39.6396,46.3696 39.5173,46.4675 C 39.3935,46.5638 39.2987,46.7396 39.2284,46.9933 C 39.1581,47.2471 39.1229,47.779 39.1229,48.5877 L 39.1229,50.0567 L 39.1229,50.0567 z "
   style="fill:#af756f;fill-rule:nonzero"
   id="path22150" />
  <path
   d="M 33.8476,47.643 L 33.8476,46.5363 L 36.7046,46.5363 L 36.7046,49.1517 C 36.4264,49.4208 36.0244,49.6577 35.497,49.8626 C 34.9696,50.0659 34.4361,50.1683 33.8965,50.1683 C 33.2102,50.1683 32.611,50.0246 32.1004,49.7372 C 31.5898,49.4483 31.2061,49.0371 30.9493,48.5006 C 30.6925,47.964 30.5641,47.3816 30.5641,46.7518 C 30.5641,46.0685 30.7078,45.4601 30.9937,44.9281 C 31.281,44.3977 31.6999,43.9896 32.2533,43.7068 C 32.6736,43.4882 33.198,43.3796 33.8247,43.3796 C 34.6395,43.3796 35.2769,43.5508 35.734,43.8917 C 36.1925,44.2341 36.4876,44.7065 36.619,45.3103 L 35.3029,45.5564 C 35.2096,45.2339 35.0354,44.9786 34.7801,44.7921 C 34.5248,44.6056 34.2069,44.5123 33.8247,44.5123 C 33.2453,44.5123 32.7852,44.6958 32.4428,45.0627 C 32.1004,45.4311 31.9307,45.9752 31.9307,46.6983 C 31.9307,47.4764 32.1035,48.0618 32.4505,48.4516 C 32.7959,48.8414 33.2499,49.0356 33.8109,49.0356 C 34.0891,49.0356 34.3674,48.9805 34.6471,48.872 C 34.9253,48.7635 35.1653,48.6305 35.3656,48.4761 L 35.3656,47.643 L 33.8476,47.643 L 33.8476,47.643 z "
   style="fill:#af756f;fill-rule:nonzero"
   id="path22152" />
  <polygon
   points="27.5863,48.3049 27.5863,47.0468 30.0581,47.0468 30.0581,48.3049 27.5863,48.3049 "
   style="fill:#af756f;fill-rule:nonzero"
   id="polygon22154" />
  <polygon
   points="25.1818,50.0567 25.1818,45.3011 26.4399,45.3011 26.4399,50.0567 25.1818,50.0567 "
   style="fill:#af756f;fill-rule:nonzero"
   id="polygon22156" />
  <polygon
   points="25.1818,44.656 25.1818,43.4912 26.4399,43.4912 26.4399,44.656 25.1818,44.656 "
   style="fill:#af756f;fill-rule:nonzero"
   id="polygon22158" />
  <path
   d="M 24.3075,45.3011 L 24.3075,46.3039 L 23.4484,46.3039 L 23.4484,48.2208 C 23.4484,48.6091 23.456,48.8353 23.4728,48.8995 C 23.4897,48.9637 23.5263,49.0157 23.5844,49.0585 C 23.6425,49.0998 23.7144,49.1212 23.7969,49.1212 C 23.9146,49.1212 24.0828,49.0799 24.3044,49.0004 L 24.4114,49.9757 C 24.1179,50.101 23.7877,50.1637 23.4163,50.1637 C 23.19,50.1637 22.9852,50.1255 22.8033,50.0506 C 22.6214,49.9742 22.4884,49.8748 22.4028,49.754 C 22.3172,49.6333 22.2591,49.4697 22.2255,49.2633 C 22.1995,49.1181 22.1857,48.8216 22.1857,48.3767 L 22.1857,46.3039 L 21.6079,46.3039 L 21.6079,45.3011 L 22.1857,45.3011 L 22.1857,44.3549 L 23.4484,43.6212 L 23.4484,45.3011 L 24.3075,45.3011 L 24.3075,45.3011 z "
   style="fill:#af756f;fill-rule:nonzero"
   id="path22160" />
  <path
   d="M 20.8513,50.0567 L 19.5932,50.0567 L 19.5932,47.6292 C 19.5932,47.1156 19.5657,46.7839 19.5122,46.6326 C 19.4587,46.4828 19.37,46.3651 19.2493,46.281 C 19.1285,46.1984 18.9833,46.1556 18.8136,46.1556 C 18.595,46.1556 18.3993,46.2152 18.2266,46.3345 C 18.0539,46.4552 17.9346,46.6127 17.8704,46.8099 C 17.8062,47.0071 17.7741,47.3709 17.7741,47.9029 L 17.7741,50.0567 L 16.5161,50.0567 L 16.5161,45.3011 L 17.6839,45.3011 L 17.6839,45.9997 C 18.0997,45.4616 18.6225,45.1926 19.2523,45.1926 C 19.529,45.1926 19.7843,45.243 20.0136,45.3424 C 20.2429,45.4433 20.4171,45.5702 20.5348,45.7261 C 20.6526,45.882 20.7351,46.0578 20.781,46.255 C 20.8283,46.4522 20.8513,46.7335 20.8513,47.1003 L 20.8513,50.0567 L 20.8513,50.0567 z "
   style="fill:#af756f;fill-rule:nonzero"
   id="path22162" />
  <polygon
   points="15.8312,50.0567 14.3882,50.0567 13.8149,48.5648 11.1903,48.5648 10.6491,50.0567 9.2428,50.0567 11.8002,43.4912 13.202,43.4912 15.8312,50.0567 "
   style="fill:#af756f;fill-rule:nonzero"
   id="polygon22164" />
  <polygon
   points="13.39,47.4596 12.485,45.0229 11.5984,47.4596 13.39,47.4596 "
   style="fill:#ffffff;fill-rule:nonzero"
   id="polygon22166" />
  <path
   d="M 81.2128,16.1804 C 84.9324,15.608 89.1767,14.9567 94.0752,14.1917 C 99.7892,13.2992 106.5495,12.2281 114.6748,10.9319 C 114.1506,17.3686 113.6906,23.1078 113.2835,28.2537 C 112.9162,32.8964 112.5897,37.109 112.2915,40.9467 C 106.3386,39.8648 101.152,38.9183 96.5959,38.0797 C 92.5583,37.3365 88.954,36.6672 85.7134,36.0658 C 85.0808,33.2807 84.4034,30.3126 83.6852,27.145 C 82.9157,23.7514 82.0942,20.103 81.2128,16.1804 L 81.2128,16.1804 z "
   style="fill:none;stroke:#6296b6;stroke-width:0.33000001"
   id="path22168" />
  <path
   d="M 95.5026,29.3022 C 96.0534,30.4142 97.4365,31.0368 98.7177,30.6728 C 99.9989,30.3089 100.6765,29.0131 100.1058,27.7927 C 98.9461,25.3123 95.7656,24.198 93.4685,25.1644 C 91.1715,26.1308 90.518,28.4934 91.5904,30.5715 C 92.3812,32.1039 93.7167,33.3099 95.2769,34.0477 C 96.8839,34.8077 98.7392,35.1215 100.6917,34.7245 C 102.6443,34.3274 104.3251,33.1895 105.2695,31.6605 C 106.2764,30.0304 106.4996,27.9758 105.6196,25.9654 C 104.4178,23.2198 101.9974,21.2321 99.2032,20.3147 C 96.5537,19.4446 93.6132,19.646 91.3639,20.8365 C 89.1146,22.027 87.8964,23.8059 87.4056,25.798 C 86.9472,27.6587 87.1979,29.7335 88.2277,31.6599 C 89.485,34.0121 91.5306,35.8956 93.9225,37.11 C 96.4327,38.3843 99.3076,39.045 102.6064,38.6113 C 105.9052,38.1776 109.0748,36.4665 110.9887,33.9502 C 113.1233,31.144 113.8303,27.4319 112.3269,23.7186 C 110.4501,19.083 106.3322,15.8441 101.5921,14.5621 C 97.237,13.3843 92.4956,14.1422 89.1909,16.3064 C 85.8862,18.4706 84.3733,21.2289 83.8342,24.2287 C 83.3455,26.9491 83.821,29.8933 85.3004,32.601"
   style="fill:none"
   id="path22170" />
  <path
   d="M 85.5723,35.4365 C 85.9318,35.5011 86.2956,35.8382 86.3728,36.1856 C 86.45,36.5331 86.2117,36.7532 85.855,36.6838 C 85.4983,36.6144 85.1547,36.2879 85.0748,35.9464 C 84.9949,35.6049 85.2129,35.3719 85.5723,35.4365 L 85.5723,35.4365 z "
   style="fill:#6296b6;stroke:#6296b6;stroke-width:0.0834"
   id="path22172" />
  <path
   d="M 96.5058,28.8224 C 96.5132,28.8365 96.5242,28.8592 96.5424,28.8874 C 96.6704,29.1257 96.8799,29.3086 97.1139,29.412 C 97.3608,29.5192 97.6459,29.5493 97.9169,29.4797 C 97.946,29.4751 97.9718,29.4674 97.9878,29.4594 C 97.9943,29.4597 98.004,29.4572 98.0136,29.4519 C 98.0136,29.4519 98.0136,29.4519 98.0136,29.4519 C 98.0136,29.4519 98.0136,29.4519 98.0136,29.4519 C 98.0877,29.4259 98.1549,29.3941 98.2187,29.3533 C 98.289,29.3128 98.3493,29.2604 98.4029,29.2077 C 98.6878,28.9202 98.7816,28.4845 98.5958,28.0752 C 98.5637,28.0145 98.5282,27.9449 98.4889,27.8669 C 98.0632,27.0841 97.3874,26.4932 96.6068,26.1726 C 95.8281,25.85 94.9645,25.7968 94.186,26.0614 C 94.186,26.0614 94.186,26.0614 94.1858,26.0587 C 94.1397,26.0727 94.0743,26.1007 93.9795,26.1395 C 93.9731,26.1424 93.9631,26.1451 93.9567,26.148 C 93.9535,26.148 93.9535,26.148 93.9535,26.148 C 93.9535,26.148 93.9535,26.148 93.9535,26.148 C 93.7353,26.2417 93.5365,26.359 93.3599,26.4914 C 93.1743,26.6311 93.0113,26.7887 92.8767,26.9586 C 92.1817,27.814 92.0488,29.0546 92.6026,30.186 C 92.6512,30.2825 92.707,30.3874 92.7729,30.4982 C 93.4221,31.6445 94.4268,32.5416 95.5846,33.1018 C 96.7762,33.673 98.1702,33.9049 99.5347,33.6616 C 99.6656,33.6364 99.7935,33.614 99.9118,33.5817 C 99.9181,33.5794 99.9305,33.5774 99.9398,33.5755 C 99.9398,33.5755 99.9398,33.5755 99.9398,33.5755 C 99.9398,33.5755 99.9398,33.5755 99.9398,33.5755 C 100.3646,33.4691 100.7615,33.3199 101.131,33.1364 C 101.5181,32.9457 101.8622,32.7132 102.1825,32.4548 C 103.8876,31.0306 104.5836,28.6379 103.5823,26.3108 C 103.5068,26.1362 103.4209,25.953 103.3214,25.761 C 102.271,23.7144 100.467,22.2248 98.4162,21.4766 C 96.4315,20.753 94.2891,20.7635 92.4246,21.5842 C 92.4246,21.5844 92.4243,21.5817 92.4241,21.5791 C 92.2912,21.6371 92.1353,21.7156 91.9528,21.8087 C 91.9463,21.8147 91.936,21.818 91.9328,21.8211 C 91.9295,21.8239 91.9295,21.8239 91.9295,21.8239 C 91.9295,21.8239 91.9295,21.8239 91.9295,21.8239 C 91.412,22.0963 90.9561,22.4242 90.5501,22.7866 C 90.1515,23.1493 89.8029,23.5488 89.5169,23.9744 C 88.7943,25.0408 88.4079,26.2945 88.3672,27.5787 C 88.3279,28.8174 88.6102,30.1127 89.2426,31.3483 C 89.3311,31.5192 89.4261,31.6961 89.531,31.8767 C 90.6502,33.7889 92.3276,35.3152 94.2571,36.3176 C 96.2739,37.3556 98.6631,37.8765 101.0853,37.6179 C 101.3233,37.5932 101.5523,37.564 101.7757,37.5208 C 101.7817,37.5219 101.7908,37.5203 101.7999,37.5189 C 101.7999,37.5189 101.7999,37.5189 101.8028,37.5164 C 101.8028,37.5164 101.8028,37.5164 101.8028,37.5164 C 102.5874,37.383 103.3367,37.1738 104.04,36.8886 C 104.7764,36.5987 105.4587,36.2301 106.0927,35.7945 C 107.7968,34.6138 109.1027,32.9422 109.7809,30.9732 C 110.501,28.8824 110.5137,26.504 109.5838,24.1656 C 109.458,23.8568 109.3187,23.5299 109.1578,23.205 C 107.4024,19.5933 104.1985,17.0499 100.5637,15.9356 C 98.8267,15.4001 97.0351,15.2135 95.293,15.3828 C 93.6311,15.5442 92.035,16.0266 90.5885,16.825 C 90.3332,16.9667 90.0834,17.115 89.8458,17.2656 C 89.8391,17.2746 89.8284,17.2785 89.825,17.2818 C 89.8214,17.2822 89.8214,17.2822 89.8214,17.2822 C 89.8214,17.2822 89.8214,17.2822 89.8214,17.2822 C 89.0277,17.8055 88.3333,18.3949 87.7406,19.0441 C 87.1555,19.6735 86.6609,20.3531 86.2575,21.0658 C 85.2752,22.8064 84.8024,24.7749 84.8379,26.7444 C 84.8718,28.6144 85.358,30.5381 86.3154,32.362 C 85.8421,32.5235 85.3773,32.6771 84.9246,32.8301 C 83.8018,30.7265 83.2075,28.4979 83.1185,26.323 C 83.0236,24.0056 83.5006,21.6644 84.5821,19.5529 C 85.0309,18.6756 85.5888,17.8296 86.2497,17.0439 C 86.9429,16.2255 87.7532,15.4577 88.6881,14.7806 C 88.6952,14.777 88.7025,14.7728 88.7093,14.7636 C 88.7093,14.7636 88.7093,14.7636 88.713,14.7631 C 88.713,14.7631 88.713,14.7631 88.713,14.7631 C 88.9979,14.56 89.2811,14.3689 89.567,14.1924 C 91.2877,13.1263 93.2205,12.4351 95.2505,12.1496 C 97.3959,11.8479 99.6234,12.0067 101.8107,12.6025 C 104.0826,13.2296 106.2473,14.3403 108.1351,15.8714 C 110.051,17.4252 111.645,19.3736 112.7211,21.6529 C 112.9058,22.0335 113.0805,22.4405 113.2454,22.8668 C 114.3999,25.9245 114.2775,29.0014 113.2091,31.6768 C 112.2191,34.1553 110.4414,36.2075 108.2021,37.6095 C 107.3792,38.124 106.499,38.5457 105.573,38.8716 C 104.6711,39.1844 103.7303,39.4112 102.7468,39.5396 C 102.7378,39.5408 102.7289,39.5425 102.723,39.5444 C 102.72,39.5438 102.72,39.5438 102.72,39.5438 C 102.72,39.5438 102.72,39.5438 102.72,39.5438 C 102.438,39.5785 102.1596,39.6076 101.8933,39.626 C 100.3775,39.7327 98.8906,39.6032 97.4912,39.2869 C 96.1404,38.9815 94.8434,38.4921 93.6595,37.8581 C 91.3533,36.6282 89.3549,34.7913 88.0077,32.5109 C 87.8911,32.3165 87.7745,32.1063 87.6621,31.8871 C 86.8524,30.3298 86.4619,28.6953 86.4686,27.1164 C 86.4755,25.4669 86.9195,23.8379 87.7897,22.4238 C 88.1461,21.8445 88.5672,21.301 89.0694,20.8075 C 89.5833,20.2951 90.1677,19.8386 90.8373,19.4408 C 90.8442,19.4375 90.8512,19.434 90.8614,19.4278 C 90.8614,19.4278 90.8614,19.4278 90.8614,19.4275 C 90.8614,19.4275 90.8614,19.4275 90.8614,19.4275 C 91.0296,19.3275 91.2304,19.2213 91.4568,19.1115 C 91.4568,19.1115 91.4565,19.1087 91.4598,19.1058 C 93.8886,17.8963 96.7533,17.7703 99.4519,18.6766 C 102.3067,19.6309 104.8201,21.6696 106.2399,24.5008 C 106.3549,24.7357 106.4651,24.9907 106.5779,25.2592 C 107.3054,27.0171 107.3532,28.8104 106.8766,30.4075 C 106.422,31.9311 105.4874,33.2534 104.2224,34.2138 C 103.7466,34.5716 103.2248,34.8787 102.6665,35.1274 C 102.121,35.3718 101.5353,35.5586 100.9177,35.6832 C 100.9085,35.6848 100.9024,35.6869 100.8932,35.689 C 100.8901,35.6916 100.8901,35.6916 100.8901,35.6916 C 100.8901,35.6916 100.8901,35.6916 100.8901,35.6916 C 100.7156,35.725 100.5441,35.7561 100.3789,35.7787 C 98.4606,36.045 96.5378,35.6713 94.9,34.8538 C 93.303,34.0531 91.9193,32.8076 91.0092,31.2363 C 90.9356,31.1019 90.8603,30.9603 90.7833,30.8038 C 89.8383,28.9342 89.9958,26.8549 91.0887,25.3647 C 91.3176,25.0648 91.5779,24.7826 91.8744,24.5338 C 92.1829,24.2822 92.5238,24.0615 92.9012,23.8799 C 92.9078,23.8771 92.9179,23.874 92.9246,23.871 C 92.9246,23.871 92.9246,23.871 92.9278,23.8681 C 92.928,23.8707 92.928,23.8707 92.928,23.8707 C 93.0144,23.8295 93.1245,23.7816 93.2553,23.73 C 93.2553,23.73 93.2553,23.73 93.255,23.7273 C 94.5868,23.2107 96.0958,23.2533 97.4799,23.7892 C 98.9085,24.3462 100.1667,25.4021 100.9137,26.8265 C 100.9753,26.9395 101.0337,27.0675 101.0987,27.2075 C 101.7079,28.5867 101.3572,30.0252 100.3742,30.9187 C 100.1907,31.0876 99.9817,31.2365 99.7567,31.3631 C 99.526,31.4855 99.2856,31.5858 99.0289,31.6581 C 99.0258,31.6609 99.0258,31.6609 99.0258,31.6609 C 99.0227,31.6635 99.0227,31.6635 99.0227,31.6635 C 99.0195,31.6633 99.0195,31.6633 99.0195,31.6633 C 99.0163,31.6631 99.0163,31.6631 99.0163,31.6631 C 99.0131,31.6657 99.01,31.6655 99.01,31.6655 C 99.01,31.6655 99.01,31.6655 99.01,31.6655 C 99.0069,31.6653 99.0004,31.665 99.0004,31.665 C 99.0037,31.668 99.0037,31.668 99.0037,31.668 C 99.0037,31.668 99.0037,31.668 99.0004,31.665 C 98.9277,31.6888 98.8581,31.7042 98.7915,31.7199 C 97.9543,31.9003 97.083,31.7764 96.3171,31.4244 C 95.5594,31.0736 94.9043,30.4973 94.487,29.7536 C 94.4565,29.6957 94.422,29.6323 94.3831,29.5526 C 95.0703,29.3194 95.7778,29.0752 96.5058,28.8224 L 96.5058,28.8224 z "
   style="fill:#af756f;fill-rule:nonzero"
   id="path22174" />
  <path
   d="M 112.357,40.0897 C 113.1134,40.2176 113.7063,40.7193 113.6611,41.1947 C 113.6158,41.6701 112.9646,41.928 112.2275,41.7865 C 111.4904,41.6449 110.9361,41.1677 110.9636,40.706 C 110.9911,40.2443 111.6006,39.9618 112.357,40.0897 L 112.357,40.0897 z "
   style="fill:#6296b6;stroke:#6296b6;stroke-width:0.0834"
   id="path22176" />
  <path
   d="M 80.9994,15.2306 C 81.4068,15.1603 81.8489,15.5387 81.9627,16.0656 C 82.0765,16.5925 81.8253,17.0573 81.4225,17.1118 C 81.0196,17.1663 80.6113,16.8032 80.493,16.292 C 80.3746,15.7809 80.592,15.3009 80.9994,15.2306 L 80.9994,15.2306 z "
   style="fill:#6296b6;stroke:#6296b6;stroke-width:0.0834"
   id="path22178" />
  <path
   d="M 114.784,9.5681 C 115.841,9.3845 116.6635,9.9651 116.5776,10.8523 C 116.4918,11.7395 115.555,12.5601 114.5288,12.705 C 113.5026,12.8498 112.7574,12.2943 112.8145,11.4458 C 112.8715,10.5974 113.7271,9.7518 114.784,9.5681 z "
   style="fill:#6296b6;stroke:#6296b6;stroke-width:0.0834"
   id="path22180" />
 </g>
</svg>