/* XPM */
static char * TSemaphorDBGrid_xpm[] = {
"21 21 9 1",
" 	c None",
".	c #040404",
"+	c #048404",
"@	c #7A7A7A",
"#	c #BABABA",
"$	c #FA0404",
"%	c #FA04FA",
"&	c #FAFA04",
"*	c #FAFAFA",
"@@@@@@@@@@@@@@@      ",
"@#@*####*#####@      ",
"@@@@@@@@@@@@@@@      ",
"@#@****#******@  $$  ",
"@*@*$$*#*++++*@ $$$$ ",
"@#@****#******@ $$$$ ",
"@*@*&&*#*###**@  $$  ",
"@#@****#******@      ",
"@*@..............&&..",
"@#@.#.*#####*###&&&&.",
"@@@.............&&&&.",
"   .#.*****#*****&&*.",
"   .*.##############.",
"   .#.*****#*****++*.",
"   .*.##########++++.",
"   .#.*****#****++++.",
"   .*.###########++#.",
"   .#.*****#********.",
"   .*.##############.",
"   .#.*****#********.",
"   .................."};
