/* XPM */

static char * TSemaforoGrid_xpm[] = {

"23 23 10 1",

" 	c None",

".	c #000000",

"+	c #FF0000",

"@	c #C0C0C0",

"#	c #FFFFFF",

"$	c #46A057",

"%	c #FFFF00",

"&	c #008000",

"*	c #1D0101",

"=	c #0E0000",

"                       ",

" ................  ++  ",

" .@.#@@@@#@@@@@@. ++++ ",

" ................ ++++ ",

" .@.####@#######.  ++  ",

" .#.#$$#@#%%%%%#.      ",

" .@.####@#######.  %%  ",

" .#.#++#@#....##. %%%% ",

" .@.####@#######. %%%% ",

" .#.#%%#@#$$$$$#.  %%  ",

" .@.####@#######.      ",

" .#.#..#@#++++##.  &&  ",

" .@.####@#######. &&&& ",

" *=.............. &&&& ",

"       +           &&  ",

"       +               ",

"   ++  +++   ++        ",

"     + +  + +  +       ",

"   +++ +  + +          ",

"  +  + +  + +          ",

"  +  + +  + +  +       ",

"   +++ +++   ++        ",

"                       "};

