/* XPM */
static char * tticombobox_xpm[] = {
"23 23 255 2",
"  	c None",
". 	c #000200",
"+ 	c #121212",
"@ 	c #000000",
"# 	c #040404",
"$ 	c #010103",
"% 	c #000002",
"& 	c #FBF7FF",
"* 	c #FFFAFF",
"= 	c #F7F0FF",
"- 	c #FFF7FF",
"; 	c #F5ECFF",
"> 	c #FFF6FF",
", 	c #FCF5FF",
"' 	c #FFFBFF",
") 	c #FDFAFF",
"! 	c #000007",
"~ 	c #FFFFFF",
"{ 	c #FEFEFC",
"] 	c #FFFFFA",
"^ 	c #B9BBB0",
"/ 	c #010300",
"( 	c #070125",
"_ 	c #0A032D",
": 	c #1A1245",
"< 	c #0D043D",
"[ 	c #130946",
"} 	c #0F063F",
"| 	c #160E3F",
"1 	c #0C0821",
"2 	c #FFFCFF",
"3 	c #000009",
"4 	c #FFFEFF",
"5 	c #030301",
"6 	c #000100",
"7 	c #CCCEC3",
"8 	c #FEFDFF",
"9 	c #F6F4FF",
"0 	c #FFFDFF",
"a 	c #FBF8FF",
"b 	c #FCF8FF",
"c 	c #FEFAFF",
"d 	c #FAF6FF",
"e 	c #FEFCFF",
"f 	c #010006",
"g 	c #7A7A7A",
"h 	c #898989",
"i 	c #BCBCBC",
"j 	c #FAFBF3",
"k 	c #FFFFFB",
"l 	c #F2F3F7",
"m 	c #FEFFFF",
"n 	c #FEFEFF",
"o 	c #F6F5FA",
"p 	c #C0C1C3",
"q 	c #C1C2C6",
"r 	c #B8B7BC",
"s 	c #C6C5CB",
"t 	c #020500",
"u 	c #000102",
"v 	c #000005",
"w 	c #040612",
"x 	c #00000B",
"y 	c #000104",
"z 	c #000207",
"A 	c #F6FAF9",
"B 	c #FBFFFF",
"C 	c #FBFEFF",
"D 	c #ECEEFF",
"E 	c #FBFDFF",
"F 	c #FAFDFF",
"G 	c #FAFEFF",
"H 	c #F9FBFF",
"I 	c #FCFFFF",
"J 	c #000106",
"K 	c #FCFEFF",
"L 	c #F4F6FF",
"M 	c #0A0D2E",
"N 	c #03052E",
"O 	c #090A36",
"P 	c #0C0B33",
"Q 	c #0C0940",
"R 	c #0A0A3E",
"S 	c #0A0B39",
"T 	c #0A0D30",
"U 	c #101227",
"V 	c #F6FAFF",
"W 	c #050801",
"X 	c #000010",
"Y 	c #F5F6FF",
"Z 	c #F6F8FF",
"` 	c #F8F8FF",
" .	c #F5F4FF",
"..	c #F8F5FF",
"+.	c #F8F2FF",
"@.	c #F7F3FF",
"#.	c #F8F4FF",
"$.	c #F8F7FF",
"%.	c #F6F9FF",
"&.	c #634C47",
"*.	c #856C66",
"=.	c #775E5A",
"-.	c #4F3732",
";.	c #00001C",
">.	c #8C000B",
",.	c #F9F6FF",
"'.	c #FBFBFF",
").	c #000013",
"!.	c #DEBCB5",
"~.	c #E8C8C1",
"{.	c #E4C1BA",
"].	c #C3988E",
"^.	c #4B251C",
"/.	c #000020",
"(.	c #F8EEEC",
"_.	c #DDABA0",
":.	c #CC8170",
"<.	c #934737",
"[.	c #000022",
"}.	c #F3F2FF",
"|.	c #F4F4FF",
"1.	c #F4F5FF",
"2.	c #F7F6FF",
"3.	c #F6F5FF",
"4.	c #000026",
"5.	c #CC8171",
"6.	c #BF604C",
"7.	c #B84F39",
"8.	c #A03F2A",
"9.	c #3C160E",
"0.	c #00001F",
"a.	c #B4452E",
"b.	c #B4452D",
"c.	c #9A3A25",
"d.	c #31120C",
"e.	c #000015",
"f.	c #F9FCFF",
"g.	c #F5F7FF",
"h.	c #F8FBFF",
"i.	c #F8FDFF",
"j.	c #000107",
"k.	c #C06450",
"l.	c #C16552",
"m.	c #BD5F4C",
"n.	c #7B2F1F",
"o.	c #0F0503",
"p.	c #111521",
"q.	c #F0F5FF",
"r.	c #EFF2FF",
"s.	c #F7F9FF",
"t.	c #F7FAFF",
"u.	c #F7F7FF",
"v.	c #F7F8FF",
"w.	c #F8FAFF",
"x.	c #F3F7FF",
"y.	c #F6FBFF",
"z.	c #000300",
"A.	c #A56D61",
"B.	c #C3877A",
"C.	c #B97F73",
"D.	c #865044",
"E.	c #170A06",
"F.	c #090D2A",
"G.	c #05072D",
"H.	c #0B0E3B",
"I.	c #080740",
"J.	c #07054E",
"K.	c #07064C",
"L.	c #070745",
"M.	c #08083A",
"N.	c #F5FAFF",
"O.	c #EFF4FA",
"P.	c #000602",
"Q.	c #362F23",
"R.	c #766A5A",
"S.	c #5B5143",
"T.	c #17130C",
"U.	c #F3F4FF",
"V.	c #FCF9FF",
"W.	c #FBF9FF",
"X.	c #FBFAFF",
"Y.	c #FBFCFF",
"Z.	c #080C0F",
"`.	c #C5D2C2",
" +	c #D2DECF",
".+	c #CCDAC9",
"++	c #96A891",
"@+	c #1E291B",
"#+	c #0B0B0D",
"$+	c #01000E",
"%+	c #050414",
"&+	c #00000E",
"*+	c #00010E",
"=+	c #00000C",
"-+	c #040613",
";+	c #E8EFE7",
">+	c #BBCEB7",
",+	c #9CB796",
"'+	c #9BB795",
")+	c #4A6844",
"!+	c #2A303B",
"~+	c #575F6F",
"{+	c #A6AAB3",
"]+	c #686F7D",
"^+	c #525A6B",
"/+	c #51596A",
"(+	c #404858",
"_+	c #375335",
":+	c #658F5B",
"<+	c #A6BFA1",
"[+	c #779C6E",
"}+	c #5F8B55",
"|+	c #4B7441",
"1+	c #1A2A17",
"2+	c #282E39",
"3+	c #434C5E",
"4+	c #3C4455",
"5+	c #365334",
"6+	c #518146",
"7+	c #47713D",
"8+	c #192816",
"9+	c #1F242D",
"0+	c #48505F",
"a+	c #5D6474",
"b+	c #5D6574",
"c+	c #575F6E",
"d+	c #2D333F",
"e+	c #1C2B1A",
"f+	c #55804B",
"g+	c #68915E",
"h+	c #699260",
"i+	c #648E5B",
"j+	c #395C32",
"k+	c #090E07",
"l+	c #353A43",
"m+	c #868C97",
"n+	c #9398A2",
"o+	c #90959F",
"p+	c #5E636E",
"q+	c #111419",
"r+	c #070B06",
"s+	c #395033",
"t+	c #89A783",
"u+	c #9BB695",
"v+	c #98B491",
"w+	c #6B8964",
"x+	c #162414",
"y+	c #17191E",
"z+	c #31343B",
"A+	c #23262C",
"B+	c #070709",
"C+	c #192517",
"D+	c #364831",
"E+	c #293826",
"F+	c #090E08",
". . . . . . . . . . . + @ # @ $ %             ",
". & * = - - ; > , ' ) ! ~ { ] ^ /             ",
". ' ( _ : < [ } | 1 2 3 4 5 6 7 .             ",
". 8 9 0 a & b c d 0 e f ~ g h i @             ",
". j k ~ l m n n 0 o m % p q r s !             ",
". . t 6 u v w x v 6 6 u y z v ! !             ",
"    . A B C D E E E F F G H I m %             ",
"    J K L M N O P Q R S T U V I W             ",
"    X Y H Z `  ...+.@.#.$.H E %.6 &.*.=.-.    ",
"    ;.H $.>.>.>.>.>.>.>.>.,.` '.).!.~.{.].^.  ",
"    /.>.>.>.>.>.>.>.>.>.>.>.>.>./.(._.:.:.<.  ",
"    [.>.>.}.}.|.1.Y Y Y 2.3.>.>.4.5.6.7.7.8.9.",
"    0.>.>.>.>.>.>.>.>.>.>.>.>.>.;.a.a.a.b.c.d.",
"    e.f.g.>.>.>.>.>.>.>.>.h.i.f.j.k.l.l.m.n.o.",
"    p.q.f.h.r.s.t.u.u.v.w.x.y.B z.A.B.C.D.E.  ",
"    v B E F.G.H.I.J.K.L.M.T N.O.P.Q.R.S.T.    ",
"    6 f.s.C E U.V.W.W.X.f.Y.F B Z.`. +.+++@+  ",
"    @ #+v 3 $+%+&+! ! 3 3 *+=+-+x ;+>+,+'+)+  ",
"                !+~+{+]+^+/+(+_+:+<+[+}+}+|+1+",
"                2+3+3+3+3+3+4+5+6+6+6+6+6+7+8+",
"                9+0+a+b+b+c+d+e+f+g+h+h+i+j+k+",
"                  l+m+n+o+p+q+r+s+t+u+v+w+x+  ",
"                    y+z+A+B+      C+D+E+F+    "};
