/* XPM */
static char * ttifloatspinedit_xpm[] = {
"23 23 204 2",
"  	c None",
". 	c #929292",
"+ 	c #747474",
"@ 	c #818181",
"# 	c #7C7C7C",
"$ 	c #7D7D7D",
"% 	c #777777",
"& 	c #7E7E7E",
"* 	c #878787",
"= 	c #888888",
"- 	c #7A7A7A",
"; 	c #858585",
"> 	c #7B7B7B",
", 	c #8A8A8A",
"' 	c #868686",
") 	c #787878",
"! 	c #727272",
"~ 	c #0B0B0B",
"{ 	c #000000",
"] 	c #030303",
"^ 	c #050505",
"/ 	c #0A0A0A",
"( 	c #040404",
"_ 	c #FFFFFF",
": 	c #F9F9F9",
"< 	c #FCFCFC",
"[ 	c #FDFDFD",
"} 	c #BEBEBE",
"| 	c #FFFDFF",
"1 	c #FEFCFF",
"2 	c #FEFEFF",
"3 	c #010000",
"4 	c #020202",
"5 	c #C2C2C2",
"6 	c #020003",
"7 	c #FFFAFF",
"8 	c #FCFDFF",
"9 	c #FAFBF3",
"0 	c #FFFFFA",
"a 	c #FFFEFF",
"b 	c #C5C5C5",
"c 	c #010103",
"d 	c #C44141",
"e 	c #C74D4D",
"f 	c #C03636",
"g 	c #D98787",
"h 	c #FFFFFD",
"i 	c #FEFDFD",
"j 	c #F9EEEE",
"k 	c #B20707",
"l 	c #FEFFFF",
"m 	c #FBF3F3",
"n 	c #DB8E8E",
"o 	c #D06969",
"p 	c #000105",
"q 	c #FCFFFF",
"r 	c #EDC8C8",
"s 	c #CC5C5C",
"t 	c #EBC1C1",
"u 	c #000103",
"v 	c #FBFFFF",
"w 	c #F3DADA",
"x 	c #B61616",
"y 	c #F8FAFF",
"z 	c #4B251C",
"A 	c #FBFEFF",
"B 	c #F5DFDF",
"C 	c #F5E1E1",
"D 	c #934737",
"E 	c #000201",
"F 	c #B91F1F",
"G 	c #C13939",
"H 	c #C13A3A",
"I 	c #E7B3B3",
"J 	c #FEFFFD",
"K 	c #A03F2A",
"L 	c #3C160E",
"M 	c #050503",
"N 	c #FEFFFB",
"O 	c #F9FBFF",
"P 	c #FBFCFF",
"Q 	c #F8F8F8",
"R 	c #9A3A25",
"S 	c #31120C",
"T 	c #8D8D8D",
"U 	c #FDFEF9",
"V 	c #FCFEFB",
"W 	c #FCFFF2",
"X 	c #FCFFF6",
"Y 	c #FEFFF4",
"Z 	c #FFFFF3",
"` 	c #FEFFF5",
" .	c #FFFFFB",
"..	c #BCBCBC",
"+.	c #7B2F1F",
"@.	c #0F0503",
"#.	c #C2C2C0",
"$.	c #C2C1C6",
"%.	c #C2C0CB",
"&.	c #C2BFD0",
"*.	c #C3C1CE",
"=.	c #BEBFBA",
"-.	c #C9CBC0",
";.	c #BBBCB7",
">.	c #BEBEBC",
",.	c #B9B8B4",
"'.	c #C2C3BE",
").	c #B7B7B5",
"!.	c #CACACA",
"~.	c #B5B5B5",
"{.	c #BBBBBB",
"].	c #170A06",
"^.	c #FAFAFC",
"/.	c #FDFAFF",
"(.	c #FDFBFF",
"_.	c #FDFCFA",
":.	c #FDFBFC",
"<.	c #FDF9FF",
"[.	c #FCF8FF",
"}.	c #FEFDF9",
"|.	c #F8F8F0",
"1.	c #FFFEFC",
"2.	c #FAF7FE",
"3.	c #53585F",
"4.	c #C9CBD0",
"5.	c #CED0D5",
"6.	c #C9CBD1",
"7.	c #898D93",
"8.	c #1D2025",
"9.	c #51644D",
"0.	c #C5D2C2",
"a.	c #D2DECF",
"b.	c #CCDAC9",
"c.	c #96A891",
"d.	c #1E291B",
"e.	c #2A2F39",
"f.	c #888D97",
"g.	c #EFF0F1",
"h.	c #B0B3BB",
"i.	c #9499A3",
"j.	c #8E939D",
"k.	c #414650",
"l.	c #202F1F",
"m.	c #8DA987",
"n.	c #E8EFE7",
"o.	c #BBCEB7",
"p.	c #9CB796",
"q.	c #9BB795",
"r.	c #4A6844",
"s.	c #2A303B",
"t.	c #575F6F",
"u.	c #A6AAB3",
"v.	c #686F7D",
"w.	c #525A6B",
"x.	c #51596A",
"y.	c #404858",
"z.	c #375335",
"A.	c #658F5B",
"B.	c #A6BFA1",
"C.	c #779C6E",
"D.	c #5F8B55",
"E.	c #4B7441",
"F.	c #1A2A17",
"G.	c #282E39",
"H.	c #434C5E",
"I.	c #3C4455",
"J.	c #365334",
"K.	c #518146",
"L.	c #47713D",
"M.	c #192816",
"N.	c #1F242D",
"O.	c #48505F",
"P.	c #5D6474",
"Q.	c #5D6574",
"R.	c #575F6E",
"S.	c #2D333F",
"T.	c #1C2B1A",
"U.	c #55804B",
"V.	c #68915E",
"W.	c #699260",
"X.	c #648E5B",
"Y.	c #395C32",
"Z.	c #090E07",
"`.	c #353A43",
" +	c #868C97",
".+	c #9398A2",
"++	c #90959F",
"@+	c #5E636E",
"#+	c #111419",
"$+	c #070B06",
"%+	c #395033",
"&+	c #89A783",
"*+	c #9BB695",
"=+	c #98B491",
"-+	c #6B8964",
";+	c #162414",
">+	c #17191E",
",+	c #31343B",
"'+	c #23262C",
")+	c #070709",
"!+	c #192517",
"~+	c #364831",
"{+	c #293826",
"]+	c #090E08",
". + @ @ @ @ @ @ # # $ % & * = - ; > , ' )     ",
"! ~ { { { { { { ] ^ { / { { { ] { ( { { _     ",
"@ { _ _ _ _ _ _ _ : _ < _ < _ [ < _ _ } _     ",
"@ { | _ _ _ _ _ _ 1 2 { { { 3 { 4 { [ 5 _     ",
"& 6 7 _ _ _ _ _ _ _ 8 { 9 0 { 8 a { _ b _     ",
"& c | _ _ _ d e f g _ { h { { { a { _ b _     ",
"& c a _ _ _ i _ j k _ { _ l a 8 _ { _ b _     ",
"& c _ _ _ _ _ m n o _ { { { { { { { _ b _     ",
"& p q _ _ _ r s f t _ { { { { { { { _ b _     ",
"& u v _ _ _ _ _ w x _ { _ y _ 8 l { _ b _ z   ",
"& u A _ B _ i _ C x _ { _ { { { l { 8 b _ D   ",
"& E q _ F _ G e H I _ { _ A { 8 J { _ b _ K L ",
"+ M N 8 _ _ v v O P _ { { { { { { { [ b Q R S ",
"T { U _ 8 V W _ _ _ _ X Y W Z `  .Q _ .._ +.@.",
", { #.$.#.#.$.%.&.*.=.-.;.>.,.'.).!.~.{._ ].  ",
"# ^./.(._.:./.<.[./.}.|.1.a | 2._ _ _ _ [     ",
"                  3.4.5.6.7.8.  9.0.a.b.c.d.  ",
"                e.f.g.h.i.j.k.l.m.n.o.p.q.r.  ",
"                s.t.u.v.w.x.y.z.A.B.C.D.D.E.F.",
"                G.H.H.H.H.H.I.J.K.K.K.K.K.L.M.",
"                N.O.P.Q.Q.R.S.T.U.V.W.W.X.Y.Z.",
"                  `. +.+++@+#+$+%+&+*+=+-+;+  ",
"                    >+,+'+)+      !+~+{+]+    "};
