/* XPM */
static char * ttigrid_xpm[] = {
"23 23 122 2",
"  	c None",
". 	c #000000",
"+ 	c #C0C0C0",
"@ 	c #FFFFFF",
"# 	c #909090",
"$ 	c #000080",
"% 	c #775E5A",
"& 	c #4F3732",
"* 	c #E4C1BA",
"= 	c #C3988E",
"- 	c #4B251C",
"; 	c #CC8170",
"> 	c #934737",
", 	c #B84F39",
"' 	c #A03F2A",
") 	c #3C160E",
"! 	c #6E291A",
"~ 	c #B4452D",
"{ 	c #B4452E",
"] 	c #9A3A25",
"^ 	c #31120C",
"/ 	c #441910",
"( 	c #AC4C37",
"_ 	c #C06450",
": 	c #C16552",
"< 	c #BD5F4C",
"[ 	c #7B2F1F",
"} 	c #0F0503",
"| 	c #51271E",
"1 	c #A56D61",
"2 	c #C3877A",
"3 	c #B97F73",
"4 	c #865044",
"5 	c #170A06",
"6 	c #25282C",
"7 	c #5F6267",
"8 	c #43454A",
"9 	c #362F23",
"0 	c #766A5A",
"a 	c #5B5143",
"b 	c #17130C",
"c 	c #53585F",
"d 	c #C9CBD0",
"e 	c #CED0D5",
"f 	c #C9CBD1",
"g 	c #898D93",
"h 	c #1D2025",
"i 	c #51644D",
"j 	c #C5D2C2",
"k 	c #D2DECF",
"l 	c #CCDAC9",
"m 	c #96A891",
"n 	c #1E291B",
"o 	c #2A2F39",
"p 	c #888D97",
"q 	c #EFF0F1",
"r 	c #B0B3BB",
"s 	c #9499A3",
"t 	c #8E939D",
"u 	c #414650",
"v 	c #202F1F",
"w 	c #8DA987",
"x 	c #E8EFE7",
"y 	c #BBCEB7",
"z 	c #9CB796",
"A 	c #9BB795",
"B 	c #4A6844",
"C 	c #2A303B",
"D 	c #575F6F",
"E 	c #A6AAB3",
"F 	c #686F7D",
"G 	c #525A6B",
"H 	c #51596A",
"I 	c #404858",
"J 	c #375335",
"K 	c #658F5B",
"L 	c #A6BFA1",
"M 	c #779C6E",
"N 	c #5F8B55",
"O 	c #4B7441",
"P 	c #1A2A17",
"Q 	c #282E39",
"R 	c #434C5E",
"S 	c #3C4455",
"T 	c #365334",
"U 	c #518146",
"V 	c #47713D",
"W 	c #192816",
"X 	c #1F242D",
"Y 	c #48505F",
"Z 	c #5D6474",
"` 	c #5D6574",
" .	c #575F6E",
"..	c #2D333F",
"+.	c #1C2B1A",
"@.	c #55804B",
"#.	c #68915E",
"$.	c #699260",
"%.	c #648E5B",
"&.	c #395C32",
"*.	c #090E07",
"=.	c #353A43",
"-.	c #868C97",
";.	c #9398A2",
">.	c #90959F",
",.	c #5E636E",
"'.	c #111419",
").	c #070B06",
"!.	c #395033",
"~.	c #89A783",
"{.	c #9BB695",
"].	c #98B491",
"^.	c #6B8964",
"/.	c #162414",
"(.	c #17191E",
"_.	c #31343B",
":.	c #23262C",
"<.	c #070709",
"[.	c #192517",
"}.	c #364831",
"|.	c #293826",
"1.	c #090E08",
". . . . . . . . . . . . . . . . . .           ",
". + . @ + + + + + @ + + + + + + + . #         ",
". . . . . . . . . . . . . . . . . . #         ",
". + . @ @ @ @ @ + @ @ @ @ @ @ @ @ . #         ",
". @ . @ $ $ $ @ + @ $ $ $ $ $ $ @ . #         ",
". + . @ @ @ @ @ + @ @ @ @ @ @ @ @ . #         ",
". @ . @ $ $ $ @ + @ $ $ $ $ $ @ @ . #         ",
". + . @ @ @ @ @ + @ @ @ @ @ @ @ @ . #         ",
". @ . @ $ $ $ @ + @ $ $ $ $ $ $ @ . # % &     ",
". + . @ @ @ @ @ + @ @ @ @ @ @ @ @ . # * = -   ",
". . . . . . . . . . . . . . . . . . # ; ; >   ",
"  # # # # # # # # # # # # # # # # # # , , ' ) ",
"                              ! ~ { { { ~ ] ^ ",
"                              / ( _ : : < [ } ",
"                                | 1 2 3 4 5   ",
"                    6 7 8         9 0 a b     ",
"                  c d e f g h   i j k l m n   ",
"                o p q r s t u v w x y z A B   ",
"                C D E F G H I J K L M N N O P ",
"                Q R R R R R S T U U U U U V W ",
"                X Y Z ` `  ...+.@.#.$.$.%.&.*.",
"                  =.-.;.>.,.'.).!.~.{.].^./.  ",
"                    (._.:.<.      [.}.|.1.    "};
