/* XPM */
static char * ttimaskedit_xpm[] = {
"23 23 216 2",
"  	c None",
". 	c #929292",
"+ 	c #747474",
"@ 	c #818181",
"# 	c #7C7C7C",
"$ 	c #7D7D7D",
"% 	c #777777",
"& 	c #7E7E7E",
"* 	c #888888",
"= 	c #7A7A7A",
"- 	c #858585",
"; 	c #8A8A8A",
"> 	c #868686",
", 	c #787878",
"' 	c #727272",
") 	c #0B0B0B",
"! 	c #000000",
"~ 	c #030303",
"{ 	c #050505",
"] 	c #0A0A0A",
"^ 	c #FFFFFF",
"/ 	c #FFFDFF",
"( 	c #FEFEFE",
"_ 	c #FDFFFE",
": 	c #FDFEFF",
"< 	c #FDFDFF",
"[ 	c #FDFBFF",
"} 	c #FEFCFF",
"| 	c #FEFEFF",
"1 	c #F9F9F9",
"2 	c #FFFFFD",
"3 	c #010000",
"4 	c #FFFEFF",
"5 	c #020202",
"6 	c #FDFDFD",
"7 	c #C2C2C2",
"8 	c #020003",
"9 	c #FEFCFD",
"0 	c #FBFBFB",
"a 	c #FEFFFF",
"b 	c #FCFFFF",
"c 	c #F8F8FF",
"d 	c #FCFDFF",
"e 	c #FEFFFD",
"f 	c #FAFBF3",
"g 	c #030004",
"h 	c #C5C5C5",
"i 	c #010103",
"j 	c #FFFBFF",
"k 	c #AA4747",
"l 	c #F9FAFF",
"m 	c #FAF5F9",
"n 	c #020005",
"o 	c #EEECF9",
"p 	c #F2F2FF",
"q 	c #000004",
"r 	c #F5F7FF",
"s 	c #000002",
"t 	c #000105",
"u 	c #F7FBFF",
"v 	c #F1F4FF",
"w 	c #F2F5FF",
"x 	c #060A0B",
"y 	c #000103",
"z 	c #F4F8FF",
"A 	c #F3F6FF",
"B 	c #F0F6FF",
"C 	c #000202",
"D 	c #4F3732",
"E 	c #F9FEFF",
"F 	c #F1F1FF",
"G 	c #FBFFFF",
"H 	c #010602",
"I 	c #C3988E",
"J 	c #4B251C",
"K 	c #000201",
"L 	c #F5FBF9",
"M 	c #000300",
"N 	c #CC8170",
"O 	c #934737",
"P 	c #050503",
"Q 	c #FCFCFF",
"R 	c #FBFDFF",
"S 	c #F9FBFF",
"T 	c #FBFCFF",
"U 	c #F5F8FF",
"V 	c #FEFFF4",
"W 	c #010200",
"X 	c #F8F8F8",
"Y 	c #B84F39",
"Z 	c #A03F2A",
"` 	c #3C160E",
" .	c #C3C0C7",
"..	c #C2C1C6",
"+.	c #C2C2C0",
"@.	c #C2C0CB",
"#.	c #C2BFD0",
"$.	c #C3C1CE",
"%.	c #BEBFBA",
"&.	c #C9CBC0",
"*.	c #BBBCB7",
"=.	c #B9B8B4",
"-.	c #C2C3BE",
";.	c #B7B7B5",
">.	c #B5B5B5",
",.	c #BBBBBB",
"'.	c #B4452D",
").	c #9A3A25",
"!.	c #31120C",
"~.	c #FAFAFC",
"{.	c #FDFAFF",
"].	c #FDFCFA",
"^.	c #FDFBFC",
"/.	c #FDF9FF",
"(.	c #FCF8FF",
"_.	c #FEFDF9",
":.	c #F8F8F0",
"<.	c #FFFEFC",
"[.	c #FAF7FE",
"}.	c #BD5F4C",
"|.	c #7B2F1F",
"1.	c #0F0503",
"2.	c #51271E",
"3.	c #A56D61",
"4.	c #C3877A",
"5.	c #B97F73",
"6.	c #865044",
"7.	c #170A06",
"8.	c #25282C",
"9.	c #5F6267",
"0.	c #43454A",
"a.	c #362F23",
"b.	c #766A5A",
"c.	c #5B5143",
"d.	c #17130C",
"e.	c #53585F",
"f.	c #C9CBD0",
"g.	c #CED0D5",
"h.	c #C9CBD1",
"i.	c #898D93",
"j.	c #1D2025",
"k.	c #51644D",
"l.	c #C5D2C2",
"m.	c #D2DECF",
"n.	c #CCDAC9",
"o.	c #96A891",
"p.	c #1E291B",
"q.	c #2A2F39",
"r.	c #888D97",
"s.	c #EFF0F1",
"t.	c #B0B3BB",
"u.	c #9499A3",
"v.	c #8E939D",
"w.	c #414650",
"x.	c #202F1F",
"y.	c #8DA987",
"z.	c #E8EFE7",
"A.	c #BBCEB7",
"B.	c #9CB796",
"C.	c #9BB795",
"D.	c #4A6844",
"E.	c #2A303B",
"F.	c #575F6F",
"G.	c #A6AAB3",
"H.	c #686F7D",
"I.	c #525A6B",
"J.	c #51596A",
"K.	c #404858",
"L.	c #375335",
"M.	c #658F5B",
"N.	c #A6BFA1",
"O.	c #779C6E",
"P.	c #5F8B55",
"Q.	c #4B7441",
"R.	c #1A2A17",
"S.	c #282E39",
"T.	c #434C5E",
"U.	c #3C4455",
"V.	c #365334",
"W.	c #518146",
"X.	c #47713D",
"Y.	c #192816",
"Z.	c #1F242D",
"`.	c #48505F",
" +	c #5D6474",
".+	c #5D6574",
"++	c #575F6E",
"@+	c #2D333F",
"#+	c #1C2B1A",
"$+	c #55804B",
"%+	c #68915E",
"&+	c #699260",
"*+	c #648E5B",
"=+	c #395C32",
"-+	c #090E07",
";+	c #353A43",
">+	c #868C97",
",+	c #9398A2",
"'+	c #90959F",
")+	c #5E636E",
"!+	c #111419",
"~+	c #070B06",
"{+	c #395033",
"]+	c #89A783",
"^+	c #9BB695",
"/+	c #98B491",
"(+	c #6B8964",
"_+	c #162414",
":+	c #17191E",
"<+	c #31343B",
"[+	c #23262C",
"}+	c #070709",
"|+	c #192517",
"1+	c #364831",
"2+	c #293826",
"3+	c #090E08",
". + @ @ @ @ @ @ @ # # $ % & * = - ; > ,       ",
"' ) ! ! ! ! ! ! ! ~ { ! ] ! ! ~ ! ! ! ^       ",
"@ ! / ( ( ( _ : < [ } | 1 2 3 4 5 6 7 ^       ",
"& 8 / 9 0 a b b c ^ ^ d e f 4 g 4 ^ h ^       ",
"& i j ^ k ^ k ^ l ^ k ^ k ^ m n 4 ^ h ^       ",
"& i o ^ k ^ k ^ p ^ k ^ k ^ 4 q ^ ^ h ^       ",
"& i d k k k k k r k k k k k b s ^ ^ h ^       ",
"& t u ^ k ^ k ^ v ^ k ^ k ^ w x a ^ h ^       ",
"& y z k k k k k A k k k k k B C a ^ h ^ D     ",
"& y E ^ k ^ k ^ F ^ k ^ k ^ G H a ^ h ^ I J   ",
"& K u ^ k ^ k ^ c ^ k ^ k ^ L M e ^ h ^ N O   ",
"+ P b b d Q R G G S T R U b M V W 6 h X Y Z ` ",
"; ! 7  ...+.+...@.#.$.%.&.*.=.-.;.>.,.^ '.).!.",
"# ~.{.{.[ ].^.{./.(.{._.:.<./ [.^ ^ ^ 6 }.|.1.",
"                                2.3.4.5.6.7.  ",
"                    8.9.0.        a.b.c.d.    ",
"                  e.f.g.h.i.j.  k.l.m.n.o.p.  ",
"                q.r.s.t.u.v.w.x.y.z.A.B.C.D.  ",
"                E.F.G.H.I.J.K.L.M.N.O.P.P.Q.R.",
"                S.T.T.T.T.T.U.V.W.W.W.W.W.X.Y.",
"                Z.`. +.+.+++@+#+$+%+&+&+*+=+-+",
"                  ;+>+,+'+)+!+~+{+]+^+/+(+_+  ",
"                    :+<+[+}+      |+1+2+3+    "};
