/* XPM */
static char * ttitrackbar_xpm[] = {
"23 23 133 2",
"  	c None",
". 	c #FFFFFF",
"+ 	c #C0C0C0",
"@ 	c #808080",
"# 	c #634C47",
"$ 	c #856C66",
"% 	c #775E5A",
"& 	c #4F3732",
"* 	c #8A5B51",
"= 	c #DEBCB5",
"- 	c #E8C8C1",
"; 	c #E4C1BA",
"> 	c #C3988E",
", 	c #4B251C",
"' 	c #5D281C",
") 	c #CC8677",
"! 	c #F8EEEC",
"~ 	c #DDABA0",
"{ 	c #CC8170",
"] 	c #934737",
"^ 	c #000000",
"/ 	c #7A2E1E",
"( 	c #CC8171",
"_ 	c #BF604C",
": 	c #B84F39",
"< 	c #A03F2A",
"[ 	c #3C160E",
"} 	c #6E291A",
"| 	c #B4452E",
"1 	c #B4452D",
"2 	c #9A3A25",
"3 	c #31120C",
"4 	c #441910",
"5 	c #AC4C37",
"6 	c #C06450",
"7 	c #C16552",
"8 	c #BD5F4C",
"9 	c #7B2F1F",
"0 	c #0F0503",
"a 	c #51271E",
"b 	c #A56D61",
"c 	c #C3877A",
"d 	c #B97F73",
"e 	c #865044",
"f 	c #170A06",
"g 	c #25282C",
"h 	c #5F6267",
"i 	c #43454A",
"j 	c #362F23",
"k 	c #766A5A",
"l 	c #5B5143",
"m 	c #17130C",
"n 	c #53585F",
"o 	c #C9CBD0",
"p 	c #CED0D5",
"q 	c #C9CBD1",
"r 	c #898D93",
"s 	c #1D2025",
"t 	c #51644D",
"u 	c #C5D2C2",
"v 	c #D2DECF",
"w 	c #CCDAC9",
"x 	c #96A891",
"y 	c #1E291B",
"z 	c #2A2F39",
"A 	c #888D97",
"B 	c #EFF0F1",
"C 	c #B0B3BB",
"D 	c #9499A3",
"E 	c #8E939D",
"F 	c #414650",
"G 	c #202F1F",
"H 	c #8DA987",
"I 	c #E8EFE7",
"J 	c #BBCEB7",
"K 	c #9CB796",
"L 	c #9BB795",
"M 	c #4A6844",
"N 	c #2A303B",
"O 	c #575F6F",
"P 	c #A6AAB3",
"Q 	c #686F7D",
"R 	c #525A6B",
"S 	c #51596A",
"T 	c #404858",
"U 	c #375335",
"V 	c #658F5B",
"W 	c #A6BFA1",
"X 	c #779C6E",
"Y 	c #5F8B55",
"Z 	c #4B7441",
"` 	c #1A2A17",
" .	c #282E39",
"..	c #434C5E",
"+.	c #3C4455",
"@.	c #365334",
"#.	c #518146",
"$.	c #47713D",
"%.	c #192816",
"&.	c #1F242D",
"*.	c #48505F",
"=.	c #5D6474",
"-.	c #5D6574",
";.	c #575F6E",
">.	c #2D333F",
",.	c #1C2B1A",
"'.	c #55804B",
").	c #68915E",
"!.	c #699260",
"~.	c #648E5B",
"{.	c #395C32",
"].	c #090E07",
"^.	c #353A43",
"/.	c #868C97",
"(.	c #9398A2",
"_.	c #90959F",
":.	c #5E636E",
"<.	c #111419",
"[.	c #070B06",
"}.	c #395033",
"|.	c #89A783",
"1.	c #9BB695",
"2.	c #98B491",
"3.	c #6B8964",
"4.	c #162414",
"5.	c #17191E",
"6.	c #31343B",
"7.	c #23262C",
"8.	c #070709",
"9.	c #192517",
"0.	c #364831",
"a.	c #293826",
"b.	c #090E08",
"                                              ",
"        . . . . . . .                         ",
"        . + + + + + @                         ",
"        . + + + + + @                         ",
"  @ @   . + + + + + @   @ @ @ @ @ @ @ @ @ @   ",
"  . .   . + + + + + @   . . . . . . . . . .   ",
"        . + + + + + @                         ",
"        . + + + + + @                         ",
"          @ + + + @               # $ % &     ",
"            @ + @               * = - ; > ,   ",
"              @               ' ) ! ~ { { ]   ",
"  ^     ^     ^     ^     ^   / ^ ( _ ^ : < [ ",
"  ^     ^     ^     ^     ^   } ^ | | ^ 1 2 3 ",
"                              4 5 6 7 7 8 9 0 ",
"                                a b c d e f   ",
"                    g h i         j k l m     ",
"                  n o p q r s   t u v w x y   ",
"                z A B C D E F G H I J K L M   ",
"                N O P Q R S T U V W X Y Y Z ` ",
"                 ...........+.@.#.#.#.#.#.$.%.",
"                &.*.=.-.-.;.>.,.'.).!.!.~.{.].",
"                  ^./.(._.:.<.[.}.|.1.2.3.4.  ",
"                    5.6.7.8.      9.0.a.b.    "};
