/* XPM */
static char * icon_xpm[] = {
"22 22 3 1",
" 	c #000000",
".	c #D2C600",
"+	c #A02FFF",
"      ................",
"      ................",
"     .................",
"     .................",
"     .................",
"    ..................",
"     .....++++++++....",
"     ..+++++++++++++++",
"     ..+++++++++++++++",
"     ..+++++++++++++++",
"     ..+++++++++++++++",
"   ....+++++++++++++++",
"   ....+++++++++++++++",
"   .....++++++++++++++",
"   .....++++++++++++++",
"    .....+++++++++++++",
"   .......++++++++++++",
"  .........+++++++++++",
"  .........+++++++++++",
"  .........+++++++++++",
"  .........+++++++++++",
"  .........+++++++++++"};
