/* XPM */
static char * bookmark9_xpm[] = {
"16 16 68 1",
" 	c None",
".	c #23422D",
"+	c #336041",
"@	c #203D29",
"#	c #23412C",
"$	c #6F8E79",
"%	c #8CA594",
"&	c #7C9985",
"*	c #3E694C",
"=	c #3C6749",
"-	c #708F79",
";	c #BBCAC0",
">	c #B3C4B8",
",	c #D1DBD4",
"'	c #90A897",
")	c #3A6547",
"!	c #6D8D77",
"~	c #CBD7CF",
"{	c #456E52",
"]	c #577C62",
"^	c #D9E1DC",
"/	c #91A999",
"(	c #386446",
"_	c #436D50",
":	c #B7C7BB",
"<	c #7F9B88",
"[	c #CED8D1",
"}	c #BDCCC2",
"|	c #3D684B",
"1	c #799782",
"2	c #E6EBE7",
"3	c #698A73",
"4	c #72917B",
"5	c #E5EAE6",
"6	c #87A18F",
"7	c #346142",
"8	c #54795F",
"9	c #D4DDD6",
"0	c #8AA492",
"a	c #356243",
"b	c #416B4E",
"c	c #9DB2A4",
"d	c #EBF0ED",
"e	c #95AC9C",
"f	c #91A998",
"g	c #BECCC2",
"h	c #E4EAE6",
"i	c #587C63",
"j	c #436C50",
"k	c #97AE9E",
"l	c #ADBFB3",
"m	c #C8D4CC",
"n	c #AABDB0",
"o	c #6F8F79",
"p	c #C5D2C9",
"q	c #466F53",
"r	c #3F694C",
"s	c #8BA593",
"t	c #A5B8AB",
"u	c #4F755B",
"v	c #497156",
"w	c #668871",
"x	c #AFC0B4",
"y	c #96AD9D",
"z	c #366243",
"A	c #72917C",
"B	c #829D8A",
"C	c #567B62",
"    .++++++.    ",
"   @++++++++@   ",
"  #++++$%&*++#  ",
" @+++=-;>,')++@ ",
".++++!~{+]^/(++.",
"++++_:<+++[}|+++",
"++++123+++[}|+++",
"++++4567+890a+++",
"++++bcdefghi++++",
"+++++jkl0mn+++++",
"+++++++(opq+++++",
".+++++rstu+++++.",
" @+7vwxyv+++++@ ",
"  #zABC++++++#  ",
"   @77++++++@   ",
"    .++++++.    "};
