/* XPM */
static char * bookmark5_xpm[] = {
"16 16 56 1",
" 	c None",
".	c #23422D",
"+	c #336041",
"@	c #203D29",
"#	c #23412C",
"$	c #406A4D",
"%	c #AABDB0",
"&	c #D6DFD9",
"*	c #D5DED8",
"=	c #9EB3A4",
"-	c #3B6648",
";	c #436C50",
">	c #C8D4CC",
",	c #BBCABF",
"'	c #B8C7BC",
")	c #B5C5BA",
"!	c #75937F",
"~	c #366244",
"{	c #60836A",
"]	c #B0C1B5",
"^	c #3E684B",
"/	c #3A6648",
"(	c #356243",
"_	c #63866E",
":	c #ADBFB2",
"<	c #70907A",
"[	c #C2CFC6",
"}	c #A0B5A6",
"|	c #9EB4A5",
"1	c #6C8C76",
"2	c #53795F",
"3	c #73927D",
"4	c #E3E9E5",
"5	c #789681",
"6	c #BDCBC1",
"7	c #E6EBE8",
"8	c #386445",
"9	c #366243",
"0	c #B3C4B8",
"a	c #466F53",
"b	c #C4D1C8",
"c	c #6A8B74",
"d	c #446D50",
"e	c #BECCC2",
"f	c #51775D",
"g	c #497155",
"h	c #DAE2DC",
"i	c #ADBFB3",
"j	c #87A18F",
"k	c #ACBEB2",
"l	c #B9C8BD",
"m	c #426C4F",
"n	c #346142",
"o	c #5B7F66",
"p	c #8AA492",
"q	c #8CA594",
"    .++++++.    ",
"   @++++++++@   ",
"  #++++++++++#  ",
" @+++$%&&&*=-+@ ",
".++++;>,'')!~++.",
"+++++{]^--/(++++",
"+++++_:(++++++++",
"+++++<[}|1~+++++",
"+++++213=45+++++",
"++++++++~67+++++",
"++++^8++90,+++++",
".++abc+d3ef++++.",
" @+ghijklmn+++@ ",
"  #nopq1m++++#  ",
"   @++++++++@   ",
"    .++++++.    "};
