/* XPM */
static char * bookmark0_xpm[] = {
"11 11 12 1",
" 	c None",
".	c #000000",
"+	c #336041",
"@	c #5F826A",
"#	c #BBCABF",
"$	c #A3B7AA",
"%	c #FFFFFF",
"&	c #D1DBD4",
"*	c #779580",
"=	c #E7ECE9",
"-	c #8DA695",
";	c #497155",
"   .....   ",
"  .+++++.  ",
" .++@#$++. ",
".++@%#&$++.",
".++##+*=++.",
".++##+*%++.",
".++##+*%++.",
".++$&+-=++.",
" .+;=%%*+. ",
"  .++*@+.  ",
"   .....   "};
