/* XPM */
static char * bookmark4_xpm[] = {
"11 11 12 1",
" 	c None",
".	c #000000",
"+	c #336041",
"@	c #779580",
"#	c #BBCABF",
"$	c #5F826A",
"%	c #D1DBD4",
"&	c #FFFFFF",
"*	c #A3B7AA",
"=	c #8DA695",
"-	c #497155",
";	c #E7ECE9",
"   .....   ",
"  .+++++.  ",
" .+++@#$+. ",
".++++%&@++.",
".+++*=&@++.",
".++-;+&@++.",
".++##@&*-+.",
".++#&&&&@+.",
" .++++&@+. ",
"  .+++@-.  ",
"   .....   "};
