/* XPM */
static char * bookmark5_xpm[] = {
"11 11 11 1",
" 	c None",
".	c #000000",
"+	c #336041",
"@	c #BBCABF",
"#	c #8DA695",
"$	c #FFFFFF",
"%	c #779580",
"&	c #E7ECE9",
"*	c #A3B7AA",
"=	c #497155",
"-	c #5F826A",
"   .....   ",
"  .+++++.  ",
" .++@@@#+. ",
".+++$@@#++.",
".++%&@*=++.",
".++%$@&*++.",
".++--+#$++.",
".++##+#$++.",
" .+%$$$*+. ",
"  .+=%-+.  ",
"   .....   "};
