/* XPM */
static char * bookmark6_xpm[] = {
"16 16 68 1",
" 	c None",
".	c #23422D",
"+	c #336041",
"@	c #203D29",
"#	c #23412C",
"$	c #346142",
"%	c #62856D",
"&	c #5A7E65",
"*	c #466E52",
"=	c #8DA695",
"-	c #B2C3B7",
";	c #9FB4A5",
">	c #7E9B87",
",	c #3E684B",
"'	c #97AD9E",
")	c #A9BCAF",
"!	c #6A8B74",
"~	c #ABBDB1",
"{	c #819D8A",
"]	c #396547",
"^	c #708F79",
"/	c #B4C4B9",
"(	c #5D8168",
"_	c #AABCAF",
":	c #4B7357",
"<	c #477054",
"[	c #DAE2DC",
"}	c #CDD8D0",
"|	c #9AB0A0",
"1	c #91AA99",
"2	c #C9D4CC",
"3	c #D5DED8",
"4	c #5F826A",
"5	c #6D8D77",
"6	c #F4F6F5",
"7	c #71907A",
"8	c #3B6649",
"9	c #50765C",
"0	c #E3E9E4",
"a	c #B1C2B6",
"b	c #7F9B87",
"c	c #FFFFFF",
"d	c #386446",
"e	c #D6DFD8",
"f	c #BBCABF",
"g	c #7A9783",
"h	c #FCFCFC",
"i	c #52785E",
"j	c #476F53",
"k	c #E3E9E5",
"l	c #789681",
"m	c #4E755A",
"n	c #D3DCD6",
"o	c #9BB1A1",
"p	c #376344",
"q	c #96AD9D",
"r	c #CAD6CE",
"s	c #4C7358",
"t	c #356143",
"u	c #668871",
"v	c #CBD6CF",
"w	c #93AB9B",
"x	c #ABBDB0",
"y	c #53785E",
"z	c #688972",
"A	c #8CA594",
"B	c #7F9B88",
"C	c #426C4F",
"    .++++++.    ",
"   @++++++++@   ",
"  #+++++$%&++#  ",
" @++++*=-;>+++@ ",
".++++,')!++++++.",
"++++,~{]++++++++",
"++++^/(__:++++++",
"+++<[}|1234+++++",
"+++5678+90a+++++",
"+++bc:++def+++++",
"+++ghi++jkl+++++",
".++mnop]qrs++++.",
" @+tuvwqxy++++@ ",
"  #++zABC++++#  ",
"   @++++++++@   ",
"    .++++++.    "};
