/* XPM */
static char * bookmark2_xpm[] = {
"16 16 61 1",
" 	c None",
".	c #23422D",
"+	c #336041",
"@	c #203D29",
"#	c #23412C",
"$	c #3E684B",
"%	c #567B62",
"&	c #7F9B88",
"*	c #8CA594",
"=	c #5B7F66",
"-	c #3C6749",
";	c #98AE9F",
">	c #9CB1A2",
",	c #ACBFB2",
"'	c #C0CEC5",
")	c #D2DBD5",
"!	c #53795F",
"~	c #346042",
"{	c #8BA593",
"]	c #E7ECE9",
"^	c #3A6547",
"/	c #3B6648",
"(	c #D1DBD4",
"_	c #B2C3B7",
":	c #5F826A",
"<	c #62846C",
"[	c #346142",
"}	c #406A4D",
"|	c #D3DDD6",
"1	c #ADBFB2",
"2	c #76947F",
"3	c #E6EBE7",
"4	c #6B8B75",
"5	c #356143",
"6	c #5B7F67",
"7	c #CFD9D2",
"8	c #789681",
"9	c #6D8D77",
"0	c #D0DAD3",
"a	c #6C8C76",
"b	c #366244",
"c	c #3D684B",
"d	c #6A8B75",
"e	c #A7BAAD",
"f	c #466F53",
"g	c #64866E",
"h	c #A4B8AA",
"i	c #8DA695",
"j	c #4B7257",
"k	c #3F694C",
"l	c #A9BCAF",
"m	c #476F53",
"n	c #4B7358",
"o	c #E8EDE9",
"p	c #EEF1EF",
"q	c #B8C7BC",
"r	c #CBD6CE",
"s	c #E0E7E2",
"t	c #4D7459",
"u	c #D6DFD9",
"v	c #C2CFC6",
"    .++++++.    ",
"   @++++++++@   ",
"  #+++$%&*=++#  ",
" @+++-;>,')!~+@ ",
".++++{]^+/(_-++.",
"+++++:<[+}|1/+++",
"+++++++++234++++",
"+++++++5678[++++",
"+++++++90ab+++++",
"+++++cde4+f-++++",
"+++5ghij/klm++++",
".++nopqqqrs++++.",
" @+tuuuuuuv+++@ ",
"  #++++++++++#  ",
"   @++++++++@   ",
"    .++++++.    "};
