/* XPM */
static char * bookmark0_xpm[] = {
"16 16 61 1",
" 	c None",
".	c #23422D",
"+	c #336041",
"@	c #203D29",
"#	c #23412C",
"$	c #3C6749",
"%	c #5F826A",
"&	c #8CA594",
"*	c #6B8C75",
"=	c #426C4F",
"-	c #376344",
";	c #8DA695",
">	c #CAD6CE",
",	c #B9C9BE",
"'	c #DDE4DF",
")	c #95AD9D",
"!	c #356143",
"~	c #7F9B88",
"{	c #BCCAC0",
"]	c #587D64",
"^	c #7E9A87",
"/	c #D9E1DB",
"(	c #4E755A",
"_	c #487055",
":	c #C7D3CB",
"<	c #62856D",
"[	c #4B7357",
"}	c #FCFCFC",
"|	c #7A9783",
"1	c #91A998",
"2	c #CBD6CE",
"3	c #386446",
"4	c #FFFFFF",
"5	c #7F9B87",
"6	c #3E684B",
"7	c #366244",
"8	c #678871",
"9	c #F4F6F5",
"0	c #6D8D77",
"a	c #567B61",
"b	c #EEF2EF",
"c	c #849F8D",
"d	c #A2B6A8",
"e	c #DEE5E0",
"f	c #3D684B",
"g	c #BAC9BE",
"h	c #C4D1C8",
"i	c #406A4D",
"j	c #CDD8D1",
"k	c #8EA796",
"l	c #75947F",
"m	c #D5DED8",
"n	c #63856D",
"o	c #779480",
"p	c #6E8E78",
"q	c #62846D",
"r	c #3E694C",
"s	c #85A08E",
"t	c #C3D0C7",
"u	c #AFC0B4",
"v	c #668870",
"    .++++++.    ",
"   @++++++++@   ",
"  #++++$%&*=+#  ",
" @++++-;>,')!+@ ",
".+++++~{]-^/(++.",
"+++++_:<++[}|+++",
"+++++123++[45+++",
"++++62{7++890+++",
"++++abc+++de_+++",
"++++abc++fghi+++",
"++++=jk!!lmn++++",
".++++oeppmq++++.",
" @+++rstuv7+++@ ",
"  #++++++++++#  ",
"   @++++++++@   ",
"    .++++++.    "};
