/* XPM */
static char * bookmark3_xpm[] = {
"16 16 62 1",
" 	c None",
".	c #23422D",
"+	c #336041",
"@	c #203D29",
"#	c #23412C",
"$	c #3E684B",
"%	c #567B62",
"&	c #7F9B88",
"*	c #8CA594",
"=	c #5E8168",
"-	c #3D674A",
";	c #3C6749",
">	c #98AE9F",
",	c #B2C3B7",
"'	c #ADBFB2",
")	c #D3DCD6",
"!	c #DEE5E0",
"~	c #779580",
"{	c #346042",
"]	c #5E8269",
"^	c #F6F8F6",
"/	c #487055",
"(	c #466F52",
"_	c #D4DDD7",
":	c #436C50",
"<	c #356243",
"[	c #406A4D",
"}	c #D3DDD6",
"|	c #3B6648",
"1	c #A2B6A8",
"2	c #CCD7CF",
"3	c #4F765B",
"4	c #B0C1B5",
"5	c #B4C5B9",
"6	c #A5B9AB",
"7	c #60836B",
"8	c #5C8067",
"9	c #62846C",
"0	c #D6DFD9",
"a	c #D1DBD4",
"b	c #53795F",
"c	c #7F9B87",
"d	c #E9EEEA",
"e	c #708F79",
"f	c #446D51",
"g	c #5B7F66",
"h	c #3B6749",
"i	c #A9BCAF",
"j	c #D5DED8",
"k	c #4E755A",
"l	c #B5C5BB",
"m	c #5E8169",
"n	c #A4B8AA",
"o	c #C3D0C7",
"p	c #4B7358",
"q	c #366244",
"r	c #B1C2B6",
"s	c #C0CEC4",
"t	c #B9C8BE",
"u	c #8AA492",
"v	c #426C4F",
"w	c #346142",
"    .++++++.    ",
"   @++++++++@   ",
"  #+++$%&*=-+#  ",
" @+++;>,')!~{+@ ",
".++++]^/+(_,;++.",
"+++++:~<+[}'|+++",
"++++++++<123++++",
"+++++++4567+++++",
"+++++++890ab++++",
"+++++++++cde++++",
"+++f1g++hij$++++",
".++kdlbmnop++++.",
" @+qgrstuvw+++@ ",
"  #++++++++++#  ",
"   @++++++++@   ",
"    .++++++.    "};
