/* XPM */
static char * btn_newform_xpm[] = {
"15 13 147 2",
"  	c None",
". 	c #8D8E93",
"+ 	c #7D8391",
"@ 	c #798194",
"# 	c #80889D",
"$ 	c #7C849B",
"% 	c #747A94",
"& 	c #8085A2",
"* 	c #7B80A0",
"= 	c #7F84A2",
"- 	c #7E81A0",
"; 	c #7D819C",
"> 	c #7A7C93",
", 	c #818495",
"' 	c #797B88",
") 	c #868992",
"! 	c #7C7B8D",
"~ 	c #F9F9FF",
"{ 	c #870013",
"] 	c #AE0013",
"^ 	c #D30013",
"/ 	c #FCF4FF",
"( 	c #FEFAFF",
"_ 	c #00000E",
": 	c #858496",
"< 	c #0A0627",
"[ 	c #86868E",
"} 	c #F7F9FF",
"| 	c #F9FCFF",
"1 	c #FBFBFF",
"2 	c #FBFAFF",
"3 	c #EEEDFF",
"4 	c #F8F5FF",
"5 	c #FAF8FF",
"6 	c #FBF7FF",
"7 	c #FEFBFF",
"8 	c #FEFCFF",
"9 	c #05040C",
"0 	c #838486",
"a 	c #FCFFFF",
"b 	c #F2F7FA",
"c 	c #C6CBCE",
"d 	c #F3F9F9",
"e 	c #C3C7C6",
"f 	c #C0C5C1",
"g 	c #FCFFFD",
"h 	c #C3C5C4",
"i 	c #FEFFFF",
"j 	c #CACBCD",
"k 	c #F6F7FB",
"l 	c #CCCBD1",
"m 	c #010008",
"n 	c #848685",
"o 	c #F8FCFB",
"p 	c #C5CAC6",
"q 	c #FCFFFB",
"r 	c #D0D6CC",
"s 	c #EFF3E5",
"t 	c #C6CABB",
"u 	c #F8FCEB",
"v 	c #C8CCBB",
"w 	c #FAFCEE",
"x 	c #D0D2C7",
"y 	c #FAFBF6",
"z 	c #C1C1C3",
"A 	c #FBF8FF",
"B 	c #02000D",
"C 	c #868686",
"D 	c #FBFDFA",
"E 	c #FEFFFB",
"F 	c #C6C9C2",
"G 	c #FCFFF4",
"H 	c #C9CDBF",
"I 	c #FEFFF1",
"J 	c #BEC3AF",
"K 	c #FEFFEF",
"L 	c #CBCEBD",
"M 	c #F6F8EB",
"N 	c #CACBC3",
"O 	c #FFFFFD",
"P 	c #C6C4C9",
"Q 	c #010009",
"R 	c #FFFFFF",
"S 	c #C2C2C0",
"T 	c #C7C7C5",
"U 	c #FDFEF9",
"V 	c #C4C5C0",
"W 	c #FBFCF6",
"X 	c #C9CAC4",
"Y 	c #FFFFFA",
"Z 	c #C1C2BC",
"` 	c #C6C5C0",
" .	c #010000",
"..	c #828282",
"+.	c #FCFCFC",
"@.	c #C2C2C2",
"#.	c #F8F8F8",
"$.	c #C3C3C3",
"%.	c #CECECE",
"&.	c #F9F9F9",
"*.	c #BEBEBC",
"=.	c #BEBDB9",
"-.	c #C4C4BC",
";.	c #060600",
">.	c #858585",
",.	c #B3B3B5",
"'.	c #D3D3D3",
").	c #C0C0BE",
"!.	c #FAFAF8",
"~.	c #CACAC8",
"{.	c #C4C4C2",
"].	c #000000",
"^.	c #848484",
"/.	c #C4C4C6",
"(.	c #F5F5F7",
"_.	c #CBCBCD",
":.	c #F7F7F9",
"<.	c #CDCDCF",
"[.	c #F8F8FA",
"}.	c #C8C8CA",
"|.	c #D4D4D4",
"1.	c #808080",
"2.	c #F9F9FB",
"3.	c #CAC9CE",
"4.	c #FFFEFF",
"5.	c #C6C5CD",
"6.	c #FFFDFF",
"7.	c #C9C7D4",
"8.	c #F7F5FF",
"9.	c #CDCBD8",
"0.	c #C9C8D0",
"a.	c #F7F6FC",
"b.	c #C5C5C7",
"c.	c #F4F6F3",
"d.	c #000200",
"e.	c #949494",
"f.	c #060606",
"g.	c #000002",
"h.	c #040308",
"i.	c #000005",
"j.	c #000007",
"k.	c #000009",
"l.	c #04020F",
"m.	c #08070F",
"n.	c #020204",
"o.	c #0D0F0C",
"p.	c #000100",
". + @ # $ % & * = - ; > , ' ) ",
"! ~ { { { { { ] ] ^ ^ / ^ ( _ ",
": { { { { ] ] ] ^ ^ ^ ^ ^ < _ ",
"[ } | 1 1 2 3 2 4 5 6 7 8 8 9 ",
"0 a b c d e a f g h i j k l m ",
"n o p q r s t u v w x y z A B ",
"C D E F G H I J K L M N O P Q ",
"C R S O T U V W X Y Z Y ` Y  .",
"..+.R @.#.$.R %.&.*.O =.Y -.;.",
">.R ,.R '.R ).O T !.~.O {.!.].",
"^.R R /.(./.R _.:.<.[.}.R |.].",
"1.2.3.4.5.6.7.8.9.6.0.a.b.c.d.",
"e.f.g.h.i.j.k.l.k.k.m.i.n.o.p."};
