/* XPM */
static char * btn_run_xpm[] = {
"16 14 13 1",
" 	c None",
".	c #00C000",
"+	c #444444",
"@	c #00E000",
"#	c #04C004",
"$	c #898989",
"%	c #00B000",
"&	c #04A004",
"*	c #00A000",
"=	c #048004",
"-	c #008000",
";	c #000000",
">	c #808080",
"..      +       ",
".@#     ++      ",
".@@#    +$+     ",
"%...#   +$$+    ",
"%....&  +$$$+   ",
"*%%%%%& +$$$$+  ",
"=*****&-+$$$$$+ ",
"=****&-;+$$$$$+;",
"*%%%%&;>+$$$$+; ",
"%...&;> +$$$+;  ",
"%@@#;>  +$$+;   ",
".@#;>   +$+;    ",
".#;>    ++;     ",
";;>     ;;      "};
