/* XPM */
static char * btn_pause_xpm[] = {
"20 14 7 1",
" 	c None",
".	c #0005A0",
"+	c #494949",
"@	c #0017EA",
"#	c #0300EF",
"$	c #000000",
"%	c #777777",
"....  ....++++  ++++",
".@#$  .@#$+%%+  +%%+",
".@#$  .@#$+%%+  +%%+",
".@#$  .@#$+%%+  +%%+",
".@#$  .@#$+%%+  +%%+",
".@#$  .@#$+%%+  +%%+",
".@#$  .@#$+%%+  +%%+",
".@#$  .@#$+%%+  +%%+",
".@#$  .@#$+%%+  +%%+",
".@#$  .@#$+%%+  +%%+",
".@#$  .@#$+%%+  +%%+",
".@#$  .@#$+%%+  +%%+",
".@#$  .@#$+%%+  +%%+",
"$$$$  $$$$++++  ++++"};
