/* XPM */
static char * btn_pause_xpm[] = {
"20 14 8 1",
" 	c None",
".	c #0005A0",
"+	c #828282",
"@	c #7C7C7C",
"#	c #0017EA",
"$	c #0300EF",
"%	c #000000",
"&	c #C6C7CC",
"....  ....++++  @@@@",
".#$%  .#$%+&&+  @&&+",
".#$%  .#$%+&&+  @&&+",
".#$%  .#$%+&&+  @&&+",
".#$%  .#$%+&&+  @&&+",
".#$%  .#$%+&&+  @&&+",
".#$%  .#$%+&&+  @&&+",
".#$%  .#$%@&&+  @&&+",
".#$%  .#$%@&&+  @&&+",
".#$%  .#$%@&&+  @&&+",
".#$%  .#$%+&&+  @&&+",
".#$%  .#$%+&&+  @&&+",
".#$%  .#$%+&&+  @&&+",
"%%%%  %%%%++++  @+++"};
