/* XPM */
static char * btn_openfile_xpm[] = {
"16 13 111 2",
"  	c None",
". 	c #020703",
"+ 	c #000100",
"@ 	c #000004",
"# 	c #000005",
"$ 	c #040507",
"% 	c #000000",
"& 	c #010200",
"* 	c #030400",
"= 	c #090900",
"- 	c #040400",
"; 	c #010100",
"> 	c #040300",
", 	c #EDF0B9",
"' 	c #FFFFBD",
") 	c #EBEDA4",
"! 	c #0A0B00",
"~ 	c #070600",
"{ 	c #060400",
"] 	c #141300",
"^ 	c #030200",
"/ 	c #060500",
"( 	c #FFFFB8",
"_ 	c #EEF58E",
": 	c #FCFF94",
"< 	c #E9EF85",
"[ 	c #FFFFB1",
"} 	c #E7E89C",
"| 	c #E1E3A4",
"1 	c #FFFFD1",
"2 	c #090A00",
"3 	c #0D0B00",
"4 	c #E7EA8F",
"5 	c #FFFF98",
"6 	c #F0F776",
"7 	c #FFFF92",
"8 	c #F0EE89",
"9 	c #FFFFAF",
"0 	c #F8FBA2",
"a 	c #FEFFAE",
"b 	c #EFF0AA",
"c 	c #060600",
"d 	c #070300",
"e 	c #FEFEA8",
"f 	c #F2F582",
"g 	c #FFFF8F",
"h 	c #F2F37C",
"i 	c #0E0900",
"j 	c #0D0800",
"k 	c #0A0900",
"l 	c #080A00",
"m 	c #0A0A00",
"n 	c #070500",
"o 	c #030000",
"p 	c #F6F4A7",
"q 	c #FFFF9D",
"r 	c #EFF07B",
"s 	c #111100",
"t 	c #7B7716",
"u 	c #89852A",
"v 	c #818121",
"w 	c #7F8022",
"x 	c #82822C",
"y 	c #7A7B2D",
"z 	c #7B7C3A",
"A 	c #84844E",
"B 	c #75764E",
"C 	c #0A0800",
"D 	c #FFFFC5",
"E 	c #E7EA91",
"F 	c #0E1100",
"G 	c #7E8211",
"H 	c #808310",
"I 	c #878B13",
"J 	c #7F8308",
"K 	c #83870E",
"L 	c #7B7F11",
"M 	c #818526",
"N 	c #797C2F",
"O 	c #7C7D43",
"P 	c #040500",
"Q 	c #E3E3AD",
"R 	c #7F842A",
"S 	c #767B15",
"T 	c #848B1B",
"U 	c #747903",
"V 	c #7D8108",
"W 	c #7F820F",
"X 	c #858821",
"Y 	c #797C23",
"Z 	c #7F823B",
"` 	c #0A0D00",
" .	c #050300",
"..	c #070800",
"+.	c #7B7B45",
"@.	c #737631",
"#.	c #878A3B",
"$.	c #7B7F28",
"%.	c #82852A",
"&.	c #7C7F28",
"*.	c #858636",
"=.	c #7B7B33",
"-.	c #7A7A3E",
";.	c #030100",
">.	c #101000",
",.	c #040600",
"'.	c #040700",
").	c #060700",
"!.	c #090800",
"~.	c #0E0B00",
"{.	c #070400",
"                  . + @         ",
"                #       $   %   ",
"                          & +   ",
"  * = -                 ; = ;   ",
"> , ' ) ! ~ { > ] ^ ^           ",
"/ ( _ : < [ } ' | 1 2           ",
"3 4 5 6 7 8 9 0 a b c           ",
"d e f g h i j k l m m n { > ^ o ",
"d p q r s t u v w x y z A B c   ",
"C D E F G H I J K L M N O P     ",
"- Q ! R S T U V W X Y Z `       ",
" ...+.@.#.$.%.&.*.=.-./         ",
";.>.- ,.'...).!.n ~.{.          "};
