/* XPM */
static char * btn_saveall_xpm[] = {
"16 16 11 1",
" 	c None",
".	c #000000",
"+	c #FFFF00",
"@	c #C0C0C0",
"#	c #A0A0A0",
"$	c #808080",
"%	c #A0A000",
"&	c #808000",
"*	c #E0E000",
"=	c #C0C000",
"-	c #9F9F00",
"    ........... ",
"    .+.@@@@#.@.$",
"  .............$",
"  .+.@@@@#.@.%.$",
".............%.$",
".+.@@@@#.@.%.%.$",
".+.@@@@#...%.&.$",
".+.@@@@#.%.%.&.$",
".*.####$.%.&.&.$",
".**.....%%.&.&.$",
".**===-%%&.&...$",
".*=......&.&.$$$",
".==....@.&...$  ",
".==....@.&.$$$  ",
" ..........$    ",
"  $$$$$$$$$$    "};
