/* XPM */
static char * btn_viewunits_xpm[] = {
"11 14 3 1",
" 	c None",
".	c #000000",
"+	c #FFFFFF",
"     ....  ",
"    .++++..",
"    .+++++.",
"   ....+++.",
"  .++++..+.",
"  .+++++.+.",
" ....+++.+.",
".++++..+...",
".+++++.+.  ",
".+++++.+.  ",
".+++++...  ",
".+++++.    ",
".+++++.    ",
".......    "};
