/* XPM */
static char *btn_save[]={
"28 14 169 2",
"aD c None",
".e c #000000",
".a c #000002",
".b c #000005",
".d c #000007",
".c c #00000c",
"Qt c #000100",
".g c #000200",
".# c #000400",
".I c #000600",
".8 c #010000",
"aK c #01000c",
"az c #01000e",
"aj c #010100",
".w c #010200",
"#j c #010300",
".f c #010400",
"#J c #010500",
".U c #010600",
".6 c #010700",
"ah c #010a00",
".J c #020300",
"#8 c #020500",
".k c #020600",
"aG c #030000",
"aJ c #03000b",
"ap c #030010",
"aE c #030500",
".y c #030600",
"#6 c #030c00",
"ac c #040000",
"ad c #04000e",
".L c #040600",
"aB c #040900",
"#3 c #050000",
"ay c #05000e",
"aI c #050102",
"#4 c #050200",
"aL c #050209",
".h c #050704",
"#2 c #060000",
"ab c #060100",
"am c #060200",
"#E c #060600",
"#I c #060800",
"#Z c #070100",
"a# c #070300",
"aH c #070400",
"#C c #070500",
"#l c #070700",
"aM c #070800",
".X c #070900",
"ao c #080300",
"#i c #08050c",
"#z c #080700",
"au c #080901",
"#5 c #080b00",
"#F c #080e00",
"aa c #090300",
"#0 c #090400",
"#Y c #090700",
"ae c #0a0219",
"ax c #0a0500",
"#D c #0a0a00",
"aF c #0a0c00",
"#. c #0b0a00",
"#w c #0c0904",
".H c #0c1200",
"as c #0c1300",
"an c #0d0600",
"#1 c #0d0900",
"#A c #0e0c00",
"#u c #0f1400",
"#B c #141200",
".i c #585858",
"at c #666c3c",
"#v c #6d723a",
"#h c #6f744c",
".V c #707650",
"#G c #727d17",
"aw c #74783d",
"#7 c #747f33",
"#V c #74801e",
"aC c #757b57",
".9 c #767849",
"#T c #777d35",
"#M c #78782e",
".K c #787b4e",
".j c #787c5b",
"#x c #787e28",
"ak c #787f32",
"#P c #797744",
".W c #797b4c",
"#K c #79811e",
"#N c #7a7941",
".x c #7a7c54",
"#X c #7a8119",
"#O c #7b7a42",
"#R c #7b7a4c",
"#9 c #7b8127",
"#y c #7c801f",
"#W c #7c8323",
"#Q c #7e7b4e",
"al c #7e8235",
"av c #7f8348",
"#H c #7f8a2e",
"#U c #7f8b1f",
"#S c #80804e",
".u c #808080",
"#k c #808147",
".7 c #81865e",
"ai c #828a4f",
"a. c #83882c",
"#L c #8a9121",
"aA c #bebfb1",
".G c #bec0b2",
".o c #c0bebf",
".Y c #c1bca8",
".2 c #c3bdbd",
".v c #c3c3c3",
".s c #c3c4bc",
"#n c #c4bdab",
"#o c #c4bdad",
"#f c #c4bebe",
".P c #c4c1bc",
".E c #c4c2c7",
".0 c #c5c0bc",
".l c #c5c6b6",
".t c #c5c9b2",
"#c c #c6bdbe",
".D c #c6c4c7",
".z c #c6c5b0",
".n c #c6c5c1",
"aq c #c7c2c6",
".Q c #c7c3c4",
".N c #c7c4bb",
".B c #c7c4bd",
".p c #c7c4cd",
".S c #c7c6c2",
".F c #c7c6c4",
".A c #c7c7bd",
".5 c #c7c9b4",
"#a c #c8c0bd",
"#r c #c8c2b4",
".R c #c8c6c7",
".T c #c8c9b7",
"#d c #c9c0c3",
"#s c #c9c3b3",
".r c #c9c9cb",
"af c #cac6c7",
".m c #cac9c4",
"#t c #cacaa8",
"#g c #cbcab8",
"#e c #ccc6c8",
".O c #ccc7c1",
".3 c #ccc8c7",
".q c #ccc9d2",
"ag c #ccccb2",
".4 c #cdc9c6",
".Z c #cecac1",
"## c #cfc8b6",
"ar c #cfd1bc",
"#q c #d0cabc",
"#m c #d0cbab",
".C c #d0cfcb",
"#p c #d2ccbe",
".M c #d3d1ba",
"#b c #d5cccd",
".1 c #d6d1ce",
"Qt.#.#Qt.a.a.b.c.c.d.e.f.g.h.i.i.i.i.i.i.i.i.i.i.i.i.i.i",
".g.j.k.l.m.n.o.p.q.r.s.#.t.g.i.u.i.v.v.v.v.v.v.v.v.i.v.i",
".w.x.y.z.A.B.C.D.E.F.G.H.I.J.i.u.i.v.v.v.v.v.E.F.v.i.i.i",
".w.K.L.M.N.O.P.Q.R.S.T.U.VQt.i.u.i.v.v.v.v.Q.v.v.v.i.u.i",
".w.W.X.Y.Z.0.1.2.3.4.5.6.7.8.i.u.i.v.v.v.v.2.v.v.v.i.u.i",
".w.9#.###a#b#c#d#e#f#g.y#h#i.i.u.i.v.v.v#c#d#e#f.v.i.u.i",
"#j#k#l#m#n#o#p#q#r#s#t#u#v#w.i.u.i.v.v.v.v.v.v.v.v.i.u.i",
".f#x#y#z#A#B#C#C#D#E#F#G#H#I.i.u.u.i.i.i.i.i.i.i.i.u.u.i",
"#J#K#L#M#N#O#P#Q#R#S#T#U#V.y.i.u.u.u.u.u.u.u.u.u.u.u.u.i",
"#J#W#X#Y#Z#0#1#2#3#4#5#6#7.X.i.u.u.i.i.i.i.i.i.i.i.i.u.i",
"#8#9a.a#aaabacadaeafagahaiaj.i.u.u.i.i.i.i.i.i.v.v.i.u.i",
".Lakalaman#2aoadapaqarasatau.i.u.u.i.i.i.i.i.i.v.v.i.u.i",
"#javawaxabacacayaz.EaAaBaCQt.i.u.u.i.i.i.i.i.i.v.v.i.u.i",
"aDaEaFacaGaHaIaJaKaLaM.#.#.e.v.i.i.i.i.i.i.i.i.i.i.i.i.i"};
