/* XPM */
static char * btn_viewforms_xpm[] = {
"16 16 126 2",
"  	c None",
". 	c #807D90",
"+ 	c #85829F",
"@ 	c #848894",
"# 	c #000017",
"$ 	c #888799",
"% 	c #870013",
"& 	c #CC0013",
"* 	c #FF0013",
"= 	c #000015",
"- 	c #87878F",
"; 	c #F9FBFF",
"> 	c #FAFDFF",
", 	c #FBFEFF",
"' 	c #F2F6FF",
") 	c #FBFFFF",
"! 	c #F5FAFF",
"~ 	c #FCFFFF",
"{ 	c #000102",
"] 	c #797A7F",
"^ 	c #7F7F89",
"/ 	c #868595",
"( 	c #828395",
"_ 	c #808490",
": 	c #838790",
"< 	c #787D83",
"[ 	c #000104",
"} 	c #D1D5D6",
"| 	c #000300",
"1 	c #8F8CA7",
"2 	c #C0BFD1",
"3 	c #00000B",
"4 	c #827DA5",
"5 	c #FBF5FF",
"6 	c #F8F0FF",
"7 	c #FEF6FF",
"8 	c #FAF4FF",
"9 	c #FBF6FF",
"0 	c #FBF8FF",
"a 	c #FBF9FF",
"b 	c #F2F0FF",
"c 	c #00001F",
"d 	c #C2C0D6",
"e 	c #01000E",
"f 	c #817E9B",
"g 	c #000022",
"h 	c #D0CDEC",
"i 	c #000013",
"j 	c #C7C7D3",
"k 	c #000106",
"l 	c #848297",
"m 	c #05061A",
"n 	c #C6C5D3",
"o 	c #000005",
"p 	c #C5C7C6",
"q 	c #000100",
"r 	c #858786",
"s 	c #FAFBFF",
"t 	c #FEFEFF",
"u 	c #FDFDFF",
"v 	c #FBFAFF",
"w 	c #FEFDFF",
"x 	c #F7F7FF",
"y 	c #FEFFFF",
"z 	c #F8F9FB",
"A 	c #000200",
"B 	c #C9CCC3",
"C 	c #82857A",
"D 	c #FEFFF8",
"E 	c #C1C4BD",
"F 	c #CBCDC8",
"G 	c #C9CBCA",
"H 	c #C2C3C5",
"I 	c #C8C9CB",
"J 	c #BEC0BF",
"K 	c #C5C7C4",
"L 	c #B9BCB1",
"M 	c #010500",
"N 	c #888B80",
"O 	c #C0C3BC",
"P 	c #C9CBC6",
"Q 	c #C7C8CD",
"R 	c #C0BECC",
"S 	c #CCC9DC",
"T 	c #C1BECF",
"U 	c #D8D7DF",
"V 	c #000004",
"W 	c #797B76",
"X 	c #FEFFFB",
"Y 	c #CBCDCC",
"Z 	c #C9CACC",
"` 	c #B9BABF",
" .	c #CCCCD6",
"..	c #C7C4D7",
"+.	c #CECBE0",
"@.	c #BFBCCF",
"#.	c #00000E",
"$.	c #100E19",
"%.	c #898A8F",
"&.	c #FAFAFF",
"*.	c #C4C4D0",
"=.	c #CCCBDB",
"-.	c #CCCADF",
";.	c #BFBED0",
">.	c #C4C2CD",
",.	c #C6C5CB",
"'.	c #D0CFD5",
").	c #040309",
"!.	c #86878C",
"~.	c #FCFCFF",
"{.	c #BEBEC8",
"].	c #CBCAD8",
"^.	c #B2B1C3",
"/.	c #D1D0DE",
"(.	c #C5C5C7",
"_.	c #BFC0BB",
":.	c #C3C3C1",
"<.	c #000000",
"[.	c #81847D",
"}.	c #070A03",
"|.	c #070904",
"1.	c #0E0F11",
"2.	c #040500",
"3.	c #010100",
"4.	c #040400",
"5.	c #040300",
"                                ",
"          . + @ @ @ @ @ @ @ #   ",
"          $ % % & & * * * * =   ",
"          - ; > , ' ) ) ! ~ {   ",
"      ] ^ / ( @ @ _ : < [ } |   ",
"      1 % % & & * * * * # 2 3   ",
"      4 5 6 7 8 9 0 a b c d e   ",
"  f @ @ @ @ @ @ @ @ g h i j k   ",
"  l % % & & * * * * m n o p q   ",
"  r s t u v w x y z A B | | |   ",
"  C D E F G H I J K | L M       ",
"  N D O P p Q R S T 3 U V       ",
"  W X Y Z `  ...+.@.#.3 $.      ",
"  %.&.*.=.-.;.>.,.'.).          ",
"  !.~.{.].^./.(._.:.<.          ",
"  [.}.|.q 1.q 2.3.4.5.          "};
