/* XPM */
static char * btn_saveall_xpm[] = {
"50 25 208 2",
"  	c None",
". 	c #BFBFC1",
"+ 	c #BFBEC3",
"@ 	c #BFBFBD",
"# 	c #C3C4BF",
"$ 	c #BABBB5",
"% 	c #C1C2BC",
"& 	c #D2D3CE",
"* 	c #B5B5B7",
"= 	c #C9C8CE",
"- 	c #C4C3CB",
"; 	c #C4C3C9",
"> 	c #C1C1C1",
", 	c #BCBDB7",
"' 	c #BABBB3",
") 	c #CBCCC6",
"! 	c #B4B5AF",
"~ 	c #C0C0C2",
"{ 	c #C1BFC2",
"] 	c #C5C5C3",
"^ 	c #B8B9B4",
"/ 	c #080A00",
"( 	c #000200",
"_ 	c #010000",
": 	c #0B090A",
"< 	c #010007",
"[ 	c #010009",
"} 	c #040108",
"| 	c #080800",
"1 	c #080900",
"2 	c #C2C0C1",
"3 	c #C2C1BF",
"4 	c #C0C0BE",
"5 	c #BEBFB9",
"6 	c #020400",
"7 	c #7A7C6F",
"8 	c #010100",
"9 	c #C4C3C1",
"0 	c #CAC7CE",
"a 	c #C5C2CB",
"b 	c #C6C4C7",
"c 	c #CAC9C5",
"d 	c #010200",
"e 	c #BEC0AB",
"f 	c #0B0E00",
"g 	c #B7B6B4",
"h 	c #C8C7C3",
"i 	c #BEBDB8",
"j 	c #000100",
"k 	c #030500",
"l 	c #040400",
"m 	c #060105",
"n 	c #030002",
"o 	c #040000",
"p 	c #030100",
"q 	c #010300",
"r 	c #050800",
"s 	c #D1D0CB",
"t 	c #B3B3A9",
"u 	c #C6C6BC",
"v 	c #797C73",
"w 	c #BBBDB0",
"x 	c #C7C7BD",
"y 	c #C4C4BC",
"z 	c #CAC6C3",
"A 	c #D0CDC8",
"B 	c #C6C5B1",
"C 	c #0E0E00",
"D 	c #6B6E4F",
"E 	c #040800",
"F 	c #B8B8AC",
"G 	c #030200",
"H 	c #090B00",
"I 	c #090600",
"J 	c #040100",
"K 	c #040200",
"L 	c #030400",
"M 	c #040600",
"N 	c #717552",
"O 	c #000400",
"P 	c #BFC0AE",
"Q 	c #101000",
"R 	c #777A5F",
"S 	c #050700",
"T 	c #C5C8BF",
"U 	c #C6C7BF",
"V 	c #BFC0B8",
"W 	c #CDCAC1",
"X 	c #CBC9BC",
"Y 	c #080500",
"Z 	c #CECDB1",
"` 	c #090900",
" .	c #747549",
"..	c #040700",
"+.	c #7B8058",
"@.	c #C3C3AB",
"#.	c #727653",
"$.	c #000300",
"%.	c #C2C5BA",
"&.	c #CACBC5",
"*.	c #BFBCB5",
"=.	c #C6C4B5",
"-.	c #040300",
";.	c #060400",
">.	c #070700",
",.	c #797C45",
"'.	c #030700",
").	c #71764D",
"!.	c #010400",
"~.	c #C9CAAB",
"{.	c #070A00",
"].	c #767B52",
"^.	c #C6C9BE",
"/.	c #C4C5C0",
"(.	c #C1C0BE",
"_.	c #C7C4BF",
":.	c #DBD8C7",
"<.	c #0D0A00",
"[.	c #7D7D4B",
"}.	c #060800",
"|.	c #7B7D3C",
"1.	c #797C4F",
"2.	c #060900",
"3.	c #C2C3A1",
"4.	c #050900",
"5.	c #727848",
"6.	c #C3C3C1",
"7.	c #D6D4D5",
"8.	c #C6C3BE",
"9.	c #B5B29F",
"0.	c #0B0900",
"a.	c #76773D",
"b.	c #080C00",
"c.	c #82863C",
"d.	c #7B7E4F",
"e.	c #C0C4A1",
"f.	c #767D47",
"g.	c #777D4F",
"h.	c #010500",
"i.	c #060300",
"j.	c #090500",
"k.	c #7C7C46",
"l.	c #7C7F38",
"m.	c #060A00",
"n.	c #6F752B",
"o.	c #0E1100",
"p.	c #777856",
"q.	c #C1C7A5",
"r.	c #040A00",
"s.	c #757B3B",
"t.	c #7E832F",
"u.	c #7C7F30",
"v.	c #686731",
"w.	c #88865D",
"x.	c #76724C",
"y.	c #727240",
"z.	c #888C40",
"A.	c #767E29",
"B.	c #040C00",
"C.	c #7E8444",
"D.	c #000002",
"E.	c #C5CAAA",
"F.	c #000700",
"G.	c #777D3D",
"H.	c #7D8228",
"I.	c #080B00",
"J.	c #201E00",
"K.	c #070400",
"L.	c #0B0800",
"M.	c #0C0C00",
"N.	c #77802F",
"O.	c #030B00",
"P.	c #717844",
"Q.	c #B8B7BD",
"R.	c #C2C1CF",
"S.	c #B3B79C",
"T.	c #020900",
"U.	c #7C834D",
"V.	c #787A39",
"W.	c #0B0B00",
"X.	c #070300",
"Y.	c #060100",
"Z.	c #CDCCAD",
"`.	c #767B41",
" +	c #090D00",
".+	c #C1BFCD",
"++	c #BBB9CE",
"@+	c #BFC3AC",
"#+	c #737850",
"$+	c #7B7C52",
"%+	c #060000",
"&+	c #080300",
"*+	c #0A0501",
"=+	c #C4C2B5",
"-+	c #767A55",
";+	c #C6C8B3",
">+	c #B7B7B9",
",+	c #C6C3D4",
"'+	c #BEBCD2",
")+	c #C3C6B5",
"!+	c #B7BBA2",
"~+	c #0A0800",
"{+	c #040003",
"]+	c #030005",
"^+	c #040006",
"/+	c #060700",
"(+	c #C8C5D6",
"_+	c #B7B4C7",
"          . + . @ # $ % & * = - ; > , ' )                   .   .   #   %   *   -   >   '           ",
"          ~ { { ] ^ / ( _ : < [ } _ | 1 (                     {   ]   /   _   <   }   |   (         ",
"          > 2 3 4 5 6 7 8 9 0 a b c d e f                   >   3   5   7   9   a   c   e           ",
"          g h i j ( k ( l _ m n o p q 6 r                     h   j   k   l   m   o   q   r         ",
"          s t u j v ( w x y z A p B C D E                   s   u   v   w   y   A   B   D           ",
"          F G d ( ( ( H 8 I o J K L M N O                     G   (   (   8   o   K   M   O         ",
"          P Q R S T U V W X Y Z `  ...+.q                   P   R   T   V   X   Z    .  +.          ",
"          @.k #.$.%.&.&.*.=.-.;.>.,.'.).!.                    k   $.  &.  *.  -.  >.  '.  !         ",
"          ~.{.].O ^./.(._.:.<.[.}.|...1.2.                  ~.  ].  ^.  (.  :.  [.  |.  1.          ",
"          3.4.5.'.%.6.7.8.9.0.a.b.c.E d.!.                    4.  '.  6.  8.  0.  b.  E   !         ",
"          e.E f.g.h.d p i.j.k.l.m.n.o.p.$.                  e.  f.  h.  p   j.  l.  n.  p.          ",
"          q.r.s.t.u.v.w.x.y.z.A.B.C.!.( D.                    r.  t.  v.  x.  z.  B.  !.  !         ",
"          E.F.G.H.I.J.K.L.M.r.N.O.P.2.Q.R.                  E.  G.  I.  K.  M.  N.  P.  Q.          ",
"          S.T.U.V.W.X.Y.Y.Z./ `.E  +j .+++                    T.  V.  X.  Y.  /   E   j   !         ",
"          @+r.#+$+i.%+&+*+=+L -+h.;+>+,+'+                  @+  #+  i.  &+  =+  -+  ;+  ,+          ",
"          )+!+!.G ~+{+]+^+_ /+d /+V ; (+_+                    !+  G   {+  ^+  /+  /+  ;   !         ",
"                                                                                                    ",
"                                                                                                    ",
"                                                                                                    ",
"                                                                                                    ",
"                                                                                                    ",
"                                                                                                    ",
"                                                                                                    ",
"                                                                                                    ",
"                                                                                                    "};
