/* XPM */
static char * btn_newunit_xpm[] = {
"16 16 21 1",
" 	c None",
".	c #000000",
"+	c #0C0C0C",
"@	c #FEFEFE",
"#	c #FFFFFF",
"$	c #FAFAFA",
"%	c #070707",
"&	c #F3F3F3",
"*	c #FCFCFC",
"=	c #020202",
"-	c #090909",
";	c #F8F8F8",
">	c #010101",
",	c #FBFBFB",
"'	c #F0F0F0",
")	c #FDFDFD",
"!	c #F7F7F7",
"~	c #030303",
"{	c #0A0A0A",
"]	c #050505",
"^	c #040404",
"                ",
"   ..+..+..     ",
"   .@###$#%.    ",
"   .@##@#&.#.   ",
"   .@###*@=..-  ",
"   .@##;###$#.  ",
"   .@###;$###>  ",
"   .@##,@#'),.  ",
"   .@####!###=  ",
"   .@###$)#,).  ",
"   ~!###,##);%  ",
"   >#!#)#)###.  ",
"   >,#,##!$),+  ",
"   {..=~..+].^  ",
"                ",
"                "};
