/* XPM */
static char * checkbox_xpm[] = {
"25 25 42 1",
" 	c None",
".	c None",
"+	c #727272",
"@	c #7D7D7D",
"#	c #050505",
"$	c #000000",
"%	c #070707",
"&	c #030303",
"*	c #010101",
"=	c #040404",
"-	c #B7B7B7",
";	c #FDFDFD",
">	c #FAFAFA",
",	c #FFFFFF",
"'	c #FBFBFB",
")	c #BFBFBF",
"!	c #F5F5F5",
"~	c #FCFCFC",
"{	c #B9B9B9",
"]	c #020202",
"^	c #EDEDED",
"/	c #0D0D0D",
"(	c #C4C4C4",
"_	c #F9F9F9",
":	c #0B0B0B",
"<	c #F8F8F8",
"[	c #C1C1C1",
"}	c #C3C3C3",
"|	c #090909",
"1	c #0C0C0C",
"2	c #080808",
"3	c #F6F6F6",
"4	c #C5C5C5",
"5	c #060606",
"6	c #BDBDBD",
"7	c #F7F7F7",
"8	c #C2C2C2",
"9	c #C9C9C9",
"0	c #C7C7C7",
"a	c #BABABA",
"b	c #B8B8B8",
"c	c #CACACA",
".........................",
".........................",
".........................",
".........................",
".........................",
".........................",
".........................",
"......++++++++++++.......",
"......@#$%$&$&*$=-;......",
"......+$>,'>,,,;,);......",
"......+=!$#,,~$$,{;......",
"......+$,$$]^&$/');......",
"......+$_~$$:$],<[,......",
"......+],;,&$|!~,.;......",
"......+$~,$=$$/,');......",
"......+1,$2$32$$'(;......",
"......+$,$$,,;$5,6;......",
"......+],3,,;,,,7(;......",
"......+$8960a)b6c};......",
".......;;;;;;;;;;;;......",
".........................",
".........................",
".........................",
".........................",
"........................."};
