/* XPM */
static char * combobox_xpm[] = {
"20 20 167 2",
"  	c None",
". 	c None",
"+ 	c #000200",
"@ 	c #121212",
"# 	c #000000",
"$ 	c #040404",
"% 	c #010103",
"& 	c #000002",
"* 	c #FBF7FF",
"= 	c #FFFAFF",
"- 	c #F7F0FF",
"; 	c #FFF7FF",
"> 	c #F5ECFF",
", 	c #FFF6FF",
"' 	c #FCF5FF",
") 	c #F7F1FF",
"! 	c #FEFAFF",
"~ 	c #FFFBFF",
"{ 	c #FDFAFF",
"] 	c #000007",
"^ 	c #FFFFFF",
"/ 	c #FEFEFC",
"( 	c #FFFFFA",
"_ 	c #B9BBB0",
": 	c #010300",
"< 	c #070125",
"[ 	c #0A032D",
"} 	c #1A1245",
"| 	c #0D043D",
"1 	c #130946",
"2 	c #0F063F",
"3 	c #160E3F",
"4 	c #160F38",
"5 	c #00001E",
"6 	c #120D2D",
"7 	c #0C0821",
"8 	c #FFFCFF",
"9 	c #000009",
"0 	c #FFFEFF",
"a 	c #030301",
"b 	c #000100",
"c 	c #CCCEC3",
"d 	c #FEFDFF",
"e 	c #F6F4FF",
"f 	c #FFFDFF",
"g 	c #FBF8FF",
"h 	c #FCF8FF",
"i 	c #FAF6FF",
"j 	c #FAF7FF",
"k 	c #FEFCFF",
"l 	c #010006",
"m 	c #7A7A7A",
"n 	c #898989",
"o 	c #BCBCBC",
"p 	c #FAFBF3",
"q 	c #FFFFFB",
"r 	c #F2F3F7",
"s 	c #FEFFFF",
"t 	c #FEFEFF",
"u 	c #F4F2FD",
"v 	c #F6F5FA",
"w 	c #C0C1C3",
"x 	c #C1C2C6",
"y 	c #B8B7BC",
"z 	c #C6C5CB",
"A 	c #020500",
"B 	c #000102",
"C 	c #000005",
"D 	c #040612",
"E 	c #00000B",
"F 	c #000104",
"G 	c #000207",
"H 	c #F6FAF9",
"I 	c #FBFFFF",
"J 	c #FBFEFF",
"K 	c #ECEEFF",
"L 	c #FBFDFF",
"M 	c #FAFEFF",
"N 	c #FAFDFF",
"O 	c #F9FBFF",
"P 	c #FCFFFF",
"Q 	c #000106",
"R 	c #FCFEFF",
"S 	c #F4F6FF",
"T 	c #0A0D2E",
"U 	c #03052E",
"V 	c #090A36",
"W 	c #0C0B33",
"X 	c #0C0A39",
"Y 	c #0A0A3C",
"Z 	c #0C0940",
"` 	c #0A0A3E",
" .	c #0A0B39",
"..	c #0A0D30",
"+.	c #101227",
"@.	c #F6FAFF",
"#.	c #050801",
"$.	c #000010",
"%.	c #F5F6FF",
"&.	c #F6F8FF",
"*.	c #F8F8FF",
"=.	c #F5F4FF",
"-.	c #F8F5FF",
";.	c #F8F4FF",
">.	c #F8F3FF",
",.	c #F7F3FF",
"'.	c #F8F2FF",
").	c #F8F7FF",
"!.	c #F6F9FF",
"~.	c #00001C",
"{.	c #8C000B",
"].	c #F9F6FF",
"^.	c #FBFBFF",
"/.	c #000013",
"(.	c #000020",
"_.	c #000022",
":.	c #F3F2FF",
"<.	c #F4F4FF",
"[.	c #F4F5FF",
"}.	c #F5F5FF",
"|.	c #F7F6FF",
"1.	c #F6F5FF",
"2.	c #000026",
"3.	c #00001F",
"4.	c #000015",
"5.	c #F9FCFF",
"6.	c #F5F7FF",
"7.	c #F8FBFF",
"8.	c #F8FDFF",
"9.	c #000107",
"0.	c #111521",
"a.	c #F0F5FF",
"b.	c #EFF2FF",
"c.	c #F7F9FF",
"d.	c #F7FAFF",
"e.	c #F7F8FF",
"f.	c #F7F7FF",
"g.	c #F8FAFF",
"h.	c #F3F7FF",
"i.	c #F6FBFF",
"j.	c #000300",
"k.	c #090D2A",
"l.	c #05072D",
"m.	c #0B0E3B",
"n.	c #080740",
"o.	c #080647",
"p.	c #07064A",
"q.	c #07064C",
"r.	c #07054E",
"s.	c #070745",
"t.	c #08083A",
"u.	c #F5FAFF",
"v.	c #EFF4FA",
"w.	c #000602",
"x.	c #F3F4FF",
"y.	c #FCF9FF",
"z.	c #FBF9FF",
"A.	c #FBFAFF",
"B.	c #FBFCFF",
"C.	c #080C0F",
"D.	c #0B0B0D",
"E.	c #01000E",
"F.	c #050414",
"G.	c #00000E",
"H.	c #00000C",
"I.	c #00010E",
"J.	c #040613",
". . . . . . . . . . . . . . . . . . . . ",
"+ + + + + + + + + + + + + + @ # $ # % & ",
"+ * = - ; ; > , ' ) = ! ~ { ] ^ / ( _ : ",
"+ ~ < [ } | 1 2 3 4 5 6 7 8 9 0 a b c + ",
"+ d e f g * h ! i ! 8 j f k l ^ m n o # ",
"+ p q ^ r s t t f u 0 s v s & w x y z ] ",
"+ + A b B C D E C & b b b b B F G C ] ] ",
". . + H I J K L L L L M L N N M O P s & ",
". . Q R S T U V W W X Y Z `  ...+.@.P #.",
". . $.%.O &.*.=.-.;.>.,.'.,.;.).O L !.b ",
". . ~.O ).{.{.{.{.{.{.{.{.{.{.{.].*.^./.",
". . (.{.{.{.{.{.{.{.{.{.{.{.{.{.{.{.{.(.",
". . _.{.{.:.:.<.[.[.}.S %.%.%.|.1.{.{.2.",
". . 3.{.{.{.{.{.{.{.{.{.{.{.{.{.{.{.{.~.",
". . 4.5.6.{.{.{.{.{.{.{.{.{.{.{.7.8.5.9.",
". . 0.a.5.7.b.c.d.d.c.e.f.f.e.g.h.i.I j.",
". . C I L k.l.m.n.o.p.q.r.q.s.t...u.v.w.",
". . b 5.c.J L x.y.h g g z.z.A.5.B.N I C.",
". . # D.C 9 E.F.G.H.E 9 ] ] 9 9 I.H.J.E ",
". . . . . . . . . . . . . . . . . . . . "};
