/* XPM */
static char * unten_xpm[] = {
"25 25 128 2",
"  	c None",
". 	c #FFFFFF",
"+ 	c #E5E5E5",
"@ 	c #E3E3E3",
"# 	c #BBBBBB",
"$ 	c #B2B2B2",
"% 	c #D3D3D3",
"& 	c #5F5F5F",
"* 	c #888888",
"= 	c #F1F1F1",
"- 	c #E8E8E8",
"; 	c #ECECEC",
"> 	c #E9E9E9",
", 	c #EBEBEB",
"' 	c #E4E4E4",
") 	c #E2E2E2",
"! 	c #EDEDED",
"~ 	c #EAEAEA",
"{ 	c #F0F0F0",
"] 	c #EFEFEF",
"^ 	c #F9F9F9",
"/ 	c #F4F4F4",
"( 	c #F8F8F8",
"_ 	c #303030",
": 	c #8D8D8D",
"< 	c #DFDFDF",
"[ 	c #DDDDDD",
"} 	c #EEEEEE",
"| 	c #FAFAFA",
"1 	c #F3F3F3",
"2 	c #898989",
"3 	c #2F2F2F",
"4 	c #E6E6E6",
"5 	c #E1E1E1",
"6 	c #D4D4D4",
"7 	c #ADADAD",
"8 	c #AFAFAF",
"9 	c #AAAAAA",
"0 	c #ABABAB",
"a 	c #A6A6A6",
"b 	c #A1A1A1",
"c 	c #A2A2A2",
"d 	c #A7A7A7",
"e 	c #B4B4B4",
"f 	c #DCDCDC",
"g 	c #F5F5F5",
"h 	c #848484",
"i 	c #CFCFCF",
"j 	c #747474",
"k 	c #535353",
"l 	c #4A4A4A",
"m 	c #494949",
"n 	c #454545",
"o 	c #484848",
"p 	c #444444",
"q 	c #464646",
"r 	c #474747",
"s 	c #9C9C9C",
"t 	c #E0E0E0",
"u 	c #313131",
"v 	c #818181",
"w 	c #DADADA",
"x 	c #777777",
"y 	c #4D4D4D",
"z 	c #666666",
"A 	c #686868",
"B 	c #616161",
"C 	c #656565",
"D 	c #646464",
"E 	c #9B9B9B",
"F 	c #323232",
"G 	c #8A8A8A",
"H 	c #9F9F9F",
"I 	c #565656",
"J 	c #959595",
"K 	c #A0A0A0",
"L 	c #A5A5A5",
"M 	c #A4A4A4",
"N 	c #B5B5B5",
"O 	c #F6F6F6",
"P 	c #8B8B8B",
"Q 	c #D0D0D0",
"R 	c #676767",
"S 	c #7D7D7D",
"T 	c #ACACAC",
"U 	c #C0C0C0",
"V 	c #868686",
"W 	c #696969",
"X 	c #B0B0B0",
"Y 	c #A9A9A9",
"Z 	c #909090",
"` 	c #D8D8D8",
" .	c #7B7B7B",
"..	c #B1B1B1",
"+.	c #AEAEAE",
"@.	c #5C5C5C",
"#.	c #B3B3B3",
"$.	c #DEDEDE",
"%.	c #E7E7E7",
"&.	c #C5C5C5",
"*.	c #878787",
"=.	c #B6B6B6",
"-.	c #C7C7C7",
";.	c #858585",
">.	c #8C8C8C",
",.	c #9D9D9D",
"'.	c #828282",
").	c #8E8E8E",
"!.	c #BFBFBF",
"~.	c #595959",
"{.	c #CECECE",
"].	c #FDFDFD",
"^.	c #838383",
"/.	c #F7F7F7",
"(.	c #707070",
"_.	c #939393",
":.	c #8F8F8F",
"<.	c #B7B7B7",
"[.	c #FBFBFB",
"}.	c #7F7F7F",
"|.	c #2D2D2D",
"1.	c #CACACA",
"2.	c #6B6B6B",
"3.	c #585858",
"4.	c #2E2E2E",
"5.	c #333333",
"6.	c #383838",
"7.	c #919191",
". . . . . . . . . . . . . . . . . . . . . . . + @ ",
". . . . . . . . . . . . . . . . . . . . . . . # $ ",
". . . . . . . . . . . . . . . . . . . . . . % & * ",
". . . = - ; > , ; ' ) ! ~ = , ; ; { ] ^ / ( * _ : ",
". . . < { [ ! - , ! - } - = { , ! ~ = ] | 1 2 3 * ",
". . . 4 5 6 7 8 9 0 a 0 b c d 0 7 e f 4 g ; 2 3 h ",
". . . < ; i j k l m n o p p q r k s t g } ! 2 u v ",
". . . 4 > w x y z A B C D z z B E ( . . ~ 1 * F G ",
". . . 4 , { H I J d K K L L M N @ . . O @ } G u P ",
". . . + > ] Q R S T T 0 T 0 0 U ( . . ~ t > V _ : ",
". . . 4 , = ! E W E X 8 T Y # f . . ] { 4 ! * u Z ",
". . . @ > = { ` D  .X ..7 +.U ( . . ' , + ; V u : ",
". . . f ) , ; { 2 @.s #...U @ . . - $.4 %.} V _ * ",
". . . [ 5 ~ ~ } &.B *.#.=.-.. . . %.t %.~ = ;._ >.",
". . . 5 4 } ; } ~ * A ,.U @ . . ) 4 $.@ + ~ '.3 ).",
". . . 5 - { ; ! ! !.~.h {.. . ].' , @ %.%.; ^.u * ",
". . . %.4 + , 1 /.4 (._.= . . 5 > w w t - ; V F :.",
". . . 4 + ' - } > ( <.-.. . . ~ ' %.; @ < %.*.F h ",
". . . + ) ' - , ] O ) - . . ] ) + ' %.< $.4 ^._ h ",
". . . @ < @ ~ } 1 { ; { [.g - > - f [ ) + @ }.3 * ",
". . . ) $.) , { ( { } 1 ] + ' ! 4 5 ~ ! ~ @ }.3 h ",
". . . ) t ) - ; 1 = { { } > + + > ~ { ; , ! '.|.^.",
". | 1.'.^.^.^.h ^.2 ).P V '.^.;.*.;.V ;.*.2 2.u h ",
"= =.3.4._ _ 3 4.u _ _ u 5.F _ 4._ 3 u u _ 3 F 6.V ",
"t # G 2 V ;.v *.;.P V V ;.h P * P P : Z 7.: 2 ).X "};
