/* XPM */
static char * down_xpm[] = {
"16 16 72 1",
" 	c None",
".	c #D4D4D4",
"+	c #E0E0E0",
"@	c #FFFFFF",
"#	c #B8B8B8",
"$	c #939393",
"%	c #D5D5D5",
"&	c #B0B0B0",
"*	c #484848",
"=	c #575757",
"-	c #CECECE",
";	c #EAEAEA",
">	c #D8D8D8",
",	c #535353",
"'	c #171717",
")	c #5C5C5C",
"!	c #AEAEAE",
"~	c #B3B3B3",
"{	c #B2B2B2",
"]	c #AAAAAA",
"^	c #A7A7A7",
"/	c #A9A9A9",
"(	c #D3D3D3",
"_	c #D2D2D2",
":	c #989898",
"<	c #1E1E1E",
"[	c #2E2E2E",
"}	c #AFAFAF",
"|	c #ACACAC",
"1	c #E5E5E5",
"2	c #424242",
"3	c #151515",
"4	c #5B5B5B",
"5	c #ADADAD",
"6	c #C7C7C7",
"7	c #E3E3E3",
"8	c #898989",
"9	c #181818",
"0	c #2F2F2F",
"a	c #B4B4B4",
"b	c #A8A8A8",
"c	c #DCDCDC",
"d	c #E1E1E1",
"e	c #D6D6D6",
"f	c #414141",
"g	c #1A1A1A",
"h	c #6A6A6A",
"i	c #B1B1B1",
"j	c #BEBEBE",
"k	c #818181",
"l	c #161616",
"m	c #3C3C3C",
"n	c #9D9D9D",
"o	c #C6C6C6",
"p	c #313131",
"q	c #191919",
"r	c #696969",
"s	c #E4E4E4",
"t	c #ECECEC",
"u	c #717171",
"v	c #141414",
"w	c #393939",
"x	c #9E9E9E",
"y	c #DFDFDF",
"z	c #DEDEDE",
"A	c #292929",
"B	c #242424",
"C	c #A6A6A6",
"D	c #E6E6E6",
"E	c #363636",
"F	c #9C9C9C",
"G	c #838383",
"                ",
" .+@@@@@@@@@@@@ ",
" #$%@@@@@@@@@@@ ",
" &*=-;;;;;;;;@@ ",
" >,')!&~{]^/~(_ ",
"  :<[$}|/^/|.1  ",
"  _2345&}||67   ",
"   890:a{}bcd   ",
"   efgh~i!j+    ",
"    klmn|5d+    ",
"    opqr|6s     ",
"    tuvwxyz     ",
"     #ABCc      ",
"     D4E]       ",
"      FG#       ",
"                "};
