/* XPM */
static char * fonts_xpm[] = {
"19 17 2 1",
" 	c None",
".	c #000000",
"          ...      ",
"          ...      ",
"         .....     ",
"        .. ...     ",
"        .  ...     ",
"       ..  ...     ",
"       .   ....    ",
"      .    ....    ",
"     ..     ...    ",
"     ..........    ",
"    ..      ....   ",
"    .       ....   ",
"   ..       ....   ",
"  ..         ...   ",
" ....       .....  ",
"......    ........ ",
"                   "};
