/* XPM */
static char * InsertVarTag_xpm[] = {
"17 17 18 1",
" 	c #ECE9D8",
".	c #D4D4D4",
"+	c #AAAAAA",
"@	c #E6E6E6",
"#	c #000000",
"$	c #CCCCCC",
"%	c #C4C4C4",
"&	c #888888",
"*	c #444444",
"=	c #999999",
"-	c #666666",
";	c #222222",
">	c #BBBBBB",
",	c #5E5E5E",
"'	c #808080",
")	c #FFFFFF",
"!	c #777777",
"~	c #4C4C4C",
"                 ",
"                 ",
"                 ",
"                 ",
"                 ",
"                 ",
" .+++..++ .+++   ",
" @#$#@%&*=@-;&>  ",
"  ,*, ;>,')''    ",
"  .;. -!~~>~~>   ",
"                 ",
"                 ",
"                 ",
"                 ",
"                 ",
"                 ",
"                 "};
