/* XPM */
static char * InsertRemark_xpm[] = {
"17 17 2 1",
" 	c #ECE9D8",
".	c #0000FF",
"                 ",
"                 ",
"                 ",
"    ...   ...    ",
"   ..       ..   ",
"   ..       ..   ",
"   ..       ..   ",
"   ..       ..   ",
" ...         ... ",
"   ..       ..   ",
"   ..       ..   ",
"   ..       ..   ",
"   ..       ..   ",
"    ...   ...    ",
"                 ",
"                 ",
"                 "};
