/* XPM */
static char * pkg_binary_xpm[] = {
"16 16 15 1",
" 	c None",
".	c #000000",
"+	c #FFFFFF",
"@	c #E7ADA5",
"#	c #E79C8C",
"$	c #080000",
"%	c #DE8C84",
"&	c #E7A594",
"*	c #EFC1BD",
"=	c #D6634A",
"-	c #F7DED6",
";	c #CE5242",
">	c #D66B52",
",	c #EFB5AD",
"'	c #F7E7E7",
"                ",
"                ",
"  .......       ",
"  .+++++..      ",
"  .+++++.+.     ",
"  .+++@#$...    ",
"  .++%&*=++.    ",
"  .++-++;++.    ",
"  .++++>,++.    ",
"  .+++'&+++.    ",
"  .+++'*+++.    ",
"  .+++''+++.    ",
"  .++++++++.    ",
"  ..........    ",
"                ",
"                "};
