/* XPM */
static char * pkg_files_xpm[] = {
"14 13 9 1",
" 	c None",
".	c #000044",
"+	c #000055",
"@	c #000084",
"#	c #000033",
"$	c #FFFFFF",
"%	c #CBCBCB",
"&	c #D5D5EF",
"*	c #000000",
"  ..++....    ",
"  .@@@@@@.    ",
"  #$%$$$&.$   ",
"  #%$........ ",
"  *$$........ ",
"...++#$%$$$&*$",
".....#%$$$&&*$",
".$%$$*$$$&$&*$",
".%$$$*$&&&&&*$",
".$$$$********$",
".$&&&&&*$$$$$$",
".*******$     ",
" $$$$$$$$     "};
