/* XPM */
static char * pkg_lrs_xpm[] = {
"18 18 72 1",
" 	c None",
".	c #585858",
"+	c #DEDEDE",
"@	c #BCB7B1",
"#	c #999999",
"$	c #FFFFFF",
"%	c #EAEAEA",
"&	c #6D6D6D",
"*	c #8C8C8C",
"=	c #C6C1B6",
"-	c #FCFCFC",
";	c #707070",
">	c #CECECE",
",	c #303030",
"'	c #898989",
")	c #6B6B6B",
"!	c #424242",
"~	c #F6F5F5",
"{	c #E2E0DE",
"]	c #8F8984",
"^	c #FBF9F6",
"/	c #F4F0EC",
"(	c #E7E0D9",
"_	c #BEB6AF",
":	c #DFDFDF",
"<	c #F8F4ED",
"[	c #F3EDE3",
"}	c #EEE7DC",
"|	c #BCAE97",
"1	c #FEFEFD",
"2	c #FAF8F4",
"3	c #F8F4EC",
"4	c #F5EFE5",
"5	c #F3EBDC",
"6	c #ECE2D4",
"7	c #F8F3EB",
"8	c #F5EEE4",
"9	c #F3EADC",
"0	c #BCAB90",
"a	c #F5EEE3",
"b	c #F3EADB",
"c	c #F1E4D2",
"d	c #BCA88A",
"e	c #FAF6F2",
"f	c #F8F2EA",
"g	c #F5EEE2",
"h	c #F2E9DA",
"i	c #F0E4D2",
"j	c #EEE0C9",
"k	c #ECDCC1",
"l	c #E9D6BA",
"m	c #BCA685",
"n	c #777777",
"o	c #6D6E77",
"p	c #646577",
"q	c #5A5D77",
"r	c #515477",
"s	c #474C77",
"t	c #3E4377",
"u	c #373D77",
"v	c #717177",
"w	c #5E6077",
"x	c #4B4F77",
"y	c #424777",
"z	c #383E77",
"A	c #757577",
"B	c #6B6C77",
"C	c #626477",
"D	c #585B77",
"E	c #4F5377",
"F	c #464A77",
"G	c #3C4277",
"    .........     ",
"    .+++++@.#.    ",
"    .+$$$$%&$#.   ",
"    .+*=$$-;>$#,  ",
"    .+=$$$$';)!,  ",
"    .+$$$$$~{@],  ",
"    .+*=$*=^/(_,  ",
"    .:=$$=$<[}|,  ",
"    .+$$123456|,  ",
"    .+*=2789*=0,  ",
"    .+=$7abc=$d,  ",
"    .+efghijklm,  ",
"    .nnnopqrstu,  ",
"    .nnv$w$xyzu,  ",
"    .nABCDEFGuu,  ",
"    .,,,,,,,,,,,  ",
"                  ",
"                  "};
