/* XPM */
static char * pkg_addunittopackage_xpm[] = {
"16 17 84 1",
" 	c None",
".	c #494214",
"+	c #C0BDA2",
"@	c #FEF9D4",
"#	c #FEFBE4",
"$	c #FEFADF",
"%	c #024266",
"&	c #FEF7CA",
"*	c #777049",
"=	c #B7B394",
"-	c #CBC8AC",
";	c #AEDDE9",
">	c #8EC8DC",
",	c #FEF7C6",
"'	c #FEF6C1",
")	c #FEFDFB",
"!	c #FEFDF5",
"~	c #FEFCF0",
"{	c #FEFBEB",
"]	c #FEFBE6",
"^	c #85C0D6",
"/	c #888361",
"(	c #97916D",
"_	c #A6A079",
":	c #B5AE85",
"<	c #F8EEC3",
"[	c #F7EBC0",
"}	c #FEFCF1",
"|	c #FEFCEC",
"1	c #FEFBE7",
"2	c #7CB8CF",
"3	c #FEF7C8",
"4	c #FEF6C2",
"5	c #AC9A47",
"6	c #A29240",
"7	c #F6EABD",
"8	c #F4E8B9",
"9	c #F2E6B5",
"0	c #F0E4B1",
"a	c #FEFBE8",
"b	c #73B0CA",
"c	c #B7A450",
"d	c #AE9C49",
"e	c #A59442",
"f	c #9C8D3B",
"g	c #F3E7B7",
"h	c #6AA8C4",
"i	c #78B3CB",
"j	c #61A0BE",
"k	c #66A4C0",
"l	c #80B8CE",
"m	c #9FD1E0",
"n	c #A8D8E5",
"o	c #7CB6CC",
"p	c #5898B7",
"q	c #82B8CF",
"r	c #4F8FB2",
"s	c #E8D99E",
"t	c #074769",
"u	c #5292B5",
"v	c #4586AB",
"w	c #4687AC",
"x	c #E5D598",
"y	c #E3D394",
"z	c #E1D190",
"A	c #E0CF8C",
"B	c #DECD88",
"C	c #609FBD",
"D	c #3D7FA6",
"E	c #908333",
"F	c #877B2C",
"G	c #7E7325",
"H	c #756B1E",
"I	c #DFCE89",
"J	c #DDCC85",
"K	c #DBC981",
"L	c #5696B7",
"M	c #34779F",
"N	c #8A7D2E",
"O	c #817527",
"P	c #D8C67B",
"Q	c #3B7EA5",
"R	c #2B6F9A",
"S	c #226794",
"       ..       ",
"     ..+@..     ",
"   ..#$%%%&..   ",
" .*=-+%;;>%,'.. ",
".)!~{]%;^^%/(_:.",
".<[}|1%;22%3456.",
".7890a%;bb%cdef.",
".g%%%%%;hh%%%%%.",
".%;;;;;ijjklmno%",
".%;pppppppppppp%",
".%qrrrrrrrrrrrr%",
".st%%%%uvw%%%%%.",
".xyzAB%CDD%EFGH.",
" ..IJK%LMM%NO.. ",
"   ..P%QRR%..   ",
"     .%SSS%     ",
"       %%%      "};
