/* XPM */
static char * pkg_removedrequired_xpm[] = {
"14 14 23 1",
" 	c None",
".	c #000000",
"+	c #FF1414",
"@	c #D9D8F1",
"#	c #A3A1D3",
"$	c #8483AB",
"%	c #FFFFFF",
"&	c #918ED6",
"*	c #F8FFF8",
"=	c #240055",
"-	c #BBB9E5",
";	c #FBFBFB",
">	c #9B9ABC",
",	c #9492B9",
"'	c #A7A4DE",
")	c #A5A5BE",
"!	c #7673AE",
"~	c #B1AEE2",
"{	c #8482B3",
"]	c #000066",
"^	c #7D7BB0",
"/	c #8C89B6",
"(	c #9E9BDB",
"   .....      ",
"  ++@@@#.     ",
"   ++$#.% ++  ",
" ...++...++   ",
".@@@@++&++*=  ",
".@.#$-+++==;=%",
"..%.-&+++=@>=%",
" %%.&++;++,'=%",
"   .++;)-++!=%",
".. ++;>~{=++]%",
".@++@,'^&=%++ ",
".++-/(!&!=%%  ",
" ========%    ",
" %%%%%%%%     "};
