/* XPM */
static char * pkg_registerunit_xpm[] = {
"16 16 17 1",
" 	c None",
".	c #848484",
"+	c #5A5A5A",
"@	c #FFFFFF",
"#	c #E7E7D6",
"$	c #9C9C9C",
"%	c #CECECE",
"&	c #636363",
"*	c #FF8C8C",
"=	c #4A4A4A",
"-	c #F50034",
";	c #393939",
">	c #0B2E87",
",	c #1CBC00",
"'	c #106300",
")	c #1FEA00",
"!	c #000000",
" ..........+    ",
" .@#######$%+   ",
" .@#######$@%&  ",
" .@##*####====  ",
" .@#*-*#####%;  ",
" .@*---*>>>#%;  ",
" .#----->>>#%;  ",
" .#####>>>,'%;  ",
" .@##&&>>>,)';  ",
" .@#&;;;&#,))'  ",
" .@#&;;;&#,)))' ",
" .@##&&&##,))),'",
" .@@@###@@,)),' ",
" .%%%%%%%%,),'  ",
" .;;;;;;;;,,'!  ",
"          ,'    "};
