/* XPM */
static char * pkg_removedfiles_xpm[] = {
"14 13 10 1",
" 	c None",
".	c #000044",
"+	c #000055",
"@	c #FF1414",
"#	c #000084",
"$	c #000033",
"%	c #FFFFFF",
"&	c #D5D5EF",
"*	c #CBCBCB",
"=	c #000000",
"  ..++....    ",
"  .@@####. @@ ",
"  $%@@%%&.@@  ",
"  $*%@@..@@.. ",
"  =%%.@@@@... ",
"...++$%@@%%&=%",
".....$@@@@&&=%",
".%*%%@@%%@@&=%",
".*%%@@%&&&@@=%",
".%%@@======@@%",
".%@@&&&=%%%%@%",
".@@=====%     ",
" %%%%%%%%     "};
