<?xml version="1.0" encoding="UTF-8" standalone="no"?>
<!-- Created with Inkscape (http://www.inkscape.org/) -->
<svg
   xmlns:dc="http://purl.org/dc/elements/1.1/"
   xmlns:cc="http://creativecommons.org/ns#"
   xmlns:rdf="http://www.w3.org/1999/02/22-rdf-syntax-ns#"
   xmlns:svg="http://www.w3.org/2000/svg"
   xmlns="http://www.w3.org/2000/svg"
   xmlns:xlink="http://www.w3.org/1999/xlink"
   xmlns:sodipodi="http://sodipodi.sourceforge.net/DTD/sodipodi-0.dtd"
   xmlns:inkscape="http://www.inkscape.org/namespaces/inkscape"
   width="210mm"
   height="297mm"
   id="svg2"
   sodipodi:version="0.32"
   inkscape:version="0.46"
   sodipodi:docname="powered-by.svg"
   inkscape:output_extension="org.inkscape.output.svg.inkscape"
   inkscape:export-filename="D:\lazsrc\bitmaps\powered.png"
   inkscape:export-xdpi="104.76778"
   inkscape:export-ydpi="104.76778">
  <defs
     id="defs4">
    <linearGradient
       id="linearGradient3268">
      <stop
         id="stop3270"
         offset="0"
         style="stop-color:#ffffff;stop-opacity:1;" />
      <stop
         id="stop3272"
         offset="1"
         style="stop-color:#000000;stop-opacity:0" />
    </linearGradient>
    <linearGradient
       inkscape:collect="always"
       id="linearGradient5539">
      <stop
         style="stop-color:#0000ff;stop-opacity:1;"
         offset="0"
         id="stop5541" />
      <stop
         style="stop-color:#0000ff;stop-opacity:0;"
         offset="1"
         id="stop5543" />
    </linearGradient>
    <inkscape:perspective
       sodipodi:type="inkscape:persp3d"
       inkscape:vp_x="0 : 526.18109 : 1"
       inkscape:vp_y="0 : 1000 : 0"
       inkscape:vp_z="744.09448 : 526.18109 : 1"
       inkscape:persp3d-origin="372.04724 : 350.78739 : 1"
       id="perspective10" />
    <inkscape:perspective
       id="perspective2390"
       inkscape:persp3d-origin="372.04724 : 350.78739 : 1"
       inkscape:vp_z="744.09448 : 526.18109 : 1"
       inkscape:vp_y="0 : 1000 : 0"
       inkscape:vp_x="0 : 526.18109 : 1"
       sodipodi:type="inkscape:persp3d" />
    <inkscape:perspective
       id="perspective3237"
       inkscape:persp3d-origin="372.04724 : 350.78739 : 1"
       inkscape:vp_z="744.09448 : 526.18109 : 1"
       inkscape:vp_y="0 : 1000 : 0"
       inkscape:vp_x="0 : 526.18109 : 1"
       sodipodi:type="inkscape:persp3d" />
    <inkscape:perspective
       id="perspective3287"
       inkscape:persp3d-origin="372.04724 : 350.78739 : 1"
       inkscape:vp_z="744.09448 : 526.18109 : 1"
       inkscape:vp_y="0 : 1000 : 0"
       inkscape:vp_x="0 : 526.18109 : 1"
       sodipodi:type="inkscape:persp3d" />
    <inkscape:perspective
       id="perspective2600"
       inkscape:persp3d-origin="372.04724 : 350.78739 : 1"
       inkscape:vp_z="744.09448 : 526.18109 : 1"
       inkscape:vp_y="0 : 1000 : 0"
       inkscape:vp_x="0 : 526.18109 : 1"
       sodipodi:type="inkscape:persp3d" />
    <linearGradient
       id="linearGradient6038">
      <stop
         style="stop-color:#ffffff;stop-opacity:1;"
         offset="0"
         id="stop6040" />
      <stop
         style="stop-color:#000000;stop-opacity:0;"
         offset="1"
         id="stop6042" />
    </linearGradient>
    <linearGradient
       id="linearGradient3200">
      <stop
         style="stop-color:#223a7c;stop-opacity:1;"
         offset="0"
         id="stop3202" />
      <stop
         id="stop5055"
         offset="0.68000001"
         style="stop-color:#11579b;stop-opacity:0.49803922;" />
      <stop
         style="stop-color:#19a8df;stop-opacity:0;"
         offset="1"
         id="stop3204" />
    </linearGradient>
    <radialGradient
       gradientUnits="userSpaceOnUse"
       gradientTransform="matrix(-0.3630939,-1.2833989,1.5985878,-0.4522658,384.55013,684.20354)"
       r="225"
       fy="106.07712"
       fx="375.05542"
       cy="106.07712"
       cx="375.05542"
       id="radialGradient21833"
       xlink:href="#linearGradient21827"
       inkscape:collect="always" />
    <linearGradient
       gradientTransform="translate(-2.0153129,-7.4008315e-2)"
       gradientUnits="userSpaceOnUse"
       y2="97.46106"
       x2="208.38336"
       y1="97.46106"
       x1="28.21438"
       id="linearGradient8567"
       xlink:href="#linearGradient6517"
       inkscape:collect="always" />
    <clipPath
       id="clip0">
      <rect
         y="0"
         x="0"
         width="306"
         height="291"
         id="rect2198" />
    </clipPath>
    <linearGradient
       id="linearGradient6507">
      <stop
         id="stop6509"
         offset="0"
         style="stop-color:#ff0000;stop-opacity:1;" />
      <stop
         id="stop6511"
         offset="1"
         style="stop-color:#ff0000;stop-opacity:0;" />
    </linearGradient>
    <linearGradient
       id="linearGradient6517">
      <stop
         style="stop-color:#ff0707;stop-opacity:1;"
         offset="0"
         id="stop7532" />
      <stop
         id="stop9542"
         offset="0"
         style="stop-color:#ff0707;stop-opacity:0;" />
      <stop
         style="stop-color:#ff0707;stop-opacity:0.78431374;"
         offset="0.2"
         id="stop9546" />
      <stop
         id="stop3817"
         offset="0.86000001"
         style="stop-color:#ff0707;stop-opacity:0.78431374;" />
      <stop
         id="stop9548"
         offset="1"
         style="stop-color:#ff0707;stop-opacity:0;" />
      <stop
         style="stop-color:#ff0707;stop-opacity:0.97938144;"
         offset="1"
         id="stop9544" />
    </linearGradient>
    <linearGradient
       id="linearGradient3823">
      <stop
         id="stop3825"
         offset="0"
         style="stop-color:#003dfb;stop-opacity:1;" />
      <stop
         style="stop-color:#002dfc;stop-opacity:0.73451328;"
         offset="0.65384614"
         id="stop3877" />
      <stop
         style="stop-color:#001efd;stop-opacity:1;"
         offset="1"
         id="stop3871" />
    </linearGradient>
    <linearGradient
       id="linearGradient17888">
      <stop
         id="stop17890"
         offset="0"
         style="stop-color:#90a6d6;stop-opacity:1" />
      <stop
         id="stop17892"
         offset="1"
         style="stop-color:#334e89;stop-opacity:0;" />
    </linearGradient>
    <linearGradient
       id="linearGradient21827"
       inkscape:collect="always">
      <stop
         id="stop21829"
         offset="0"
         style="stop-color:#7ab3e5;stop-opacity:1" />
      <stop
         id="stop21831"
         offset="1"
         style="stop-color:#334d88;stop-opacity:0;" />
    </linearGradient>
    <inkscape:perspective
       id="perspective2791"
       inkscape:persp3d-origin="24 : 16 : 1"
       inkscape:vp_z="48 : 24 : 1"
       inkscape:vp_y="0 : 1000 : 0"
       inkscape:vp_x="0 : 24 : 1"
       sodipodi:type="inkscape:persp3d" />
    <inkscape:perspective
       id="perspective2514"
       inkscape:persp3d-origin="372.04724 : 350.78739 : 1"
       inkscape:vp_z="744.09448 : 526.18109 : 1"
       inkscape:vp_y="0 : 1000 : 0"
       inkscape:vp_x="0 : 526.18109 : 1"
       sodipodi:type="inkscape:persp3d" />
    <radialGradient
       inkscape:collect="always"
       xlink:href="#linearGradient6038"
       id="radialGradient3232"
       cx="397.60214"
       cy="576.15607"
       fx="397.60214"
       fy="576.15607"
       r="37.15749"
       gradientUnits="userSpaceOnUse"
       gradientTransform="matrix(5.5463262e-2,1.0355634,-0.9476407,5.0754261e-2,936.39181,146.17162)" />
    <radialGradient
       gradientUnits="userSpaceOnUse"
       gradientTransform="matrix(-0.3630939,-1.2833989,1.5985878,-0.4522658,384.55013,684.20354)"
       r="225"
       fy="106.07712"
       fx="375.05542"
       cy="106.07712"
       cx="375.05542"
       id="radialGradient4819"
       xlink:href="#linearGradient21827"
       inkscape:collect="always" />
    <linearGradient
       gradientTransform="translate(-2.0153129,-7.4008315e-2)"
       gradientUnits="userSpaceOnUse"
       y2="97.46106"
       x2="208.38336"
       y1="97.46106"
       x1="28.21438"
       id="linearGradient4817"
       xlink:href="#linearGradient6517"
       inkscape:collect="always" />
    <clipPath
       id="clipPath4813">
      <rect
         width="306"
         height="291"
         id="rect4815" />
    </clipPath>
    <linearGradient
       id="linearGradient4807">
      <stop
         id="stop4809"
         offset="0"
         style="stop-color:#ff0000;stop-opacity:1;" />
      <stop
         id="stop4811"
         offset="1"
         style="stop-color:#ff0000;stop-opacity:0;" />
    </linearGradient>
    <linearGradient
       id="linearGradient4793">
      <stop
         style="stop-color:#ff0707;stop-opacity:1;"
         offset="0"
         id="stop4795" />
      <stop
         id="stop4797"
         offset="0"
         style="stop-color:#ff0707;stop-opacity:0;" />
      <stop
         style="stop-color:#ff0707;stop-opacity:0.78431374;"
         offset="0.2"
         id="stop4799" />
      <stop
         id="stop4801"
         offset="0.86000001"
         style="stop-color:#ff0707;stop-opacity:0.78431374;" />
      <stop
         id="stop4803"
         offset="1"
         style="stop-color:#ff0707;stop-opacity:0;" />
      <stop
         style="stop-color:#ff0707;stop-opacity:0.97938144;"
         offset="1"
         id="stop4805" />
    </linearGradient>
    <linearGradient
       id="linearGradient4785">
      <stop
         id="stop4787"
         offset="0"
         style="stop-color:#003dfb;stop-opacity:1;" />
      <stop
         style="stop-color:#002dfc;stop-opacity:0.73451328;"
         offset="0.65384614"
         id="stop4789" />
      <stop
         style="stop-color:#001efd;stop-opacity:1;"
         offset="1"
         id="stop4791" />
    </linearGradient>
    <linearGradient
       id="linearGradient4779">
      <stop
         id="stop4781"
         offset="0"
         style="stop-color:#90a6d6;stop-opacity:1" />
      <stop
         id="stop4783"
         offset="1"
         style="stop-color:#334e89;stop-opacity:0;" />
    </linearGradient>
    <inkscape:perspective
       id="perspective4770"
       inkscape:persp3d-origin="225 : 100 : 1"
       inkscape:vp_z="450 : 150 : 1"
       inkscape:vp_y="0 : 1000 : 0"
       inkscape:vp_x="0 : 150 : 1"
       sodipodi:type="inkscape:persp3d" />
    <radialGradient
       inkscape:collect="always"
       xlink:href="#linearGradient5539"
       id="radialGradient5545"
       cx="419.4565"
       cy="618.28993"
       fx="419.4565"
       fy="618.28993"
       r="34.28464"
       gradientTransform="matrix(1,0,0,0.5251858,0,293.57286)"
       gradientUnits="userSpaceOnUse" />
    <radialGradient
       inkscape:collect="always"
       xlink:href="#linearGradient6038"
       id="radialGradient2481"
       gradientUnits="userSpaceOnUse"
       gradientTransform="matrix(5.9990544e-2,1.120093,-1.0249935,5.4897163e-2,979.6119,107.84001)"
       cx="406.62762"
       cy="567.12799"
       fx="406.62762"
       fy="567.12799"
       r="37.15749" />
    <linearGradient
       inkscape:collect="always"
       xlink:href="#linearGradient6038"
       id="linearGradient3267"
       gradientUnits="userSpaceOnUse"
       x1="594.62848"
       y1="565.21832"
       x2="594.11542"
       y2="655.77222" />
    <linearGradient
       inkscape:collect="always"
       xlink:href="#linearGradient6038"
       id="linearGradient3284"
       gradientUnits="userSpaceOnUse"
       x1="594.62848"
       y1="565.21832"
       x2="594.11542"
       y2="655.77222" />
    <linearGradient
       inkscape:collect="always"
       xlink:href="#linearGradient6038"
       id="linearGradient3295"
       gradientUnits="userSpaceOnUse"
       x1="594.85486"
       y1="578.3493"
       x2="594.54071"
       y2="629.64508"
       gradientTransform="translate(0,-2.17496e-6)" />
    <linearGradient
       inkscape:collect="always"
       xlink:href="#linearGradient6038"
       id="linearGradient2508"
       gradientUnits="userSpaceOnUse"
       x1="583.96893"
       y1="708.33978"
       x2="584.93549"
       y2="747.46899"
       gradientTransform="translate(0,-1.6629509e-6)" />
    <linearGradient
       inkscape:collect="always"
       xlink:href="#linearGradient6038"
       id="linearGradient3285"
       gradientUnits="userSpaceOnUse"
       gradientTransform="translate(0,-2.17496e-6)"
       x1="594.85486"
       y1="578.3493"
       x2="594.54071"
       y2="629.64508" />
    <linearGradient
       inkscape:collect="always"
       xlink:href="#linearGradient6038"
       id="linearGradient3296"
       gradientUnits="userSpaceOnUse"
       gradientTransform="translate(0,-2.17496e-6)"
       x1="594.85486"
       y1="578.3493"
       x2="594.54071"
       y2="629.64508" />
    <linearGradient
       inkscape:collect="always"
       xlink:href="#linearGradient3268"
       id="linearGradient3265"
       x1="593.82794"
       y1="631.3783"
       x2="593.82794"
       y2="685.38861"
       gradientUnits="userSpaceOnUse" />
    <radialGradient
       inkscape:collect="always"
       xlink:href="#linearGradient6038"
       id="radialGradient2510"
       gradientUnits="userSpaceOnUse"
       gradientTransform="matrix(5.9990544e-2,1.120093,-1.0249935,5.4897163e-2,979.6119,-64.473702)"
       cx="406.62762"
       cy="567.12799"
       fx="406.62762"
       fy="567.12799"
       r="37.15749" />
    <radialGradient
       inkscape:collect="always"
       xlink:href="#linearGradient6038"
       id="radialGradient3333"
       gradientUnits="userSpaceOnUse"
       gradientTransform="matrix(5.9990544e-2,1.120093,-1.0249935,5.4897163e-2,979.6119,107.84001)"
       cx="406.62762"
       cy="567.12799"
       fx="406.62762"
       fy="567.12799"
       r="37.15749" />
  </defs>
  <sodipodi:namedview
     id="base"
     pagecolor="#ffffff"
     bordercolor="#666666"
     borderopacity="1.0"
     inkscape:pageopacity="0.0"
     inkscape:pageshadow="2"
     inkscape:zoom="1.8338645"
     inkscape:cx="561.17081"
     inkscape:cy="426.78075"
     inkscape:document-units="px"
     inkscape:current-layer="layer1"
     showgrid="false"
     inkscape:window-width="1280"
     inkscape:window-height="968"
     inkscape:window-x="0"
     inkscape:window-y="22"
     showguides="true"
     inkscape:guide-bbox="true" />
  <metadata
     id="metadata7">
    <rdf:RDF>
      <cc:Work
         rdf:about="">
        <dc:format>image/svg+xml</dc:format>
        <dc:type
           rdf:resource="http://purl.org/dc/dcmitype/StillImage" />
      </cc:Work>
    </rdf:RDF>
  </metadata>
  <g
     inkscape:label="Calque 1"
     inkscape:groupmode="layer"
     id="layer1">
    <g
       transform="matrix(0.3020152,0,0,0.2726989,1579.2059,1102.2883)"
       id="g9705" />
    <g
       id="g3267">
      <path
         id="path3234"
         d="M 501.72813,622.49036 C 501.72813,656.24909 474.32973,683.64751 440.571,683.64751 C 406.81225,683.64751 379.41387,656.24909 379.41387,622.49036 C 379.41387,588.73162 406.81225,561.33323 440.571,561.33323 C 474.32973,561.33323 501.72813,588.73162 501.72813,622.49036 z"
         style="fill:#4e689f;fill-opacity:1;fill-rule:nonzero;stroke:none;stroke-width:2;stroke-miterlimit:4;stroke-opacity:1" />
      <path
         id="path3224"
         d="M 501.72813,622.49038 C 501.72813,656.24909 474.32973,683.64751 440.571,683.64751 C 406.81225,683.64751 379.41387,656.24909 379.41387,622.49038 C 379.41387,588.73163 406.81225,561.33323 440.571,561.33323 C 474.32973,561.33323 501.72813,588.73163 501.72813,622.49038 z"
         style="fill:url(#radialGradient3333);fill-opacity:1;fill-rule:evenodd;stroke:none;stroke-width:2;stroke-miterlimit:4;stroke-opacity:1" />
      <path
         id="path2396"
         d="M 500.42472,622.49035 C 500.42472,589.4511 473.61022,562.63666 440.57098,562.63666 C 407.53173,562.63666 380.71728,589.4511 380.71728,622.49035 C 380.71728,655.5296 407.53173,682.34409 440.57098,682.34409 C 473.61022,682.34409 500.42472,655.5296 500.42472,622.49035 z"
         style="fill:#000000;fill-opacity:0;fill-rule:nonzero;stroke:#000000;stroke-width:1.99999988;stroke-miterlimit:4;stroke-opacity:1" />
      <path
         id="path3168"
         d="M 479.44864,623.35005 C 479.44864,644.8105 462.03145,662.2277 440.57099,662.2277 C 419.11054,662.2277 401.69337,644.8105 401.69337,623.35005 C 401.69337,601.8896 419.11054,584.47243 440.57099,584.47243 C 462.03145,584.47243 479.44864,601.8896 479.44864,623.35005 z"
         style="fill:#000000;fill-opacity:0;fill-rule:nonzero;stroke:#000000;stroke-width:1.99999988;stroke-miterlimit:4;stroke-opacity:1" />
      <path
         id="text3170"
         d="M 398.3343,620.76102 L 384.44286,618.60544 L 385.15162,614.17009 C 385.42022,612.48933 385.66479,611.40451 385.88533,610.91561 C 386.21915,610.16361 386.77735,609.5772 387.55995,609.15638 C 388.34255,608.73559 389.2866,608.61095 390.3921,608.78249 C 391.24493,608.91485 391.93756,609.1786 392.46998,609.57381 C 393.00242,609.96902 393.3969,610.42737 393.65346,610.94882 C 393.91001,611.47026 394.05319,611.9821 394.08298,612.48431 C 394.1102,613.16476 394.02382,614.13059 393.82388,615.38183 L 393.53589,617.18398 L 398.77598,617.9971 L 398.3343,620.76102 z M 387.23452,616.20617 L 391.17644,616.81784 L 391.41817,615.30517 C 391.59226,614.21579 391.63598,613.47619 391.54938,613.08635 C 391.46277,612.69654 391.28137,612.37334 391.00515,612.11675 C 390.72894,611.8602 390.38551,611.70005 389.9749,611.63633 C 389.46954,611.55791 389.02922,611.63951 388.65396,611.8811 C 388.27875,612.12272 388.01425,612.46124 387.86048,612.8967 C 387.74459,613.21683 387.60708,613.8749 387.44789,614.8709 L 387.23452,616.20617 z M 394.32776,605.19 C 393.06866,604.51683 392.11411,603.76626 391.46405,602.93834 C 390.98702,602.3248 390.63026,601.64472 390.39379,600.89813 C 390.15734,600.15155 390.07533,599.42837 390.14775,598.72861 C 390.23957,597.79547 390.55844,596.83316 391.10432,595.84168 C 392.09249,594.04707 393.44803,592.91313 395.17103,592.43984 C 396.89401,591.96662 398.76166,592.26794 400.77395,593.34381 C 402.76939,594.41072 404.03629,595.77998 404.57468,597.45154 C 405.11305,599.12314 404.88969,600.85349 403.90463,602.64257 C 402.90734,604.45381 401.5537,605.59418 399.84371,606.06361 C 398.13374,606.53308 396.29509,606.24188 394.32776,605.19 L 394.32776,605.19 z M 395.63872,602.61085 C 397.03834,603.35919 398.27465,603.60796 399.34766,603.35714 C 400.42069,603.10637 401.2271,602.49075 401.7669,601.51035 C 402.30672,600.52996 402.39137,599.53383 402.02086,598.52197 C 401.65034,597.51014 400.7484,596.62103 399.31506,595.85465 C 397.89859,595.09732 396.67337,594.83835 395.63937,595.07774 C 394.60536,595.31714 393.80931,595.94365 393.2512,596.95727 C 392.69309,597.97091 392.59596,598.97649 392.9598,599.97402 C 393.32366,600.97155 394.21663,601.85051 395.63872,602.61085 L 395.63872,602.61085 z M 409.8906,593.49213 L 398.51755,584.69576 L 400.79397,582.91496 L 408.46029,589.07132 L 404.46781,580.04098 L 407.11237,577.9722 L 415.15055,584.04285 L 410.73362,575.13936 L 412.97246,573.38795 L 419.0414,586.33365 L 416.68232,588.17911 L 407.95176,581.78111 L 412.30225,591.60554 L 409.8906,593.49213 z M 423.49124,584.18085 L 419.44356,570.90971 L 429.42936,567.95224 L 430.11408,570.19728 L 422.84753,572.34942 L 423.74486,575.29151 L 430.50616,573.28903 L 431.18813,575.52503 L 424.42683,577.5275 L 425.52849,581.13951 L 433.05228,578.9112 L 433.73425,581.14718 L 423.49124,584.18085 z M 436.23892,580.82113 L 436.72126,566.97171 L 442.69387,567.17369 C 444.1958,567.22451 445.2828,567.38581 445.9548,567.65758 C 446.62679,567.92938 447.15623,568.39024 447.54313,569.04018 C 447.93001,569.69012 448.10918,570.42445 448.08068,571.24321 C 448.04448,572.28239 447.70461,573.13001 447.0611,573.78609 C 446.41756,574.44216 445.47598,574.83751 444.23632,574.97213 C 444.8376,575.34558 445.33061,575.75004 445.71538,576.18552 C 446.10012,576.62101 446.61249,577.38866 447.25246,578.48855 L 448.87441,581.24845 L 445.48066,581.13368 L 443.53404,578.05068 C 442.84292,576.94908 442.36805,576.2536 442.10938,575.96425 C 441.8507,575.67492 441.57297,575.4732 441.27622,575.35912 C 440.97944,575.24506 440.50512,575.17699 439.85322,575.15494 L 439.27799,575.1355 L 439.07664,580.9171 L 436.23892,580.82113 z M 439.35499,572.92488 L 441.45451,572.99586 C 442.81584,573.04192 443.66784,573.01398 444.01054,572.91208 C 444.35322,572.81017 444.62524,572.6239 444.82665,572.35326 C 445.02802,572.08264 445.13596,571.73949 445.15044,571.32381 C 445.16666,570.85776 445.05354,570.47718 444.81109,570.18206 C 444.5686,569.88699 444.2186,569.69386 443.76107,569.60271 C 443.53208,569.56345 442.84237,569.52436 441.69194,569.48545 L 439.47738,569.41055 L 439.35499,572.92488 z M 450.42973,581.84989 L 455.40231,568.88758 L 465.15574,572.52084 L 464.31453,574.71366 L 457.21705,572.06975 L 456.11468,574.9434 L 462.71865,577.40345 L 461.88086,579.58741 L 455.27687,577.12736 L 453.92349,580.65531 L 461.2722,583.39279 L 460.43441,585.57676 L 450.42973,581.84989 z M 471.54111,576.1003 L 475.54955,579.34827 C 476.45347,580.08071 477.08565,580.7072 477.44616,581.22772 C 477.92898,581.92901 478.20065,582.69983 478.26114,583.54021 C 478.32158,584.38059 478.18501,585.23877 477.85146,586.11477 C 477.51787,586.99077 476.93276,587.93012 476.09608,588.93284 C 475.36089,589.81385 474.61612,590.48312 473.86179,590.94067 C 472.94023,591.49932 472.02649,591.81548 471.12058,591.88912 C 470.43559,591.946 469.68428,591.81449 468.86662,591.49461 C 468.25662,591.25327 467.54659,590.80439 466.73651,590.148 L 462.60952,586.80395 L 471.54111,576.1003 z M 472.22332,579.68809 L 466.30752,586.77763 L 467.94498,588.10443 C 468.55747,588.60074 469.02799,588.92488 469.35654,589.07687 C 469.78529,589.27743 470.20431,589.3681 470.6136,589.34893 C 471.02287,589.32974 471.50164,589.14046 472.0499,588.78107 C 472.59816,588.42171 473.21751,587.82827 473.90802,587.00081 C 474.59848,586.17332 475.05444,585.47808 475.27587,584.91504 C 475.49729,584.35204 475.5782,583.83835 475.51863,583.37398 C 475.45901,582.90961 475.26079,582.46751 474.92394,582.04767 C 474.67452,581.7314 474.10281,581.21103 473.20876,580.48658 L 472.22332,579.68809 z M 489.35674,594.96049 L 491.6186,600.03152 C 492.06632,601.03534 492.35775,601.80227 492.49288,602.33229 C 492.62799,602.86232 492.64774,603.38036 492.55215,603.88641 C 492.45653,604.39247 492.24268,604.87229 491.91062,605.32589 C 491.57853,605.77947 491.13441,606.1267 490.57826,606.36761 C 489.97523,606.62878 489.35056,606.70832 488.70429,606.6062 C 488.05799,606.50408 487.48673,606.23351 486.99054,605.79449 C 487.10703,606.66644 486.98275,607.42926 486.6177,608.083 C 486.25265,608.73672 485.69836,609.2246 484.95487,609.54665 C 484.36942,609.80021 483.74024,609.91267 483.06735,609.88405 C 482.39443,609.8554 481.78903,609.68051 481.2511,609.35937 C 480.71317,609.03821 480.25434,608.55375 479.87461,607.90596 C 479.63734,607.49932 479.14876,606.48221 478.40883,604.85464 L 476.4828,600.53649 L 489.35674,594.96049 z M 488.35651,598.45004 L 485.37951,599.73942 L 486.12831,601.41824 C 486.57348,602.4163 486.86475,603.03013 487.00211,603.25975 C 487.25034,603.67538 487.55778,603.95353 487.92438,604.09419 C 488.29097,604.23483 488.68212,604.21514 489.0978,604.03511 C 489.49588,603.86267 489.7711,603.61441 489.92343,603.29031 C 490.07574,602.96619 490.08302,602.57929 489.9453,602.12954 C 489.86135,601.86303 489.55048,601.12689 489.01269,599.92115 L 488.35651,598.45004 z M 483.23679,600.66749 L 479.79437,602.15848 L 480.85196,604.52959 C 481.26366,605.45263 481.55119,606.02677 481.71454,606.25204 C 481.9546,606.60238 482.26418,606.83829 482.6432,606.95981 C 483.02222,607.0813 483.44005,607.04316 483.89669,606.84539 C 484.28309,606.67802 484.56976,606.44373 484.75673,606.14247 C 484.94369,605.8412 485.02081,605.48944 484.98809,605.08718 C 484.95533,604.6849 484.67908,603.90106 484.15929,602.73571 L 483.23679,600.66749 z M 481.99852,617.21339 L 487.895,616.71 L 495.56406,610.96021 L 495.85135,614.22805 L 490.5941,617.95023 L 496.41684,620.66012 L 496.69915,623.87144 L 488.12013,619.48976 L 482.24273,619.99152 L 481.99852,617.21339 z"
         style="font-size:12px;font-style:normal;font-variant:normal;font-weight:bold;font-stretch:normal;text-align:start;line-height:125%;writing-mode:lr-tb;text-anchor:start;fill:#ffffff;fill-opacity:1;stroke:none;stroke-width:1px;stroke-linecap:butt;stroke-linejoin:miter;stroke-opacity:1;font-family:Arial;-inkscape-font-specification:Arial Bold" />
      <path
         id="path2539"
         d="M 436.12505,651.21707 C 434.22066,650.7487 432.79652,649.93226 431.57749,648.61001 C 428.75447,645.54798 428.32218,641.56235 430.6373,639.942 C 431.95791,639.01772 433.29445,637.654 433.74649,636.76957 C 434.15135,635.97749 434.22365,635.41715 434.23679,632.96937 C 434.25123,630.27956 434.29072,630.03177 434.86225,629.04545 C 436.26463,626.62518 438.40889,625.38295 443.12726,624.25724 C 446.6502,623.41672 448.62807,623.35427 450.74223,624.01678 C 452.5971,624.59805 454.35243,626.14931 455.38984,628.12405 C 456.49928,630.23593 458.21666,631.26095 461.22699,631.608 C 463.47577,631.86725 464.17402,632.18102 465.14043,633.36655 C 466.07877,634.51762 466.51312,636.09804 466.51043,638.35134 C 466.50778,640.56562 465.94963,642.00038 464.44779,643.65344 C 463.20687,645.01931 462.31614,645.53594 458.57931,647.05729 C 453.51318,649.1198 447.86455,650.56159 442.28902,651.21532 C 438.66898,651.63978 437.84473,651.64001 436.12505,651.21707 z"
         style="fill:#000000;fill-opacity:1;stroke:none;stroke-width:0.40000001;stroke-miterlimit:4;stroke-dasharray:none;stroke-opacity:1" />
      <path
         id="path2535"
         d="M 417.79862,636.09705 C 414.54438,634.73907 412.05013,631.3071 411.49979,627.43014 C 411.39908,626.72064 411.13833,625.79039 410.92035,625.36292 C 410.26981,624.08717 409.92094,622.39745 409.91808,620.50872 L 409.91538,618.72862 L 410.5551,618.72862 C 411.35155,618.72862 411.97676,619.41228 412.50111,620.8566 L 412.89843,621.95098 L 413.56789,621.37945 C 415.30804,619.89386 417.31045,620.13867 419.98971,622.16459 C 420.61228,622.63534 422.39508,623.7694 423.9515,624.68472 C 427.20648,626.59895 428.09958,627.37872 428.61974,628.76056 C 429.30631,630.58455 428.68881,632.51676 426.78628,634.49751 C 425.85512,635.46697 425.36862,635.76824 424.09746,636.16276 C 421.93695,636.83327 419.50198,636.80786 417.79862,636.09705 z"
         style="fill:#000000;fill-opacity:1;stroke:none;stroke-width:0.40000001;stroke-miterlimit:4;stroke-dasharray:none;stroke-opacity:1" />
      <path
         id="path2531"
         d="M 460.46817,625.14226 C 458.67688,624.56634 457.25942,623.47951 456.59253,622.17066 C 455.79364,620.60272 456.01094,619.4523 457.78501,615.8575 C 458.5955,614.21523 459.46445,612.26121 459.71605,611.51527 C 460.53722,609.0805 461.77013,607.93322 463.56544,607.93322 C 464.72983,607.93322 464.90963,607.53505 464.40118,606.08259 C 464.19283,605.4874 464.02236,604.80475 464.02236,604.56557 C 464.02236,603.99342 464.64296,603.10973 465.04477,603.10973 C 465.86701,603.10973 467.82816,606.46037 468.31868,608.70322 C 468.45274,609.31621 468.80273,610.14309 469.0964,610.54074 C 470.56286,612.5263 471.37425,615.36856 471.20434,617.9247 C 470.94842,621.77506 469.20132,624.05237 465.64943,625.16542 C 463.84374,625.73127 462.27839,625.72427 460.46817,625.14226 z"
         style="fill:#000000;fill-opacity:1;stroke:none;stroke-width:0.40000001;stroke-miterlimit:4;stroke-dasharray:none;stroke-opacity:1" />
      <path
         id="path2527"
         d="M 427.63048,617.68464 C 425.04066,616.97711 423.39861,615.65201 422.40228,613.46563 C 421.92701,612.4227 421.80077,611.74726 421.72799,609.85791 C 421.6315,607.35308 421.9791,605.56857 422.86353,604.02849 C 423.24938,603.35661 423.31923,602.86623 423.28882,601.04253 C 423.25241,598.85738 423.57838,596.58565 424.00567,596.04679 C 424.38344,595.57039 425.2298,595.71636 425.62338,596.32582 C 425.82447,596.63719 425.98901,597.30694 425.98901,597.81415 C 425.98901,599.13602 426.62346,600.65272 427.09407,600.45586 C 427.29562,600.37153 428.12273,600.25576 428.93206,600.19859 C 430.1366,600.1135 430.53544,600.17899 431.13022,600.55958 C 432.07228,601.16235 432.78729,602.60863 432.94484,604.23007 C 433.09807,605.8072 433.55007,606.74681 434.94728,608.3926 C 435.53715,609.08741 436.2056,610.06934 436.43275,610.57464 C 436.92483,611.66937 436.97528,613.39978 436.54555,614.44327 C 436.09023,615.54889 434.54681,616.76966 432.7499,617.44542 C 430.96603,618.11628 429.4668,618.18634 427.63048,617.68464 z"
         style="fill:#000000;fill-opacity:1;stroke:none;stroke-width:0.40000001;stroke-miterlimit:4;stroke-dasharray:none;stroke-opacity:1" />
      <path
         id="path2523"
         d="M 441.47413,613.37036 C 439.32165,612.32533 438.59618,610.57047 438.81276,606.93273 L 438.95148,604.60271 L 438.13111,603.09275 C 436.36634,599.84459 436.92192,597.88678 439.85205,597.02822 L 441.15052,596.64777 L 440.80721,595.81413 C 440.61838,595.35562 440.21236,594.64591 439.90493,594.23695 C 439.54991,593.76473 439.34596,593.19188 439.34596,592.66698 C 439.34596,591.76203 439.68806,591.48964 440.54919,591.70891 C 441.28949,591.89742 444.14744,594.84806 444.799,596.09655 C 445.21663,596.89677 445.68365,597.34416 446.78216,597.99642 C 448.65928,599.11097 450.76623,601.41286 451.65912,603.32464 C 452.27535,604.64403 452.36332,605.07632 452.36332,606.78477 C 452.36332,609.12259 451.99051,610.04535 450.38547,611.68016 C 448.82788,613.26663 447.64254,613.73302 444.8925,613.84153 C 442.85501,613.92191 442.51314,613.8748 441.47413,613.37036 z"
         style="fill:#000000;fill-opacity:1;stroke:none;stroke-width:0.40000001;stroke-miterlimit:4;stroke-dasharray:none;stroke-opacity:1" />
      <path
         id="text2497"
         d="M 392.71413,652.05544 L 403.53483,644.45785 L 405.08302,646.65853 L 396.10052,652.96547 L 399.95011,658.43743 L 398.11193,659.72807 L 392.71413,652.05544 z M 412.71642,672.05235 L 410.36664,670.3055 L 411.24087,667.18343 L 406.96458,664.00438 L 404.27328,665.77562 L 401.9819,664.07217 L 414.10959,656.48229 L 416.39368,658.18032 L 412.71642,672.05235 z M 411.8889,664.86736 L 413.36892,659.80559 L 408.96994,662.69735 L 411.8889,664.86736 z M 417.70261,674.44213 L 418.47413,672.1415 L 427.86342,666.16995 L 421.97253,664.19828 L 422.68914,662.06137 L 431.9438,665.15888 L 431.27919,667.14069 L 421.49548,673.34441 L 428.68875,675.75199 L 427.97502,677.88028 L 417.70261,674.44213 z M 446.84046,679.12518 L 443.91158,679.10254 L 442.77074,676.06756 L 437.44052,676.02634 L 436.31647,679.04381 L 433.46036,679.02172 L 438.75733,665.74031 L 441.60436,665.76231 L 446.84046,679.12518 z M 441.92401,673.81638 L 440.12493,668.85884 L 438.28564,673.78825 L 441.92401,673.81638 z M 453.41488,677.84363 L 449.09896,665.2387 L 454.46087,663.40638 C 455.80924,662.94562 456.82772,662.72403 457.51631,662.74161 C 458.2049,662.75923 458.83192,662.99474 459.39738,663.44819 C 459.96281,663.90166 460.37311,664.50098 460.62826,665.24614 C 460.95211,666.19195 460.94124,667.06805 460.59567,667.87443 C 460.25008,668.68084 459.55108,669.3535 458.49866,669.89241 C 459.15939,670.02519 459.73481,670.22233 460.22493,670.48381 C 460.71502,670.74533 461.43199,671.26227 462.37582,672.0346 L 464.75839,673.96722 L 461.71165,675.00838 L 458.93069,672.89497 C 457.94097,672.13831 457.28194,671.67361 456.95363,671.50088 C 456.6253,671.32815 456.31011,671.24058 456.00806,671.23815 C 455.706,671.23573 455.26234,671.33451 454.6771,671.5345 L 454.16069,671.71097 L 455.96244,676.97306 L 453.41488,677.84363 z M 453.4718,669.69901 L 455.35664,669.05489 C 456.57877,668.63726 457.32423,668.32489 457.59302,668.11778 C 457.86178,667.91069 458.03905,667.65163 458.12483,667.34058 C 458.2106,667.02955 458.18871,666.68488 458.05919,666.30656 C 457.91394,665.88239 457.68336,665.57861 457.36742,665.39524 C 457.05146,665.21189 456.67516,665.15641 456.2385,665.22878 C 456.02212,665.27072 455.39753,665.46815 454.36476,665.82108 L 452.37663,666.50048 L 453.4718,669.69901 z M 462.33271,660.10468 L 464.45385,658.44793 L 468.90232,664.13217 C 469.60825,665.03421 470.09208,665.59833 470.35378,665.82455 C 470.78071,666.1832 471.26674,666.35918 471.81189,666.35248 C 472.35703,666.34581 472.92579,666.11111 473.51818,665.64841 C 474.12012,665.17826 474.4778,664.70088 474.59119,664.21626 C 474.70458,663.73167 474.65226,663.28614 474.43425,662.87967 C 474.21621,662.47323 473.78225,661.85477 473.13235,661.02433 L 468.58863,655.21838 L 470.70977,653.56164 L 475.02378,659.07406 C 476.00983,660.33405 476.6491,661.26894 476.94157,661.87869 C 477.23403,662.48848 477.36627,663.09268 477.33826,663.69129 C 477.31024,664.28993 477.12137,664.89693 476.77164,665.51229 C 476.42189,666.12768 475.8314,666.76 475.00014,667.40927 C 473.99689,668.19286 473.14552,668.67136 472.44604,668.84474 C 471.74654,669.01812 471.10158,669.03742 470.51114,668.90262 C 469.92071,668.76781 469.41897,668.53488 469.00594,668.20383 C 468.39677,667.71069 467.63278,666.87709 466.71395,665.70301 L 462.33271,660.10468 z M 480.33269,656.27894 L 481.55313,653.94922 C 482.37535,654.29811 483.09095,654.38371 483.69991,654.20604 C 484.30888,654.02837 484.83736,653.59727 485.28535,652.91275 C 485.75991,652.18767 485.96395,651.54103 485.89747,650.97283 C 485.83099,650.40464 485.5922,649.98628 485.18108,649.71773 C 484.91716,649.54534 484.64195,649.47597 484.35548,649.5096 C 484.06901,649.54326 483.73114,649.708 483.3419,650.00384 C 483.07798,650.20785 482.52231,650.70262 481.67491,651.48816 C 480.58565,652.49936 479.66347,653.10578 478.90838,653.30743 C 477.84625,653.59082 476.87362,653.44407 475.99046,652.8672 C 475.42201,652.4959 474.99572,651.98764 474.71156,651.3424 C 474.42744,650.6972 474.35424,649.98708 474.49194,649.21205 C 474.62965,648.43705 474.97893,647.62108 475.53975,646.76414 C 476.45567,645.36469 477.45218,644.51185 478.52925,644.20565 C 479.60632,643.89947 480.66911,644.06347 481.71759,644.69766 L 480.34313,647.01362 C 479.70655,646.73535 479.15893,646.67261 478.70027,646.8254 C 478.24164,646.97821 477.80491,647.37153 477.39008,648.00534 C 476.96199,648.65945 476.76132,649.25943 476.78807,649.80529 C 476.80467,650.15633 476.95762,650.42633 477.24692,650.61529 C 477.51086,650.7877 477.80972,650.82368 478.14353,650.72323 C 478.56792,650.59511 479.26794,650.06796 480.2436,649.14178 C 481.21925,648.21564 482.01712,647.58049 482.6372,647.23636 C 483.25729,646.89226 483.90422,646.72854 484.57799,646.74519 C 485.25176,646.76186 485.9414,647.0006 486.6469,647.46143 C 487.28641,647.87916 487.76917,648.44783 488.09519,649.16745 C 488.42119,649.88708 488.50758,650.66009 488.35436,651.48648 C 488.20112,652.31288 487.80759,653.21032 487.17375,654.17879 C 486.25119,655.58842 485.21658,656.45798 484.06992,656.78746 C 482.92324,657.11696 481.6775,656.94747 480.33269,656.27894 L 480.33269,656.27894 z"
         style="font-size:13.19933224px;font-style:normal;font-variant:normal;font-weight:bold;font-stretch:normal;text-align:start;line-height:125%;writing-mode:lr-tb;text-anchor:start;fill:#ffffff;fill-opacity:1;stroke:none;stroke-width:1px;stroke-linecap:butt;stroke-linejoin:miter;stroke-opacity:1;font-family:Arial;-inkscape-font-specification:Arial Bold" />
      <text
         sodipodi:linespacing="125%"
         id="text2516"
         y="651.53296"
         x="442.23508"
         style="font-size:12px;font-style:normal;font-variant:normal;font-weight:normal;font-stretch:normal;text-align:start;line-height:125%;writing-mode:tb-rl;text-anchor:start;fill:#000000;fill-opacity:1;stroke:none;stroke-width:1px;stroke-linecap:butt;stroke-linejoin:miter;stroke-opacity:1;font-family:Arial"
         xml:space="preserve"><tspan
           y="442.23508"
           x="651.53296"
           id="tspan2518"
           sodipodi:role="line"> </tspan></text>
      <text
         sodipodi:linespacing="125%"
         id="text2520"
         y="705.55603"
         x="496.40582"
         style="font-size:18.26016045px;font-style:normal;font-variant:normal;font-weight:normal;font-stretch:normal;text-align:start;line-height:125%;writing-mode:tb-rl;text-anchor:start;fill:#000000;fill-opacity:1;stroke:none;stroke-width:1px;stroke-linecap:butt;stroke-linejoin:miter;stroke-opacity:1;font-family:Arial"
         xml:space="preserve"><tspan
           y="401.43472"
           x="800.52716"
           id="tspan2522"
           sodipodi:role="line"> </tspan></text>
    </g>
  </g>
</svg>
