/* XPM */
static char * radiobutton_xpm[] = {
"25 25 96 2",
"  	c None",
". 	c None",
"+ 	c #BEBEBE",
"@ 	c #BDBDBD",
"# 	c #C1C1C1",
"$ 	c #C2C2C2",
"% 	c #C0C0BE",
"& 	c #C0C0C2",
"* 	c #C4C4C4",
"= 	c #C0C1BC",
"- 	c #C0BFC4",
"; 	c #C5C5C5",
"> 	c #C7C7C7",
", 	c #C3C3C3",
"' 	c #BCBCBC",
") 	c #808080",
"! 	c #848484",
"~ 	c #777777",
"{ 	c #7F7F7F",
"] 	c #B9B9B9",
"^ 	c #020202",
"/ 	c #000000",
"( 	c #060606",
"_ 	c #767676",
": 	c #818181",
"< 	c #FFFFFF",
"[ 	c #FBFBFB",
"} 	c #F8F8F8",
"| 	c #797979",
"1 	c #BEBEC0",
"2 	c #BEBDC2",
"3 	c #C7C6CB",
"4 	c #B4B4B4",
"5 	c #838383",
"6 	c #FEFEFE",
"7 	c #787878",
"8 	c #8E8E8E",
"9 	c #7D7D7D",
"0 	c #F6F6F6",
"a 	c #C2C1C9",
"b 	c #C2C1C6",
"c 	c #040404",
"d 	c #F7F7F7",
"e 	c #7B7C77",
"f 	c #F7F9EE",
"g 	c #C0C2B7",
"h 	c #BFC0BB",
"i 	c #FDFDFD",
"j 	c #030303",
"k 	c #81827C",
"l 	c #FFFFF1",
"m 	c #BEC1AE",
"n 	c #0C0C0C",
"o 	c #F3F3F3",
"p 	c #010101",
"q 	c #82837D",
"r 	c #F7FCE8",
"s 	c #C4C6B9",
"t 	c #868686",
"u 	c #888888",
"v 	c #F9F9F9",
"w 	c #7E7F7A",
"x 	c #FEFFF3",
"y 	c #C0C1B9",
"z 	c #BFBFBF",
"A 	c #828280",
"B 	c #F8FAF5",
"C 	c #7E7E7E",
"D 	c #878787",
"E 	c #C1C2C4",
"F 	c #AEAEAE",
"G 	c #919191",
"H 	c #7B7B7B",
"I 	c #F0F0F0",
"J 	c #F5F5F5",
"K 	c #FDFDFF",
"L 	c #BFC0C4",
"M 	c #BFBFC7",
"N 	c #BBBBBB",
"O 	c #7C7C7C",
"P 	c #707070",
"Q 	c #C0BFC5",
"R 	c #B7B7B7",
"S 	c #C3C3C1",
"T 	c #BFC1BE",
"U 	c #C6C6C6",
"V 	c #C2C2C0",
"W 	c #BFC2BB",
"X 	c #C1C0BB",
"Y 	c #BFC2B9",
"Z 	c #C0C1BB",
"` 	c #BFC1BC",
" .	c #C1C0BC",
"..	c #C1BFC0",
"+.	c #C3C3C5",
"@.	c #BFC0C5",
". . . . . . . . . . . . . . . . . . . . . . . . . ",
". . . . . . . . . . . . . . . . . . . . . . . . . ",
". . . . . . . . . . . . . . . . . . . . . . . . . ",
". . . . . . . . . . . . . . . . . . . . . . . . . ",
". . . . . . . . . . . . . . . . . . . . . . . . . ",
". . . . . . . . . . . . . . . . . . . . . . . . . ",
". . . . . . . . . . . . . . . . . . . . . . . . . ",
". . . . . . . . . . . . . . . . . . . . . . . . . ",
". . . . . . . . { ^ / / ( ^ / _ . . . . . . . . . ",
". . . . . . . : / : < < [ } < ^ | . . . . . . . . ",
". . . . . . . / 5 < 6 7 8 9 0 < 5 , . . . . . . . ",
". . . . . . . c < } / ^ / c / < d e f . . . . . . ",
". . . . . . . / i 5 j c / j / 9 < k l . . . . . . ",
". . . . . . . n o 5 ^ / p / c 7 < q r . . . . . . ",
". . . . . . . / < t / ( p j p u v w x . . . . . . ",
". . . . . . . / } < j / / j / < < A B . . . . . . ",
". . . . . . . : p 6 6 { C D v < ) i E . . . . . . ",
". . . . . . . F G H < I < J < { z K L . . . . . . ",
". . . . . . . ; . N O 8 P 5 { } < + . . . . . . . ",
". . . . . . . . . . v < < d < ] R . . . . . . . . ",
". . . . . . . . . . . . . . . . . . . . . . . . . ",
". . . . . . . . . . . . . . . . . . . . . . . . . ",
". . . . . . . . . . . . . . . . . . . . . . . . . ",
". . . . . . . . . . . . . . . . . . . . . . . . . ",
". . . . . . . . . . . . . . . . . . . . . . . . . "};
