/* XPM */
static char * saveall_xpm[] = {
"16 16 207 2",
"  	c None",
". 	c #BFBFC1",
"+ 	c #BFBEC3",
"@ 	c #BFBFBD",
"# 	c #C3C4BF",
"$ 	c #BABBB5",
"% 	c #C1C2BC",
"& 	c #D2D3CE",
"* 	c #B5B5B7",
"= 	c #C9C8CE",
"- 	c #C4C3CB",
"; 	c #C4C3C9",
"> 	c #C1C1C1",
", 	c #BCBDB7",
"' 	c #BABBB3",
") 	c #CBCCC6",
"! 	c #C0C0C2",
"~ 	c #C1BFC2",
"{ 	c #C5C5C3",
"] 	c #B8B9B4",
"^ 	c #080A00",
"/ 	c #000200",
"( 	c #010000",
"_ 	c #0B090A",
": 	c #010007",
"< 	c #010009",
"[ 	c #040108",
"} 	c #080800",
"| 	c #080900",
"1 	c #C2C0C1",
"2 	c #C2C1BF",
"3 	c #C0C0BE",
"4 	c #BEBFB9",
"5 	c #020400",
"6 	c #7A7C6F",
"7 	c #010100",
"8 	c #C4C3C1",
"9 	c #CAC7CE",
"0 	c #C5C2CB",
"a 	c #C6C4C7",
"b 	c #CAC9C5",
"c 	c #010200",
"d 	c #BEC0AB",
"e 	c #0B0E00",
"f 	c #B7B6B4",
"g 	c #C8C7C3",
"h 	c #BEBDB8",
"i 	c #000100",
"j 	c #030500",
"k 	c #040400",
"l 	c #060105",
"m 	c #030002",
"n 	c #040000",
"o 	c #030100",
"p 	c #010300",
"q 	c #050800",
"r 	c #D1D0CB",
"s 	c #B3B3A9",
"t 	c #C6C6BC",
"u 	c #797C73",
"v 	c #BBBDB0",
"w 	c #C7C7BD",
"x 	c #C4C4BC",
"y 	c #CAC6C3",
"z 	c #D0CDC8",
"A 	c #C6C5B1",
"B 	c #0E0E00",
"C 	c #6B6E4F",
"D 	c #040800",
"E 	c #B8B8AC",
"F 	c #030200",
"G 	c #090B00",
"H 	c #090600",
"I 	c #040100",
"J 	c #040200",
"K 	c #030400",
"L 	c #040600",
"M 	c #717552",
"N 	c #000400",
"O 	c #BFC0AE",
"P 	c #101000",
"Q 	c #777A5F",
"R 	c #050700",
"S 	c #C5C8BF",
"T 	c #C6C7BF",
"U 	c #BFC0B8",
"V 	c #CDCAC1",
"W 	c #CBC9BC",
"X 	c #080500",
"Y 	c #CECDB1",
"Z 	c #090900",
"` 	c #747549",
" .	c #040700",
"..	c #7B8058",
"+.	c #C3C3AB",
"@.	c #727653",
"#.	c #000300",
"$.	c #C2C5BA",
"%.	c #CACBC5",
"&.	c #BFBCB5",
"*.	c #C6C4B5",
"=.	c #040300",
"-.	c #060400",
";.	c #070700",
">.	c #797C45",
",.	c #030700",
"'.	c #71764D",
").	c #010400",
"!.	c #C9CAAB",
"~.	c #070A00",
"{.	c #767B52",
"].	c #C6C9BE",
"^.	c #C4C5C0",
"/.	c #C1C0BE",
"(.	c #C7C4BF",
"_.	c #DBD8C7",
":.	c #0D0A00",
"<.	c #7D7D4B",
"[.	c #060800",
"}.	c #7B7D3C",
"|.	c #797C4F",
"1.	c #060900",
"2.	c #C2C3A1",
"3.	c #050900",
"4.	c #727848",
"5.	c #C3C3C1",
"6.	c #D6D4D5",
"7.	c #C6C3BE",
"8.	c #B5B29F",
"9.	c #0B0900",
"0.	c #76773D",
"a.	c #080C00",
"b.	c #82863C",
"c.	c #7B7E4F",
"d.	c #C0C4A1",
"e.	c #767D47",
"f.	c #777D4F",
"g.	c #010500",
"h.	c #060300",
"i.	c #090500",
"j.	c #7C7C46",
"k.	c #7C7F38",
"l.	c #060A00",
"m.	c #6F752B",
"n.	c #0E1100",
"o.	c #777856",
"p.	c #C1C7A5",
"q.	c #040A00",
"r.	c #757B3B",
"s.	c #7E832F",
"t.	c #7C7F30",
"u.	c #686731",
"v.	c #88865D",
"w.	c #76724C",
"x.	c #727240",
"y.	c #888C40",
"z.	c #767E29",
"A.	c #040C00",
"B.	c #7E8444",
"C.	c #000002",
"D.	c #C5CAAA",
"E.	c #000700",
"F.	c #777D3D",
"G.	c #7D8228",
"H.	c #080B00",
"I.	c #201E00",
"J.	c #070400",
"K.	c #0B0800",
"L.	c #0C0C00",
"M.	c #77802F",
"N.	c #030B00",
"O.	c #717844",
"P.	c #B8B7BD",
"Q.	c #C2C1CF",
"R.	c #B3B79C",
"S.	c #020900",
"T.	c #7C834D",
"U.	c #787A39",
"V.	c #0B0B00",
"W.	c #070300",
"X.	c #060100",
"Y.	c #CDCCAD",
"Z.	c #767B41",
"`.	c #090D00",
" +	c #C1BFCD",
".+	c #BBB9CE",
"++	c #BFC3AC",
"@+	c #737850",
"#+	c #7B7C52",
"$+	c #060000",
"%+	c #080300",
"&+	c #0A0501",
"*+	c #C4C2B5",
"=+	c #767A55",
"-+	c #C6C8B3",
";+	c #B7B7B9",
">+	c #C6C3D4",
",+	c #BEBCD2",
"'+	c #C3C6B5",
")+	c #B7BBA2",
"!+	c #0A0800",
"~+	c #040003",
"{+	c #030005",
"]+	c #040006",
"^+	c #060700",
"/+	c #C8C5D6",
"(+	c #B7B4C7",
". + . @ # $ % & * = - ; > , ' ) ",
"! ~ ~ { ] ^ / ( _ : < [ ( } | / ",
"> 1 2 3 4 5 6 7 8 9 0 a b c d e ",
"f g h i / j / k ( l m n o p 5 q ",
"r s t i u / v w x y z o A B C D ",
"E F c / / / G 7 H n I J K L M N ",
"O P Q R S T U V W X Y Z `  ...p ",
"+.j @.#.$.%.%.&.*.=.-.;.>.,.'.).",
"!.~.{.N ].^./.(._.:.<.[.}. .|.1.",
"2.3.4.,.$.5.6.7.8.9.0.a.b.D c.).",
"d.D e.f.g.c o h.i.j.k.l.m.n.o.#.",
"p.q.r.s.t.u.v.w.x.y.z.A.B.)./ C.",
"D.E.F.G.H.I.J.K.L.q.M.N.O.1.P.Q.",
"R.S.T.U.V.W.X.X.Y.^ Z.D `.i  +.+",
"++q.@+#+h.$+%+&+*+K =+g.-+;+>+,+",
"'+)+).F !+~+{+]+( ^+c ^+U ; /+(+"};
