/* XPM */
static char * tfontdialog_xpm[] = {
"23 23 10 1",
" 	c None",
".	c #848484",
"+	c #FFFFFF",
"@	c #000000",
"#	c #0000FF",
"$	c #D6D6CE",
"%	c #CECECE",
"&	c #840084",
"*	c #840000",
"=	c #000084",
"                       ",
"...................... ",
".+@##############@+@+@ ",
".@@@@@@@@@@@@@@@@@@@@@ ",
".+$+$+$+$+$+$+$+$+$+$@ ",
".%+$+$+$+$%$&&$$+$+$+@ ",
".+$+$+$+$+$&.$$+$+$+$@ ",
".%+$+$+%+$%&$$+%+$+%+@ ",
".+$+$+%+$$&&&+$+$+$+$@ ",
".%+$+%+$+$$&+$$$%$%$+@ ",
".+$+$+$+$%$&$$.****$$@ ",
".%+$%$$$%$.&+$%*$$.$+@ ",
".+$====$$&&+$+$*$.$%$@ ",
".%$==$$$%$$$+$%***$$+@ ",
".+$==$$+$+$+$+$*$.$+$@ ",
".%$===$%+$+%+$%*$$%$+@ ",
".+$==$$+$+$+$%.*.$$+$@ ",
".%$==$+$+$+$+$$$$%+$+@ ",
".+$==$$+$+%+$+%+$+$+$@ ",
".%+$$$+$+%+$+$+$+$+$+@ ",
".@@@@@@@@@@@@@@@@@@@@@ ",
"                       ",
"                       "};
