/* XPM */
static char * memo_xpm[] = {
"25 25 110 2",
"  	c None",
". 	c None",
"+ 	c #C0C0C2",
"@ 	c #848484",
"# 	c #7F7F81",
"$ 	c #818088",
"% 	c #86858D",
"& 	c #7C7B83",
"* 	c #79787D",
"= 	c #838385",
"- 	c #7B7B7B",
"; 	c #8E8F8A",
"> 	c #777872",
", 	c #81827C",
"' 	c #7B7C74",
") 	c #7E7F79",
"! 	c #757670",
"~ 	c #91928D",
"{ 	c #8A8A8A",
"] 	c #FCFBFF",
"^ 	c #FFFDFF",
"/ 	c #F6F3FF",
"( 	c #F8F7FF",
"_ 	c #FFFEFF",
": 	c #FDFDFD",
"< 	c #FFFFFD",
"[ 	c #FBFCF7",
"} 	c #FEFFF9",
"| 	c #FEFFFA",
"1 	c #FFFFFB",
"2 	c #000000",
"3 	c #FFFCFF",
"4 	c #F4F1FF",
"5 	c #F7F6FE",
"6 	c #F7F7F7",
"7 	c #FEFEFC",
"8 	c #FAFAF8",
"9 	c #F6F6F4",
"0 	c #7C7C7C",
"a 	c #020107",
"b 	c #040019",
"c 	c #FEFCFF",
"d 	c #FDFCFF",
"e 	c #F9F9FB",
"f 	c #F8F8F8",
"g 	c #FFFFFF",
"h 	c #000002",
"i 	c #7F7F7F",
"j 	c #FEFBFF",
"k 	c #F5F0FF",
"l 	c #FEFAFF",
"m 	c #FBF7FF",
"n 	c #F3EFFF",
"o 	c #F8F6FF",
"p 	c #FEFDFF",
"q 	c #FCFAFF",
"r 	c #7E7E7E",
"s 	c #FBF9FF",
"t 	c #F9F8FF",
"u 	c #F9F9FF",
"v 	c #F9F7FF",
"w 	c #FFFBFF",
"x 	c #070513",
"y 	c #0B092E",
"z 	c #00000B",
"A 	c #F9FAFF",
"B 	c #F8F9FF",
"C 	c #F7F9FF",
"D 	c #F8F8FF",
"E 	c #F3F4FF",
"F 	c #FBFBFF",
"G 	c #000004",
"H 	c #F1F0FE",
"I 	c #060709",
"J 	c #F7F8FF",
"K 	c #F7F7FF",
"L 	c #F6F4FF",
"M 	c #000009",
"N 	c #BFC0BB",
"O 	c #0A0931",
"P 	c #F6F6FF",
"Q 	c #FAFAFF",
"R 	c #FCFDFF",
"S 	c #05080D",
"T 	c #000007",
"U 	c #FBFAFF",
"V 	c #00000C",
"W 	c #787878",
"X 	c #FEFEFF",
"Y 	c #808080",
"Z 	c #FBFDFF",
"` 	c #FAFDFF",
" .	c #F8FEFF",
"..	c #FBFEFF",
"+.	c #F6F8FF",
"@.	c #FCFFFF",
"#.	c #FDFFFA",
"$.	c #0E1204",
"%.	c #FEFFFF",
"&.	c #FBFFFF",
"*.	c #FAFFFF",
"=.	c #FBFFFC",
"-.	c #FCFFFA",
";.	c #FAFDF2",
">.	c #000300",
",.	c #000100",
"'.	c #000200",
").	c #090D0C",
"!.	c #000201",
"~.	c #040500",
". . . . . . . . . . . . . . . . . . . . . . . . . ",
". . . . . . . . . . . . . . . . . . . . . . . . . ",
". . . . . . . . . . . . . . . . . . . . . . . . . ",
". . . . . . . . . . . . . . . . . . . . . . . . . ",
". . . . @ # $ % & * = - ; > , ' ) ! > ~ . . . . . ",
". . . . { ] ^ / ^ ^ ( _ : < [ } | 1 1 2 . . . . . ",
". . . . - _ 3 4 3 ^ ^ 5 _ 6 < < 7 8 9 2 . . . . . ",
". . . . 0 _ a a b a 3 c d _ e f g g g h . . . . . ",
". . . . i ^ j k l m n j j o c d p q p a . . . . . ",
". . . . r p s t t t t t t u v s o l w x . . . . . ",
". . . . r p a a a a a a a a a a a y s z . . . . . ",
". . . . r p A B C C C C D D t E q F p G . . . . . ",
". . . . r p a a a a a a a a a a e u H I . . . . . ",
". . . . r p u ( J J K K K K ( L o q c M . . . . . ",
". . . . r p a a a a a a a a a a a O P z . . . . . ",
". . . . r p A D D D J J K J D B s Q R S . . . . . ",
". . . . r p a a a a a e e e a a a F A T . . . . . ",
". . . . i p U t t D D D ( ( L t v F F V . . . . . ",
". . . . W X a a a a a a a a a a a a R T . . . . . ",
". . . . Y R Z ` Z ` `  .` ` ....+.@.#.$.. . . . . ",
". . . . @ g %.@.@.@.@.&.&.&.*.*.=.-.;.>.. . . . . ",
". . . . 0 h G G h ,.,.'.'.'.,.).!.,.~.,.. . . . . ",
". . . . . . . . . . . . . . . . . . . . . . . . . ",
". . . . . . . . . . . . . . . . . . . . . . . . . ",
". . . . . . . . . . . . . . . . . . . . . . . . . "};
