/* XPM */
static char * tradiogroup_xpm[] = {
"25 25 7 1",
" 	c None",
".	c #C0C0C0",
"+	c #D30013",
"@	c #808080",
"#	c #FFFFFF",
"$	c #000000",
"%	c #870013",
"                         ",
"                         ",
"                         ",
"      ++++++++           ",
"   @@.++++++++.@@@@@@@   ",
"   @#.++++++++.######.#  ",
"   @#................@#  ",
"   @#................@#  ",
"   @#..@.............@#  ",
"   @#.@$@.%%%%%%%%%..@#  ",
"   @#..@.............@#  ",
"   @#................@#  ",
"   @#..@.............@#  ",
"   @#.@$@.%%%%%%%%...@#  ",
"   @#..@.............@#  ",
"   @#................@#  ",
"   @#..@.............@#  ",
"   @#.@$@.%%%%%%%%%..@#  ",
"   @#..@.............@#  ",
"   @#................@#  ",
"   @.@@@@@@@@@@@@@@@@@#  ",
"    ###################  ",
"                         ",
"                         ",
"                         "};
