/* XPM */
static char * up_xpm[] = {
"16 16 72 1",
" 	c None",
".	c #9C9C9C",
"+	c #838383",
"@	c #B8B8B8",
"#	c #E6E6E6",
"$	c #5B5B5B",
"%	c #363636",
"&	c #AAAAAA",
"*	c #292929",
"=	c #242424",
"-	c #A6A6A6",
";	c #DCDCDC",
">	c #ECECEC",
",	c #717171",
"'	c #141414",
")	c #393939",
"!	c #9E9E9E",
"~	c #DFDFDF",
"{	c #DEDEDE",
"]	c #C6C6C6",
"^	c #313131",
"/	c #191919",
"(	c #696969",
"_	c #ACACAC",
":	c #C7C7C7",
"<	c #E4E4E4",
"[	c #818181",
"}	c #161616",
"|	c #3C3C3C",
"1	c #9D9D9D",
"2	c #ADADAD",
"3	c #E1E1E1",
"4	c #E0E0E0",
"5	c #D6D6D6",
"6	c #414141",
"7	c #1A1A1A",
"8	c #6A6A6A",
"9	c #B3B3B3",
"0	c #B1B1B1",
"a	c #AEAEAE",
"b	c #BEBEBE",
"c	c #898989",
"d	c #181818",
"e	c #2F2F2F",
"f	c #989898",
"g	c #B4B4B4",
"h	c #B2B2B2",
"i	c #AFAFAF",
"j	c #A8A8A8",
"k	c #D2D2D2",
"l	c #424242",
"m	c #151515",
"n	c #B0B0B0",
"o	c #E3E3E3",
"p	c #1E1E1E",
"q	c #2E2E2E",
"r	c #939393",
"s	c #A9A9A9",
"t	c #A7A7A7",
"u	c #D4D4D4",
"v	c #E5E5E5",
"w	c #D8D8D8",
"x	c #535353",
"y	c #171717",
"z	c #5C5C5C",
"A	c #D3D3D3",
"B	c #484848",
"C	c #575757",
"D	c #CECECE",
"E	c #EAEAEA",
"F	c #FFFFFF",
"G	c #D5D5D5",
"                ",
"                ",
"       .+@      ",
"      #$%&      ",
"      @*=-;     ",
"     >,')!~{    ",
"     ]^/(_:<    ",
"     [}|1_234   ",
"    567890ab4   ",
"    cdefghij;3  ",
"   klm$2ni__:o  ",
"   fpqri_sts_uv ",
"  wxyzan9h&ts9Ak",
"  nBCDEEEEEEEEFF",
"  @rGFFFFFFFFFFF",
"  u4FFFFFFFFFFFF"};
