/* XPM */
static char * ce_constant_xpm[] = {
"16 16 114 2",
"  	c None",
". 	c #6C7A60",
"+ 	c #6E7C62",
"@ 	c #322D22",
"# 	c #606C56",
"$ 	c #758465",
"% 	c #768565",
"& 	c #69765F",
"* 	c #1A1711",
"= 	c #758464",
"- 	c #65725C",
"; 	c #665248",
"> 	c #4D2926",
", 	c #A35C52",
"' 	c #A2524E",
") 	c #8F4641",
"! 	c #764B3A",
"~ 	c #5C6853",
"{ 	c #B75E62",
"] 	c #CC7C7E",
"^ 	c #C46967",
"/ 	c #C66A66",
"( 	c #C56E67",
"_ 	c #BA5D59",
": 	c #B04D4D",
"< 	c #914A41",
"[ 	c #6A3E2F",
"} 	c #B86363",
"| 	c #E7BFBF",
"1 	c #DEA5A2",
"2 	c #D48480",
"3 	c #D17B76",
"4 	c #C8776D",
"5 	c #BB6A5D",
"6 	c #B25952",
"7 	c #9E4A46",
"8 	c #774534",
"9 	c #5E3B28",
"0 	c #663531",
"a 	c #CE8D88",
"b 	c #E2B0AE",
"c 	c #D7938E",
"d 	c #D28A82",
"e 	c #CE7F76",
"f 	c #C47567",
"g 	c #B76C5C",
"h 	c #AB5D51",
"i 	c #9B4B45",
"j 	c #7D4939",
"k 	c #5C3B25",
"l 	c #945549",
"m 	c #CD8E87",
"n 	c #D2938B",
"o 	c #CF8B82",
"p 	c #CB8378",
"q 	c #C77C6E",
"r 	c #BC7361",
"s 	c #B16B58",
"t 	c #A35F4E",
"u 	c #925043",
"v 	c #784734",
"w 	c #593B24",
"x 	c #835142",
"y 	c #BD7E71",
"z 	c #C5867A",
"A 	c #C47E71",
"B 	c #C17A6B",
"C 	c #BF7663",
"D 	c #B7725B",
"E 	c #A86A53",
"F 	c #9A604B",
"G 	c #8A5541",
"H 	c #6A442E",
"I 	c #533821",
"J 	c #A66A59",
"K 	c #B37362",
"L 	c #B77460",
"M 	c #BA7660",
"N 	c #B6745B",
"O 	c #AE6D53",
"P 	c #9F664C",
"Q 	c #8F5C43",
"R 	c #794D37",
"S 	c #5B3C25",
"T 	c #463520",
"U 	c #8C5C46",
"V 	c #9E644D",
"W 	c #A76A51",
"X 	c #AA6C52",
"Y 	c #A76C4F",
"Z 	c #9C6649",
"` 	c #8D5C40",
" .	c #7C5339",
"..	c #694A32",
"+.	c #513922",
"@.	c #7A4F39",
"#.	c #8A5940",
"$.	c #8B5A3F",
"%.	c #84553B",
"&.	c #7C5137",
"*.	c #775033",
"=.	c #6E4D34",
"-.	c #5E452C",
";.	c #2D2114",
">.	c #000000",
",.	c #0C0805",
"'.	c #503624",
").	c #6C482F",
"!.	c #523621",
"~.	c #503621",
"{.	c #65442B",
"].	c #60452B",
"^.	c #2D2115",
"/.	c #050604",
"                                ",
"                                ",
"      . +     @                 ",
"    # $ % &   *                 ",
"    = -     ; > , ' ) !         ",
"  ~     { ] ^ / ( _ : < [       ",
"      } | 1 2 3 4 5 6 7 8 9     ",
"    0 a b c d e f g h i j k     ",
"    l m n o p q r s t u v w     ",
"    x y z A B C D E F G H I     ",
"      J K L M N O P Q R S T     ",
"      U V W X Y Z `  ...+.      ",
"        @.#.$.%.&.*.=.-.;.>.>.  ",
"        ,.'.).!.~.{.].^.>.>.    ",
"            /.>.>.>.>.>.        ",
"                                "};
