/* XPM */
static char * ce_default_xpm[] = {
"16 16 80 1",
" 	c None",
".	c #999999",
"+	c #9A9A9A",
"@	c #9B9B9B",
"#	c #9C9C9C",
"$	c #9D9D9D",
"%	c #9E9E9E",
"&	c #9F9F9F",
"*	c #A0A0A0",
"=	c #353535",
"-	c #E8E8E8",
";	c #E9E9E9",
">	c #EAEAEA",
",	c #EBEBEB",
"'	c #ECECEC",
")	c #EEEEEE",
"!	c #EFEFEF",
"~	c #F0F0F0",
"{	c #F1F1F1",
"]	c #F2F2F2",
"^	c #515151",
"/	c #DCDCDC",
"(	c #D9D9D9",
"_	c #E6E6E6",
":	c #969AC2",
"<	c #9398C0",
"[	c #989CC2",
"}	c #9EA2C4",
"|	c #A3A7C6",
"1	c #F4F4F4",
"2	c #EDEDED",
"3	c #A4A7C7",
"4	c #A2A5C6",
"5	c #A8ABC8",
"6	c #AEB0CA",
"7	c #B4B6CD",
"8	c #F6F6F6",
"9	c #525252",
"0	c #DFDFDF",
"a	c #B2B4CD",
"b	c #B2B4CC",
"c	c #B8BACE",
"d	c #BEBFD0",
"e	c #C4C5D3",
"f	c #F8F8F8",
"g	c #535353",
"h	c #E1E1E1",
"i	c #DDDDDD",
"j	c #C1C3D3",
"k	c #C2C4D2",
"l	c #C9C9D5",
"m	c #CFCFD7",
"n	c #D5D5D9",
"o	c #FAFAFA",
"p	c #F3F3F3",
"q	c #F5F5F5",
"r	c #E9E9ED",
"s	c #EAEAED",
"t	c #EDEDEF",
"u	c #F3F2F2",
"v	c #FCFCFC",
"w	c #545454",
"x	c #E4E4E4",
"y	c #E0E0E0",
"z	c #E2E2E2",
"A	c #E3E3E3",
"B	c #F9F9F9",
"C	c #F7F7F7",
"D	c #E5E5E5",
"E	c #E7E7E7",
"F	c #FBFBFB",
"G	c #FDFDFD",
"H	c #FEFEFE",
"I	c #474747",
"J	c #CDCDCD",
"K	c #C9C9C9",
"L	c #5C5C5C",
"M	c #BEBEBE",
"N	c #BDBDBD",
"O	c #3B3B3B",
"                ",
"   .+@@#$%&&*=  ",
"   -;>,')!~{]^  ",
"   >/(_:<[}|1^  ",
"   2)!~3456789  ",
"   !0/>abcdefg  ",
"   {hi,jklmnog  ",
"   p1q8rst~uvw  ",
"   qxyhzzAxxBw  ",
"   CDzzAAxDDBw  ",
"   BEAAxDDDDBw  ",
"   FvGHHHHHHHI  ",
"   GHHHHHHHqJ   ",
"   HHHHHHHHKL   ",
"   MMMMMMN#O    ",
"                "};
