/* XPM */
static char * ce_function_xpm[] = {
"16 16 10 1",
" 	c None",
".	c #3A3A3A",
"+	c #919191",
"@	c #8B8B8B",
"#	c #CCCCCC",
"$	c #D5D5D5",
"%	c #848684",
"&	c #FFFFFF",
"*	c #C6C7C6",
"=	c #FF0000",
"      ....      ",
"   .. .++. ..   ",
"  .@..#$$#..@.  ",
" .@%%%%%%%%%%@. ",
" ..%&&&&&&&&%.. ",
"  .%&&*=*&&&%.  ",
"..#%&&=&=&&&%#..",
".+$%&&=&&&&&%$+.",
".+$%&===&&&&%$+.",
"..#%&&=&=&=&%#..",
"  .%&&=&&=&&%.  ",
" ..%&=*&=&=&%.. ",
" .@%&&&&&&&&%@. ",
"  .%%%%%%%%%%.  ",
"   .. .++. ..   ",
"      ....      "};
