/* XPM */
static char * ce_implementation_xpm[] = {
"16 16 101 2",
"  	c None",
". 	c #ADADAD",
"+ 	c #9C9B9B",
"@ 	c #797878",
"# 	c #767676",
"$ 	c #6B6B6B",
"% 	c #8E8E8E",
"& 	c #A3A2A2",
"* 	c #8D8C8B",
"= 	c #919191",
"- 	c #858585",
"; 	c #7A7A7A",
"> 	c #717171",
", 	c #686868",
"' 	c #909090",
") 	c #A0A09F",
"! 	c #969493",
"~ 	c #A0A0A0",
"{ 	c #9A9A9A",
"] 	c #929292",
"^ 	c #898989",
"/ 	c #7F7F7F",
"( 	c #777777",
"_ 	c #707070",
": 	c #949494",
"< 	c #9A9898",
"[ 	c #938F8D",
"} 	c #A6A6A6",
"| 	c #A2A2A2",
"1 	c #9B9B9B",
"2 	c #8B8B8B",
"3 	c #7D7D7D",
"4 	c #696969",
"5 	c #ACACAC",
"6 	c #BBBABA",
"7 	c #A09C9B",
"8 	c #B1B1B1",
"9 	c #ABABAB",
"0 	c #A5A5A5",
"a 	c #A4A4A4",
"b 	c #9D9D9D",
"c 	c #969696",
"d 	c #8D8D8D",
"e 	c #878787",
"f 	c #828282",
"g 	c #7C7C7C",
"h 	c #737373",
"i 	c #656565",
"j 	c #8F8F8F",
"k 	c #B5B5B5",
"l 	c #939393",
"m 	c #9C9C9C",
"n 	c #A1A1A1",
"o 	c #989898",
"p 	c #767677",
"q 	c #837D7A",
"r 	c #7C6354",
"s 	c #999999",
"t 	c #9B9B9A",
"u 	c #B3B3B3",
"v 	c #A8A8A8",
"w 	c #9F9F9F",
"x 	c #959595",
"y 	c #838383",
"z 	c #8F8784",
"A 	c #876C5C",
"B 	c #8C8381",
"C 	c #8E6F5B",
"D 	c #A7A7A7",
"E 	c #8E8784",
"F 	c #856F61",
"G 	c #9A908C",
"H 	c #94725C",
"I 	c #B7B3B1",
"J 	c #B59785",
"K 	c #747474",
"L 	c #818080",
"M 	c #918782",
"N 	c #886B5A",
"O 	c #9E938F",
"P 	c #92705C",
"Q 	c #B6B1AF",
"R 	c #BE9C88",
"S 	c #C1A898",
"T 	c #606060",
"U 	c #918885",
"V 	c #895E45",
"W 	c #9B8F8A",
"X 	c #95725D",
"Y 	c #B6AFAC",
"Z 	c #BF9D89",
"` 	c #C9AB9A",
" .	c #9D9391",
"..	c #946448",
"+.	c #ACA6A3",
"@.	c #C09E8A",
"#.	c #C8AA98",
"$.	c #B3B0AF",
"%.	c #BD9A85",
"&.	c #CDB0A0",
"*.	c #CBAE9D",
"                                ",
"                    .           ",
"                + @ # $ %       ",
"            & * = - ; > , '     ",
"        ) ! ~ { ] ^ / ( _ $ :   ",
"    < [ } } | 1 : 2 - 3 # _ 4 5 ",
"6 7 8 9 0 a | b c d e f g h i j ",
"5 6 k l e m n b o ' ^ f p q r c ",
"s t u | v v w { x % y z A B C   ",
". - d v D ~ 1 : e E F G H I J   ",
"  n K # l = L M N O P Q R   S   ",
"    m T 4 U V W X Y Z   `       ",
"      x T  ...+.@.  #.          ",
"        9 $.%.  &.              ",
"            *.                  ",
"                                "};
