/* XPM */
static char * ce_procedure_xpm[] = {
"16 16 15 1",
" 	c None",
".	c #3A3A3A",
"+	c #919191",
"@	c #8B8B8B",
"#	c #CCCCCC",
"$	c #D5D5D5",
"%	c #ADADAD",
"&	c #C4C4C4",
"*	c #B4B4B4",
"=	c #A1A1A1",
"-	c #989898",
";	c #A2A2A2",
">	c #C6C6C6",
",	c #D8D8D8",
"'	c #4C4C4C",
"      ....      ",
"   .. .++. ..   ",
"  .@..#$$#..@.  ",
" .@%&*=--=*&%@. ",
" ..&;@>,,>@;&.. ",
"  .*=>*''*>=*.  ",
"..#=>*.  .*>=#..",
".+$-,'    ',-$+.",
".+$-,'    ',-$+.",
"..#=>*.  .*>=#..",
"  .*=>*''*>=*.  ",
" ..&;@>,,>@;&.. ",
" .@%&*=--=*&%@. ",
"  .@..#$$#..@.  ",
"   .. .++. ..   ",
"      ....      "};
