/* XPM */
static char * ce_type_xpm[] = {
"16 16 108 2",
"  	c None",
". 	c #2D1D1F",
"+ 	c #49262A",
"@ 	c #562A2C",
"# 	c #6F3032",
"$ 	c #802E33",
"% 	c #8C282D",
"& 	c #4A0C0C",
"* 	c #554446",
"= 	c #C6878F",
"- 	c #B9575C",
"; 	c #A73B44",
"> 	c #9E3438",
", 	c #982B2E",
"' 	c #932129",
") 	c #851E25",
"! 	c #7E161C",
"~ 	c #680C10",
"{ 	c #1B0102",
"] 	c #633E42",
"^ 	c #D1868A",
"/ 	c #D68A93",
"( 	c #BF5A60",
"_ 	c #A53C43",
": 	c #9E343D",
"< 	c #952D36",
"[ 	c #8D242A",
"} 	c #881A21",
"| 	c #7F1216",
"1 	c #740C0C",
"2 	c #390305",
"3 	c #392325",
"4 	c #CF8489",
"5 	c #D2868B",
"6 	c #D39698",
"7 	c #C1616A",
"8 	c #A53C47",
"9 	c #9C3134",
"0 	c #96282C",
"a 	c #901F26",
"b 	c #821C21",
"c 	c #7B1419",
"d 	c #750B10",
"e 	c #4F0607",
"f 	c #0C0000",
"g 	c #472A2D",
"h 	c #CF8487",
"i 	c #D08488",
"j 	c #D19190",
"k 	c #C0716F",
"l 	c #A53D45",
"m 	c #9B323B",
"n 	c #922A32",
"o 	c #8A2128",
"p 	c #85161C",
"q 	c #7F1415",
"r 	c #7C2122",
"s 	c #692426",
"t 	c #0E0505",
"u 	c #462628",
"v 	c #CE8484",
"w 	c #CE8685",
"x 	c #CF8C8E",
"y 	c #C8767F",
"z 	c #A54249",
"A 	c #9A3034",
"B 	c #953539",
"C 	c #73292C",
"D 	c #6A4141",
"E 	c #68575A",
"F 	c #6A6868",
"G 	c #362222",
"H 	c #CA7E87",
"I 	c #D27C85",
"J 	c #CB7E7E",
"K 	c #A5676A",
"L 	c #4A3134",
"M 	c #3F3939",
"N 	c #676767",
"O 	c #828282",
"P 	c #9F9F9F",
"Q 	c #A2A2A2",
"R 	c #080808",
"S 	c #341E1E",
"T 	c #C87C83",
"U 	c #CC8088",
"V 	c #785254",
"W 	c #4E514F",
"X 	c #666967",
"Y 	c #8D8E8D",
"Z 	c #A6A6A6",
"` 	c #A29696",
" .	c #865A5A",
"..	c #300E0E",
"+.	c #2A191A",
"@.	c #C27788",
"#.	c #805358",
"$.	c #707070",
"%.	c #7F807F",
"&.	c #64635C",
"*.	c #40312D",
"=.	c #100000",
"-.	c #060000",
";.	c #291618",
">.	c #683F40",
",.	c #2A2A2A",
"'.	c #060201",
").	c #140301",
"                                ",
"                                ",
"                                ",
"    . + @ # $ % &               ",
"* = - ; > , ' ) ! ~ {           ",
"] ^ / ( _ : < [ } | 1 2         ",
"3 4 5 6 7 8 9 0 a b c d e f     ",
"  g h i j k l m n o p q r s t   ",
"    u v w x y z A B C D E F     ",
"      G H I J K L M N O P Q R   ",
"        S T U V W X Y Z `  ...  ",
"          +.@.#.$.%.&.*.=.-.    ",
"            ;.>.,.'.).          ",
"                                ",
"                                ",
"                                "};
