/* XPM */
static char * tiphtmlpanel_xpm[] = {
"24 20 344 2",
"  	c None",
". 	c #848BC5",
"+ 	c #6270B8",
"@ 	c #525CAF",
"# 	c #515BB0",
"$ 	c #525CB1",
"% 	c #6B75BD",
"& 	c #7B83C0",
"* 	c #646DB7",
"= 	c #4D6498",
"- 	c #557E8A",
"; 	c #A2AFCC",
"> 	c #C5CBE4",
", 	c #AEC0D0",
"' 	c #A5B1D6",
") 	c #507F82",
"! 	c #476C87",
"~ 	c #5063A1",
"{ 	c #4F58AD",
"] 	c #9198C9",
"^ 	c #435599",
"/ 	c #618D91",
"( 	c #B6DDB0",
"_ 	c #7CC668",
": 	c #72C05E",
"< 	c #79BC78",
"[ 	c #57B340",
"} 	c #89C682",
"| 	c #91C892",
"1 	c #59B53E",
"2 	c #7AB578",
"3 	c #426485",
"4 	c #5963B3",
"5 	c #D7B7B1",
"6 	c #8F97C9",
"7 	c #43579D",
"8 	c #5E9D6A",
"9 	c #B8F299",
"0 	c #DEFFCA",
"a 	c #EEFFE4",
"b 	c #BAE1B1",
"c 	c #9FE183",
"d 	c #58B938",
"e 	c #52AA50",
"f 	c #9ECCA5",
"g 	c #56B835",
"h 	c #57BB2F",
"i 	c #5BA666",
"j 	c #7477BA",
"k 	c #6F2933",
"l 	c #7B1401",
"m 	c #7F1702",
"n 	c #931F02",
"o 	c #872511",
"p 	c #943F30",
"q 	c #4550AA",
"r 	c #97ABD1",
"s 	c #64B263",
"t 	c #A4E686",
"u 	c #DDFFC8",
"v 	c #EEFFE3",
"w 	c #F0FFE7",
"x 	c #BCEAA6",
"y 	c #43AB1E",
"z 	c #4CB329",
"A 	c #54AF47",
"B 	c #3CA526",
"C 	c #53AB4C",
"D 	c #B1CBE1",
"E 	c #99B6C8",
"F 	c #555E67",
"G 	c #662436",
"H 	c #881E04",
"I 	c #CC3904",
"J 	c #BA3204",
"K 	c #9C2403",
"L 	c #954437",
"M 	c #656DB8",
"N 	c #7582CA",
"O 	c #C2D5EA",
"P 	c #6CB865",
"Q 	c #9EE67C",
"R 	c #D2FFB6",
"S 	c #DBFFC5",
"T 	c #A6E18D",
"U 	c #69C443",
"V 	c #8EDE5E",
"W 	c #49AC30",
"X 	c #70B673",
"Y 	c #9B9E9B",
"Z 	c #B2B4D9",
"` 	c #8CBDAD",
" .	c #3A9A32",
"..	c #4A3C7C",
"+.	c #791F17",
"@.	c #CE4204",
"#.	c #DF4003",
"$.	c #B63104",
"%.	c #9A4E41",
"&.	c #525EB3",
"*.	c #ACBAEE",
"=.	c #A2C9C6",
"-.	c #61C03C",
";.	c #B2F486",
">.	c #BFFA98",
",.	c #C9FEA8",
"'.	c #45AA2D",
").	c #52B23B",
"!.	c #6AC63F",
"~.	c #67C73C",
"{.	c #3E9E23",
"].	c #6F350E",
"^.	c #954439",
"/.	c #ACB5E1",
"(.	c #5A954F",
"_.	c #663227",
":.	c #9A2805",
"<.	c #DC4C04",
"[.	c #E74E04",
"}.	c #AC2A02",
"|.	c #A15C51",
"1.	c #7880C0",
"2.	c #6B78C8",
"3.	c #B8C6FA",
"4.	c #9CC6C1",
"5.	c #65C53D",
"6.	c #ACF37A",
"7.	c #B5F788",
"8.	c #B9F88E",
"9.	c #8CDC5F",
"0.	c #93E260",
"a.	c #64C43B",
"b.	c #63B16A",
"c.	c #83956E",
"d.	c #7D2A12",
"e.	c #892611",
"f.	c #934E4D",
"g.	c #783C1C",
"h.	c #9B2C05",
"i.	c #E15B06",
"j.	c #EC5704",
"k.	c #D84803",
"l.	c #972203",
"m.	c #AE6857",
"n.	c #6D78C5",
"o.	c #7F8CD5",
"p.	c #B9C9FF",
"q.	c #99C2C1",
"r.	c #5FC236",
"s.	c #9DEA65",
"t.	c #A0EC6B",
"u.	c #A6EE72",
"v.	c #97E663",
"w.	c #85D956",
"x.	c #8DDF59",
"y.	c #41AE1F",
"z.	c #B6CCEE",
"A.	c #A68391",
"B.	c #97310F",
"C.	c #DA6D06",
"D.	c #9E3206",
"E.	c #C25B07",
"F.	c #EE6A06",
"G.	c #F86D06",
"H.	c #E65605",
"I.	c #972A09",
"J.	c #A05344",
"K.	c #6370BB",
"L.	c #8393D7",
"M.	c #B3C4FE",
"N.	c #99C0CC",
"O.	c #51B336",
"P.	c #6FCA42",
"Q.	c #69C640",
"R.	c #6DC940",
"S.	c #51AC47",
"T.	c #6FB27E",
"U.	c #55AE47",
"V.	c #37A517",
"W.	c #8BB1A2",
"X.	c #90565C",
"Y.	c #C16819",
"Z.	c #FFA70E",
"`.	c #FF9C06",
" +	c #FE9005",
".+	c #F87E06",
"++	c #D75605",
"@+	c #9F2C06",
"#+	c #A1594A",
"$+	c #616DBA",
"%+	c #7A88D2",
"&+	c #ABBBF9",
"*+	c #A8BFED",
"=+	c #61AE69",
"-+	c #3AA71A",
";+	c #36A617",
">+	c #51B334",
",+	c #95BFBF",
"'+	c #BCCCFE",
")+	c #8BBCAC",
"!+	c #3EA627",
"~+	c #528E33",
"{+	c #913926",
"]+	c #D89947",
"^+	c #FFBA30",
"/+	c #FFA80F",
"(+	c #FE9305",
"_+	c #B23F06",
":+	c #8C2602",
"<+	c #6D78C4",
"[+	c #707DCB",
"}+	c #9EACEF",
"|+	c #A5B4F4",
"1+	c #9AB8D7",
"2+	c #65AD74",
"3+	c #4EA84B",
"4+	c #30A014",
"5+	c #3EA628",
"6+	c #54AB57",
"7+	c #9CBDD7",
"8+	c #76B48F",
"9+	c #807F79",
"0+	c #963B17",
"a+	c #DFA34D",
"b+	c #F1AD37",
"c+	c #F7A112",
"d+	c #BE5507",
"e+	c #7A2017",
"f+	c #594074",
"g+	c #5B67BC",
"h+	c #8C99DF",
"i+	c #97A5EA",
"j+	c #A3B2F3",
"k+	c #76A99E",
"l+	c #42AA23",
"m+	c #5CBC31",
"n+	c #3CA91A",
"o+	c #43AA28",
"p+	c #4FAB42",
"q+	c #5C7340",
"r+	c #743128",
"s+	c #802920",
"t+	c #913012",
"u+	c #AA4304",
"v+	c #B24C05",
"w+	c #79180A",
"x+	c #704F70",
"y+	c #4D58B0",
"z+	c #7984CF",
"A+	c #8A97DE",
"B+	c #919EE3",
"C+	c #94A2E7",
"D+	c #589C69",
"E+	c #4AB124",
"F+	c #5EBE32",
"G+	c #5ABB30",
"H+	c #54B72B",
"I+	c #4EB326",
"J+	c #3C9D26",
"K+	c #607883",
"L+	c #625A93",
"M+	c #634D73",
"N+	c #6A4254",
"O+	c #703545",
"P+	c #712428",
"Q+	c #794050",
"R+	c #6871B8",
"S+	c #5762B5",
"T+	c #7A86D2",
"U+	c #818DD7",
"V+	c #8491DA",
"W+	c #599776",
"X+	c #3AA221",
"Y+	c #48AE23",
"Z+	c #4EB226",
"`+	c #4CB024",
" @	c #48AD21",
".@	c #3A9C30",
"+@	c #6D8BAF",
"@@	c #7480CD",
"#@	c #7481CD",
"$@	c #7782CB",
"%@	c #7A7FBF",
"&@	c #464CA0",
"*@	c #3D48A5",
"=@	c #6470C2",
"-@	c #7581CE",
";@	c #7581CF",
">@	c #7486C5",
",@	c #588B81",
"'@	c #359B25",
")@	c #49AD21",
"!@	c #43AA1E",
"~@	c #34A313",
"{@	c #4D8A6B",
"]@	c #7A86D1",
"^@	c #8490D7",
"/@	c #8490D6",
"(@	c #5764B5",
"_@	c #616AB5",
":@	c #444FAA",
"<@	c #6873C4",
"[@	c #7A85D2",
"}@	c #7182C6",
"|@	c #369536",
"1@	c #47AC20",
"2@	c #33A313",
"3@	c #4F935E",
"4@	c #7E8DCD",
"5@	c #8592D9",
"6@	c #8E9ADC",
"7@	c #909CDC",
"8@	c #606CBE",
"9@	c #4D5BAD",
"0@	c #9198CA",
"a@	c #4953AB",
"b@	c #636FC1",
"c@	c #7F8CD3",
"d@	c #8997DA",
"e@	c #3C993B",
"f@	c #42A91D",
"g@	c #4C9D52",
"h@	c #899ECD",
"i@	c #97A4E0",
"j@	c #939FDC",
"k@	c #828ED3",
"l@	c #5361B1",
"m@	c #5A64B5",
"n@	c #626AB6",
"o@	c #4F5AB1",
"p@	c #6570C0",
"q@	c #3D7863",
"r@	c #3D8E3E",
"s@	c #558D7D",
"t@	c #808DCF",
"u@	c #7480C8",
"v@	c #5C67B9",
"w@	c #505BB0",
"x@	c #525BAE",
"y@	c #8289C4",
"z@	c #5969AD",
"A@	c #395093",
"B@	c #3E529C",
"C@	c #4C58AE",
"              . + @ # $ % &                     ",
"          * = - ; > , ' ) ! ~ {                 ",
"      ] ^ / ( _ : < [ } | 1 2 3 4     5 5       ",
"    6 7 8 9 0 a b c d e f g h i j k l m n o p   ",
"    q r s t u v w x y z A B C D E F G H I J K L ",
"  M N O P Q R S S T U V W X Y Z `  ...+.@.#.$.%.",
"  &.*.=.-.;.>.,.>.'.).!.~.{.].^./.(._.:.<.[.}.|.",
"1.2.3.4.5.6.7.8.7.9.0.a.b.c.d.e.f.g.h.i.j.k.l.m.",
"n.o.p.q.r.s.t.u.v.w.x.y.z.A.B.C.D.E.F.G.H.I.J.  ",
"K.L.M.N.O.P.Q.R.S.T.U.V.W.X.Y.Z.`. +.+++@+#+    ",
"$+%+&+*+=+-+;+>+,+'+)+!+~+{+]+^+/+(+_+:+H       ",
"<+[+}+|+1+2+3+4+5+6+7+8+9+0+a+b+c+d+e+f+        ",
"1.g+h+i+}+j+k+l+m+n+o+p+q+r+s+t+u+v+w+x+        ",
"  y+z+A+B+C+D+E+F+G+H+I+J+K+L+M+N+O+P+Q+        ",
"  R+S+T+U+V+W+X+Y+Z+`+ @.@+@@@#@$@%@&@          ",
"    *@=@-@;@>@,@'@)@!@~@{@;@]@^@/@(@_@          ",
"    6 :@<@T+[@}@|@1@2@3@4@5@6@7@8@9@            ",
"      0@a@b@c@d@e@f@g@h@i@j@k@l@m@              ",
"          n@o@p@q@r@s@t@u@v@w@x@                ",
"              y@z@A@B@C@% &                     "};
