/* XPM */
static char * block_22x22_xpm[] = {
"22 22 108 2",
"  	c None",
". 	c #FFFFFF",
"+ 	c #F7F7F7",
"@ 	c #DBDBDB",
"# 	c #D4D4D4",
"$ 	c #FEFEFE",
"% 	c #BFBEBB",
"& 	c #696657",
"* 	c #54503E",
"= 	c #696556",
"- 	c #BEBDBA",
"; 	c #DADADA",
"> 	c #696244",
", 	c #BEAA5B",
"' 	c #D3BC61",
") 	c #BEAB5C",
"! 	c #696656",
"~ 	c #DAC264",
"{ 	c #F6DB70",
"] 	c #FDE173",
"^ 	c #F7DB71",
"/ 	c #DBC365",
"( 	c #BFAB5C",
"_ 	c #FEE274",
": 	c #C5C4C1",
"< 	c #C6C5C2",
"[ 	c #FFE375",
"} 	c #F0D56D",
"| 	c #B8A454",
"1 	c #958648",
"2 	c #625F53",
"3 	c #B7A354",
"4 	c #EFD56D",
"5 	c #FDE174",
"6 	c #F7DC71",
"7 	c #DBC364",
"8 	c #BFA954",
"9 	c #695A20",
"0 	c #463B10",
"a 	c #38352D",
"b 	c #37352E",
"c 	c #423811",
"d 	c #645620",
"e 	c #BDA854",
"f 	c #695710",
"g 	c #BE9903",
"h 	c #B08D00",
"i 	c #4D462A",
"j 	c #4A432B",
"k 	c #9F8004",
"l 	c #AC8A07",
"m 	c #625211",
"n 	c #665820",
"o 	c #DAAF00",
"p 	c #F6C500",
"q 	c #D4A900",
"r 	c #544C2A",
"s 	c #50482B",
"t 	c #BE9904",
"u 	c #DDB104",
"v 	c #C59E05",
"w 	c #AC8B07",
"x 	c #D3BC60",
"y 	c #BEA954",
"z 	c #FECB00",
"A 	c #D4AA00",
"B 	c #50492B",
"C 	c #BF9905",
"D 	c #E4B705",
"E 	c #DDB205",
"F 	c #5C4D11",
"G 	c #373013",
"H 	c #62510F",
"I 	c #FFCC00",
"J 	c #E5B806",
"K 	c #A58404",
"L 	c #433500",
"M 	c #B79300",
"N 	c #BE9804",
"O 	c #504000",
"P 	c #504001",
"Q 	c #F7C600",
"R 	c #DBAF00",
"S 	c #B89406",
"T 	c #696246",
"U 	c #665F47",
"V 	c #A6860B",
"W 	c #C49D05",
"X 	c #DEB205",
"Y 	c #BF9A06",
"Z 	c #695B22",
"` 	c #696245",
" .	c #C5C4BE",
"..	c #C5C4BF",
"+.	c #625525",
"@.	c #AC8B0B",
"#.	c #BEBDB7",
"$.	c #BEBDB8",
"%.	c #B89404",
"&.	c #CDA400",
"*.	c #F6F6F6",
"=.	c #8C720A",
"-.	c #423500",
";.	c #9B7E06",
">.	c #685B22",
",.	c #5F5A47",
"'.	c #37352A",
").	c #625C46",
". . . . . . . . . . . . . . . . . . . . . . ",
". . . . . . . . . . + @ # @ + $ . . . . . . ",
". . . . . . . . + @ % & * = - ; + $ . . . . ",
". . . . . . + @ % & > , ' ) > ! - ; + $ . . ",
". . . . + @ % & > , ~ { ] ^ / ( > ! - ; + $ ",
". . + @ % & > , ~ { _ _ _ _ _ ^ / ( > ! : + ",
". + < & > , ~ { _ _ _ [ [ [ [ _ _ } | 1 2 @ ",
". @ 2 1 3 4 5 _ _ [ [ [ [ [ [ 6 7 8 9 0 a # ",
". # b c d e ~ 6 _ [ [ [ [ 6 7 8 9 f g h i # ",
". # j k l m n e ~ 6 _ 6 7 8 9 f g o p q r # ",
". # s t u v w m n e x y 9 f g o p z z A r # ",
". # B C D D E v w F G H g o p z z z I A r # ",
". # B C D J D D E K L M p z z z I I I A r # ",
". # B C D J J J D N O q z z I I I I I A r # ",
". # B C D J J J J C P A z I I I I Q R S T @ ",
". @ U V W X D J J C P A z I I Q R Y Z `  .+ ",
". + ..U +.@.W X D C P A z Q R Y Z ` #.; + $ ",
". $ + @ $.U +.@.W %.P &.o Y Z ` #.; *.$ $ $ ",
". . $ $ + @ $.U +.=.-.;.>.` #.; *.$ $ $ . . ",
". . . . $ $ + @ $.,.'.).#.; *.$ $ $ . . . . ",
". . . . . . $ $ + @ # ; *.$ $ $ . . . . . . ",
". . . . . . . . $ $ $ $ $ $ . . . . . . . . "};
