/* XPM */
static char * ctdefinestate_projspec_22x22_xpm[] = {
"22 22 7 1",
" 	c None",
".	c #FFFFFF",
"+	c #000000",
"@	c #FFE207",
"#	c #BC9600",
"$	c #685000",
"%	c #EDC500",
"......................",
"......................",
"......................",
"........++++++........",
"........+@@@@@+.......",
"........+@@@@@+.......",
".........+@@@@@+......",
".........+@@@@@+......",
"..........+@@@@@+.....",
"..........+++++++.....",
".........++####++.....",
"........+$+###+%+.....",
".......+$$+##+%%+.....",
"......+++++++%%%+.....",
"......+@@@@@+%%%+.....",
"......+@@@@@+%%%+.....",
"......+@@@@@+%%+......",
"......+@@@@@+%+.......",
"......+@@@@@++........",
"......+++++++.........",
"......................",
"......................"};
