/* XPM */
static char * ctdefinestate_auto_22x22_xpm[] = {
"22 22 83 1",
" 	c None",
".	c #FFFFFF",
"+	c #292C29",
"@	c #F6F2F6",
"#	c #DEDADE",
"$	c #D5D6D5",
"%	c #CDCECD",
"&	c #CDCACD",
"*	c #C5C2C5",
"=	c #BDBEBD",
"-	c #B4B6B4",
";	c #ACAEAC",
">	c #A4A5A4",
",	c #A4A1A4",
"'	c #626162",
")	c #000000",
"!	c #FFFAFF",
"~	c #F6F6F6",
"{	c #EEEEEE",
"]	c #EEEAEE",
"^	c #737173",
"/	c #E6E6E6",
"(	c #DEDEDE",
"_	c #CDC6CD",
":	c #527173",
"<	c #627573",
"[	c #6A7573",
"}	c #417173",
"|	c #316D73",
"1	c #206973",
"2	c #10656A",
"3	c #00656A",
"4	c #C5C6C5",
"5	c #5A7173",
"6	c #DEEAEE",
"7	c #BDDADE",
"8	c #94C6CD",
"9	c #73B2BD",
"0	c #529DA4",
"a	c #298D94",
"b	c #08717B",
"c	c #CDE2E6",
"d	c #B4D6D5",
"e	c #94C2C5",
"f	c #73B2B4",
"g	c #4A9DA4",
"h	c #298994",
"i	c #086D73",
"j	c #4A7173",
"k	c #9CCACD",
"l	c #83BABD",
"m	c #62AAAC",
"n	c #41999C",
"o	c #20858B",
"p	c #006973",
"q	c #396D73",
"r	c #6AAEB4",
"s	c #318D94",
"t	c #107D83",
"u	c #39919C",
"v	c #20818B",
"w	c #00717B",
"x	c #005962",
"y	c #E6E2E6",
"z	c #4A9194",
"A	c #4A919C",
"B	c #418D94",
"C	c #31858B",
"D	c #187983",
"E	c #086973",
"F	c #005D62",
"G	c #004C52",
"H	c #838583",
"I	c #D5D2D5",
"J	c #838183",
"K	c #4A4C4A",
"L	c #5A5D5A",
"M	c #6A696A",
"N	c #6A6D6A",
"O	c #525052",
"P	c #ACAAAC",
"Q	c #949594",
"R	c #8B8D8B",
"......................",
"......................",
"....+++++++++++++++...",
"...+@#$%&*=-;>,,,#')..",
"..+......!!~~@{{]^')..",
"..+....!~@{]/($%_^')..",
"..+..:<[<:}|123]4^')..",
"..+..56.67890ab]4^')..",
"..+.~:c6cdefghi]*^')..",
"..+!@jd7dklmnop]*^')..",
"..+!{qe8elr0st3/*^')..",
"..+~/|f9fm0uvwx/*^')..",
"..+@y1zAzBCDEFG/*^')..",
"..+@#{{{]]]]///**^H#+.",
"..+{I%%&&44******J]K).",
".+~JJKLMNNNNMLOKK~^K).",
".+{//////////////P^K).",
".+/=========KKKK=Q^K).",
".+#,,,,,,,,,####,J^)..",
".+IRRRRRRRRRRRRRR^)...",
"..++++++++++++++++....",
"......................"};
