/* XPM */
static char * directory_22x22_xpm[] = {
"22 22 199 2",
"  	c None",
". 	c #FFFFFF",
"+ 	c #484A47",
"@ 	c #545554",
"# 	c #777869",
"$ 	c #C2C8BD",
"% 	c #B0B0AB",
"& 	c #3D3D3D",
"* 	c #171817",
"= 	c #4B4B4B",
"- 	c #8E8E8E",
"; 	c #696E65",
"> 	c #BDC2A5",
", 	c #C8CCB3",
"' 	c #D0D0C5",
") 	c #6A6C69",
"! 	c #575A55",
"~ 	c #C8CAC7",
"{ 	c #202020",
"] 	c #676767",
"^ 	c #F2F2F2",
"/ 	c #A7A7A7",
"( 	c #5C5D50",
"_ 	c #A1A58D",
": 	c #B9BDA4",
"< 	c #65694E",
"[ 	c #161815",
"} 	c #57594A",
"| 	c #C1C5AE",
"1 	c #D5D6CB",
"2 	c #4B464A",
"3 	c #3C3C3C",
"4 	c #DFDFDF",
"5 	c #F4F4F4",
"6 	c #C7C8C7",
"7 	c #676760",
"8 	c #6E705F",
"9 	c #AFB198",
"0 	c #AAAC93",
"a 	c #979790",
"b 	c #1D1D1D",
"c 	c #3A3A31",
"d 	c #A9AC95",
"e 	c #C2C6AB",
"f 	c #D7D8CB",
"g 	c #AFAFAF",
"h 	c #878887",
"i 	c #C1C1C1",
"j 	c #DCDCDC",
"k 	c #8A8C89",
"l 	c #5E5F52",
"m 	c #989C85",
"n 	c #C5C8B3",
"o 	c #C8C8BF",
"p 	c #505050",
"q 	c #0B0B0B",
"r 	c #969A83",
"s 	c #CCD0B9",
"t 	c #DBDDDA",
"u 	c #A19FA2",
"v 	c #939393",
"w 	c #E5E5E5",
"x 	c #F1F1F1",
"y 	c #C3C4C3",
"z 	c #6B6A62",
"A 	c #717461",
"B 	c #B6BAA1",
"C 	c #D6D8C9",
"D 	c #9D9E9D",
"E 	c #232323",
"F 	c #575C53",
"G 	c #C0C3AA",
"H 	c #D6D8C7",
"I 	c #C4C5C4",
"J 	c #717271",
"K 	c #E9E9E9",
"L 	c #8E908D",
"M 	c #4E4F44",
"N 	c #9EA089",
"O 	c #C3C7AE",
"P 	c #CCCEBF",
"Q 	c #585853",
"R 	c #050605",
"S 	c #444742",
"T 	c #CACEB7",
"U 	c #D3D3CA",
"V 	c #989998",
"W 	c #9FA09F",
"X 	c #E7E8E7",
"Y 	c #EEEEEE",
"Z 	c #CBCDCA",
"` 	c #65665B",
" .	c #878976",
"..	c #B7BBA0",
"+.	c #C9CCB7",
"@.	c #89897E",
"#.	c #111310",
"$.	c #3E413C",
"%.	c #C2C6AD",
"&.	c #CACFC6",
"*.	c #AEAFAE",
"=.	c #BABABA",
"-.	c #EDEDED",
";.	c #E1E0DE",
">.	c #484B46",
",.	c #8F9079",
"'.	c #B1B398",
").	c #8A8E75",
"!.	c #323327",
"~.	c #272A25",
"{.	c #A4A88F",
"].	c #CDD0BB",
"^.	c #C5C8C3",
"/.	c #646762",
"(.	c #9E9F9E",
"_.	c #C6C6C6",
":.	c #40423F",
"<.	c #777968",
"[.	c #939681",
"}.	c #67694C",
"|.	c #0D0F0C",
"1.	c #828471",
"2.	c #BFC3A8",
"3.	c #727659",
"4.	c #5B5C5B",
"5.	c #9B9C9B",
"6.	c #30322F",
"7.	c #959883",
"8.	c #4B4C31",
"9.	c #373B34",
"0.	c #9A9D86",
"a.	c #BCC1A4",
"b.	c #818465",
"c.	c #464746",
"d.	c #333532",
"e.	c #7A7D6A",
"f.	c #919477",
"g.	c #363825",
"h.	c #3A4035",
"i.	c #9A9C81",
"j.	c #BABFA2",
"k.	c #8C8F70",
"l.	c #2F322D",
"m.	c #7B7C7B",
"n.	c #47473C",
"o.	c #82836E",
"p.	c #7F8263",
"q.	c #29291C",
"r.	c #38392A",
"s.	c #85886B",
"t.	c #909374",
"u.	c #3D3D30",
"v.	c #535353",
"w.	c #5C5D4E",
"x.	c #868974",
"y.	c #565A3F",
"z.	c #2A2A1D",
"A.	c #686C53",
"B.	c #AFB499",
"C.	c #BEC1A4",
"D.	c #96997C",
"E.	c #3F4130",
"F.	c #393A39",
"G.	c #656659",
"H.	c #7B7F64",
"I.	c #2B2C19",
"J.	c #5F6146",
"K.	c #999E81",
"L.	c #B8BE9F",
"M.	c #9EA184",
"N.	c #4D4F36",
"O.	c #101110",
"P.	c #686B58",
"Q.	c #555940",
"R.	c #010201",
"S.	c #000000",
"T.	c #4F533A",
"U.	c #808663",
"V.	c #AAAF92",
"W.	c #BABFA4",
"X.	c #A4A98C",
"Y.	c #585B3C",
"Z.	c #131512",
"`.	c #5A5C4B",
" +	c #232316",
".+	c #444732",
"++	c #666A47",
"@+	c #939776",
"#+	c #9FA384",
"$+	c #66684B",
"%+	c #383928",
"&+	c #555A3D",
"*+	c #71744D",
"=+	c #61654A",
"-+	c #222520",
";+	c #090B08",
">+	c #4C4F38",
",+	c #141712",
"'+	c #070807",
". . . . . . . . + @ . . . . . . . . . . . . ",
". . . . . . . . # $ % & . . . . . . . . . . ",
". * . . . = - . ; > , ' ) . . . . . . . . . ",
". ! ~ { . ] ^ / ( _ : > < [ . . . . . . . . ",
". } | 1 2 3 4 5 6 7 8 9 0 a b . . . . . . . ",
". c d e f g h i ^ j k l m n o p q . . . . . ",
". . r > > s t u v w x y z A B C D E . . . . ",
". . F > > > G H I J I 5 K L M N O P Q R . . ",
". . S > > > > > T U V W X Y Z `  ...+.@.#.. ",
". . $.: > > > > > %.&.*.h =.-.;.>.,.'.).!.. ",
". . ~.{.> > > > > > G ].^./.(._.:.<.[.}.|.. ",
". . . 1.> > > > > > > > 2.3.4.5.6.<.7.8.. . ",
". . . 9.0.a.> > > > > > > b.c.- d.e.f.g.. . ",
". . . . h.i.j.> > > > > > k.l.m.n.o.p.q.. . ",
". . . . . r.s.j.> > > > > t.u.v.w.x.y.. . . ",
". . . . . . z.A.B.C.> > > D.E.F.G.H.I.. . . ",
". . . . . . . . J.K.L.> > M.N.O.P.Q.R.S.S.. ",
". . . . . . . . . T.U.V.W.X.Y.Z.`. +S.S.S.S.",
". . . . . . . . . . .+++@+#+$+~.%+S.S.S.S.. ",
". . . . . . . . . . . 9.&+*+=+-+;+S.S.S.. . ",
". . . . . . . . . . . . . >+,+'+S.S.. . . . ",
". . . . . . . . . . . . . . . S.. . . . . . "};
