/* XPM */
static char * elseif_22x22_xpm[] = {
"22 22 11 1",
" 	c None",
".	c #FFFFFF",
"+	c #555555",
"@	c #000000",
"#	c #AAAAAA",
"$	c #C7C7C7",
"%	c #1D1D1D",
"&	c #E3E3E3",
"*	c #8E8E8E",
"=	c #393939",
"-	c #727272",
"......................",
"......................",
"......................",
"....+@#....$+++%+#....",
"...#@@+...#%&...*@=&..",
"...#@@+..$@*.....=@-..",
"...#@@+..+@-.....#@@..",
"....@@*..-@+.....#@@..",
"....%@#...#&.....=@=..",
"....+@..........*@@$..",
"....+%........&=@=$...",
"....#+.......$@-&.....",
"....#+.......+-.......",
"....#+.......+$.......",
"....$*.......*........",
"......................",
"...&%%&.....#@+.......",
"...#@@#.....+@@.......",
"....--......&+#.......",
"......................",
"......................",
"......................"};
