/* XPM */
static char * ifndef_22x22_xpm[] = {
"22 22 158 2",
"  	c None",
". 	c #FFFFFF",
"+ 	c #FFF9F9",
"@ 	c #FFD9D9",
"# 	c #F5F5F5",
"$ 	c #C7C7C7",
"% 	c #F6CDCD",
"& 	c #FF5656",
"* 	c #FF4949",
"= 	c #FF9B9B",
"- 	c #FFC5C5",
"; 	c #FFEDED",
"> 	c #FFFDFD",
", 	c #C9C9C9",
"' 	c #3C3C3C",
") 	c #373737",
"! 	c #D49595",
"~ 	c #FF2828",
"{ 	c #FF0E0E",
"] 	c #FF1D1D",
"^ 	c #FF3232",
"/ 	c #FF6767",
"( 	c #FF8484",
"_ 	c #FFA6A6",
": 	c #FFD0D0",
"< 	c #FFF8F8",
"[ 	c #CECECE",
"} 	c #3E3E3E",
"| 	c #1D1D1D",
"1 	c #C37E7E",
"2 	c #FF2424",
"3 	c #FF1010",
"4 	c #FF0D0D",
"5 	c #720707",
"6 	c #720303",
"7 	c #FF0000",
"8 	c #FF1515",
"9 	c #FF3333",
"0 	c #FF8989",
"a 	c #FFAEAE",
"b 	c #FFE5E5",
"c 	c #FFFCFC",
"d 	c #EFEFEF",
"e 	c #6C6C6C",
"f 	c #080808",
"g 	c #B06666",
"h 	c #FF1B1B",
"i 	c #FF0808",
"j 	c #AA0000",
"k 	c #000000",
"l 	c #AA2929",
"m 	c #FF2525",
"n 	c #FF0404",
"o 	c #FF1414",
"p 	c #FF1A1A",
"q 	c #FF5B5B",
"r 	c #FFF1F1",
"s 	c #FDFDFD",
"t 	c #7E7E7E",
"u 	c #A75C5C",
"v 	c #E32424",
"w 	c #1D0505",
"x 	c #1D0202",
"y 	c #E31010",
"z 	c #FF1F1F",
"A 	c #FF2A2A",
"B 	c #FF3F3F",
"C 	c #FF1616",
"D 	c #FF1212",
"E 	c #FF1E1E",
"F 	c #FFB3B3",
"G 	c #868686",
"H 	c #060606",
"I 	c #A46464",
"J 	c #FF2222",
"K 	c #FF0303",
"L 	c #FF3737",
"M 	c #FF2D2D",
"N 	c #FF1919",
"O 	c #FF1111",
"P 	c #FF2E2E",
"Q 	c #FF3030",
"R 	c #FFBFBF",
"S 	c #9D6C6C",
"T 	c #FF2929",
"U 	c #FF0101",
"V 	c #FF0202",
"W 	c #C70505",
"X 	c #C70000",
"Y 	c #FF4242",
"Z 	c #FF4444",
"` 	c #FF0909",
" .	c #FF3E3E",
"..	c #FFD2D2",
"+.	c #818181",
"@.	c #867C7C",
"#.	c #FF9696",
"$.	c #AA0505",
"%.	c #720404",
"&.	c #FF0707",
"*.	c #FF2020",
"=.	c #FF2626",
"-.	c #FF5E5E",
";.	c #FFDBDB",
">.	c #FFF4F4",
",.	c #FFC0C0",
"'.	c #FF8B8B",
").	c #AA5151",
"!.	c #1D0606",
"~.	c #FF1313",
"{.	c #FF0505",
"].	c #FF0A0A",
"^.	c #FFCACA",
"/.	c #858585",
"(.	c #FFF7F7",
"_.	c #1D1717",
":.	c #392626",
"<.	c #C76666",
"[.	c #FF4747",
"}.	c #FF0606",
"|.	c #FF2323",
"1.	c #FFBCBC",
"2.	c #F8F8F8",
"3.	c #767676",
"4.	c #727272",
"5.	c #1D1919",
"6.	c #8E5F5F",
"7.	c #FF6B6B",
"8.	c #FF4343",
"9.	c #FF6E6E",
"0.	c #FFE0E0",
"a.	c #E6E6E6",
"b.	c #5F5F5F",
"c.	c #0F0F0F",
"d.	c #989898",
"e.	c #726E6E",
"f.	c #FFE4E4",
"g.	c #FFFBFB",
"h.	c #E3E3E3",
"i.	c #585858",
"j.	c #101010",
"k.	c #9A9A9A",
"l.	c #8E8E8E",
"m.	c #E1E1E1",
"n.	c #0A0A0A",
"o.	c #AAAAAA",
"p.	c #595959",
"q.	c #676767",
"r.	c #393939",
"s.	c #5D5D5D",
"t.	c #0C0C0C",
"u.	c #9B9B9B",
"v.	c #888888",
"w.	c #2F2F2F",
"x.	c #BCBCBC",
"y.	c #555555",
"z.	c #FCFCFC",
"A.	c #E8E8E8",
". . . . . + @ @ + . . . . . . . . . . . . . ",
". . # $ $ % & * = - ; > . . . . . . . . . . ",
". . , ' ) ! ~ { ] ^ / ( _ : < . . . . . . . ",
". . [ } | 1 2 3 4 5 6 7 8 9 0 a b c . . . . ",
". . d e f g h i j k k l m n o p q _ r . . . ",
". . s t k u ] 8 v w x y z A B C D E F . . . ",
". . . G H I J K n ~ L M N 4 8 O P Q R . . . ",
". . . G H S T U V W X C T Y Z 4 `  .... . . ",
". . . +.k @.#.p n $.%.i &.n p *.=.-.;.. . . ",
". . . G H G >.,.'.).!.~.{.n ].n ].9 ^.. . . ",
". . . /.H G . . . (._.:.<.[.C 7 }.|.1.. . . ",
". . 2.3.k /.. . . . . 4.k 5.6.7.8.9.0.. . . ",
". . a.b.c.d.. . . . . . $ | k e.;.f.g.. . . ",
". . h.i.j.k.$ $ . . . . . l.k k h.. . . . . ",
". . m.i.n.3.k k . . . . . . k k o.. . . . . ",
". . h.p.j.q.k | . . . . . . k k o.. . . . . ",
". . h.i.j.k.| r.. . . . . l.k | . . . . . . ",
". . h.s.t.u.h.| o.. . . $ | | o.. . . . . . ",
". . d v.w.x.. h.4.y.y.r.r.l.h.. . . . . . . ",
". . z.A., # . . . . . . . . . . . . . . . . ",
". . . . . . . . . . . . . . . . . . . . . . ",
". . . . . . . . . . . . . . . . . . . . . . "};
