/* XPM */
static char * all_xpm[] = {
"16 16 12 1",
" 	c None",
".	c #5A3900",
"+	c #634A18",
"@	c #000000",
"#	c #FFBD4A",
"$	c #FFAD00",
"%	c #B57300",
"&	c #946300",
"*	c #6B4A00",
"=	c #848484",
"-	c #FFD68C",
";	c #DE9400",
"   ...+         ",
" ..@#@.@@       ",
" .#$$$$%@       ",
"+.$&@&...+      ",
".#$@..@#@.@@    ",
".%$&.#$$$$%@    ",
"*%$+.$&@&...+   ",
" *%.#$@..@#@.@@ ",
"  *.%$&.#$$$$%@ ",
"   *%$+.$&@&$@@@",
"    *%.#$@=@-;%@",
"     *.%$&@-;@@@",
"      *%$$-;;%@@",
"       *%@;@%@@ ",
"        *@@@@   ",
"                "};

