/* XPM */
static char * menu_openproject_xpm[] = {
"16 14 67 1",
" 	c None",
".	c #5BDC1A",
"+	c #7AFF94",
"@	c #81FF98",
"#	c #88FF9D",
"$	c #8FFFA1",
"%	c #97FFA5",
"&	c #9EFFAA",
"*	c #A5FFAE",
"=	c #ACFFB2",
"-	c #B3FFB7",
";	c #24B41C",
">	c #B7FDAC",
",	c #14D909",
"'	c #16DD06",
")	c #18E104",
"!	c #19E303",
"~	c #87FC8E",
"{	c #99F073",
"]	c #16DD07",
"^	c #80E463",
"/	c #05B51E",
"(	c #07B91C",
"_	c #08BE19",
":	c #0AC216",
"<	c #0CC714",
"[	c #0ECB11",
"}	c #10D00F",
"|	c #12D40C",
"1	c #14D809",
"2	c #1AE303",
"3	c #64D447",
"4	c #04B51E",
"5	c #3BDF04",
"6	c #47C32D",
"7	c #06B91C",
"8	c #10CF0F",
"9	c #83FD89",
"0	c #0AC217",
"a	c #0CC614",
"b	c #87EF6B",
"c	c #02B021",
"d	c #04B51F",
"e	c #08BD19",
"f	c #1BE104",
"g	c #6BDE52",
"h	c #14D80A",
"i	c #16DC07",
"j	c #42DC05",
"k	c #4FCB39",
"l	c #04B41F",
"m	c #32BA22",
"n	c #12D30C",
"o	c #08AE22",
"p	c #0ECA12",
"q	c #1CDD08",
"r	c #46BB17",
"s	c #48BD17",
"t	c #4AC117",
"u	c #4CC417",
"v	c #4FC817",
"w	c #51CB17",
"x	c #53CF18",
"y	c #55D218",
"z	c #57D518",
"A	c #59D919",
"B	c #75D915",
".............   ",
".+@#$%&*=-;;;;;;",
".+@#$%&*=>;,')!.",
".+~{;;;;;;;,])!.",
".+^/(_:<[}|1])2.",
".+34(_:<[}|1])5.",
".+647_:<[8|1]). ",
".9;47_0a[8|1]). ",
".bcd7e0a[8|1]f. ",
".gcd7e0a[8|hij. ",
".kcl7e0a[8|hi.  ",
".mcl7e0a[8nhi.  ",
".ocl7e0ap8nhq.  ",
".rstuvwxyzA.B.  "};
