/* XPM */
static char * threadcurrent_xpm[] = {
"16 16 17 1",
" 	c None",
".	c #00FF00",
"+	c #5A3900",
"@	c #634A18",
"#	c #6B4A00",
"$	c #848484",
"%	c #946300",
"&	c #B57300",
"*	c #DE9400",
"=	c #FFFFFF",
"-	c #FFAD00",
";	c #FFBD4A",
">	c #FFD68C",
",	c #FFFFFF",
"'	c #FFFFFF",
")	c #FFFFFF",
"!	c #000000",
"                ",
"                ",
"                ",
"     +++@       ",
"   ++!;!+!!     ",
"   +;----&!     ",
"  @+-%!%-!!!    ",
"  +;-!$!>*&!    ",
"  +&-%!>*!!!    ",
"  #&-->**&!!    ",
"   #&!*!&!!     ",
"    #!!!!       ",
"                ",
"                ",
"                ",
"                "};
