/* XPM */
static char * menu_circle_help_16_xpm[] = {
"16 16 152 2",
"  	c None",
". 	c #ABCBDD",
"+ 	c #2176A7",
"@ 	c #2579A9",
"# 	c #2A7CAB",
"$ 	c #2F7FAC",
"% 	c #3582AF",
"& 	c #3A85B0",
"* 	c #1C73A5",
"= 	c #2B7CAB",
"- 	c #71A7C7",
"; 	c #C1D8E6",
"> 	c #C2D9E6",
", 	c #C4DAE7",
"' 	c #C5DBE8",
") 	c #81B1CC",
"! 	c #4B91B7",
"~ 	c #488EB6",
"{ 	c #1D73A5",
"] 	c #6FA5C5",
"^ 	c #FFFFFF",
"/ 	c #D5E5EE",
"( 	c #91BBD3",
"_ 	c #68A2C3",
": 	c #6DA5C5",
"< 	c #9CC2D7",
"[ 	c #DCE9F1",
"} 	c #8BB7D1",
"| 	c #5294BA",
"1 	c #6EA6C5",
"2 	c #8DB9D1",
"3 	c #478DB6",
"4 	c #4C91B8",
"5 	c #5295BA",
"6 	c #5998BD",
"7 	c #5E9CBF",
"8 	c #65A0C2",
"9 	c #A7C8DC",
"0 	c #5C9BBF",
"a 	c #2C7DAB",
"b 	c #468DB6",
"c 	c #68A2C4",
"d 	c #CEE1EB",
"e 	c #F9FBFC",
"f 	c #D6E6EF",
"g 	c #83B3CD",
"h 	c #ADCDDF",
"i 	c #68A2C2",
"j 	c #2277A7",
"k 	c #72A7C7",
"l 	c #E5EFF4",
"m 	c #74A9C8",
"n 	c #8FBAD3",
"o 	c #E1EDF3",
"p 	c #77AAC9",
"q 	c #7DAECB",
"r 	c #E4EEF4",
"s 	c #9BC1D7",
"t 	c #6AA4C4",
"u 	c #2679A9",
"v 	c #C1D9E6",
"w 	c #90BBD3",
"x 	c #5295BB",
"y 	c #EAF2F6",
"z 	c #649FC1",
"A 	c #76ABC8",
"B 	c #EDF4F7",
"C 	c #7CAECB",
"D 	c #82B2CE",
"E 	c #B8D3E3",
"F 	c #D4E4ED",
"G 	c #70A6C7",
"H 	c #C3DAE7",
"I 	c #5194BB",
"J 	c #5898BD",
"K 	c #64A0C1",
"L 	c #6AA3C3",
"M 	c #76AAC9",
"N 	c #FDFEFE",
"O 	c #ADCCDF",
"P 	c #82B2CD",
"Q 	c #89B6D0",
"R 	c #9FC4D9",
"S 	c #74AAC9",
"T 	c #3180AE",
"U 	c #C4DBE8",
"V 	c #6DA4C4",
"W 	c #5898BC",
"X 	c #5E9BBF",
"Y 	c #BCD5E4",
"Z 	c #88B5D0",
"` 	c #8EBAD3",
" .	c #A4C7DB",
"..	c #7AADCA",
"+.	c #3683AF",
"@.	c #9CC1D7",
"#.	c #5D9BBF",
"$.	c #649FC2",
"%.	c #6AA3C4",
"&.	c #70A6C6",
"*.	c #99C0D6",
"=.	c #9CC2D8",
"-.	c #82B1CE",
";.	c #8FB9D2",
">.	c #94BDD5",
",.	c #D8E7EF",
"'.	c #7FB0CC",
").	c #3B87B2",
"!.	c #63A0C2",
"~.	c #75AAC8",
"{.	c #F1F6F9",
"].	c #E7F0F5",
"^.	c #88B6D0",
"/.	c #8EB9D2",
"(.	c #9AC1D7",
"_.	c #84B3CF",
":.	c #A6C8DC",
"<.	c #6FA7C6",
"[.	c #75AAC9",
"}.	c #E3EDF3",
"|.	c #DAE8F0",
"1.	c #93BDD5",
"2.	c #9AC0D6",
"3.	c #C6DCE9",
"4.	c #4A8FB7",
"5.	c #8CB8D1",
"6.	c #81B2CD",
"7.	c #88B6CF",
"8.	c #8EBAD2",
"9.	c #94BDD4",
"0.	c #C6DCE8",
"a.	c #AECDDF",
"b.	c #89B7D1",
"c.	c #5495BB",
"d.	c #92BBD4",
"e.	c #E3EEF4",
"f.	c #B7D3E3",
"g.	c #9EC3D9",
"h.	c #A3C7DB",
"i.	c #C2DAE6",
"j.	c #AFCDDF",
"k.	c #8AB7D0",
"l.	c #69A2C3",
"m.	c #D4E4EE",
"n.	c #ACCBDD",
"o.	c #8AB6D1",
"p.	c #6CA4C5",
"q.	c #71A8C6",
"r.	c #76ABC9",
"s.	c #7BAECB",
"t.	c #80B1CC",
"u.	c #85B4CF",
"        . + @ # $ % & .         ",
"      * = - ; > , ' ) ! ~       ",
"    { ] ^ / ( _ : < [ ^ } |     ",
"  * 1 ^ 2 3 4 5 6 7 8 9 ^ ( 0   ",
". a ^ 2 b c d e e f g - h ^ i < ",
"j k / b 4 l e m n ^ o p q r s t ",
"u v w 4 x y l z A ^ B C D E F G ",
"a H _ I J K L M o N O P Q R / S ",
"T U V W X K L Y y ( D Z `  .f ..",
"+.' @.#.$.%.&.*.=.-.Z ;.>.H ,.'.",
").P [ !.%.&.~.{.].^./.>.(.y . _.",
". 4 ^ :.<.[.C }.|./.1.2.3.^ Q < ",
"  4.5.^ O C 6.7.8.9.(.0.^ a.b.  ",
"    c.d.^ e.f.g.h.i.y ^ j.k.    ",
"      7 l.< m./ f ,.n.Q o.      ",
"        < p.q.r.s.t.u.<         "};
