/* XPM */
static char * text_uppercase_xpm[] = {
"16 16 106 2",
"  	c None",
". 	c #2F702A",
"+ 	c #377A31",
"@ 	c #1B6BD8",
"# 	c #1E70D9",
"$ 	c #2374DB",
"% 	c #3F8539",
"& 	c #2577DB",
"* 	c #2A7BDD",
"= 	c #2E7EDF",
"- 	c #499141",
"; 	c #4A8686",
"> 	c #3184DF",
", 	c #3A81DE",
"' 	c #3585DF",
") 	c #3C8DE2",
"! 	c #418CE1",
"~ 	c #408EE2",
"{ 	c #428EE1",
"] 	c #438EE2",
"^ 	c #529F61",
"/ 	c #508AE2",
"( 	c #518CE2",
"_ 	c #4493E3",
": 	c #538DE2",
"< 	c #4594E4",
"[ 	c #548DE2",
"} 	c #52A084",
"| 	c #51A185",
"1 	c #5B8DD8",
"2 	c #5AA751",
"3 	c #548FE3",
"4 	c #5690E3",
"5 	c #5790E3",
"6 	c #53A48C",
"7 	c #5D90DC",
"8 	c #5E90DA",
"9 	c #5F91DB",
"0 	c #4E98E6",
"a 	c #5595E4",
"b 	c #5A93E3",
"c 	c #6191DB",
"d 	c #5B94E2",
"e 	c #5E94E4",
"f 	c #529AE6",
"g 	c #6294DC",
"h 	c #5998E4",
"i 	c #6495DC",
"j 	c #5D97E5",
"k 	c #5E97E5",
"l 	c #5DAA92",
"m 	c #6898DD",
"n 	c #619AE6",
"o 	c #689BDF",
"p 	c #689AE5",
"q 	c #6C9ADF",
"r 	c #609FE6",
"s 	c #699CDF",
"t 	c #6C9EE0",
"u 	c #6A9FE2",
"v 	c #68A1E7",
"w 	c #69A1E6",
"x 	c #6DA1E2",
"y 	c #6FA2E3",
"z 	c #6CA3E7",
"A 	c #70A2E2",
"B 	c #72A4E5",
"C 	c #7AB671",
"D 	c #70A6E5",
"E 	c #70A6E7",
"F 	c #71A6E5",
"G 	c #72A5E8",
"H 	c #73A5E8",
"I 	c #75A5E5",
"J 	c #72A6E9",
"K 	c #73A6E9",
"L 	c #79A5E1",
"M 	c #7CB875",
"N 	c #76A6E9",
"O 	c #74A8E5",
"P 	c #74A9E6",
"Q 	c #76A8E9",
"R 	c #76A9E5",
"S 	c #79A7E9",
"T 	c #76A9E7",
"U 	c #75A9EA",
"V 	c #7AA7E9",
"W 	c #77AAE5",
"X 	c #79AAEA",
"Y 	c #7CAAE4",
"Z 	c #78ACE6",
"` 	c #80AAE3",
" .	c #83ADEA",
"..	c #88C580",
"+.	c #89B4E7",
"@.	c #87B4ED",
"#.	c #8BC683",
"$.	c #90CB88",
"%.	c #93BAE9",
"&.	c #92BBEA",
"*.	c #95BCEE",
"=.	c #9DD095",
"-.	c #A2D29B",
";.	c #A5D39E",
">.	c #ADD8A6",
",.	c #B6DCB0",
"    < _ f ] >                   ",
"  0 ~   ' r *                   ",
"  )     = h $                   ",
"  ' ! * z ,                     ",
"{ =     l |                     ",
"a &   6 $.#.^   - Z W T P F A   ",
"$ # @ } ..,.M - % R O &.%.+.t   ",
"        2 C >.;.+   D y *.U     ",
"          - -.=.. E x u @.J     ",
"        - % + . ; Y s   X Q     ",
"                B o     K G     ",
"              w ` i     j N *.  ",
"            v L g c 8 1 q S @.  ",
"            I m         5 V [   ",
"          H 9 7         p  .e   ",
"        n k d b     3 : ( / / / "};
