/* XPM */
static char * menu_run_xpm[] = {
"8 14 5 1",
" 	c None",
".	c #146600",
"+	c #26B200",
"@	c #275919",
"#	c #000000",
"..      ",
".+.     ",
".++.    ",
".+++.   ",
".++++.  ",
".+++++. ",
".++++++.",
".+++++@#",
".++++@# ",
".+++@#  ",
".++@#   ",
".+@#    ",
".@#     ",
"##      "};
