/* XPM */
static char * menu_save_xpm[] = {
"18 18 94 2",
"  	c None",
". 	c #010101",
"+ 	c #F6F9FF",
"@ 	c #ABD5FF",
"# 	c #DEA69C",
"$ 	c #E1B3AB",
"% 	c #E0B2AB",
"& 	c #E0B2AA",
"* 	c #DDACA3",
"= 	c #DAA299",
"- 	c #DBA59C",
"; 	c #D6958A",
"> 	c #99CCFF",
", 	c #C5E1FF",
"' 	c #6699CC",
") 	c #CC8376",
"! 	c #C97362",
"~ 	c #C97261",
"{ 	c #C97061",
"] 	c #C97364",
"^ 	c #C87060",
"/ 	c #CC7464",
"( 	c #CC7F73",
"_ 	c #416080",
": 	c #B4D9FF",
"< 	c #FFFFFF",
"[ 	c #426283",
"} 	c #F7F7F7",
"| 	c #6090C0",
"1 	c #3E5D7B",
"2 	c #CCCCCC",
"3 	c #CACACA",
"4 	c #BDBDBD",
"5 	c #E7E7E7",
"6 	c #5D8AB8",
"7 	c #3B5976",
"8 	c #F9F9F9",
"9 	c #EBEBEB",
"0 	c #FCFCFC",
"a 	c #F2F2F2",
"b 	c #C8C8C8",
"c 	c #C0C0C0",
"d 	c #B8B8B8",
"e 	c #EFEFEF",
"f 	c #EBF1F8",
"g 	c #F5F5F5",
"h 	c #BBCAD7",
"i 	c #6496C8",
"j 	c #5D8BB9",
"k 	c #5C89B7",
"l 	c #5B87B5",
"m 	c #6598CB",
"n 	c #8EA4BC",
"o 	c #C2C2C2",
"p 	c #DFDFDF",
"q 	c #72787D",
"r 	c #2F475F",
"s 	c #446587",
"t 	c #273B50",
"u 	c #314A61",
"v 	c #CBCBCB",
"w 	c #AAAAAA",
"x 	c #263A4D",
"y 	c #4B7095",
"z 	c #436385",
"A 	c #6294C5",
"B 	c #C1C1C1",
"C 	c #2F465D",
"D 	c #446688",
"E 	c #B3B3B3",
"F 	c #243749",
"G 	c #496D91",
"H 	c #566B81",
"I 	c #5E8EBD",
"J 	c #2A3F55",
"K 	c #476A8E",
"L 	c #B4B4B4",
"M 	c #9F9F9F",
"N 	c #24374A",
"O 	c #4A6E93",
"P 	c #3B5A77",
"Q 	c #4B5C6C",
"R 	c #3D5C7A",
"S 	c #919191",
"T 	c #B2B2B2",
"U 	c #808080",
"V 	c #7D7D7D",
"W 	c #777777",
"X 	c #626262",
"Y 	c #585858",
"Z 	c #1A2836",
"` 	c #354F69",
" .	c #37526D",
"..	c #273B4F",
"  . . . . . . . . . . . . . . . .   ",
". + @ # $ % & & & & & * = - ; > > . ",
". , ' ) ! ~ { { { { { ] ^ / ( ' _ . ",
". : ' < < < < < < < < < < < < ' [ . ",
". : ' < < < < < < < < < < < } | 1 . ",
". : ' < 2 2 2 2 2 2 2 2 3 4 5 6 7 . ",
". : ' < < < < < < < < 8 9 5 5 6 7 . ",
". : ' < < < < < < 0 a 5 5 5 5 6 7 . ",
". : ' < 2 2 2 b c d d d d d 5 6 7 . ",
". : ' < < < e 5 5 5 5 5 5 5 5 6 7 . ",
". : ' f < g 5 5 5 5 5 5 5 5 h 6 7 . ",
". : ' ' i j 6 6 6 6 6 k l 6 6 6 7 . ",
". : ' m n d d o p 5 2 q r s 6 6 7 . ",
". : ' | d d t u 5 v d w x y z 6 7 . ",
". : A 6 d B C D B d d E F G D 6 7 . ",
". H I 6 c p J K d d L M N O D 6 P . ",
"  . Q R S T U U V W X Y Z u `  .... ",
"    . . . . . . . . . . . . . . .   "};
