/* XPM */
static char * menu_edit_lowercase_xpm[] = {
"16 16 103 2",
"  	c None",
". 	c #1962D4",
"+ 	c #1A62D6",
"@ 	c #1A65D6",
"# 	c #377A31",
"$ 	c #1B6CD8",
"% 	c #1C6ED9",
"& 	c #1E70D9",
"* 	c #1F70D9",
"= 	c #327A7F",
"- 	c #2E7995",
"; 	c #2373DA",
"> 	c #2174DB",
", 	c #3F8539",
"' 	c #2874DA",
") 	c #2777DB",
"! 	c #2877DC",
"~ 	c #3375DB",
"{ 	c #2C7ADC",
"] 	c #2A7BDD",
"^ 	c #347ADC",
"/ 	c #2C7EDF",
"( 	c #2E7EDF",
"_ 	c #3782BD",
": 	c #499141",
"< 	c #3082DF",
"[ 	c #3182DF",
"} 	c #489159",
"| 	c #3584DF",
"1 	c #4383DD",
"2 	c #46918E",
"3 	c #3989E2",
"4 	c #3A8BE2",
"5 	c #3C8BE2",
"6 	c #4887E0",
"7 	c #3C8DE2",
"8 	c #5185D5",
"9 	c #4888E0",
"0 	c #5585CF",
"a 	c #448DE2",
"b 	c #498BE1",
"c 	c #4090E2",
"d 	c #519A81",
"e 	c #4C8CE1",
"f 	c #4C8FE1",
"g 	c #4E91E3",
"h 	c #4E92E1",
"i 	c #5AA751",
"j 	c #5092E3",
"k 	c #4A96E4",
"l 	c #5592E2",
"m 	c #5D90D7",
"n 	c #5395E5",
"o 	c #5794E5",
"p 	c #5994E2",
"q 	c #6192D8",
"r 	c #5C93E3",
"s 	c #5597E4",
"t 	c #5698E5",
"u 	c #5699E4",
"v 	c #5898E5",
"w 	c #5A98E5",
"x 	c #559BE6",
"y 	c #5999E6",
"z 	c #5EA889",
"A 	c #6098DF",
"B 	c #6598D8",
"C 	c #6897D6",
"D 	c #6599DA",
"E 	c #5C9EE6",
"F 	c #629CE2",
"G 	c #609EE8",
"H 	c #619EE6",
"I 	c #639DE6",
"J 	c #5EA0E8",
"K 	c #619FE6",
"L 	c #6A9FE0",
"M 	c #61A3E8",
"N 	c #6ABA5F",
"O 	c #67A2EB",
"P 	c #65A4E8",
"Q 	c #70A2E7",
"R 	c #6DA4E8",
"S 	c #6EA6E2",
"T 	c #6DA6E6",
"U 	c #71A4E6",
"V 	c #7AB671",
"W 	c #73A7E0",
"X 	c #70C065",
"Y 	c #70C164",
"Z 	c #7CB875",
"` 	c #6FA9E9",
" .	c #72B2BC",
"..	c #78ABE8",
"+.	c #83B1EB",
"@.	c #89B0E2",
"#.	c #88C580",
"$.	c #86B3EB",
"%.	c #8BC683",
"&.	c #88B5EC",
"*.	c #90CB88",
"=.	c #90C5B6",
"-.	c #B6DCB0",
"        W S L B                 ",
"        T @...                  ",
"        D A O                   ",
"      F m   o                   ",
"    G C 0   p 6                 ",
"    q     X z 1                 ",
"w l 8   Y *.%.d   }   c 7 4     ",
"        N #.-.Z 2 k M 5 E ` u   ",
"          i V =.x P 3   | K v   ",
"            :  .J _     ( H h   ",
"          : , # = - < / j $.!   ",
"              | t n ] ) I R &   ",
"            [ y s       e b     ",
"            a &.{     & U ^     ",
"            f +.g ; ' 9 Q r ~   ",
"            > * % $     @ + .   "};
