/* XPM */
static char * watches_xpm[] = {
"16 16 8 1",
" 	c None",
".	c #6666CC",
"+	c #D5D5EF",
"@	c #FFFFFF",
"#	c #E1E1E1",
"$	c #C8C8C8",
"%	c #444444",
"&	c #000000",
"                ",
" &&&&&&&&&&&&&  ",
" &...........%@ ",
" &#####@@@@@#%@ ",
" &$#&@&@@&&@$%@ ",
" &#@#&@@@@@@#%@ ",
" &$#&@&@@&&@$%@ ",
" &#@@@@@@@@@+%@ ",
" &$@@@@@@@@#$%@ ",
" &#@&@&@@&&@+%@ ",
" &$@@&@@@#@#$%@ ",
" &#@@&@@#&&@+%@ ",
" &$#$#$+$+$+$%@ ",
" &%%%%%%%%%%%%@ ",
"  @@@@@@@@@@@@@ ",
"                "};
