/* XPM */
static char * menu_copy_16_xpm[] = {
"16 16 257 2",
"  	c None",
". 	c #5A5A8C",
"+ 	c #636B9C",
"@ 	c #6B6B9C",
"# 	c #6BB5EF",
"$ 	c #737BA5",
"% 	c #7384B5",
"& 	c #7B8CC6",
"* 	c #8484BD",
"= 	c #8C8CB5",
"- 	c #A5D6FF",
"; 	c #ADADBD",
"> 	c #BDDEF7",
", 	c #C6C6D6",
"' 	c #C6DEF7",
") 	c #C6DEFF",
"! 	c #C6E7FF",
"~ 	c #CEDEEF",
"{ 	c #CEDEF7",
"] 	c #CEE7F7",
"^ 	c #CEE7FF",
"/ 	c #D6E7EF",
"( 	c #D6E7F7",
"_ 	c #D6E7FF",
": 	c #D6EFFF",
"< 	c #DEDEEF",
"[ 	c #DEE7EF",
"} 	c #DEE7F7",
"| 	c #DEEFF7",
"1 	c #DEEFFF",
"2 	c #DEF7FF",
"3 	c #E7F7FF",
"4 	c #EFF7FF",
"5 	c #EFFFFF",
"6 	c #F7FFFF",
"7 	c #FF00FF",
"8 	c #FFFFFF",
"9 	c #FFFFFF",
"0 	c #FFFFFF",
"a 	c #FFFFFF",
"b 	c #FFFFFF",
"c 	c #FFFFFF",
"d 	c #FFFFFF",
"e 	c #FFFFFF",
"f 	c #FFFFFF",
"g 	c #FFFFFF",
"h 	c #FFFFFF",
"i 	c #FFFFFF",
"j 	c #FFFFFF",
"k 	c #FFFFFF",
"l 	c #FFFFFF",
"m 	c #FFFFFF",
"n 	c #FFFFFF",
"o 	c #FFFFFF",
"p 	c #FFFFFF",
"q 	c #FFFFFF",
"r 	c #FFFFFF",
"s 	c #FFFFFF",
"t 	c #FFFFFF",
"u 	c #FFFFFF",
"v 	c #FFFFFF",
"w 	c #FFFFFF",
"x 	c #FFFFFF",
"y 	c #FFFFFF",
"z 	c #FFFFFF",
"A 	c #FFFFFF",
"B 	c #FFFFFF",
"C 	c #FFFFFF",
"D 	c #FFFFFF",
"E 	c #FFFFFF",
"F 	c #FFFFFF",
"G 	c #FFFFFF",
"H 	c #FFFFFF",
"I 	c #FFFFFF",
"J 	c #FFFFFF",
"K 	c #FFFFFF",
"L 	c #FFFFFF",
"M 	c #FFFFFF",
"N 	c #FFFFFF",
"O 	c #FFFFFF",
"P 	c #FFFFFF",
"Q 	c #FFFFFF",
"R 	c #FFFFFF",
"S 	c #FFFFFF",
"T 	c #FFFFFF",
"U 	c #FFFFFF",
"V 	c #FFFFFF",
"W 	c #FFFFFF",
"X 	c #FFFFFF",
"Y 	c #FFFFFF",
"Z 	c #FFFFFF",
"` 	c #FFFFFF",
" .	c #FFFFFF",
"..	c #FFFFFF",
"+.	c #FFFFFF",
"@.	c #FFFFFF",
"#.	c #FFFFFF",
"$.	c #FFFFFF",
"%.	c #FFFFFF",
"&.	c #FFFFFF",
"*.	c #FFFFFF",
"=.	c #FFFFFF",
"-.	c #FFFFFF",
";.	c #FFFFFF",
">.	c #FFFFFF",
",.	c #FFFFFF",
"'.	c #FFFFFF",
").	c #FFFFFF",
"!.	c #FFFFFF",
"~.	c #FFFFFF",
"{.	c #FFFFFF",
"].	c #FFFFFF",
"^.	c #FFFFFF",
"/.	c #FFFFFF",
"(.	c #FFFFFF",
"_.	c #FFFFFF",
":.	c #FFFFFF",
"<.	c #FFFFFF",
"[.	c #FFFFFF",
"}.	c #FFFFFF",
"|.	c #FFFFFF",
"1.	c #FFFFFF",
"2.	c #FFFFFF",
"3.	c #FFFFFF",
"4.	c #FFFFFF",
"5.	c #FFFFFF",
"6.	c #FFFFFF",
"7.	c #FFFFFF",
"8.	c #FFFFFF",
"9.	c #FFFFFF",
"0.	c #FFFFFF",
"a.	c #FFFFFF",
"b.	c #FFFFFF",
"c.	c #FFFFFF",
"d.	c #FFFFFF",
"e.	c #FFFFFF",
"f.	c #FFFFFF",
"g.	c #FFFFFF",
"h.	c #FFFFFF",
"i.	c #FFFFFF",
"j.	c #FFFFFF",
"k.	c #FFFFFF",
"l.	c #FFFFFF",
"m.	c #FFFFFF",
"n.	c #FFFFFF",
"o.	c #FFFFFF",
"p.	c #FFFFFF",
"q.	c #FFFFFF",
"r.	c #FFFFFF",
"s.	c #FFFFFF",
"t.	c #FFFFFF",
"u.	c #FFFFFF",
"v.	c #FFFFFF",
"w.	c #FFFFFF",
"x.	c #FFFFFF",
"y.	c #FFFFFF",
"z.	c #FFFFFF",
"A.	c #FFFFFF",
"B.	c #FFFFFF",
"C.	c #FFFFFF",
"D.	c #FFFFFF",
"E.	c #FFFFFF",
"F.	c #FFFFFF",
"G.	c #FFFFFF",
"H.	c #FFFFFF",
"I.	c #FFFFFF",
"J.	c #FFFFFF",
"K.	c #FFFFFF",
"L.	c #FFFFFF",
"M.	c #FFFFFF",
"N.	c #FFFFFF",
"O.	c #FFFFFF",
"P.	c #FFFFFF",
"Q.	c #FFFFFF",
"R.	c #FFFFFF",
"S.	c #FFFFFF",
"T.	c #FFFFFF",
"U.	c #FFFFFF",
"V.	c #FFFFFF",
"W.	c #FFFFFF",
"X.	c #FFFFFF",
"Y.	c #FFFFFF",
"Z.	c #FFFFFF",
"`.	c #FFFFFF",
" +	c #FFFFFF",
".+	c #FFFFFF",
"++	c #FFFFFF",
"@+	c #FFFFFF",
"#+	c #FFFFFF",
"$+	c #FFFFFF",
"%+	c #FFFFFF",
"&+	c #FFFFFF",
"*+	c #FFFFFF",
"=+	c #FFFFFF",
"-+	c #FFFFFF",
";+	c #FFFFFF",
">+	c #FFFFFF",
",+	c #FFFFFF",
"'+	c #FFFFFF",
")+	c #FFFFFF",
"!+	c #FFFFFF",
"~+	c #FFFFFF",
"{+	c #FFFFFF",
"]+	c #FFFFFF",
"^+	c #FFFFFF",
"/+	c #FFFFFF",
"(+	c #FFFFFF",
"_+	c #FFFFFF",
":+	c #FFFFFF",
"<+	c #FFFFFF",
"[+	c #FFFFFF",
"}+	c #FFFFFF",
"|+	c #FFFFFF",
"1+	c #FFFFFF",
"2+	c #FFFFFF",
"3+	c #FFFFFF",
"4+	c #FFFFFF",
"5+	c #FFFFFF",
"6+	c #FFFFFF",
"7+	c #FFFFFF",
"8+	c #FFFFFF",
"9+	c #FFFFFF",
"0+	c #FFFFFF",
"a+	c #FFFFFF",
"b+	c #FFFFFF",
"c+	c #FFFFFF",
"d+	c #FFFFFF",
"e+	c #FFFFFF",
"f+	c #FFFFFF",
"g+	c #FFFFFF",
"h+	c #FFFFFF",
"i+	c #FFFFFF",
"j+	c #FFFFFF",
"k+	c #FFFFFF",
"l+	c #FFFFFF",
"m+	c #FFFFFF",
"n+	c #FFFFFF",
"o+	c #FFFFFF",
"p+	c #FFFFFF",
"q+	c #FFFFFF",
"r+	c #FFFFFF",
"s+	c #FFFFFF",
"t+	c #FFFFFF",
"u+	c #FFFFFF",
"v+	c #FFFFFF",
"w+	c #FFFFFF",
"x+	c #FFFFFF",
"y+	c #FFFFFF",
"z+	c #FFFFFF",
"A+	c #FFFFFF",
"B+	c #FFFFFF",
"C+	c #FFFFFF",
"D+	c #FFFFFF",
"E+	c #FFFFFF",
"F+	c #FFFFFF",
"G+	c #FFFFFF",
"H+	c #FFFFFF",
"  = = = = = = = *               ",
"  = 8 8 8 8 8 = # &             ",
"  = 8 8 8 6 6 = = = =           ",
"  = 8 8 8 6 6 < , ; %           ",
"  = 6 _ _ = = = = = = = *       ",
"  = 6 - - = 8 8 8 8 8 = # &     ",
"  = 4 ] ' = 8 8 8 6 6 = = = =   ",
"  = 4 ' ' = 8 8 8 6 6 < , ; %   ",
"  = 3 - - = 6 _ _ ( ] _ 3 < $   ",
"  = | { ' = 6 - - - - - - / $   ",
"  = 3 | | = 4 ] ' ' ' ' ( ~ @   ",
"  = . . . = 4 ' ' ' ' > ] ~ +   ",
"          = 3 - - - - - - ~ .   ",
"          = | { ' ' ' ' ~ ~ .   ",
"          = 3 | | | | | | ] .   ",
"          = . . . . . . . . .   "};
