/* XPM */
static char * editoroptions_xpm[] = {
"16 15 4 1",
" 	c None",
".	c #848484",
"+	c #040484",
"@	c #FAFAFA",
"..........++.   ",
".@@@@@@@.+. +.  ",
".@@@@@@@+@.  +  ",
".@+++@@@+@.  +  ",
".@@@@@@@+@.  +  ",
".@@++++++@.+++++",
".@@@@@@@+@. +++ ",
".@@++++++@.  +  ",
".@@@@@@@+@.     ",
".@@@+++++@.     ",
".@@@@@@@+@.  +  ",
".@@++++++@.  +  ",
".@@@@@@@+@.  +  ",
".@@@@@@@.+. +.  ",
"..........++.   "};
