/* XPM */
static char * menu_edit_sort_16_xpm[] = {
"16 16 31 1",
" 	c None",
".	c #208315",
"+	c #AD6319",
"@	c #61AD59",
"#	c #63AE5B",
"$	c #70B669",
"%	c #73B86D",
"&	c #7DBF77",
"*	c #86C581",
"=	c #FF9934",
"-	c #FF9A36",
";	c #8BC785",
">	c #FF9C38",
",	c #FFA240",
"'	c #93CD8E",
")	c #99D093",
"!	c #99D094",
"~	c #FFAD4E",
"{	c #A3D79E",
"]	c #A6D8A2",
"^	c #FFB95F",
"/	c #A9DBA5",
"(	c #ACDDA7",
"_	c #B2E0AF",
":	c #FFC670",
"<	c #B4E1B0",
"[	c #FFD480",
"}	c #FFE091",
"|	c #FFEA9F",
"1	c #FFF3A9",
"2	c #FFF4AB",
"                ",
"  +++           ",
"  +2+   ........",
"  +2+   .<]);&$#",
"  +1+           ",
"  +|+   ......  ",
"  +}+   .(!*%@  ",
"  +[+           ",
"  +:+   ....    ",
"  +^+   ._{'    ",
"  +~+           ",
"+++,+++ ..      ",
" +>-=+  ./      ",
"  +=+           ",
"   +            ",
"                "};
