/* XPM */
static char * menu_close_16_xpm[] = {
"16 16 110 2",
"  	c None",
". 	c #E42527",
"+ 	c #E62D2E",
"@ 	c #E92D2F",
"# 	c #EA2F31",
"$ 	c #E93437",
"% 	c #EB3436",
"& 	c #EE3D3F",
"* 	c #EC3E40",
"= 	c #ED4042",
"- 	c #F13F41",
"; 	c #ED4143",
"> 	c #EE4244",
", 	c #EE4345",
"' 	c #EF4447",
") 	c #EF4649",
"! 	c #F24547",
"~ 	c #F04648",
"{ 	c #EF474A",
"] 	c #F0484B",
"^ 	c #F4484A",
"/ 	c #F64A4C",
"( 	c #F24C4F",
"_ 	c #F44D50",
": 	c #F54E50",
"< 	c #F65558",
"[ 	c #F75557",
"} 	c #F55658",
"| 	c #F65659",
"1 	c #F6585A",
"2 	c #FF5457",
"3 	c #F6585B",
"4 	c #F6595B",
"5 	c #F65A5C",
"6 	c #FF5659",
"7 	c #F65B5E",
"8 	c #F75B5D",
"9 	c #FF585B",
"0 	c #F75C5E",
"a 	c #F75D60",
"b 	c #F85E61",
"c 	c #FF5B5E",
"d 	c #F75F61",
"e 	c #F85F62",
"f 	c #F86164",
"g 	c #FA6163",
"h 	c #F86264",
"i 	c #FA6265",
"j 	c #FA6366",
"k 	c #FF6263",
"l 	c #FA6467",
"m 	c #F96568",
"n 	c #F9686A",
"o 	c #FF6768",
"p 	c #FB696C",
"q 	c #FA6A6D",
"r 	c #FA6C6E",
"s 	c #FB6D6F",
"t 	c #FB6D70",
"u 	c #FC6D70",
"v 	c #FF6C6E",
"w 	c #FF6E70",
"x 	c #FF7071",
"y 	c #FF7072",
"z 	c #FF7073",
"A 	c #FD7174",
"B 	c #FF7174",
"C 	c #FE7275",
"D 	c #FC7376",
"E 	c #FF7274",
"F 	c #FD7477",
"G 	c #FF7476",
"H 	c #FE7679",
"I 	c #FF7679",
"J 	c #FF7779",
"K 	c #FF777A",
"L 	c #FD797C",
"M 	c #FF797B",
"N 	c #FF797C",
"O 	c #FF797D",
"P 	c #FE7A7D",
"Q 	c #FF7A7D",
"R 	c #FF7B7E",
"S 	c #FF7C7E",
"T 	c #FE7E81",
"U 	c #FF7E80",
"V 	c #FF7E81",
"W 	c #FF8286",
"X 	c #FF878A",
"Y 	c #F78C8E",
"Z 	c #F8AFB0",
"` 	c #FCB8B8",
" .	c #F8C5C6",
"..	c #FACECE",
"+.	c #FBD0D1",
"@.	c #FCD3D3",
"#.	c #FDD6D7",
"$.	c #FAD9DA",
"%.	c #FBDBDB",
"&.	c #FBDCDC",
"*.	c #FCDEDE",
"=.	c #FDE2E3",
"-.	c #FDE3E3",
";.	c #FDE3E4",
">.	c #FEE4E4",
",.	c #FEE4E5",
"'.	c #FEE6E6",
").	c #FFE7E7",
"!.	c #FFE8E8",
"~.	c #FFEEEE",
"                                ",
"      ~.!.            ,.` #.    ",
"    ~.K H ).        >.f n Y =.  ",
"  ~.K V T A '.    >.e s S e Z   ",
"    C P X L p ,.>.b r Q d ]     ",
"      u F W D h a q M a {       ",
"        m t U R N J 0 )         ",
"          7 O c 9 G '           ",
"        ;.8 I 6 2 y ~ *.        ",
"      -.5 l E z w v [ & &.      ",
"    -.4 j B 1 , * _ o : % %.    ",
"  -.3 i x | >     $ ! k ^ @ $.  ",
"  @.} g < ;         + - / #  .  ",
"    +.( =             . #  .    ",
"      ..                 .      ",
"                                "};
