/* XPM */
static char * callstack_xpm[] = {
"16 16 13 1",
" 	c None",
".	c #3600FF",
"+	c #7C6B3C",
"@	c #8A7743",
"#	c #B8A05C",
"$	c #62593F",
"%	c #FFECB7",
"&	c #E6D5A5",
"*	c #938560",
"=	c #BFB59B",
"-	c #C0C0C0",
";	c #FFFFFF",
">	c #000000",
"===========     ",
"=*>>******$     ",
"=>>*******$     ",
"=*>>******$     ",
"=*&&&&&&&&&&&   ",
"=*&#>>######+   ",
"=*&>>#######+   ",
"=$&#>>######+   ",
"  &#%%%%%%%%%%% ",
"  &#%;..;;;;;;@ ",
"  &#%..;;;;;;;@ ",
"  &+%;..;;;;;;@ ",
"    %;;;;;;..;@ ",
"    %;;;;;;;..@ ",
"    %;;;;;;..;@ ",
"    %@@@@@@@@@@ "};
