/* XPM */
static char * menu_stepover_xpm[] = {
"16 16 5 1",
" 	c None",
".	c #000000",
"+	c #000083",
"@	c #FFFFFF",
"#	c #838583",
"     .  .       ",
"  .        .    ",
"                ",
".            .  ",
"                ",
"           .....",
"            ... ",
"             .  ",
"    +++++++     ",
"    +@@@@@+#    ",
"    +@@@@@+#    ",
"    +@@@@@+#    ",
"    +@@@@@+#    ",
"    +@@@@@+#    ",
"    +++++++#    ",
"     #######    "};
