/* XPM */
static char * node_modified_xpm[] = {
"13 14 13 1",
" 	c None",
".	c #FFFFFF",
"+	c #909290",
"@	c #848684",
"#	c #FFFF00",
"$	c #C6C7C6",
"%	c #000000",
"&	c #888B88",
"*	c #2A00FD",
"=	c #FDFEFD",
"-	c #8B8E8B",
";	c #FDFDFD",
">	c #FEFEFE",
".............",
".+@@@@@@@....",
".+#.#.#.$@...",
".+.#.#.#$.@..",
".+#.#.#.%%%%.",
".&.******#$%.",
"=-#******.$%.",
";+.*.**#*#$%.",
";+#.#**.#.$%.",
";+.#.**#.#$%.",
">+#.****#.$%.",
";+$$$$$$$$$%.",
">%%%%%%%%%%%.",
">............"};
