/* XPM */
static char * node_new_xpm[] = {
"13 14 12 1",
" 	c None",
".	c #FFFFFF",
"+	c #909290",
"@	c #848684",
"#	c #FFFF00",
"$	c #C6C7C6",
"%	c #000000",
"&	c #888B88",
"*	c #FDFEFD",
"=	c #8B8E8B",
"-	c #FDFDFD",
";	c #FEFEFE",
".............",
".+@@@@@@@....",
".+#.#.#.$@...",
".+.#.#.#$.@..",
".+#.#.#.%%%%.",
".&.#.#.#.#$%.",
"*=#.#.#.#.$%.",
"-+.#.#.#.#$%.",
"-+#.#.#.#.$%.",
"-+.#.#.#.#$%.",
";+#.#.#.#.$%.",
"-+$$$$$$$$$%.",
";%%%%%%%%%%%.",
";............"};
