/* XPM */
static char *tdbf[]={
"22 23 51 1",
"a c #000000",
"t c #000008",
"s c #000010",
"b c #000400",
"c c #000408",
"u c #000410",
"J c #000800",
"v c #000810",
"K c #000c00",
"# c #080408",
"V c #080800",
"T c #080808",
"r c #080c00",
"E c #0861a4",
"H c #296929",
"i c #bdbebd",
"n c #bdbec5",
"O c #bdbecd",
"I c #bdc2c5",
"M c #bdc2cd",
"q c #c5c2bd",
"f c #c5c2c5",
"o c #c5c2cd",
"d c #c5c6c5",
"h c #c5c6cd",
"S c #c5c6d5",
"p c #c5cabd",
"U c #c5cad5",
"m c #c5ceb4",
"w c #c5cec5",
"j c #cdc6cd",
"k c #cdcacd",
"g c #cdcad5",
"l c #cdceb4",
"G c #cdcec5",
"e c #cdcecd",
"Q c #e6eeff",
"R c #eee6ff",
"D c #eeeaff",
"A c #eeeeff",
"N c #eef6ff",
"y c #f6f2ff",
"C c #f6f6ee",
"B c #f6f6ff",
"z c #f6faff",
"P c #f6ffff",
"F c #fff2ff",
"L c #fff6ff",
"W c #fffaf6",
"x c #fffaff",
". c #ffffff",
".#aaaaaaabaaabacaabaa.",
".adbefghhiejklmnoplqa.",
".braassstabaaabuvtabb.",
".awa.xyx..ky.z.ABxy.a.",
".aCb.xxDx.d.yEEEEEF.b.",
".aGb.EEEH.I.EEEEEEE.a.",
".JCK.ByLL.M.EENzLEE.a.",
".awazEEEE.O..PPQEEEBJ.",
".a.c.xRLAxS..BzEEEB.a.",
".TdazEEEE.UBz.EEExx.a.",
".a.c.xxAL.o...EExA..a.",
".Vda.EEEEBh.yyEEx...a.",
".azc..B...nW.xBx.B.xa.",
".aea.x.B.xk.xxEE...xc.",
".aaTaaactttts.EE.caac.",
"......................",
".EEEEE.EEE..EEE..EEEE.",
"...E...E..E.E..E.E....",
"...E...E..E.EEE..EEE..",
"...E...E..E.E..E.E....",
"...E...E..E.E..E.E....",
"...E...EEE..EEE..E....",
"......................"};
