/* XPM */
static char *TlrAddFunctionLibrary[]={
"24 24 10 1",
". c None",
"a c #000000",
"d c #000080",
"c c #0000ff",
"g c #008000",
"h c #00ff00",
"f c #800000",
"b c #808080",
"e c #ff0000",
"# c #ffffff",
"........................",
"..#aa##aaa##aaa######...",
"..a##a#a##a#a##a#####...",
"..aaaa#a##a#a##a#####...",
"..a##a#a##a#a##a#####...",
"..a##a#aaa##aaa######...",
"..###################...",
"..aaa#a##a#a###a##aaa...",
"..a###a##a#aa##a#a###...",
"..aaa#a##a#a#a#a#a###...",
"..a###a##a#a##aa#a###b..",
"..a###aaaa#a###a##aaab..",
"..##############ccccab..",
"..#bbbb#b#######ccccab..",
"..##########bb#dccccab..",
"..#dddd#bef#####cccabb..",
"..#######eeff###aggg....",
"..#######eeffff#bhhgg...",
"...aaaaaaeeefffghhgggg..",
".........eeeeaaghgggga..",
".........eeeabbggggggab.",
".........eaabbb.ggggaab.",
"...........bbb..baaabbb.",
"............b....bbbb..."};
