/* XPM */
static char * postgresql_0_2_23x23_xpm[] = {
"23 23 142 2",
"  	c None",
". 	c #000000",
"+ 	c #030303",
"@ 	c #050505",
"# 	c #091012",
"$ 	c #091113",
"% 	c #171717",
"& 	c #2A2A2A",
"* 	c #656565",
"= 	c #7A7D7F",
"- 	c #404B4F",
"; 	c #181818",
"> 	c #060606",
", 	c #111111",
"' 	c #3D3D3D",
") 	c #747474",
"! 	c #818181",
"~ 	c #464646",
"{ 	c #1D1D1D",
"] 	c #0E0E0E",
"^ 	c #4D4D4D",
"/ 	c #7E7E7E",
"( 	c #868686",
"_ 	c #434343",
": 	c #1A1A1A",
"< 	c #040404",
"[ 	c #8C8C8C",
"} 	c #B2B2B2",
"| 	c #B0B0B0",
"1 	c #2F2F2F",
"2 	c #696969",
"3 	c #ADADAD",
"4 	c #A7A7A7",
"5 	c #757575",
"6 	c #3B3B3B",
"7 	c #727272",
"8 	c #1F1F1F",
"9 	c #0B1A20",
"0 	c #9C9C9C",
"a 	c #5B5B5B",
"b 	c #ACACAC",
"c 	c #8D8D8D",
"d 	c #767676",
"e 	c #A8A8A8",
"f 	c #797979",
"g 	c #070A0B",
"h 	c #878787",
"i 	c #B1B1B1",
"j 	c #848484",
"k 	c #999999",
"l 	c #AEAEAE",
"m 	c #AFAFAF",
"n 	c #858585",
"o 	c #2D2D2D",
"p 	c #7E7F7F",
"q 	c #787878",
"r 	c #272727",
"s 	c #808080",
"t 	c #989898",
"u 	c #909090",
"v 	c #616161",
"w 	c #121212",
"x 	c #4A4E4F",
"y 	c #A7A8A8",
"z 	c #070B0B",
"A 	c #7A7A7A",
"B 	c #2C2C2C",
"C 	c #202020",
"D 	c #3C3C3C",
"E 	c #404040",
"F 	c #090909",
"G 	c #0A0A0A",
"H 	c #27292A",
"I 	c #A1A2A2",
"J 	c #080C0E",
"K 	c #0F1A1D",
"L 	c #212121",
"M 	c #626262",
"N 	c #6D6D6D",
"O 	c #292929",
"P 	c #383838",
"Q 	c #5A5A5A",
"R 	c #484848",
"S 	c #565656",
"T 	c #8E8E8E",
"U 	c #A1A1A1",
"V 	c #6E6E6E",
"W 	c #6B6B6B",
"X 	c #7F7F7F",
"Y 	c #828282",
"Z 	c #9D9D9D",
"` 	c #1C1C1C",
" .	c #5A5C5D",
"..	c #959798",
"+.	c #9A9A9A",
"@.	c #A1A3A3",
"#.	c #626769",
"$.	c #5D6062",
"%.	c #A1A4A5",
"&.	c #525252",
"*.	c #515151",
"=.	c #454545",
"-.	c #6F6F6F",
";.	c #A4A6A7",
">.	c #606567",
",.	c #4E4E4E",
"'.	c #A6A6A6",
").	c #A2A2A2",
"!.	c #838383",
"~.	c #373737",
"{.	c #303030",
"].	c #414141",
"^.	c #A9A9A9",
"/.	c #505050",
"(.	c #020202",
"_.	c #131313",
":.	c #545454",
"<.	c #3F3F3F",
"[.	c #1E1E1E",
"}.	c #5F5F5F",
"|.	c #A4A4A4",
"1.	c #343434",
"2.	c #0B0B0B",
"3.	c #4C4C4C",
"4.	c #FFFFFF",
"5.	c #929292",
"6.	c #0F0F0F",
"7.	c #0B0B0C",
"8.	c #171B1C",
"9.	c #161616",
"0.	c #010405",
"a.	c #2A2C2D",
"b.	c #363636",
"c.	c #3A3A3A",
"d.	c #4F4F4F",
"e.	c #4A4A4A",
"f.	c #919191",
"g.	c #282828",
"h.	c #676767",
"i.	c #1D2628",
"j.	c #646B6D",
"k.	c #070C0E",
"                              . + @ # $       ",
"    % & * = - ; > , ' ) ! ~ { ] ^ / ( _ : <   ",
"  : [ } } } | / 1 2 3 } } } 4 5 6 7 4 } [ 8 9 ",
"< _ } } } } 0 a 2 b } } } } } } c ~ d e } f g ",
"@ h } } } i j ~ k l i } } } } } m n o p l h @ ",
"@ h } } } | q r 5 s t b } } } i u v w x y h > ",
"z h } } } | A ; B C D ( } } } 0 E F G H I A J ",
"K ! } } } | n _ v E L M } } } N C O P Q e R   ",
"  S } } } | T N 3 U V W e } } N P X a Y Z `   ",
"  L } } } 3 n N } } X  ...} } h D / a Y 7 w   ",
"  { +.} } @.#.N } b V $.%.} } l &.*.* s =.    ",
"    -.} } ;.>.,.'.).Q 2 } } } } !.~.{.D `     ",
"    ].^.} i ( 6 A n /./ } } } } M % (..       ",
"    _.:.} i T <.R D [.}.|.} } } 1.. . .       ",
"      2._ 3./.O ' /.4.( 5.} } } 1.. . . .     ",
"          8 6.7.8.4.4.2 T } } } 1.4.4.4.9.    ",
"                0.a.b.c.T } } } d d.e.e.,     ",
"                      c.T } } } f.L           ",
"                      ' T } } } f.L           ",
"                      Q T } } } f.L           ",
"                      g.h.^.} } E <           ",
"                        i.j.h   >             ",
"                          k.>                 "};
