/* XPM */
static char *tsqlite3conn[]={
"24 24 203 2",
".d c None",
"b. c None",
"Qt c None",
"#i c #737373",
"#h c #7b7b7b",
".y c #989898",
".m c #9e9e9e",
".# c #bebebe",
"#y c #383838",
"aT c #3e3e3e",
"#z c #505050",
".c c #585858",
".N c #656565",
"aw c #6e6e6e",
".l c #7e7e7e",
".n c #3c3c3c",
".b c #454545",
".a c #545454",
"#5 c #212121",
".3 c #282828",
"bi c #2c2c2c",
"a3 c #323232",
".e c #7a7d7c",
"bd c #1e1e1e",
"#P c #212121",
"bh c #232323",
".z c #303030",
"aU c #676d6b",
"aJ c #6b706e",
".k c #171717",
"aj c #101010",
"aI c #2b2b2b",
".A c #3d3e3e",
"a9 c #181818",
"#j c #6b716f",
"#g c #0e0e0e",
".2 c #0f0f0f",
".o c #313131",
"ai c #090909",
".x c #5f6664",
"#x c #080808",
"aS c #070707",
"#A c #606765",
"aH c #2c2e2d",
"a2 c #101111",
".f c #788883",
".M c #303433",
".O c #73827e",
"#Q c #818e8a",
"#f c #2f3332",
"av c #333535",
"#9 c #545f5b",
".j c #5e6966",
"ax c #5e6e68",
".J c #3b3e3d",
"be c #5d6965",
"#t c #505b57",
"a4 c #869792",
".p c #4f5654",
"a0 c #353736",
"#O c #171a19",
"#6 c #626d6a",
".B c #75827f",
".G c #3b413e",
"aG c #373e3b",
"aK c #7f8f8a",
"aq c #2e3331",
".w c #68716e",
".8 c #46504d",
"a1 c #242626",
".4 c #70837c",
"#B c #7c8f89",
".H c #545a58",
"#k c #768b85",
"aV c #859791",
"bg c #202423",
"bc c #0b0c0b",
"#4 c #3d4342",
"ac c #1c1d1d",
"aZ c #1d2220",
".v c #696c6c",
".i c #748982",
".g c #778f88",
"ah c #151616",
".I c #5d605f",
"#p c #5e6e69",
"ad c #636e6b",
"a8 c #282d2c",
".K c #64726e",
".h c #6f8a82",
"b# c #808b88",
"aR c #151717",
"#w c #1f2120",
".1 c #3c4542",
"ak c #515c58",
"ar c #7d8f89",
"#b c #49514e",
".P c #7e9890",
"#L c #757c7a",
".Q c #5d6966",
"#0 c #3e4644",
"#e c #3a413f",
"#8 c #4a5450",
"aC c #677772",
"## c #2d3131",
"#a c #3d4442",
".Y c #5c6562",
"aF c #3a413f",
"#C c #7d928b",
".7 c #38403d",
".X c #585f5d",
".Z c #606c68",
"bf c #54635e",
".W c #545d5a",
"#u c #70827d",
"aB c #2e3432",
"#s c #373e3c",
".R c #5e6865",
"#l c #72807b",
"ap c #414b47",
"#F c #515a57",
"#o c #3b4441",
".C c #6e7e79",
"#N c #454f4c",
".F c #4b5753",
"#T c #3a4340",
"#V c #414a47",
"ag c #3f4644",
".q c #677671",
".u c #57615e",
".L c #5c6764",
"a. c #63736e",
"au c #484e4c",
"#c c #687974",
"#W c #748b84",
"#M c #6f7c78",
"ab c #4e5a56",
"#d c #4d5754",
".V c #56615d",
".0 c #5d6a66",
"#q c #778b85",
"#Z c #515a57",
"aD c #7a928b",
"#R c #748b84",
"#K c #4f5653",
"aE c #4e5a56",
"#S c #54605d",
".t c #5b6562",
"al c #6c7c77",
"aQ c #5d6e68",
"#E c #5d6f69",
"#1 c #768681",
"#v c #62736e",
".s c #55625e",
"#m c #5a6461",
"ay c #90a59f",
".5 c #89a79e",
".9 c #61706c",
"#H c #7d908a",
"aW c #b9c9c4",
".S c #5c6b66",
"am c #879b95",
"a5 c #bbcac6",
"aY c #687a74",
"aO c #74857f",
"aP c #72857f",
".r c #5b6b66",
"#7 c #687b75",
"ae c #7b918a",
"aL c #a7bcb6",
"as c #7c8c87",
"bb c #71837d",
"aN c #5d6c68",
"a7 c #6d807a",
"at c #55605c",
".U c #576661",
"#3 c #7a9089",
".D c #859d96",
"#D c #879e98",
"#2 c #8da9a0",
"#. c #616d69",
"#r c #6a7b76",
".6 c #6b837b",
"ao c #7b8f88",
"#U c #72867f",
"aA c #71827d",
"#J c #5e6c68",
"af c #6c7e78",
"#I c #9db3ac",
"#G c #6c7d78",
"#n c #6b817b",
"#Y c #82948f",
"a# c #8da59d",
"an c #9db5ad",
"aa c #93a9a1",
".T c #677a74",
".E c #7f9a91",
"ba c #a5b9b3",
"aM c #a8bdb7",
"a6 c #ccdbd6",
"#X c #9ab1aa",
"az c #a6bfb8",
"aX c #bacbc6",
"QtQtQtQtQtQtQtQtQtQtQtQtQtQtQtQtQtQtQtQtQtQtQtQt",
"QtQtQtQtQtQtQtQtQtQtQtQtQtQtQtQtQtQtQtQtQtQtQtQt",
"QtQtQtQtQtQtQtQtQtQtQtQtQtQtQtQtQtQtQtQtQtQtQtQt",
"QtQtQtQtQtQtQtQtQtQtQtQtQtQtQtQt.#.a.b.c.dQtQtQt",
"QtQtQtQtQtQtQtQtQtQtQtQtQtQtQt.e.f.g.h.i.j.k.l.m",
"QtQtQtQtQtQtQtQtQtQtQtQtQt.n.o.p.q.r.s.t.u.v.w.x",
"QtQtQtQtQtQtQtQtQt.y.z.A.B.C.D.E.F.G.H.I.J.K.L.M",
"QtQtQtQtQtQtQtQt.N.O.P.Q.R.S.T.U.V.W.X.Y.Z.0.1.2",
"QtQtQtQtQtQtQt.3.4.5.6.7.8.9#.###a#b#c#d#e#f#g#h",
"QtQtQtQt#i#j#k#l#m#n#o#p#q#r#s#t#u#v#w#x#yQtQtQt",
"QtQt#z#A#B#C#D#E#F#G#H#I#J#K#L#M#N#O#PQtQtQtQtQt",
"QtQt#Q#R#S#T#U#V#W#X#Y#Z#0#1#2#3#4#5QtQtQtQtQtQt",
"QtQt#6#7#8#9a.a#aaabacadaeafagahai.mQtQtQtQtQtQt",
"QtQtajakalamanaoapaqarasatauavawQtQtQtQtQtQtQtQt",
"QtQtQtaxayazaAaBaCaDaEaFaGaHaIQtQtQtQtQtQtQtQtQt",
"QtaJaKaLaMaNaOaPaQaRaSaTQtQtQtQtQtQtQtQtQtQtQtQt",
"aUaVaWaXaYaZa0a1a2a3QtQtQtQtQtQtQtQtQtQtQtQtQtQt",
"a4a5a6a7a8a9.y.yb.QtQtQtQtQtQtQtQtQtQtQtQtQtQtQt",
"b#babbbcbdQtQtQtQtQtQtQtQtQtQtQtQtQtQtQtQtQtQtQt",
"bebfbg#PQtQtQtQtQtQtQtQtQtQtQtQtQtQtQtQtQtQtQtQt",
"bh#gbiQtQtQtQtQtQtQtQtQtQtQtQtQtQtQtQtQtQtQtQtQt",
"QtQtQtQtQtQtQtQtQtQtQtQtQtQtQtQtQtQtQtQtQtQtQtQt",
"QtQtQtQtQtQtQtQtQtQtQtQtQtQtQtQtQtQtQtQtQtQtQtQt",
"QtQtQtQtQtQtQtQtQtQtQtQtQtQtQtQtQtQtQtQtQtQtQtQt"};
