/* XPM */
static char * sqlquery_0_1_23x23_xpm[] = {
"23 23 4 1",
" 	c None",
".	c #000000",
"+	c #00D6FF",
"@	c #5EDA63",
"  ...  ...  .    .     ",
" .+++..+++..+.  .+.    ",
".+....+...+.+.   .+.   ",
".+.  .+. .+.+.    .+.  ",
".+.. .+. .+.+.     .+. ",
" .++..+. .+.+.      .+.",
"  ..+.+...+.+.     .+. ",
"   .+.+.+.+.+.    .+.  ",
" ...+.+..+..+... .+.   ",
".+++. ........++.+.    ",
" ...  .@@@@@@@.. .     ",
"      .@@@@@@@.        ",
"       ....@@@.        ",
"          .@@@.        ",
"         .@@@@.        ",
"        .@@@@.         ",
"        .@@@.          ",
"        .@@@.          ",
"        .@@.           ",
"         ..            ",
"        .@@.           ",
"        .@@.           ",
"         ..            "};
