/* XPM */
static char *tsqlscript[]={
"24 24 8 1",
"# c None",
". c #000000",
"b c #000040",
"d c #00c000",
"e c #00c0c0",
"c c #303030",
"a c #c00000",
"f c #ffff00",
"........................",
".######################.",
".#aaaaaaaaaaaaaaaaaaa##.",
".######################.",
".#bbbbbbbbbbbbbbbb#####.",
".######################.",
".#cccccccccccccccccc###.",
".######################.",
".#dddddddddddddd#######.",
".######################.",
".#eeeeeeeeeeeeeeeeee###.",
".###ff####ffff##ff#####.",
".#afffffaffffff#ff#####.",
".#ff##ff#ff##ff#ff#####.",
".#ffaaaaaffa#ffaffaaaa#.",
".#ff#####ff##ff#ff#####.",
".#affffaaffaaffaffaa###.",
".#####ff#ff##ff#ff#####.",
".#f...ff.ffffff.ff#####.",
".#ffffff#ffffff#fffff##.",
".#fffff.....ff..fffff##.",
".###########ff#########.",
".######################.",
"........................"};
