/* XPM */
static char * tfpdbfexport_xpm[] = {
"22 23 46 1",
" 	c None",
".	c #080408",
"+	c #000000",
"@	c #000400",
"#	c #000408",
"$	c #C5C6C5",
"%	c #CDCECD",
"&	c #C5C2C5",
"*	c #CDCAD5",
"=	c #C5C6CD",
"-	c #BDBEBD",
";	c #CDC6CD",
">	c #CDCACD",
",	c #CDCEB4",
"'	c #C5CEB4",
")	c #BDBEC5",
"!	c #C5C2CD",
"~	c #C5CABD",
"{	c #C5C2BD",
"]	c #080C00",
"^	c #000010",
"/	c #000008",
"(	c #000410",
"_	c #000810",
":	c #C5CEC5",
"<	c #FFFFFF",
"[	c #FFFAFF",
"}	c #F6F2FF",
"|	c #296929",
"1	c #F6F6EE",
"2	c #EEEAFF",
"3	c #DE1C10",
"4	c #CDCEC5",
"5	c #C5CAD5",
"6	c #000800",
"7	c #000C00",
"8	c #F6F6FF",
"9	c #FFF6FF",
"0	c #F6FAFF",
"a	c #F6FFFF",
"b	c #EEE6FF",
"c	c #EEEEFF",
"d	c #C5C6D5",
"e	c #080808",
"f	c #080800",
"g	c #FFFAF6",
" .+++++++@+++@+#++@++ ",
" +$@%&*==-%;>,')!~,{+ ",
" @]++^^^/+@+++@(_/+@@ ",
" +:+<[}[<<>||||||||<+ ",
" +1@<[[2[<$|333333|<@ ",
" +4@<||||<5|333333|<+ ",
" 617<8}99<5|||||33|<+ ",
" +:+0||||<5<<aa|33|86 ",
" +<#<[b9c[d<<8<|33|<+ ",
" e$+0||||<580<<|33|<+ ",
" +<#<[[c9<!<||||||||||",
" f$+<||||8=<}|333333| ",
" +0#<<8<<<)g<[|3333|+ ",
" +%+<[<8<[><[<<|33|[# ",
" ++e+++#////++++||++# ",
"                      ",
"    333  333  3333    ",
"    3  3 3 3  3       ",
"    3  3 3333 333     ",
"    3  3 3  3 3       ",
"    3  3 3  3 3       ",
"    333  3333 3       ",
"                      "};
