/* XPM */
static char * execute_xpm[] = {
"16 16 257 2",
"  	c None",
". 	c #B57B4A",
"+ 	c #C66B29",
"@ 	c #C67B52",
"# 	c #D66B18",
"$ 	c #D68C52",
"% 	c #D69431",
"& 	c #E77B39",
"* 	c #E78452",
"= 	c #EF7B10",
"- 	c #EF7B31",
"; 	c #EF8410",
"> 	c #EFAD29",
", 	c #EFAD39",
"' 	c #EFB510",
") 	c #EFBD08",
"! 	c #F77300",
"~ 	c #F77318",
"{ 	c #F77329",
"] 	c #F78408",
"^ 	c #F79408",
"/ 	c #F7A518",
"( 	c #F7CE00",
"_ 	c #F7DE18",
": 	c #F7DE63",
"< 	c #FF00FF",
"[ 	c #FF7300",
"} 	c #FF7B00",
"| 	c #FF8400",
"1 	c #FF8C00",
"2 	c #FF9400",
"3 	c #FF9C00",
"4 	c #FFA500",
"5 	c #FFA510",
"6 	c #FFA539",
"7 	c #FFA552",
"8 	c #FFA55A",
"9 	c #FFAD00",
"0 	c #FFAD29",
"a 	c #FFAD31",
"b 	c #FFB500",
"c 	c #FFB56B",
"d 	c #FFB584",
"e 	c #FFBD00",
"f 	c #FFBD08",
"g 	c #FFBD10",
"h 	c #FFC600",
"i 	c #FFC608",
"j 	c #FFC66B",
"k 	c #FFCE00",
"l 	c #FFCE18",
"m 	c #FFD600",
"n 	c #FFD608",
"o 	c #FFD610",
"p 	c #FFD621",
"q 	c #FFD631",
"r 	c #FFDE00",
"s 	c #FFDE18",
"t 	c #FFDE29",
"u 	c #FFDE42",
"v 	c #FFE700",
"w 	c #FFE710",
"x 	c #FFE718",
"y 	c #FFE739",
"z 	c #FFEF00",
"A 	c #FFEF18",
"B 	c #FFEF39",
"C 	c #FFEF4A",
"D 	c #FFF700",
"E 	c #FFF708",
"F 	c #FFF729",
"G 	c #FFF731",
"H 	c #FFF742",
"I 	c #FFF74A",
"J 	c #FFF75A",
"K 	c #FFFF00",
"L 	c #FFFF08",
"M 	c #FFFF18",
"N 	c #FFFF21",
"O 	c #FFFF31",
"P 	c #FFFF39",
"Q 	c #FFFFFF",
"R 	c #FFFFFF",
"S 	c #FFFFFF",
"T 	c #FFFFFF",
"U 	c #FFFFFF",
"V 	c #FFFFFF",
"W 	c #FFFFFF",
"X 	c #FFFFFF",
"Y 	c #FFFFFF",
"Z 	c #FFFFFF",
"` 	c #FFFFFF",
" .	c #FFFFFF",
"..	c #FFFFFF",
"+.	c #FFFFFF",
"@.	c #FFFFFF",
"#.	c #FFFFFF",
"$.	c #FFFFFF",
"%.	c #FFFFFF",
"&.	c #FFFFFF",
"*.	c #FFFFFF",
"=.	c #FFFFFF",
"-.	c #FFFFFF",
";.	c #FFFFFF",
">.	c #FFFFFF",
",.	c #FFFFFF",
"'.	c #FFFFFF",
").	c #FFFFFF",
"!.	c #FFFFFF",
"~.	c #FFFFFF",
"{.	c #FFFFFF",
"].	c #FFFFFF",
"^.	c #FFFFFF",
"/.	c #FFFFFF",
"(.	c #FFFFFF",
"_.	c #FFFFFF",
":.	c #FFFFFF",
"<.	c #FFFFFF",
"[.	c #FFFFFF",
"}.	c #FFFFFF",
"|.	c #FFFFFF",
"1.	c #FFFFFF",
"2.	c #FFFFFF",
"3.	c #FFFFFF",
"4.	c #FFFFFF",
"5.	c #FFFFFF",
"6.	c #FFFFFF",
"7.	c #FFFFFF",
"8.	c #FFFFFF",
"9.	c #FFFFFF",
"0.	c #FFFFFF",
"a.	c #FFFFFF",
"b.	c #FFFFFF",
"c.	c #FFFFFF",
"d.	c #FFFFFF",
"e.	c #FFFFFF",
"f.	c #FFFFFF",
"g.	c #FFFFFF",
"h.	c #FFFFFF",
"i.	c #FFFFFF",
"j.	c #FFFFFF",
"k.	c #FFFFFF",
"l.	c #FFFFFF",
"m.	c #FFFFFF",
"n.	c #FFFFFF",
"o.	c #FFFFFF",
"p.	c #FFFFFF",
"q.	c #FFFFFF",
"r.	c #FFFFFF",
"s.	c #FFFFFF",
"t.	c #FFFFFF",
"u.	c #FFFFFF",
"v.	c #FFFFFF",
"w.	c #FFFFFF",
"x.	c #FFFFFF",
"y.	c #FFFFFF",
"z.	c #FFFFFF",
"A.	c #FFFFFF",
"B.	c #FFFFFF",
"C.	c #FFFFFF",
"D.	c #FFFFFF",
"E.	c #FFFFFF",
"F.	c #FFFFFF",
"G.	c #FFFFFF",
"H.	c #FFFFFF",
"I.	c #FFFFFF",
"J.	c #FFFFFF",
"K.	c #FFFFFF",
"L.	c #FFFFFF",
"M.	c #FFFFFF",
"N.	c #FFFFFF",
"O.	c #FFFFFF",
"P.	c #FFFFFF",
"Q.	c #FFFFFF",
"R.	c #FFFFFF",
"S.	c #FFFFFF",
"T.	c #FFFFFF",
"U.	c #FFFFFF",
"V.	c #FFFFFF",
"W.	c #FFFFFF",
"X.	c #FFFFFF",
"Y.	c #FFFFFF",
"Z.	c #FFFFFF",
"`.	c #FFFFFF",
" +	c #FFFFFF",
".+	c #FFFFFF",
"++	c #FFFFFF",
"@+	c #FFFFFF",
"#+	c #FFFFFF",
"$+	c #FFFFFF",
"%+	c #FFFFFF",
"&+	c #FFFFFF",
"*+	c #FFFFFF",
"=+	c #FFFFFF",
"-+	c #FFFFFF",
";+	c #FFFFFF",
">+	c #FFFFFF",
",+	c #FFFFFF",
"'+	c #FFFFFF",
")+	c #FFFFFF",
"!+	c #FFFFFF",
"~+	c #FFFFFF",
"{+	c #FFFFFF",
"]+	c #FFFFFF",
"^+	c #FFFFFF",
"/+	c #FFFFFF",
"(+	c #FFFFFF",
"_+	c #FFFFFF",
":+	c #FFFFFF",
"<+	c #FFFFFF",
"[+	c #FFFFFF",
"}+	c #FFFFFF",
"|+	c #FFFFFF",
"1+	c #FFFFFF",
"2+	c #FFFFFF",
"3+	c #FFFFFF",
"4+	c #FFFFFF",
"5+	c #FFFFFF",
"6+	c #FFFFFF",
"7+	c #FFFFFF",
"8+	c #FFFFFF",
"9+	c #FFFFFF",
"0+	c #FFFFFF",
"a+	c #FFFFFF",
"b+	c #FFFFFF",
"c+	c #FFFFFF",
"d+	c #FFFFFF",
"e+	c #FFFFFF",
"f+	c #FFFFFF",
"g+	c #FFFFFF",
"h+	c #FFFFFF",
"i+	c #FFFFFF",
"j+	c #FFFFFF",
"k+	c #FFFFFF",
"l+	c #FFFFFF",
"m+	c #FFFFFF",
"n+	c #FFFFFF",
"o+	c #FFFFFF",
"p+	c #FFFFFF",
"q+	c #FFFFFF",
"r+	c #FFFFFF",
"s+	c #FFFFFF",
"t+	c #FFFFFF",
"u+	c #FFFFFF",
"v+	c #FFFFFF",
"w+	c #FFFFFF",
"x+	c #FFFFFF",
"y+	c #FFFFFF",
"z+	c #FFFFFF",
"A+	c #FFFFFF",
"B+	c #FFFFFF",
"C+	c #FFFFFF",
"D+	c #FFFFFF",
"E+	c #FFFFFF",
"F+	c #FFFFFF",
"G+	c #FFFFFF",
"H+	c #FFFFFF",
"                          q 7 @ ",
"                      q u o 8 @ ",
"                  q D z 9 4 @   ",
"              q E K D m b @     ",
"          i y C H M K K L N @   ",
"        6 h z D z r K K B i @   ",
"        0 h z D D K C l 4 @     ",
"        @ @ @ h L G g 9 @ @     ",
"              b f 9 3 @         ",
"            b i 3 3 @           ",
"          b 1 2 @ @             ",
"        3 1 1 @                 ",
"      & } ! @                   ",
"      - @ +                     ",
"      @                         ",
"                                "};
