/* XPM */
static char * firebird_0_2_23x23_xpm[] = {
"23 23 75 1",
" 	c None",
".	c #2B0000",
"+	c #780000",
"@	c #760000",
"#	c #3E0000",
"$	c #390000",
"%	c #700000",
"&	c #720000",
"*	c #0A0000",
"=	c #120100",
"-	c #250100",
";	c #580300",
">	c #560200",
",	c #380100",
"'	c #E6E900",
")	c #FCFF00",
"!	c #050000",
"~	c #500300",
"{	c #4F0300",
"]	c #4F0400",
"^	c #200200",
"/	c #1D0200",
"(	c #380400",
"_	c #390400",
":	c #300300",
"<	c #2E0300",
"[	c #340400",
"}	c #300400",
"|	c #1C0200",
"1	c #1A0300",
"2	c #160200",
"3	c #230400",
"4	c #1F0400",
"5	c #0B0100",
"6	c #190300",
"7	c #160400",
"8	c #000000",
"9	c #180500",
"0	c #020000",
"a	c #150400",
"b	c #130400",
"c	c #0D0200",
"d	c #070100",
"e	c #150500",
"f	c #060100",
"g	c #110400",
"h	c #0A0200",
"i	c #030000",
"j	c #0F0400",
"k	c #0A0300",
"l	c #070200",
"m	c #080200",
"n	c #060200",
"o	c #747500",
"p	c #140C00",
"q	c #191000",
"r	c #120C00",
"s	c #191100",
"t	c #070500",
"u	c #110C00",
"v	c #191200",
"w	c #171100",
"x	c #0C0A02",
"y	c #120E00",
"z	c #191300",
"A	c #181300",
"B	c #191500",
"C	c #070600",
"D	c #191600",
"E	c #040300",
"F	c #121000",
"G	c #0B0A00",
"H	c #060500",
"I	c #0A0900",
"J	c #030300",
"       .+@#$%&+.*      ",
"     =-;>,'')!~{]^     ",
"    /(_:)))))))<[}|    ",
"   1213))))))))))456   ",
"  7881)))999))))))08a  ",
" b88c)))c888de))))f88g ",
"h888)))i88j888j))))888h",
"k88)))888888888))))888l",
"888)))888888888m))))888",
"88))))))8888888n))))888",
"88))))))8888888n))))888",
"88)))))88888888)))))888",
"888)))888888888))))8888",
"888o)888888888))))88888",
"888p8888888888))8888888",
"888q88888888888888888r8",
"888s88888888888888888t ",
"u88v8888888888888888wx ",
" y8z8888888888888888t  ",
"  AB888888888888888C   ",
"   D88888888888888C    ",
"   EFG88888888888H     ",
"      I888888888J8     "};
