/* XPM */
static char *graphic[] = {
"23 23 36 1",
". c #C6C6C6",
", c #A5A5A5",
"- c #9F9F9F",
"* c #949494",
"a c #535353",
"b c #FFF7EF",
"c c #E7DED7",
"d c #CEC6BF",
"e c #2D2D2D",
"f c #9D9D9D",
"g c #000000",
"h c #0000FF",
"i c #CECEC6",
"j c #BDB7AF",
"k c #272727",
"l c #ADA79F",
"m c #252525",
"n c #4B4B4B",
"o c #EFEFEF",
"p c #D6D6D6",
"q c #C7C7C7",
"r c #BDBDBD",
"s c #5E5E5E",
"t c #424242",
"u c #232323",
"v c #212121",
"w c #0E0E0E",
"x c None",
"y c #FFFFFF",
"z c #3F3F3F",
"A c #F7F7F7",
"B c #B7B7B7",
"C c #EFEFE7",
"D c #393939",
"E c #636363",
"F c #3B3B3B",
".,-------------------*a",
",bcccccccccccccccccccde",
"fcghggiggiiggigiiiiiijk",
"fchghhigiigiigiiiiiiijk",
"*djjjjjjjjjjjjjjjjjjjlm",
"nopqqqqrstuuuuuuuuuuuvw",
"xpyyyyyytxxxxxxxxxxxxxx",
"xqygggyyzxxxxxxxxxxxxxx",
"xqyyyyyyzxxxxxxxxzzxxxx",
"xqyggggyzxxxxxxzzyyzxxx",
"xqyyyyyyzxxxxzzyyzzxxxx",
"xqygyygyzxxzzyyzzxxxxxx",
"xqyyyyyyzxzyyzzxxxxxxxx",
"xqAggygyzxxzzxxxxxxxxxx",
"xqyyyyyyzxzzzzzzzzzzzzz",
"xqygygyyzxzzzzzzzzzzzzz",
"xByyyyyCDxztyttyyttyytz",
"xEtzzzzFmxzyyttttytttyz",
"xxxxxxxxxxztyttttytyytz",
"xxxxxxxxxxztytttyttttyz",
"xxxxxxxxxxzyyytyyytyytz",
"xxxxxxxxxxzzzzzzzzzzzzz",
"xxxxxxxxxxzzzzzzzzzzzzz"}
