/* XPM */
static char *graphic[] = {
"23 23 49 1",
". c None",
", c #FFFFFF",
"- c #424242",
"* c #D6D6CE",
"a c #848484",
"b c #376FA5",
"c c #316794",
"d c #3F7FAF",
"e c #5B8CAF",
"f c #9EB7BF",
"g c #437FAF",
"h c #376F9F",
"i c #478CBF",
"j c #BFCEB5",
"k c #EFEF7F",
"l c #8DAFC6",
"m c #3D7FAD",
"n c #000000",
"o c #4E9CCF",
"p c #77ADCE",
"q c #BDCEB7",
"r c #5AA7CF",
"s c #4E9ECF",
"t c #53A78C",
"u c #56ADDF",
"v c #63BDD6",
"w c #7BD7AF",
"x c #63BD63",
"y c #5EBFEF",
"z c #67C6DF",
"A c #86DEC6",
"B c #94EF9D",
"C c #7BE77B",
"D c #4B9F4B",
"E c #295BF7",
"F c #3B6BDE",
"G c #5FAFA7",
"H c #6BD76B",
"I c #57B757",
"J c #337B33",
"K c #0021D6",
"L c #0429CF",
"M c #164BA5",
"N c #317B5B",
"O c #275E27",
"P c #003184",
"Q c #002F86",
"R c #02337B",
"S c #0A3B43",
".......................",
".......................",
".......................",
".......................",
",,,,,,,,,,,,,,,,,,,,,,-",
",********************a-",
",*bbbbbbbbc**********a-",
",*defgddddh**********a-",
",*ijkliiiim**nn**n*n*a-",
",*opqrooost*n**n*n*n*a-",
",*uuuuuuvwx*n**n*nn**a-",
",*yyyyzABCD*n**n*n*n*a-",
",*EEEEFGHIJ**nn**n*n*a-",
",*KKKKKLMNO**********a-",
",*PQQQQQQRS**********a-",
",********************a-",
",aaaaaaaaaaaaaaaaaaaaa-",
"-----------------------",
".......................",
".......................",
".......................",
".......................",
"......................."}
