/* XPM */
static char *graphic[] = {
"23 23 27 1",
". c None",
", c #FFFFFF",
"- c #424242",
"* c #D6D6CE",
"a c #848484",
"b c #D6CEC6",
"c c #565752",
"d c #4B4A47",
"e c #000000",
"f c #8F8C87",
"g c #635F5B",
"h c #77736F",
"i c #736F6B",
"j c #A7A59E",
"k c #5A5A57",
"l c #141413",
"m c #C7BDB7",
"n c #AFA7A5",
"o c #524E4B",
"p c #353533",
"q c #A59D97",
"r c #2B2B29",
"s c #96948E",
"t c #252523",
"u c #8C8685",
"v c #21211F",
"w c #7B7773",
".......................",
".......................",
".......................",
".......................",
",,,,,,,,,,,,,,,,,,,,,,-",
",********************a-",
",********************a-",
",****bcddcb*e**fg****a-",
",****gh**ig*e*jk*****a-",
",****lm**ml*enob*****a-",
",****e****e*epq******a-",
",****lm**ml*emrs*****a-",
",****gh**ig*e*mtu****a-",
",****bcddcb*e**mvw***a-",
",********************a-",
",********************a-",
",aaaaaaaaaaaaaaaaaaaaa-",
"-----------------------",
".......................",
".......................",
".......................",
".......................",
"......................."}
