/* XPM */
static char *graphic[] = {
"23 23 69 1",
". c None",
", c #9DFFFF",
"- c #84E7FF",
"* c #73DFFF",
"a c #6FD6FF",
"b c #6BCEFF",
"c c #67CEFF",
"d c #67CFFF",
"e c #5BC6FF",
"f c #4EBFF7",
"g c #33B7E7",
"h c #009DCE",
"i c #1AA7DF",
"j c #0D9FD6",
"k c #069FCE",
"l c #019DCE",
"m c #009CCF",
"n c #0097C6",
"o c #008CBF",
"p c #007FB7",
"q c #00679D",
"r c #000000",
"s c #059FCE",
"t c #0097CE",
"u c #0084B7",
"v c #0073A7",
"w c #006F9F",
"x c #006B9C",
"y c #006B9F",
"z c #00679E",
"A c #B7B7B7",
"B c #FFFFFF",
"C c #FFFFF7",
"D c #FFFFEF",
"E c #FFFFE7",
"F c #FFFFDF",
"G c #FFFFDE",
"H c #FFFFD6",
"I c #F7F7D7",
"J c #F7F7CF",
"K c #EFEFCF",
"L c #EFE7CF",
"M c #E7E7C7",
"N c #EFE7CE",
"O c #E7E7C6",
"P c #DFDEC6",
"Q c #DEDFBF",
"R c #DEDFC7",
"S c #DEDEBD",
"T c #DEDEBF",
"U c #D6D7BF",
"V c #DFDEBD",
"W c #D6D6BF",
"X c #D7CFB7",
"Y c #D6D6BD",
"Z c #CFCEB5",
"0 c #CECFB7",
"1 c #CECEB5",
"2 c #CEC7B5",
"3 c #CFCFB7",
"4 c #C6C7AF",
"5 c #F7F7D6",
"6 c #EFEFCE",
"7 c #DEDEC6",
"8 c #D7D6BF",
"9 c #D6D7BD",
"@ c #CFCFB5",
"# c #CEC6B5",
"; c #C6C7AD",
".......................",
",-*abbcccccccdddddefgh.",
"cgijkklllhhhhmmmmmnopqr",
"cgijsslllhhhhtttttnopqr",
"huvwxxyyyzzzzqqqqqqqqqr",
"ABBBBCCCDDDEEFGFHIJKLAr",
"ABBrrrrrrrrrrrrrrrrKMAr",
"ABBrBBBBBBBBBBBBBBrNMAr",
"ABBrBBBBBBBBBBBBBBrOOAr",
"ABCrrrrrrrrrrrrrrrrMPAr",
"ACCrBBrBBrBBrBBrBBrMQAr",
"ACCrBBrBBrBBrBBrBBrRSAr",
"ACCrrrrrrrrrrrrrrrrTUAr",
"ACCrBBrBBrBBrBBrBBrVWAr",
"ACDrBBrBBrBBrBBrBBrUXAr",
"ACDrrrrrrrrrrrrrBBrYZAr",
"ADDrBBrBBrBBrBBrBBrX0Ar",
"ADDrBBrBBrBBrBBrBBr12Ar",
"ADDrrrrrrrrrrrrrrrr34Ar",
"ADDEEFGGGI566MO789@#;Ar",
"AAAAAAAAAAAAAAAAAAAAAAr",
".rrrrrrrrrrrrrrrrrrrrrr",
"......................."}
