/* XPM */
static char * tchecklistbox_xpm[] = {
"20 19 238 2",
"  	c None",
". 	c #79797B",
"+ 	c #818085",
"@ 	c #7A797F",
"# 	c #848388",
"$ 	c #848587",
"% 	c #808183",
"& 	c #7C7C84",
"* 	c #7D7D89",
"= 	c #898795",
"- 	c #7A7987",
"; 	c #7A7A86",
"> 	c #82828A",
", 	c #828284",
"' 	c #858583",
") 	c #040500",
"! 	c #000100",
"~ 	c #090907",
"{ 	c #000002",
"] 	c #000005",
"^ 	c #0A0911",
"/ 	c #908F94",
"( 	c #FDFCFF",
"_ 	c #7A79A1",
": 	c #FEFEFF",
"< 	c #FBFDFF",
"[ 	c #F2F6FF",
"} 	c #FCFDFF",
"| 	c #FCFCFF",
"1 	c #F5F5FF",
"2 	c #FEFBFF",
"3 	c #FEFCFF",
"4 	c #FCFBFF",
"5 	c #F8F7FD",
"6 	c #FFFFFF",
"7 	c #FDFEF8",
"8 	c #FFFFFD",
"9 	c #C3C2C8",
"0 	c #7A7981",
"a 	c #4D4C4E",
"b 	c #0F1231",
"c 	c #05052B",
"d 	c #0D0C34",
"e 	c #0E0D37",
"f 	c #08062E",
"g 	c #0F0E2E",
"h 	c #080820",
"i 	c #F5F6FA",
"j 	c #050503",
"k 	c #FFFFFA",
"l 	c #7C7B77",
"m 	c #878586",
"n 	c #BEBCC1",
"o 	c #020005",
"p 	c #817F8A",
"q 	c #FFFDFF",
"r 	c #F5F3FF",
"s 	c #F9FBFF",
"t 	c #F5F7FF",
"u 	c #F2F3FF",
"v 	c #F9F8FF",
"w 	c #F4F3FF",
"x 	c #FBF8FF",
"y 	c #FBFAFF",
"z 	c #000000",
"A 	c #050400",
"B 	c #060503",
"C 	c #BBB9BC",
"D 	c #010002",
"E 	c #83818E",
"F 	c #FCF9FF",
"G 	c #030444",
"H 	c #151659",
"I 	c #000043",
"J 	c #131258",
"K 	c #040243",
"L 	c #030037",
"M 	c #F9F9FF",
"N 	c #FAFAFF",
"O 	c #020202",
"P 	c #C1C2BC",
"Q 	c #C9C8C3",
"R 	c #B7B6B2",
"S 	c #C2C0C1",
"T 	c #060405",
"U 	c #82828C",
"V 	c #FBFBFF",
"W 	c #EEF0FF",
"X 	c #F5F8FF",
"Y 	c #F7F6FF",
"Z 	c #F3F3FF",
"` 	c #F8F7FF",
" .	c #F9F7FF",
"..	c #F6F4FF",
"+.	c #FCFFFF",
"@.	c #010100",
"#.	c #010000",
"$.	c #7E8387",
"%.	c #02064F",
"&.	c #020650",
"*.	c #05084F",
"=.	c #040847",
"-.	c #050646",
";.	c #040349",
">.	c #0C0C42",
",.	c #FBFEFF",
"'.	c #000207",
").	c #FEFFFF",
"!.	c #BEC0BB",
"~.	c #FFFFF8",
"{.	c #BDBEB8",
"].	c #858994",
"^.	c #F8FCFF",
"/.	c #F7F9FF",
"(.	c #F3F5FF",
"_.	c #F2F4FF",
":.	c #F4F6FF",
"<.	c #F7F7FF",
"[.	c #F8F5FF",
"}.	c #F1F3FF",
"|.	c #FBFFFF",
"1.	c #00000B",
"2.	c #B9BCC5",
"3.	c #BABCB7",
"4.	c #FFFFFB",
"5.	c #777992",
"6.	c #F6F8FF",
"7.	c #C25A6D",
"8.	c #AB172F",
"9.	c #030416",
"0.	c #B7B8BD",
"a.	c #FDFEFF",
"b.	c #C0C0C0",
"c.	c #010101",
"d.	c #7D7DA1",
"e.	c #C194AF",
"f.	c #000019",
"g.	c #C9CCD5",
"h.	c #F4F4FE",
"i.	c #C8C8D0",
"j.	c #FFFEFF",
"k.	c #C390AA",
"l.	c #494B4E",
"m.	c #F5F9FF",
"n.	c #E7E7FF",
"o.	c #F7F4FF",
"p.	c #F8F1FF",
"q.	c #F8F2FF",
"r.	c #F0ECFF",
"s.	c #F9F6FF",
"t.	c #000023",
"u.	c #FBFCFF",
"v.	c #C2C1D1",
"w.	c #C5C4CC",
"x.	c #030207",
"y.	c #6D6B92",
"z.	c #00001E",
"A.	c #BABCC9",
"B.	c #C0C1C6",
"C.	c #000004",
"D.	c #8A8AA4",
"E.	c #C35B6D",
"F.	c #FAF8FF",
"G.	c #02020C",
"H.	c #FAFCF9",
"I.	c #C2C3BB",
"J.	c #F9FAF2",
"K.	c #BBBBB9",
"L.	c #070709",
"M.	c #818090",
"N.	c #F8F8FF",
"O.	c #F2F1FF",
"P.	c #FAFDFF",
"Q.	c #030500",
"R.	c #000200",
"S.	c #060702",
"T.	c #7E7F84",
"U.	c #F8F9FF",
"V.	c #080743",
"W.	c #141154",
"X.	c #050245",
"Y.	c #090540",
"Z.	c #100B4D",
"`.	c #09063B",
" +	c #F9FAFF",
".+	c #01010B",
"++	c #FEFFFA",
"@+	c #FCFDF5",
"#+	c #BBBCB7",
"$+	c #7C7D7F",
"%+	c #F4F1FF",
"&+	c #F2EFFF",
"*+	c #FBF7FF",
"=+	c #F8F4FF",
"-+	c #F2EDFF",
";+	c #FBF9FF",
">+	c #FCFEFF",
",+	c #F3F8F4",
"'+	c #070705",
")+	c #C5C5C3",
"!+	c #797A7C",
"~+	c #4B4B4E",
"{+	c #010051",
"]+	c #160F5C",
"^+	c #00003A",
"/+	c #100C47",
"(+	c #110E43",
"_+	c #0C0938",
":+	c #F9FCF5",
"<+	c #FEFFEF",
"[+	c #000300",
"}+	c #7E7D83",
"|+	c #C4C3C9",
"1+	c #86858A",
"2+	c #F2ECFF",
"3+	c #FBF5FF",
"4+	c #F4F2FF",
"5+	c #F0EFFF",
"6+	c #FEFFF6",
"7+	c #F6FBE5",
"8+	c #080C00",
"9+	c #BBBEB5",
"0+	c #C7C6CC",
"a+	c #BBB9C6",
"b+	c #C1BFCA",
"c+	c #05040C",
"d+	c #7D7C82",
"e+	c #000007",
"f+	c #070614",
"g+	c #00000F",
"h+	c #00020F",
"i+	c #00000C",
"j+	c #040519",
"k+	c #000014",
"l+	c #060513",
"m+	c #070904",
"n+	c #000009",
"o+	c #00000E",
". + @ # $ % & * = - ; > , ' ) ! ~ { ] ^ ",
"/ ( _ : < [ } | 1 2 3 4 5 6 ! 7 8 : 9 ] ",
"0 _ a _ 6 b c d e f g h : i j k l m n o ",
"p q _ r s t u v w x y 4 4 : z 7 A B C D ",
"E _ F _ 6 G H I J K L y M N O P Q R S T ",
"U v _ V W X W Y Z `  ...s +.{ @.! A #.z ",
"$._ 6 _ 6 %.&.*.=.-.;.>.,.+.'.).!.~.{.z ",
"].^._ /.(._.:.:._.<.[.<.}.|.1.2.).3.4.j ",
"5.6.7.8.8.8.8.8.8.8.8.Y x V 9.+.0.a.b.c.",
"d.8.e.8.8.8.8.8.8.8.8.8.8.8.f.g.h.i.j.{ ",
"_ k.l.k.8.m.n.o.p.q.r.s.8.8.t.u.v.V w.x.",
"y.8.k.8.8.8.8.8.8.8.8.8.8.8.z.A.: B.4 C.",
"D.V E.8.8.8.8.8.8.8.8.M F.| G.H.I.J.K.L.",
"M.Z _ y (.N.` O.v <. .V } P.{ ! Q.R.S.z ",
"T._ U._ 6 V.W.X.Y.Y.Z.`. ++..+).++@+#+j ",
"$+: _ | x %+&+ .*+=+-+;+>+,+] ).z '+)+z ",
"!+_ ~+_ 6 {+]+^+/+(+_+| :+<+[+:+, }+|+C.",
"1+: _ 2 2+3+[.;+4+5+4 :.6+7+8+9+0+a+b+c+",
"d+e+1.f+g+h+1.i+j+k+l+e+! m+! '+n+o+o+n+"};
