/* XPM */
static char *tlistbox[]={
"20 19 175 2",
".H c #000000",
".p c #000002",
"#Q c #000004",
".q c #000005",
"aI c #000007",
"aR c #000009",
"#j c #00000b",
"aM c #00000c",
"aS c #00000e",
"aK c #00000f",
"aO c #000014",
"#w c #000019",
"#M c #00001e",
"#E c #000023",
"#L c #000080",
".Z c #0000ff",
".n c #000100",
"a. c #000200",
".5 c #000207",
"aL c #00020f",
"ap c #000300",
".z c #00ff00",
".2 c #010000",
".L c #010002",
".1 c #010100",
"#u c #010101",
"ad c #01010b",
".F c #020005",
".R c #020202",
"#T c #02020c",
"#J c #030207",
"#q c #030416",
"#9 c #030500",
".m c #040500",
"aN c #040519",
".I c #050400",
"aG c #05040c",
".A c #050503",
".W c #060405",
".J c #060503",
"aP c #060513",
"a# c #060702",
"aJ c #070614",
"aj c #070705",
"#Y c #070709",
"aQ c #070904",
"aB c #080c00",
".o c #090907",
".r c #0a0911",
"#K c #6d6b92",
"#n c #777992",
"Qt c #79797b",
"al c #797a7c",
".a c #7a797f",
".y c #7a7981",
".h c #7a7987",
"#B c #7a79a1",
".i c #7a7a86",
".C c #7c7b77",
".e c #7c7c84",
"ah c #7c7d7f",
"aH c #7d7c82",
".f c #7d7d89",
"#v c #7d7da1",
"aq c #7e7d83",
"aa c #7e7f84",
".3 c #7e8387",
".d c #808183",
".G c #817f8a",
".# c #818085",
"#Z c #818090",
".k c #828284",
".j c #82828a",
".X c #82828c",
".M c #83818e",
".b c #848388",
".c c #848587",
".l c #858583",
"#. c #858994",
"as c #86858a",
".D c #878586",
".g c #898795",
"#R c #8a8aa4",
".s c #908f94",
"#p c #ab172f",
".U c #b7b6b2",
"#r c #b7b8bd",
"#k c #b9bcc5",
"#l c #babcb7",
"#N c #babcc9",
".K c #bbb9bc",
"aE c #bbb9c6",
"#X c #bbbbb9",
"ag c #bbbcb7",
"aC c #bbbeb5",
".9 c #bdbeb8",
".E c #bebcc1",
".7 c #bec0bb",
"ac c #c0c000",
"#t c #c0c0c0",
"#O c #c0c1c6",
"aF c #c1bfca",
".S c #c1c2bc",
".V c #c2c0c1",
"#G c #c2c1d1",
"#V c #c2c3bb",
".x c #c3c2c8",
"ar c #c4c3c9",
"#I c #c5c4cc",
"ak c #c5c5c3",
"aD c #c7c6cc",
"#z c #c8c8d0",
".T c #c9c8c3",
"#x c #c9ccd5",
"ay c #f0efff",
"#h c #f1f3ff",
"au c #f2ecff",
"#5 c #f2f1ff",
"#d c #f2f4ff",
"#0 c #f3f3ff",
"#c c #f3f5ff",
"#a c #f3f6ff",
"ai c #f3f8f4",
"ax c #f4f2ff",
"#y c #f4f4fe",
"#e c #f4f6ff",
"#o c #f6f8ff",
"aA c #f6fbe5",
"#C c #f7f4ff",
"#1 c #f7f6ff",
"#f c #f7f7ff",
"#b c #f7f9ff",
"#D c #f8f1ff",
"#g c #f8f5ff",
"#4 c #f8f7ff",
"#3 c #f8f8ff",
"## c #f8fcff",
"#6 c #f9f7ff",
".Y c #f9f8ff",
".P c #f9f9ff",
"#W c #f9faf2",
"an c #f9fcf5",
".Q c #fafaff",
"#U c #fafcf9",
"#8 c #fafdff",
"av c #fbf5ff",
"aw c #fbf9ff",
"#2 c #fbfaff",
"#H c #fbfbff",
"#F c #fbfcff",
".4 c #fbfeff",
"#i c #fbffff",
".O c #fcf9ff",
"#P c #fcfbff",
"#S c #fcfcff",
"af c #fcfdf5",
"#7 c #fcfdff",
"ab c #fcfeff",
".0 c #fcffff",
"am c #fdfdff",
".u c #fdfef8",
"#s c #fdfeff",
"at c #fefbff",
".w c #fefeff",
"ao c #feffef",
"az c #fefff6",
"ae c #fefffa",
".6 c #feffff",
".N c #fffdff",
"#A c #fffeff",
".8 c #fffff8",
".B c #fffffa",
"#m c #fffffb",
".v c #fffffd",
".t c #ffffff",
"Qt.#.a.b.c.d.e.f.g.h.i.j.k.l.m.n.o.p.q.r",
".s.t.t.t.t.t.t.t.t.t.t.t.t.t.n.u.v.w.x.q",
".y.t.z.z.z.z.z.z.z.z.z.z.z.t.A.B.C.D.E.F",
".G.t.z.z.z.z.z.z.z.z.z.z.z.t.H.u.I.J.K.L",
".M.N.O.t.t.t.t.t.t.t.t.t.P.Q.R.S.T.U.V.W",
".X.Y.Z.Z.Z.Z.Z.Z.Z.Z.Z.Z.Z.0.p.1.n.I.2.H",
".3.4.Z.Z.Z.Z.Z.Z.Z.Z.Z.Z.Z.0.5.6.7.8.9.H",
"#.###a#b#c#d#e#e#d#f#g#f#h#i#j#k.6#l#m.A",
"#n#o#p#p#p#p#p#p#p#p#p#p#p.t#q.0#r#s#t#u",
"#v.t#p#p#p#p#p#p#p#p#p#p#p.t#w#x#y#z#A.p",
"#B.t.t.t.t.t.t#C#D.t.t.t.t.t#E#F#G#H#I#J",
"#K.t#L#L#L#L#L#L#L#L#L#L#L.t#M#N.w#O#P#Q",
"#R#H#L#L#L#L#L#L#L#L#L#L#L#S#T#U#V#W#X#Y",
"#Z#0#1#2#c#3#4#5.Y#f#6#H#7#8.p.n#9a.a#.H",
"aaabacacacacacacacacacacac.0ad.6aeafag.A",
"ah.wacacacacacacacacacacacai.q.6.Hajak.H",
"alam.t.t.t.t.t.t.t.t.t#Sanaoapan.kaqar#Q",
"as.w.watauav#gawaxay#P#eazaAaBaCaDaEaFaG",
"aHaI#jaJaKaL#jaMaNaOaPaI.naQ.najaRaSaSaR"};
