/* XPM */
static char * tcolordialog_xpm[] = {
"22 20 12 1",
" 	c None",
".	c #848484",
"+	c #FFFFFF",
"@	c #000000",
"#	c #0000FF",
"$	c #D6D6CE",
"%	c #CECECE",
"&	c #FF0000",
"*	c #FFFF00",
"=	c #00FF00",
"-	c #00FFFF",
";	c #FF00FF",
"......................",
".+@##############@+@+@",
".@@@@@@@@@@@@@@@@@@@@@",
".+$+$+$+$+$+$+$+$+$+$@",
".$+$+@@@@@@@@@@@@@+$+@",
".+%+$@&&&@***@###@$+$@",
".%+$+@&&&@***@###@+$+@",
".+$+$@&&&@***@###@$+$@",
".%+$+@@@@@@@@@@@@@+$+@",
".+$+$@...@+++@@@@@$+$@",
".%+$+@...@+++@@@@@+$+@",
".+$+$@...@+++@@@@@$+$@",
".%+$+@@@@@@@@@@@@@+$+@",
".+$+$@===@---@;;;@$+$@",
".%+$+@===@---@;;;@+$+@",
".+$+$@===@---@;;;@$+$@",
".%+$+@@@@@@@@@@@@@+$+@",
".+$+$+$+$+$+$+$+$+$+$@",
".%+$+$+$+$+$+$+$+$+$+@",
".@@@@@@@@@@@@@@@@@@@@@"};
