/* XPM */
static char *graphic[] = {
"23 23 7 1",
". c None",
", c #424242",
"- c #FFFFFF",
"* c #000000",
"a c #D6D6CE",
"b c #848484",
"c c #0000FF",
".......................",
".,,,,,,,,,,,,,,,,,,,,,.",
".,--------------*----*.",
".,-*-*-**--**-*-*-,,a*.",
".,--*-*--**--*--*-bba*.",
".,--------------*aaaa*.",
".,,,,,,,,,,,,,,,,,,,,,.",
".,---------------*---*.",
".,-************--*-ab*.",
".,---------------*****.",
".,---------------*aaa*.",
".,-************--*---*.",
".,---------------*-ab*.",
".,ccccccccccccccc*-bb*.",
".,c-c-c--cc--c-cc*aaa*.",
".,cc-c-cc--cc-ccc*aaa*.",
".,---------------*aaa*.",
".,-************--*aaa*.",
".,---------------*****.",
".,---------------*---*.",
".,---------------*-ab*.",
".,,,,,,,,,,,,,,,,,****.",
"......................."}
