/* XPM */
static char * tdbedit_xpm[] = {
"23 23 144 2",
"  	c None",
". 	c #828282",
"+ 	c #FFFFFF",
"@ 	c #BFBFBF",
"# 	c #929292",
"$ 	c #747474",
"% 	c #818181",
"& 	c #7C7C7C",
"* 	c #7D7D7D",
"= 	c #777777",
"- 	c #7E7E7E",
"; 	c #878787",
"> 	c #888888",
", 	c #7A7A7A",
"' 	c #858585",
") 	c #7B7B7B",
"! 	c #868686",
"~ 	c #787878",
"{ 	c #727272",
"] 	c #0B0B0B",
"^ 	c #000000",
"/ 	c #030303",
"( 	c #050505",
"_ 	c #0A0A0A",
": 	c #040404",
"< 	c #F9F9F9",
"[ 	c #FCFCFC",
"} 	c #FDFDFD",
"| 	c #BEBEBE",
"1 	c #FEFEFE",
"2 	c #FDFFFE",
"3 	c #FDFEFF",
"4 	c #FDFDFF",
"5 	c #FDFBFF",
"6 	c #FEFCFF",
"7 	c #FEFEFF",
"8 	c #FFFFFD",
"9 	c #010000",
"0 	c #FFFEFF",
"a 	c #020202",
"b 	c #C2C2C2",
"c 	c #020003",
"d 	c #F8F8FF",
"e 	c #FEFCFD",
"f 	c #FBFBFB",
"g 	c #FEFFFF",
"h 	c #FCFFFF",
"i 	c #AA4747",
"j 	c #FCFDFF",
"k 	c #FEFFFD",
"l 	c #FAFBF3",
"m 	c #030004",
"n 	c #C5C5C5",
"o 	c #010103",
"p 	c #F9FAFF",
"q 	c #FFFDFF",
"r 	c #FBFAFF",
"s 	c #F6F9FF",
"t 	c #FBFEFF",
"u 	c #FBF9FF",
"v 	c #F6F8FF",
"w 	c #FAF5F9",
"x 	c #020005",
"y 	c #F2F2FF",
"z 	c #FEFDFF",
"A 	c #F8FBFF",
"B 	c #F4F6FF",
"C 	c #000004",
"D 	c #F5F7FF",
"E 	c #FCFBFF",
"F 	c #F1EFFF",
"G 	c #F5F1FF",
"H 	c #F8F2FF",
"I 	c #000002",
"J 	c #000105",
"K 	c #F1F4FF",
"L 	c #F4F3FF",
"M 	c #F5F3FF",
"N 	c #F2F5FF",
"O 	c #060A0B",
"P 	c #000103",
"Q 	c #F3F6FF",
"R 	c #F3EFFF",
"S 	c #F5F2FF",
"T 	c #F0F6FF",
"U 	c #000202",
"V 	c #F1F1FF",
"W 	c #F8F1FF",
"X 	c #F7F1FF",
"Y 	c #FBFFFF",
"Z 	c #010602",
"` 	c #000201",
" .	c #FAFAFF",
"..	c #F7F6FF",
"+.	c #F5FBF9",
"@.	c #000300",
"#.	c #050503",
"$.	c #FCFCFF",
"%.	c #FBFDFF",
"&.	c #F9FBFF",
"*.	c #FBFCFF",
"=.	c #F5F8FF",
"-.	c #FEFFF4",
";.	c #010200",
">.	c #F8F8F8",
",.	c #8D8D8D",
"'.	c #FDFDFB",
").	c #FCFEFD",
"!.	c #FCFEFB",
"~.	c #FCFFF2",
"{.	c #FCFFF4",
"].	c #F9FAFE",
"^.	c #FEFFFB",
"/.	c #FCFFF6",
"(.	c #FFFFF3",
"_.	c #FEFFF5",
":.	c #FFFFFB",
"<.	c #BCBCBC",
"[.	c #8A8A8A",
"}.	c #C3C0C7",
"|.	c #C2C1C6",
"1.	c #C2C2C0",
"2.	c #C2C0CB",
"3.	c #C2BFD0",
"4.	c #C3C1CE",
"5.	c #BEBFBA",
"6.	c #C9CBC0",
"7.	c #BBBCB7",
"8.	c #BEBEBC",
"9.	c #B9B8B4",
"0.	c #C2C3BE",
"a.	c #B7B7B5",
"b.	c #CACACA",
"c.	c #BBBBBB",
"d.	c #FAFAFC",
"e.	c #FDFAFF",
"f.	c #FDFCFA",
"g.	c #FDFBFC",
"h.	c #FDF9FF",
"i.	c #FCF8FF",
"j.	c #FEFDF9",
"k.	c #F8F8F0",
"l.	c #FFFEFC",
"m.	c #FAF7FE",
". . . . . . . . . . . . . . . .               ",
". + + . + + @ + + @ + + @ + + .               ",
". @ @ . . . . . . . . . . . . .               ",
". + + . + + @ + + @ + + @ + + .               ",
". @ @ . @ @ @ @ @ @ @ @ @ @ @ .               ",
". + + . + + @ + + @ + + @ + + .               ",
". @ @ . @ @ @ @ @ @ @ @ @ @ @ .               ",
". + + # $ % % % % % % & & * = - ; > , ' ) ! ~ ",
". @ @ { ] ^ ^ ^ ^ ^ ^ / ( ^ _ ^ ^ ^ / ^ : ^ + ",
". + + % ^ + + + + + + + < + [ + [ + } [ + | + ",
". . . % ^ 1 1 1 2 3 4 5 6 7 < 8 + 9 0 a + b + ",
"      - c d e f g h h d i i j k l 0 m 0 + n + ",
"      - o p q r j s t p i i u v 8 w x 0 + n + ",
"      - o y z i i i A y i i i i B 0 C + + n + ",
"      - o D E F G i i D i i H i i h I + + n + ",
"      - J K L i i i i K i i M i i N O g + n + ",
"      - P Q i i R i i Q i i S i i T U g + n + ",
"      - P V i i W i i V i i X i i Y Z g + n + ",
"      - ` d  .i i i i d i i i i ..+.@.k + n + ",
"      $ #.h j $.%.Y Y &.*.%.=.h + @.-.;.+ n >.",
"      ,.^ '.).j !.~.{.g ].^./.-.~.(._.:.>.<.+ ",
"      [.^ }.|.1.1.|.2.3.4.5.6.7.8.9.0.a.b.c.+ ",
"      & d.e.5 f.g.e.h.i.e.j.k.l.0 q m.+ + + } "};
