/* XPM */
static char * tdbgrid_xpm[] = {
"23 23 5 1",
" 	c None",
".	c #7F7F7F",
"+	c #BFBFBF",
"@	c #FFFFFF",
"#	c #000000",
"                       ",
" ...............       ",
" .+.@++++@+++++.       ",
" ...............       ",
" .+.@@@@+@@@@@@.       ",
" .@.@++@+@++++@.       ",
" .+.@@@@+@@@@@@.       ",
" .@.@++@+@+++@@.       ",
" .+.@@@@+@@@@@@.       ",
" .@.################## ",
" .+.#+#@+++++@+++++++# ",
" ...################## ",
"    #+#@@@@@+@@@@@@@@# ",
"    #@#++++++++++++++# ",
"    #+#@@@@@+@@@@@@@@# ",
"    #@#++++++++++++++# ",
"    #+#@@@@@+@@@@@@@@# ",
"    #@#++++++++++++++# ",
"    #+#@@@@@+@@@@@@@@# ",
"    #@#++++++++++++++# ",
"    #+#@@@@@+@@@@@@@@# ",
"    ################## ",
"                       "};
