/* XPM */
static char * tdbgrid_xpm[] = {
"23 23 6 1",
" 	c None",
".	c #828282",
"+	c #FFFFFF",
"@	c #BFBFBF",
"#	c #000000",
"$	c #969696",
"................       ",
".++.++@++@++@++.       ",
".@@.............       ",
".++.++@++@++@++.       ",
".@@.@@@@@@@@@@@.       ",
".++.++@++@++@++.       ",
".@@.@@@@@@@@@@@.       ",
".++.++#################",
".@@.@@#$$$#$$$#$$$#$$$#",
".++.++#$$$#$$$#$$$#$$$#",
"......#################",
"      #$$$#+++$+++$+++#",
"      #$$$#+++$+++$+++#",
"      #####$$$$$$$$$$$#",
"      #$$$#+++$+++$+++#",
"      #$$$#+++$+++$+++#",
"      #####$$$$$$$$$$$#",
"      #$$$#+++$+++$+++#",
"      #$$$#+++$+++$+++#",
"      #####$$$$$$$$$$$#",
"      #$$$#+++$+++$+++#",
"      #$$$#+++$+++$+++#",
"      #################"};
