/* XPM */
static char * tdbimage_xpm[] = {
"23 23 8 1",
" 	c None",
".	c #828282",
"+	c #FFFFFF",
"@	c #BFBFBF",
"#	c #A8DCFF",
"$	c #FFFF00",
"%	c #008000",
"&	c #0058C0",
"................       ",
".++.++@++@++@++.       ",
".@@.............       ",
".++.++@++@++@++.       ",
".@@.@@@@@@@@@@@.       ",
".++.++@++@++@++.       ",
".@@.@@@@@@@@@@@.       ",
".++.++@++@++@++.       ",
".@@####################",
".++####################",
"...#$####$#############",
"   ##$##$######+#+#++##",
"   ###$$#######+##+##+#",
"   ###$$########+#++###",
"   ##$##$############+#",
"   #$####$#############",
"   ###################%",
"   ##################%%",
"   &&&&&&&&&&&&&&&&&%%%",
"   &&&&&&&&&&&&&&&&%%%%",
"   &&&&&&&&&&&&&&&%%%%%",
"   &&&&&&&&&&&&&&%%%%%%",
"   &&&&&&&&&&&&&%%%%%%%"};
