/* XPM */
static char * tdblistbox_xpm[] = {
"23 23 219 2",
"  	c None",
". 	c #828282",
"+ 	c #FFFFFF",
"@ 	c #BFBFBF",
"# 	c #79797B",
"$ 	c #818085",
"% 	c #7A797F",
"& 	c #848388",
"* 	c #848587",
"= 	c #808183",
"- 	c #7C7C84",
"; 	c #7D7D89",
"> 	c #898795",
", 	c #7A7987",
"' 	c #7A7A86",
") 	c #82828A",
"! 	c #828284",
"~ 	c #858583",
"{ 	c #040500",
"] 	c #000100",
"^ 	c #090907",
"/ 	c #000002",
"( 	c #000005",
"_ 	c #0A0911",
": 	c #908F94",
"< 	c #FDFCFF",
"[ 	c #F6F5FD",
"} 	c #FEFEFF",
"| 	c #FBFDFF",
"1 	c #F2F6FF",
"2 	c #FCFDFF",
"3 	c #FCFCFF",
"4 	c #F5F5FF",
"5 	c #FEFBFF",
"6 	c #FEFCFF",
"7 	c #FCFBFF",
"8 	c #F8F7FD",
"9 	c #FDFEF8",
"0 	c #FFFFFD",
"a 	c #C3C2C8",
"b 	c #7A7981",
"c 	c #FFFDFF",
"d 	c #0B0A1A",
"e 	c #0A0C25",
"f 	c #0F1231",
"g 	c #05052B",
"h 	c #0D0C34",
"i 	c #0E0D37",
"j 	c #08062E",
"k 	c #0F0E2E",
"l 	c #080820",
"m 	c #F5F6FA",
"n 	c #050503",
"o 	c #FFFFFA",
"p 	c #7C7B77",
"q 	c #878586",
"r 	c #BEBCC1",
"s 	c #020005",
"t 	c #817F8A",
"u 	c #FBF9FF",
"v 	c #F5F3FF",
"w 	c #F9FBFF",
"x 	c #F5F7FF",
"y 	c #F2F3FF",
"z 	c #F9F8FF",
"A 	c #F4F3FF",
"B 	c #FBF8FF",
"C 	c #FBFAFF",
"D 	c #000000",
"E 	c #050400",
"F 	c #060503",
"G 	c #BBB9BC",
"H 	c #010002",
"I 	c #83818E",
"J 	c #FCF9FF",
"K 	c #11102F",
"L 	c #07093C",
"M 	c #030444",
"N 	c #151659",
"O 	c #000043",
"P 	c #131258",
"Q 	c #040243",
"R 	c #030037",
"S 	c #F9F9FF",
"T 	c #FAFAFF",
"U 	c #020202",
"V 	c #C1C2BC",
"W 	c #C9C8C3",
"X 	c #B7B6B2",
"Y 	c #C2C0C1",
"Z 	c #060405",
"` 	c #82828C",
" .	c #FBFBFF",
"..	c #EEF0FF",
"+.	c #F5F8FF",
"@.	c #F7F6FF",
"#.	c #F3F3FF",
"$.	c #F8F7FF",
"%.	c #F9F7FF",
"&.	c #F6F4FF",
"*.	c #FCFFFF",
"=.	c #010100",
"-.	c #010000",
";.	c #777992",
">.	c #F6F8FF",
",.	c #F8F8FF",
"'.	c #AB172F",
").	c #000207",
"!.	c #FEFFFF",
"~.	c #BEC0BB",
"{.	c #FFFFF8",
"].	c #BDBEB8",
"^.	c #7D7DA1",
"/.	c #00000B",
"(.	c #B9BCC5",
"_.	c #BABCB7",
":.	c #FFFFFB",
"<.	c #7A79A1",
"[.	c #F8F6FF",
"}.	c #F5F9FF",
"|.	c #E7E7FF",
"1.	c #F7F4FF",
"2.	c #F8F1FF",
"3.	c #F8F2FF",
"4.	c #F0ECFF",
"5.	c #F9F6FF",
"6.	c #030416",
"7.	c #B7B8BD",
"8.	c #FDFEFF",
"9.	c #C0C0C0",
"0.	c #010101",
"a.	c #6D6B92",
"b.	c #00001E",
"c.	c #BABCC9",
"d.	c #C0C1C6",
"e.	c #000004",
"f.	c #8A8AA4",
"g.	c #FAF8FF",
"h.	c #02020C",
"i.	c #FAFCF9",
"j.	c #C2C3BB",
"k.	c #F9FAF2",
"l.	c #BBBBB9",
"m.	c #070709",
"n.	c #818090",
"o.	c #F3F5FF",
"p.	c #F2F1FF",
"q.	c #F7F7FF",
"r.	c #FAFDFF",
"s.	c #030500",
"t.	c #000200",
"u.	c #060702",
"v.	c #7E7F84",
"w.	c #FCFEFF",
"x.	c #F8F9FF",
"y.	c #0B0C2B",
"z.	c #08083A",
"A.	c #080743",
"B.	c #141154",
"C.	c #050245",
"D.	c #090540",
"E.	c #100B4D",
"F.	c #09063B",
"G.	c #F9FAFF",
"H.	c #01010B",
"I.	c #FEFFFA",
"J.	c #FCFDF5",
"K.	c #BBBCB7",
"L.	c #7C7D7F",
"M.	c #F4F1FF",
"N.	c #F2EFFF",
"O.	c #FBF7FF",
"P.	c #F8F4FF",
"Q.	c #F2EDFF",
"R.	c #F3F8F4",
"S.	c #070705",
"T.	c #C5C5C3",
"U.	c #797A7C",
"V.	c #FDFDFF",
"W.	c #09082A",
"X.	c #110B55",
"Y.	c #010051",
"Z.	c #160F5C",
"`.	c #00003A",
" +	c #100C47",
".+	c #110E43",
"++	c #0C0938",
"@+	c #F9FCF5",
"#+	c #FEFFEF",
"$+	c #000300",
"%+	c #7E7D83",
"&+	c #C4C3C9",
"*+	c #86858A",
"=+	c #F2ECFF",
"-+	c #FBF5FF",
";+	c #F8F5FF",
">+	c #F4F2FF",
",+	c #F0EFFF",
"'+	c #F4F6FF",
")+	c #FEFFF6",
"!+	c #F6FBE5",
"~+	c #080C00",
"{+	c #BBBEB5",
"]+	c #C7C6CC",
"^+	c #BBB9C6",
"/+	c #C1BFCA",
"(+	c #05040C",
"_+	c #7D7C82",
":+	c #000007",
"<+	c #070614",
"[+	c #00000F",
"}+	c #00020F",
"|+	c #00000C",
"1+	c #040519",
"2+	c #000014",
"3+	c #060513",
"4+	c #070904",
"5+	c #000009",
"6+	c #00000E",
". . . . . . . . . . . . . . . .               ",
". + + . + + @ + + @ + + @ + + .               ",
". @ @ . . . . . . . . . . . . .               ",
". + + . + + @ + + @ + + @ + + .               ",
". @ @ . @ @ @ @ @ @ @ @ @ @ @ .               ",
". + + . + + @ + + @ + + @ + + .               ",
". @ @ # $ % & * = - ; > , ' ) ! ~ { ] ^ / ( _ ",
". + + : < [ } | 1 2 3 4 5 6 7 8 + ] 9 0 } a ( ",
". @ @ b c c d e f g h i j k l } m n o p q r s ",
". + + t c u v w x y z A B C 7 7 } D 9 E F G H ",
". . . I c J K L M N O P Q R C S T U V W X Y Z ",
"      ` z 6  ...+...@.#.$.%.&.w *./ =.] E -.D ",
"      ;.>.,.'.'.'.'.'.'.'.'.@.B  .).!.~.{.].D ",
"      ^.'.'.'.'.'.'.'.'.'.'.'.'.'./.(.!._.:.n ",
"      <.'.'.[.x }.|.1.2.3.4.5.'.'.6.*.7.8.9.0.",
"      a.'.'.'.'.'.'.'.'.'.'.'.'.'.b.c.} d.7 e.",
"      f. .u '.'.'.'.'.'.'.'.S g.3 h.i.j.k.l.m.",
"      n.#.@.C o.,.$.p.z q.%. .2 r./ ] s.t.u.D ",
"      v.w.x.y.z.A.B.C.D.D.E.F.G.*.H.!.I.J.K.n ",
"      L.} w.3 B M.N.%.O.P.Q.u w.R.( !.D S.T.D ",
"      U.V.T W.X.Y.Z.`. +.+++3 @+#+$+@+! %+&+e.",
"      *+} } 5 =+-+;+u >+,+7 '+)+!+~+{+]+^+/+(+",
"      _+:+/.<+[+}+/.|+1+2+3+:+] 4+] S.5+6+6+5+"};
