/* XPM */
static char * tdbmemo_xpm[] = {
"23 23 106 2",
"  	c None",
". 	c #828282",
"+ 	c #FFFFFF",
"@ 	c #BFBFBF",
"# 	c #848484",
"$ 	c #7F7F81",
"% 	c #818088",
"& 	c #86858D",
"* 	c #7C7B83",
"= 	c #79787D",
"- 	c #838385",
"; 	c #7B7B7B",
"> 	c #8E8F8A",
", 	c #777872",
"' 	c #81827C",
") 	c #7B7C74",
"! 	c #7E7F79",
"~ 	c #757670",
"{ 	c #91928D",
"] 	c #8A8A8A",
"^ 	c #FCFBFF",
"/ 	c #FFFDFF",
"( 	c #F6F3FF",
"_ 	c #F8F7FF",
": 	c #FFFEFF",
"< 	c #FDFDFD",
"[ 	c #FFFFFD",
"} 	c #FBFCF7",
"| 	c #FEFFF9",
"1 	c #FEFFFA",
"2 	c #FFFFFB",
"3 	c #000000",
"4 	c #FFFCFF",
"5 	c #F4F1FF",
"6 	c #F7F6FE",
"7 	c #F7F7F7",
"8 	c #FEFEFC",
"9 	c #FAFAF8",
"0 	c #F6F6F4",
"a 	c #7C7C7C",
"b 	c #020107",
"c 	c #040019",
"d 	c #FEFCFF",
"e 	c #FDFCFF",
"f 	c #F9F9FB",
"g 	c #F8F8F8",
"h 	c #000002",
"i 	c #7F7F7F",
"j 	c #FEFBFF",
"k 	c #F5F0FF",
"l 	c #FEFAFF",
"m 	c #FBF7FF",
"n 	c #F3EFFF",
"o 	c #F8F6FF",
"p 	c #FEFDFF",
"q 	c #FCFAFF",
"r 	c #7E7E7E",
"s 	c #FBF9FF",
"t 	c #F9F8FF",
"u 	c #F9F9FF",
"v 	c #F9F7FF",
"w 	c #FFFBFF",
"x 	c #070513",
"y 	c #0B092E",
"z 	c #00000B",
"A 	c #F9FAFF",
"B 	c #F8F9FF",
"C 	c #F7F9FF",
"D 	c #F8F8FF",
"E 	c #F3F4FF",
"F 	c #FBFBFF",
"G 	c #000004",
"H 	c #F1F0FE",
"I 	c #060709",
"J 	c #F7F8FF",
"K 	c #F7F7FF",
"L 	c #FAFAFF",
"M 	c #FCFDFF",
"N 	c #05080D",
"O 	c #000007",
"P 	c #FBFAFF",
"Q 	c #F6F4FF",
"R 	c #00000C",
"S 	c #787878",
"T 	c #FEFEFF",
"U 	c #808080",
"V 	c #FBFDFF",
"W 	c #FAFDFF",
"X 	c #F8FEFF",
"Y 	c #FBFEFF",
"Z 	c #F6F8FF",
"` 	c #FCFFFF",
" .	c #FDFFFA",
"..	c #0E1204",
"+.	c #FEFFFF",
"@.	c #FBFFFF",
"#.	c #FAFFFF",
"$.	c #FBFFFC",
"%.	c #FCFFFA",
"&.	c #FAFDF2",
"*.	c #000300",
"=.	c #000100",
"-.	c #000200",
";.	c #090D0C",
">.	c #000201",
",.	c #040500",
". . . . . . . . . . . . . . . .               ",
". + + . + + @ + + @ + + @ + + .               ",
". @ @ . . . . . . . . . . . . .               ",
". + + . + + @ + + @ + + @ + + .               ",
". @ @ . @ @ @ @ @ @ @ @ @ @ @ .               ",
". + + . + + @ + + @ + + @ + + .               ",
". @ @ . @ @ @ @ @ @ @ @ @ @ @ .               ",
". + + . + + @ # $ % & * = - ; > , ' ) ! ~ , { ",
". @ @ . @ @ @ ] ^ / ( / / _ : < [ } | 1 2 2 3 ",
". + + . + + @ ; : 4 5 4 / / 6 : 7 [ [ 8 9 0 3 ",
". . . . . . . a : b b c b 4 d e : f g + + + h ",
"              i / j k l m n j j o d e p q p b ",
"              r p s t t t t t t u v s o l w x ",
"              r p b b b b b b b b b b b y s z ",
"              r p A B C C C C D D t E q F p G ",
"              r p b b b b b b b b b b f u H I ",
"              r p A D D D J J K J D B s L M N ",
"              r p b b b b b f f f b b b F A O ",
"              i p P t t D D D _ _ Q t v F F R ",
"              S T b b b b b b b b b b b b M O ",
"              U M V W V W W X W W Y Y Z `  ...",
"              # + +.` ` ` ` @.@.@.#.#.$.%.&.*.",
"              a h G G h =.=.-.-.-.=.;.>.=.,.=."};
