/* XPM */
static char * tdbtext_xpm[] = {
"23 23 24 1",
" 	c None",
".	c #828282",
"+	c #FFFFFF",
"@	c #BFBFBF",
"#	c #000000",
"$	c #030303",
"%	c #060606",
"&	c #888888",
"*	c #010101",
"=	c #050505",
"-	c #020202",
";	c #7E7E7E",
">	c #0A0A0A",
",	c #7B7B7B",
"'	c #7F7F7F",
")	c #090909",
"!	c #080808",
"~	c #7D7D7D",
"{	c #040404",
"]	c #808080",
"^	c #868686",
"/	c #8B8B8B",
"(	c #0F0F0F",
"_	c #898989",
"................       ",
".++.++@++@++@++.       ",
".@@.............       ",
".++.++@++@++@++.       ",
".@@.@@@@@@@@@@@.       ",
".++.++@++@++@++.       ",
".@@.@@@@@@@@@@@.       ",
".++.++@++@++@++.       ",
".@@.@@@@@@@@@@@.       ",
".++.++@++@++@++.       ",
"................       ",
"            #$%#&      ",
"             #*##      ",
"            #*=#-;     ",
"            >* #*-     ",
"           *#   ##,    ",
"           ##   *#*    ",
"          %*     #='   ",
"          #)#####!##   ",
"         **      ~{#]  ",
"        ^{#       #)#  ",
"        ##/       ;#%. ",
"       $$##       #(##_"};
