/* XPM */
static char * tdrawgrid_xpm[] = {
"23 23 6 1",
" 	c None",
".	c #C0C0C0",
"+	c #000000",
"@	c #FFFFFF",
"#	c #909090",
"$	c #000080",
".......................",
".++++++++++++++++++....",
".+.+@.....@.......+#...",
".++++++++++++++++++#...",
".+.+@@@@@.@@@@@@@@+#...",
".+@+@$$$@.@$$$$$$@+#...",
".+.+@@@@@.@@@@@@@@+#...",
".+@+@$$$@.@$$$$$@@+#...",
".+.+@@@@@.@@@@@@@@+#...",
".+@+@$$$@.@$$$$$$@+#...",
".+.+@@@@@.@@@@@@@@+#...",
".++++++++++++++++++#...",
"..############+#####...",
".............#+#.......",
".............+@+.......",
"............#+@+#......",
"............+@@@+#++++.",
"..........++++@@+@.@.+.",
".........+$$$$+@@+@.@+.",
".........+$$$$++++.@.+.",
".........+$$$$+.+.@.@+.",
".........+$$$$+.++++++.",
"..........++++........."};
