/* XPM */
static char *graphic[] = {
"23 23 6 1",
". c None",
", c #848484",
"- c #FFFFFF",
"* c #424242",
"a c #D6D6CE",
"b c #000000",
".......................",
".......................",
",,,,,,,,,,,,,,,,,,,,,,-",
",********************a-",
",*-------------------a-",
",*--------b----------a-",
",*---bb---b----------a-",
",*---bb---b------------",
",*--b--b--bbb---bbbbb--",
",*--b--b--b--b----b----",
",*-bbbbbb-b--b----b--a-",
",*-b----b-b--b----b--a-",
",*-b----b-bbb-----b--a-",
",*----------------b--a-",
",aaaaaaaaaaaaaaaa-b-aa-",
"------------------b----",
".................-b-...",
"...............---b---.",
"...............-bbbbb-.",
"...............-------.",
".......................",
".......................",
"......................."}
