/* XPM */
static char * tfinddialog_xpm[] = {
"23 23 66 1",
" 	c None",
".	c #9DFFFF",
"+	c #84E7FF",
"@	c #73DFFF",
"#	c #6FD6FF",
"$	c #6BCEFF",
"%	c #67CEFF",
"&	c #67CFFF",
"*	c #5BC6FF",
"=	c #4EBFF7",
"-	c #33B7E7",
";	c #009DCE",
">	c #1AA7DF",
",	c #0D9FD6",
"'	c #069FCE",
")	c #019DCE",
"!	c #009CCF",
"~	c #0097C6",
"{	c #008CBF",
"]	c #007FB7",
"^	c #00679D",
"/	c #000000",
"(	c #059FCE",
"_	c #0097CE",
":	c #0084B7",
"<	c #0073A7",
"[	c #006F9F",
"}	c #006B9C",
"|	c #006B9F",
"1	c #00679E",
"2	c #B7B7B7",
"3	c #FFFFFF",
"4	c #FFFFF7",
"5	c #FFFFEF",
"6	c #FFFFE7",
"7	c #FFFFDF",
"8	c #FFFFDE",
"9	c #FFFFD6",
"0	c #F7F7D7",
"a	c #F7F7CF",
"b	c #EFEFCF",
"c	c #EFE7CF",
"d	c #808080",
"e	c #FFF7D7",
"f	c #F7EFCF",
"g	c #E7E7C7",
"h	c #FFFFD7",
"i	c #F7F7D6",
"j	c #EFE7CE",
"k	c #E7E7C6",
"l	c #DFDEC6",
"m	c #DEDFBF",
"n	c #DEDFC7",
"o	c #DEDEBD",
"p	c #C0C0C0",
"q	c #DEDEBF",
"r	c #D6D7BF",
"s	c #DFDEBD",
"t	c #D6D6BF",
"u	c #EFEFCE",
"v	c #D7CFB7",
"w	c #D6D6BD",
"x	c #CFCEB5",
"y	c #CECFB7",
"z	c #CEC7B5",
"A	c #C6C7AF",
"                       ",
".+@#$$%%%%%%%&&&&&*=-; ",
"%->,'')));;;;!!!!!~{]^/",
"%->,(()));;;;_____~{]^/",
";:<[}}|||1111^^^^^^^^^/",
"233334445556678790abc2/",
"2333455555d//d08e0fbg2/",
"233455555/dddd/hi0bjg2/",
"23355555/dd000d/00bkk2/",
"2345555ddd33000dd0bgl2/",
"2445555/d0330000/0bgm2/",
"2445555/d0000030/0bno2/",
"2445555/d00003pdd0bqr2/",
"2445555//d003pd/00bst2/",
"245555/3//d00d/u//brv2/",
"24555/3//////dud//dwx2/",
"2555/3///00000u/0//vy2/",
"255/3///00000ud////dz2/",
"255////00000uu/uuu//A2/",
"2555//78880iu//dud///2/",
"2222222222222222222222/",
" //////////////////////",
"                       "};
