/* XPM */
static char *graphic[] = {
"23 23 76 1",
". c None",
", c #9DFFFF",
"- c #84E7FF",
"* c #73DFFF",
"a c #6FD6FF",
"b c #6BCEFF",
"c c #67CEFF",
"d c #67CFFF",
"e c #5BC6FF",
"f c #4EBFF7",
"g c #33B7E7",
"h c #009DCE",
"i c #1AA7DF",
"j c #0D9FD6",
"k c #069FCE",
"l c #019DCE",
"m c #009CCF",
"n c #0097C6",
"o c #008CBF",
"p c #007FB7",
"q c #00679D",
"r c #000000",
"s c #059FCE",
"t c #0097CE",
"u c #0084B7",
"v c #0073A7",
"w c #006F9F",
"x c #006B9C",
"y c #006B9F",
"z c #00679E",
"A c #B7B7B7",
"B c #FFFFFF",
"C c #FFFFF7",
"D c #FFFFEF",
"E c #FFFFDF",
"F c #FFFFD6",
"G c #F7F7D7",
"H c #F7F7CF",
"I c #EFEFCF",
"J c #EFE7CF",
"K c #FFFFDE",
"L c #FFF7D7",
"M c #F7EFCF",
"N c #E7E7C7",
"O c #FFFFD7",
"P c #F7F7D6",
"Q c #EFE7CE",
"R c #EFEFCE",
"S c #E7E7C6",
"T c #DFDEC6",
"U c #FFFFE7",
"V c #DEDFBF",
"W c #FF0000",
"X c #DEDEBD",
"Y c #0000FF",
"Z c #D6D7BF",
"0 c #D6D6BF",
"1 c #DFDEBF",
"2 c #D7CFB7",
"3 c #DED7BD",
"4 c #D6D6BD",
"5 c #CFCEB5",
"6 c #CECFB7",
"7 c #DED6BD",
"8 c #D7D7BD",
"9 c #CECEB5",
"@ c #CEC7B5",
"# c #D7D6BF",
"; c #D6CEB7",
": c #CFCFB7",
"= c #C6C7AF",
"+ c #DEDEC6",
"% c #D6D7BD",
"$ c #CFCFB5",
"( c #CEC6B5",
") c #C6C7AD",
".......................",
",-*abbcccccccdddddefgh.",
"cgijkklllhhhhmmmmmnopqr",
"cgijsslllhhhhtttttnopqr",
"huvwxxyyyzzzzqqqqqqqqqr",
"ABBBBCCCDDBBBBBEFGHIJAr",
"ABBBCCCDDBBrrrBKLGMINAr",
"ABBCCCCDDBrBBBBOPHIQNAr",
"ABBCCCDDDBrrrrBPPRRSSAr",
"ABCCCCDDDBrBBBBGPIQNTAr",
"ACCCCCDDUBrBBBBBBBBBVAr",
"ACBBBBBBBBrBBWWWWWWBXAr",
"ACBYYYYYBBBBBBWBBBWBZAr",
"ACBYBBBBBUKKFBWBWBBB0Ar",
"ACBYBBBBUEEOPBWWWB1Z2Ar",
"ACBYYYYBEKKFGBWBWB345Ar",
"ADBYBBBBEKFPBBWBBB026Ar",
"ADBYBUUKKFOGBWWWB789@Ar",
"ADBYBUEEKOPPBBBBB#;:=Ar",
"ADBBBEKKKGPRRNS+#%$()Ar",
"AAAAAAAAAAAAAAAAAAAAAAr",
".rrrrrrrrrrrrrrrrrrrrrr",
"......................."}
