/* XPM */
static char *graphic[] = {
"23 23 4 1",
". c None",
", c #0000FF",
"- c #848484",
"* c #FFFFFF",
".....,,,,,,,,,.........",
".---.,,,,,,,,,.------*.",
".-**.,,,,,,,,,.*****-*.",
".-*..,,,,,,,,,......-*.",
".-*.................-*.",
".-*.................-*.",
".-*.................-*.",
".-*.................-*.",
".-*.................-*.",
".-*.................-*.",
".-*.................-*.",
".-*.................-*.",
".-*.................-*.",
".-*.................-*.",
".-*.................-*.",
".-*.................-*.",
".-*.................-*.",
".-*.................-*.",
".-*.................-*.",
".-*.................-*.",
".--------------------*.",
".*********************.",
"......................."}
