/* XPM */
static char * tgroupbox_xpm[] = {
"23 21 5 1",
" 	c None",
".	c #C0C0C0",
"+	c #AE0013",
"@	c #808080",
"#	c #FFFFFF",
"                       ",
"    ++++++++           ",
" @@.++++++++.@@@@@@@   ",
" @#.++++++++.######.#  ",
" @#................@#  ",
" @#................@#  ",
" @#................@#  ",
" @#................@#  ",
" @#................@#  ",
" @#................@#  ",
" @#................@#  ",
" @#................@#  ",
" @#................@#  ",
" @#................@#  ",
" @#................@#  ",
" @#................@#  ",
" @#................@#  ",
" @#................@#  ",
" @.@@@@@@@@@@@@@@@@@#  ",
"  ###################  ",
"                       "};
