/* XPM */
static char * thtmlhelpviewer_xpm[] = {
"23 23 228 2",
"  	c None",
". 	c #030302",
"+ 	c #1E180B",
"@ 	c #413418",
"# 	c #3D3116",
"$ 	c #342913",
"% 	c #0C0A04",
"& 	c #000000",
"* 	c #070604",
"= 	c #7F6838",
"- 	c #C5AA74",
"; 	c #E5C88B",
"> 	c #D4B46F",
", 	c #C4A565",
"' 	c #917844",
") 	c #413318",
"! 	c #040301",
"~ 	c #0C00FF",
"{ 	c #120F0B",
"] 	c #A28549",
"^ 	c #F7DA9F",
"/ 	c #E7C787",
"( 	c #D3AE64",
"_ 	c #D7AA4E",
": 	c #F7C662",
"< 	c #E8C377",
"[ 	c #CAA558",
"} 	c #755C2B",
"| 	c #1B1B1B",
"1 	c #74633F",
"2 	c #F7D99C",
"3 	c #E5BF71",
"4 	c #665125",
"5 	c #332A18",
"6 	c #372D1A",
"7 	c #C39A47",
"8 	c #F5C562",
"9 	c #E4BB67",
"0 	c #B9954D",
"a 	c #2B210F",
"b 	c #050505",
"c 	c #222222",
"d 	c #3E3B32",
"e 	c #C5A767",
"f 	c #F1D396",
"g 	c #635028",
"h 	c #252525",
"i 	c #C6C6C6",
"j 	c #D9D9D9",
"k 	c #423720",
"l 	c #E5B85C",
"m 	c #E9BE68",
"n 	c #CFA652",
"o 	c #4B3B1B",
"p 	c #020202",
"q 	c #212121",
"r 	c #5B5B5B",
"s 	c #493B1D",
"t 	c #EAC373",
"u 	c #D8AE5A",
"v 	c #211A0C",
"w 	c #7D7D7D",
"x 	c #F7F7F7",
"y 	c #F9F9F9",
"z 	c #3C3321",
"A 	c #E0B764",
"B 	c #E7BF6C",
"C 	c #CAA14E",
"D 	c #3E3116",
"E 	c #0A0A0A",
"F 	c #0D0D0D",
"G 	c #1F1F1F",
"H 	c #B9B9B9",
"I 	c #564522",
"J 	c #E9BF69",
"K 	c #BE9545",
"L 	c #1B150A",
"M 	c #888888",
"N 	c #FCFCFC",
"O 	c #EDEDED",
"P 	c #403623",
"Q 	c #E1B763",
"R 	c #D8B56B",
"S 	c #AE8A42",
"T 	c #1A1509",
"U 	c #0E0E0E",
"V 	c #6D6D6D",
"W 	c #D2D2D2",
"X 	c #201D16",
"Y 	c #312815",
"Z 	c #251D0D",
"` 	c #070503",
" .	c #282828",
"..	c #B0B0B0",
"+.	c #957942",
"@.	c #DBBB79",
"#.	c #D7AE59",
"$.	c #6E5728",
"%.	c #7F7F7F",
"&.	c #575757",
"*.	c #0A0398",
"=.	c #141414",
"-.	c #A8A8A8",
";.	c #D8D8D8",
">.	c #B4B4B4",
",.	c #6F6F6F",
"'.	c #F3F3F3",
").	c #C3C3C3",
"!.	c #5B513A",
"~.	c #DCB769",
"{.	c #DDBA72",
"].	c #A5823B",
"^.	c #130F07",
"/.	c #2A2A2A",
"(.	c #C7C7C7",
"_.	c #9B9B9B",
":.	c #060606",
"<.	c #111111",
"[.	c #C5C5C5",
"}.	c #DFDFDF",
"|.	c #EFEFEF",
"1.	c #434343",
"2.	c #444444",
"3.	c #1E1A13",
"4.	c #9C7E40",
"5.	c #E8C57D",
"6.	c #CFA95D",
"7.	c #50401F",
"8.	c #939393",
"9.	c #D7D7D7",
"0.	c #BFBFBF",
"a.	c #E3E3E3",
"b.	c #ECECEC",
"c.	c #866B38",
"d.	c #D4B575",
"e.	c #CEAD6A",
"f.	c #9D8456",
"g.	c #070605",
"h.	c #232324",
"i.	c #DADADA",
"j.	c #D6D6D6",
"k.	c #BABABA",
"l.	c #0901A8",
"m.	c #0B0B0B",
"n.	c #A5A5A5",
"o.	c #E1E1E1",
"p.	c #E7E7E7",
"q.	c #9D8045",
"r.	c #D8B46D",
"s.	c #CBA561",
"t.	c #403624",
"u.	c #0F0F0F",
"v.	c #C8C8C9",
"w.	c #D1D1D1",
"x.	c #5F5F5F",
"y.	c #E6E6E6",
"z.	c #EBEBEB",
"A.	c #1E1E1E",
"B.	c #BD9A52",
"C.	c #D8B56C",
"D.	c #B9954F",
"E.	c #241E14",
"F.	c #747475",
"G.	c #D5D5D5",
"H.	c #D4D4D4",
"I.	c #CACACA",
"J.	c #4C4C4C",
"K.	c #0700A2",
"L.	c #DCDCDC",
"M.	c #E2E2E2",
"N.	c #E5E5E5",
"O.	c #686868",
"P.	c #B09252",
"Q.	c #CEA85A",
"R.	c #795F2C",
"S.	c #10100E",
"T.	c #A9A9A9",
"U.	c #D3D3D3",
"V.	c #CBCBCB",
"W.	c #A1A1A1",
"X.	c #0900D0",
"Y.	c #3B3B3B",
"Z.	c #CCCCCC",
"`.	c #636363",
" +	c #564A2F",
".+	c #574829",
"++	c #404041",
"@+	c #C8C8C8",
"#+	c #BDBDBD",
"$+	c #2E2E2E",
"%+	c #515151",
"&+	c #C2C2C2",
"*+	c #B5B5B5",
"=+	c #3C3C3C",
"-+	c #303030",
";+	c #4D4D4D",
">+	c #A3A3A3",
",+	c #C1C1C1",
"'+	c #B8B8B8",
")+	c #454545",
"!+	c #030303",
"~+	c #313131",
"{+	c #999999",
"]+	c #BBBBBB",
"^+	c #666460",
"/+	c #505050",
"(+	c #898989",
"_+	c #909090",
":+	c #2B2B2B",
"<+	c #0800BC",
"[+	c #010101",
"}+	c #414141",
"|+	c #3D3D3D",
"1+	c #C5A768",
"2+	c #E2C280",
"3+	c #735A29",
"4+	c #E1C07D",
"5+	c #EBC880",
"6+	c #80642E",
"7+	c #D2B06B",
"8+	c #D4AB58",
"9+	c #6B5326",
"0+	c #040404",
"a+	c #4C3D1D",
"b+	c #4A3B1D",
"c+	c #1A1409",
"d+	c #3A3A3A",
"e+	c #020203",
"              . + @ # $ % &                   ",
"            * = - ; > , ' ) !             ~   ",
"          { ] ^ / ( _ : < [ } &           ~   ",
"        | 1 2 3 4 5 6 7 8 9 0 a b   ~ ~ ~ ~   ",
"      c d e f g h i j k l m n o p             ",
"    q r s t u v w x y z A B C D E F           ",
"    G H I J K L M N O P Q R S T h U ~ ~ ~ ~   ",
"  | V W X Y Z `  .N ..+.@.#.$.& %.&.*.~       ",
"  =.-.;.>.,.G h '.).!.~.{.].^./.(._.:.  ~     ",
"  <.[.}.|.1.2.2.1.3.4.5.6.7.:.8.9.0.:.  ~     ",
"  U i a.b.2.2.2./.c.d.e.f.g.h.i.j.k.l.~       ",
"  m.n.o.p.O 2.2.,.q.r.s.t.u.v.i.w.8.~ ~ ~ ~   ",
"  E x.j o.y.z.2.A.B.C.D.E.F.G.H.I.J.K.        ",
"    E >.;.L.M.N.O.P.Q.R.S.T.U.V.W.p X.        ",
"    :.Y.Z.W H.i.`. +.+Z ++i @+#+$+& ~ ~ ~ ~   ",
"      b %+&+(.V.*+=+-+;+>+,+'+)+&   ~         ",
"        !+~+{+]+#+^+/+/+(+_+:+& & & <+        ",
"          [+!+}+|+1+2+3+:.& &   & & & &       ",
"              & & 4+5+6+& p       ~ ~ ~ ~ ~   ",
"                & 7+8+9+& 0+      & O.~ & &   ",
"                  a+b+c+&           & ~ d+& & ",
"                    [+[+e+        ~ ~ ~ ~ ~ & ",
"                                        & &   "};
