/* XPM */
static char * thtmlhelpdatabase_xpm[] = {
"23 23 221 2",
"  	c None",
". 	c #030302",
"+ 	c #1E180B",
"@ 	c #413418",
"# 	c #3D3116",
"$ 	c #342913",
"% 	c #0C0A04",
"& 	c #000000",
"* 	c #040301",
"= 	c #7F6838",
"- 	c #C5AA74",
"; 	c #E5C88B",
"> 	c #D4B46F",
", 	c #C4A565",
"' 	c #917844",
") 	c #413318",
"! 	c #0C00FF",
"~ 	c #0C0904",
"{ 	c #A28549",
"] 	c #F7DA9F",
"^ 	c #E7C787",
"/ 	c #D3AE64",
"( 	c #D7AA4E",
"_ 	c #F7C662",
": 	c #E8C377",
"< 	c #CAA558",
"[ 	c #755C2B",
"} 	c #020201",
"| 	c #76643E",
"1 	c #F7D99C",
"2 	c #E5BF71",
"3 	c #665125",
"4 	c #2C2310",
"5 	c #302612",
"6 	c #C39A47",
"7 	c #F5C562",
"8 	c #E4BB67",
"9 	c #B9954D",
"0 	c #2B210F",
"a 	c #010101",
"b 	c #242013",
"c 	c #C5A767",
"d 	c #F1D396",
"e 	c #635028",
"f 	c #423720",
"g 	c #E5B85C",
"h 	c #E9BE68",
"i 	c #CFA652",
"j 	c #4B3B1B",
"k 	c #493B1D",
"l 	c #EAC373",
"m 	c #D8AE5A",
"n 	c #211A0C",
"o 	c #3C3321",
"p 	c #E0B764",
"q 	c #E7BF6C",
"r 	c #CAA14E",
"s 	c #3E3116",
"t 	c #564522",
"u 	c #E9BF69",
"v 	c #BE9545",
"w 	c #1B150A",
"x 	c #020202",
"y 	c #403623",
"z 	c #E1B763",
"A 	c #D8B56B",
"B 	c #AE8A42",
"C 	c #1A1509",
"D 	c #141009",
"E 	c #312815",
"F 	c #251D0D",
"G 	c #060402",
"H 	c #030303",
"I 	c #957942",
"J 	c #DBBB79",
"K 	c #D7AE59",
"L 	c #6E5728",
"M 	c #DCB769",
"N 	c #DDBA72",
"O 	c #A5823B",
"P 	c #130F07",
"Q 	c #303430",
"R 	c #515A50",
"S 	c #5B615A",
"T 	c #595E58",
"U 	c #221F17",
"V 	c #9C7E40",
"W 	c #E8C57D",
"X 	c #CFA95D",
"Y 	c #50401F",
"Z 	c #080808",
"` 	c #3B3F3A",
" .	c #5E635D",
"..	c #3F3F3F",
"+.	c #262D25",
"@.	c #6B8767",
"#.	c #73976F",
"$.	c #93B290",
"%.	c #6A7968",
"&.	c #896F3B",
"*.	c #D4B575",
"=.	c #CEAD6A",
"-.	c #9D8456",
";.	c #090906",
">.	c #5C685B",
",.	c #ADC3AA",
"'.	c #BED0BC",
").	c #5850F6",
"!.	c #150BDA",
"~.	c #272F26",
"{.	c #688465",
"].	c #597B55",
"^.	c #63885F",
"/.	c #71986E",
"(.	c #3C4C3B",
"_.	c #9D8045",
":.	c #D8B46D",
"<.	c #CBA561",
"[.	c #403624",
"}.	c #282D27",
"|.	c #99AD97",
"1.	c #AEC4AB",
"2.	c #BCCFB9",
"3.	c #101410",
"4.	c #192118",
"5.	c #5A7657",
"6.	c #597A55",
"7.	c #5C7F58",
"8.	c #5E815A",
"9.	c #2E3E2D",
"0.	c #BD9A52",
"a.	c #D8B56C",
"b.	c #B9954F",
"c.	c #252015",
"d.	c #3D4C3C",
"e.	c #759272",
"f.	c #789574",
"g.	c #7C9879",
"h.	c #4C50CB",
"i.	c #95AA92",
"j.	c #738871",
"k.	c #192218",
"l.	c #0D120D",
"m.	c #698966",
"n.	c #658961",
"o.	c #2D3E2C",
"p.	c #B09252",
"q.	c #CEA85A",
"r.	c #795F2C",
"s.	c #0A0B07",
"t.	c #4F6A4C",
"u.	c #3139BC",
"v.	c #557552",
"w.	c #5D7E59",
"x.	c #577854",
"y.	c #273626",
"z.	c #564A2F",
"A.	c #574829",
"B.	c #1A241A",
"C.	c #547351",
"D.	c #4D6A4A",
"E.	c #1B251A",
"F.	c #161D15",
"G.	c #212D20",
"H.	c #476245",
"I.	c #2B32B7",
"J.	c #486445",
"K.	c #51704E",
"L.	c #526850",
"M.	c #536850",
"N.	c #303B29",
"O.	c #253324",
"P.	c #425B40",
"Q.	c #4C6849",
"R.	c #5A6E58",
"S.	c #50664E",
"T.	c #52714F",
"U.	c #2F38AE",
"V.	c #40593E",
"W.	c #9B9C9B",
"X.	c #5A5A5A",
"Y.	c #C4A767",
"Z.	c #E2C280",
"`.	c #735A29",
" +	c #040504",
".+	c #4C504B",
"++	c #D1D1D1",
"@+	c #727272",
"#+	c #384E36",
"$+	c #547551",
"%+	c #384936",
"&+	c #313231",
"*+	c #E1C07D",
"=+	c #EBC880",
"-+	c #80642E",
";+	c #040404",
">+	c #4D4D4D",
",+	c #525552",
"'+	c #293528",
")+	c #415A3F",
"!+	c #567653",
"~+	c #253323",
"{+	c #D2B06B",
"]+	c #D4AB58",
"^+	c #6B5326",
"/+	c #030403",
"(+	c #354934",
"_+	c #486446",
":+	c #4A6748",
"<+	c #455F42",
"[+	c #4C4020",
"}+	c #4A3B1D",
"|+	c #1A1409",
"1+	c #040604",
"2+	c #445D41",
"3+	c #4F6C4C",
"4+	c #354A33",
"5+	c #131B13",
"6+	c #111811",
"7+	c #2B3C2A",
"8+	c #486345",
"              . + @ # $ % &                   ",
"            * = - ; > , ' ) *             !   ",
"          ~ { ] ^ / ( _ : < [ &           !   ",
"        } | 1 2 3 4 5 6 7 8 9 0 a ! ! ! ! !   ",
"        b c d e &     f g h i j &             ",
"        k l m n a     o p q r s &             ",
"        t u v w x     y z A B C & ! ! ! ! !   ",
"        D E F G H   & I J K L & x   !         ",
"          a x x     s M N O P &         !     ",
"          Q R S T U V W X Y Z `  ...  ! !     ",
"        +.@.#.$.%.&.*.=.-.;.>.,.'.).!.        ",
"      ~.{.].^./.(._.:.<.[.}.|.1.2.! ! ! ! !   ",
"  3.4.5.6.6.7.8.9.0.a.b.c.d.e.f.g.h.i.j.k.l.  ",
"  m.n.n.n.n.n.n.o.p.q.r.s.t.n.n.n.u.n.n.n.v.  ",
"  w.x.x.x.x.x.x.y.z.A.F B.C.x.x.x.! ! ! ! !   ",
"  w.x.x.x.x.x.x.D.E.F.G.H.x.x.x.x.I.x.x.x.J.  ",
"  w.x.x.x.x.K.L.M.N.O.O.P.Q.R.S.T.U.x.x.x.J.  ",
"  w.x.x.x.x.V.W.X.Y.Z.`. +.+++@+#+x.x.x.x.J.  ",
"  w.x.x.x.x.$+%+&+*+=+-+;+>+,+'+)+! ! ! ! !   ",
"& w.x.x.x.x.x.!+~+{+]+^+/+(+_+:+T.x.x.! x.J.& ",
"& w.x.x.x.x.x.x.<+[+}+|+1+2+x.x.x.x.x.! x.J.& ",
"& 3+J.J.J.J.J.J.J.4+5+6+7+8+J.J.J.! ! ! ! !   ",
"  & & & & & & & & & & H H ;+a & & & & & &     "};
