/* XPM */
static char * tibdatabase_xpm[] = {
"20 17 193 2",
"  	c None",
". 	c #010000",
"+ 	c #040301",
"@ 	c #060405",
"# 	c #050304",
"$ 	c #090708",
"% 	c #020100",
"& 	c #030000",
"* 	c #060203",
"= 	c #030002",
"- 	c #0E090F",
"; 	c #030004",
"> 	c #010004",
", 	c #0A080D",
"' 	c #010103",
") 	c #C8C8CA",
"! 	c #040404",
"~ 	c #F9F9F7",
"{ 	c #BFBFBD",
"] 	c #C4C4C2",
"^ 	c #BEBEBE",
"/ 	c #BFBFBF",
"( 	c #FFFEFF",
"_ 	c #C2C0C1",
": 	c #CECCCD",
"< 	c #BFBDBE",
"[ 	c #BDBBBE",
"} 	c #CECCCF",
"| 	c #C5C3C6",
"1 	c #010002",
"2 	c #000005",
"3 	c #000000",
"4 	c #040500",
"5 	c #060701",
"6 	c #000100",
"7 	c #101012",
"8 	c #020003",
"9 	c #09070A",
"0 	c #0D0B0C",
"a 	c #070803",
"b 	c #C7C7C7",
"c 	c #000009",
"d 	c #FFFDFF",
"e 	c #CECECC",
"f 	c #BABBB3",
"g 	c #C4C5BD",
"h 	c #C5C6C1",
"i 	c #BCBBC1",
"j 	c #BEBDC3",
"k 	c #C4C3C8",
"l 	c #C5C5C7",
"m 	c #C8C8C8",
"n 	c #C0C0BE",
"o 	c #010200",
"p 	c #C3C2C0",
"q 	c #030104",
"r 	c #00000E",
"s 	c #050213",
"t 	c #020400",
"u 	c #030301",
"v 	c #00000B",
"w 	c #02000B",
"x 	c #020107",
"y 	c #000002",
"z 	c #030303",
"A 	c #D3D2CE",
"B 	c #060700",
"C 	c #FCFCFC",
"D 	c #C5C1D8",
"E 	c #C4C0D7",
"F 	c #BFC1C0",
"G 	c #C9CCC3",
"H 	c #FEFFFA",
"I 	c #BABBBD",
"J 	c #CFCEDE",
"K 	c #C1BFD4",
"L 	c #C7C6D4",
"M 	c #C1C1CB",
"N 	c #C6C7CC",
"O 	c #030504",
"P 	c #C1C2BD",
"Q 	c #CECFC9",
"R 	c #010100",
"S 	c #08080A",
"T 	c #04001F",
"U 	c #00001B",
"V 	c #000004",
"W 	c #000300",
"X 	c #010300",
"Y 	c #02020A",
"Z 	c #000017",
"` 	c #02001E",
" .	c #000013",
"..	c #00000C",
"+.	c #06060E",
"@.	c #BFC0BB",
"#.	c #0D0E08",
"$.	c #BDBEB6",
"%.	c #070709",
"&.	c #C2C2C0",
"*.	c #000200",
"=.	c #F6F1FF",
"-.	c #FEF9FF",
";.	c #FEFEFF",
">.	c #C5C7C2",
",.	c #FAFEFD",
"'.	c #FCFEFF",
").	c #FCFAFF",
"!.	c #F9F7FF",
"~.	c #FBFAFF",
"{.	c #FCFDFF",
"].	c #F6F6FF",
"^.	c #000105",
"/.	c #C3C5C2",
"(.	c #C6C7BF",
"_.	c #FFFFFD",
":.	c #2C6B2C",
"<.	c #FEFDFF",
"[.	c #BEC2C1",
"}.	c #F9FCFF",
"|.	c #FDFCFF",
"1.	c #010109",
"2.	c #C8CAC7",
"3.	c #C8C9C1",
"4.	c #FEF7FF",
"5.	c #FEF6FF",
"6.	c #C5C9CC",
"7.	c #FBFDFF",
"8.	c #FBFCFF",
"9.	c #F9F6FF",
"0.	c #F7F3FF",
"a.	c #FCF9FF",
"b.	c #FCFBFF",
"c.	c #F8F9FF",
"d.	c #00030C",
"e.	c #C6C8C7",
"f.	c #040700",
"g.	c #FFFFFF",
"h.	c #0B0D02",
"i.	c #F6F7FF",
"j.	c #BEC1C8",
"k.	c #F8FBFF",
"l.	c #FCFCFF",
"m.	c #BCBDBF",
"n.	c #B7BAB3",
"o.	c #090C05",
"p.	c #C5C5C5",
"q.	c #F3F1FE",
"r.	c #FEF5FF",
"s.	c #FBF1FF",
"t.	c #C2C5CE",
"u.	c #FBFEFF",
"v.	c #FAFAFF",
"w.	c #FAF4FF",
"x.	c #F1EAFF",
"y.	c #FAF7FF",
"z.	c #F7F7FF",
"A.	c #C0C4C7",
"B.	c #070C06",
"C.	c #C4C7C0",
"D.	c #B7B9C8",
"E.	c #FEFCFF",
"F.	c #C5C6CA",
"G.	c #C3C4C9",
"H.	c #06070C",
"I.	c #FEFAFF",
"J.	c #FEFBFF",
"K.	c #C9C6E1",
"L.	c #F6F3FF",
"M.	c #FBF9FF",
"N.	c #FEF8FF",
"O.	c #FDF9FF",
"P.	c #05040A",
"Q.	c #C3C3C5",
"R.	c #050505",
"S.	c #08090D",
"T.	c #C9C6E3",
"U.	c #F4F2F5",
"V.	c #070508",
"W.	c #040205",
"X.	c #BDBEC3",
"Y.	c #0A0A12",
"Z.	c #F5F4FF",
"`.	c #C4C3D5",
" +	c #F3F1FF",
".+	c #FBF9FC",
"++	c #020106",
"@+	c #05060A",
"#+	c #010008",
"$+	c #06040F",
"%+	c #01000A",
"&+	c #050511",
"*+	c #040207",
"        . + . . @ # $ % & * & = - ; > , ",
"        ' ) ! ~ { ] ^ / ( _ : < [ } | 1 ",
"    + . 2 2 3 4 5 6 3 7 8 9 . . 0 . . 0 ",
"    a b c d e f g h ( i j k l m n o p . ",
"q . 6 3 r s 3 t 6 u c v w x y z 6 6 A . ",
"y { B C D E F G H I J K L M N O P 6 Q 6 ",
"y R 6 S T U V W X Y Z `  ...+.y @.#.$.o ",
"%.&.*.( =.-.;.>.,.'.).!.~.{.].^./.*.(.o ",
"y _.*.( :.:.<.[.}.:.:.:.:.:.|.1.2.*.3.6 ",
"S ^ *.( 4.5.{.6.7.8.9.0.a.b.c.d.e.f.G *.",
"y g.h.).:.:.i.j.k.:.:.:.:.).l...m.*.n.o.",
"y p.t q.r.s.l.t.u.v.w.x.y.z.l.r A.B.C.*.",
"y g.6 d :.:.l.D.l.:.:.:.:.:.E.v F.6 X o ",
"V G.H.b.I.0.J.K.L.M.N.N.O.d b.P.Q.R.    ",
"S.;.c <.:.:.!.T.J.:.:.:.:.( U.V.W.1     ",
"V X.Y.;.;.Z.<.`. +!.E.<.J..+( V.        ",
"++@+2 2 #+Y $+c %+&+v c *+1 9 1         "};
