/* XPM */
static char * tidletimer_xpm[] = {
"19 19 4 1",
" 	c None",
".	c #000000",
"+	c #AD9226",
"@	c #1100D6",
"       .....       ",
"     ..+++++..     ",
"    .++@@@@@++.    ",
"   .+@@@@+@@@@+.   ",
"  .+@@+@@+.@+@@+.  ",
" .+@@@@@@+.@@@@@+. ",
" .+@+@@@@+.@@@+@+. ",
".+@@@@@@@+.@@@@@@+.",
".+@@@@@@@+.@@@@@@+.",
".+@+@@@@@++++@@+@+.",
".+@@@@@@@@....@@@+.",
".+@@@@@@@@@@@@@@@+.",
" .+@+@@@@@@@@@+@+. ",
" .+@@@@@@@@@@@@@+. ",
"  .+@@+@@@@@+@@+.  ",
"   .+@@@@+@@@@+.   ",
"    .++@@@@@++.    ",
"     ..+++++..     ",
"       .....       "};
