/* XPM */
static char *graphic[] = {
"23 23 39 1",
". c #C6C6C6",
", c #B7B7B7",
"- c #AFAFAF",
"* c #A7A7A7",
"a c #9F9F9F",
"b c #949494",
"c c #777777",
"d c None",
"e c #FFFFFF",
"f c #DEDEDE",
"g c #000000",
"h c #376F9D",
"i c #2D5B85",
"j c #3B77A7",
"k c #2F5F87",
"l c #3F7FB5",
"m c #438CBF",
"n c #4A97C6",
"o c #4F9DCE",
"p c #52A7DE",
"q c #57B5E7",
"r c #5EBFEF",
"s c #63C6F7",
"t c #000EF7",
"u c #CECECE",
"v c #001ED7",
"w c #F7F700",
"x c #E7E7E7",
"y c #002FBD",
"z c #00356B",
"A c #003167",
"B c #AFF7AF",
"C c #A7F7A7",
"D c #9FF79F",
"E c #96F796",
"F c #8EF78E",
"G c #7FEF7F",
"H c #6FD66F",
"I c #5FC65F",
".,-**************abcddd",
",eeeeeeeeeeeeeeeeefgddd",
"-ehhhhhhhhhhhhhhhhigddd",
"*ejjjjjjjjjjjjjjjjkgddd",
"*ell.,-**************ab",
"*emm,eeeeeeeeeeeeeeeeef",
"*enn-ehhhhhhhhhhhhhhhhi",
"*eoo*ejjjjjjjjjjjjjjjjk",
"*epp*ell.,-************",
"*eqq*emm,eeeeeeeeeeeeee",
"*err*enn-ehhhhhhhhhhhhh",
"*ess*eoo*ejjjjjjjjjjjjj",
"*ett*epp*elll.ullllllll",
"*evv*eqq*emmuwx.mmmmmmm",
"aeyy*err*enn.xw.nnnnnnn",
"bfzA*ess*eooo..oooooooo",
"cggg*ett*eppppppppppppp",
"dddd*evv*eqqqqqqqqqqqqq",
"ddddaeyy*errrrrrrrrrrBC",
"ddddbfzA*esssssssssDEFG",
"ddddcggg*etttttttttttHI",
"dddddddd*evvvvvvvvvvvvv",
"ddddddddaeyyyyyyyyyyyyy"}
