/* XPM */
static char *tinistorage[] = {
/* columns rows colors chars-per-pixel */
"24 24 8 1",
"  c black",
". c navy",
"X c cyan",
"o c red",
"O c transparent",
"+ c #808080",
"@ c #C0C0C0",
"# c gray100",
/* pixels */
"OOOOOOOOOOOOOOOOOOOOOOOO",
"OOOOOOOOOOOOOOOOOOOOOOOO",
"O+++++++++++++++++++++ O",
"O+@@@@@@@@@@@@@@@@@@@@ O",
"O+@............# # # @ O",
"O+@............      @ O",
"O+@@@@@@@@@@@@@@@@@@@@ O",
"O+@##################@ O",
"O+@#######+  +#######@ O",
"O+@###  #+ ## +#  ###@ O",
"O+@##              ##@ O",
"O+@## ###      ### ##@ O",
"O+@## ##  ++++  ## ##@ O",
"O+@## ++ +X#+++ ++ ##@ O",
"O+@## ++ +#++++ ++ ##@ O",
"O+@## ++ ++++++ ++ ##@ O",
"O+@ooo+ooo++ooo ooo##@ O",
"O+@#o+  oo   o   o+##@ O",
"O+@#o###oo+  o###o###@ O",
"O+@#o###o#o##o###o###@ O",
"O+@@o@@@o@@o@o@@@o@@@@ O",
"O   o   o   oo   o     O",
"OOOOoOOOoOOOooOOOoOOOOOO",
"OOOoooOoooOOoooOoooOOOOO"
};
