/* XPM */
static char * tlabel_xpm[] = {
"17 12 35 1",
" 	c None",
".	c #000000",
"+	c #030303",
"@	c #060606",
"#	c #888888",
"$	c #010101",
"%	c #050505",
"&	c #020202",
"*	c #7E7E7E",
"=	c #828282",
"-	c #0A0A0A",
";	c #BFBFBF",
">	c #C5C5C5",
",	c #C4C4C4",
"'	c #8F8F8F",
")	c #7B7B7B",
"!	c #838383",
"~	c #C9C9C9",
"{	c #B3B3B3",
"]	c #808080",
"^	c #BDBDBD",
"/	c #BABABA",
"(	c #CECECE",
"_	c #7C7C7C",
":	c #7F7F7F",
"<	c #090909",
"[	c #080808",
"}	c #7D7D7D",
"|	c #040404",
"1	c #868686",
"2	c #8B8B8B",
"3	c #CACACA",
"4	c #CFCFCF",
"5	c #0F0F0F",
"6	c #898989",
"      .+@.#      ",
"       .$..      ",
"      .$%.&*     ",
"     =-$;.$&     ",
"    >$.*,'..)    ",
"    !..~;{$.$    ",
"    @$]^/(_.%:   ",
"  ~_.<.....[..   ",
"   $$      }|.]  ",
"  1|.       .<.  ",
"  ..2       *.@= ",
"3++..4      .5..6"};
