/* XPM */
static char *graphic[] = {
"23 23 6 1",
". c None",
", c #000000",
"- c #848484",
"* c #FFFFFF",
"a c #424242",
"b c #D6D6CE",
".......................",
"..,..............,.....",
".,,,,..,,..,...,,,,,...",
"..,...,..,..,.,..,.....",
"..,...,,,,...,...,.....",
"..,...,.....,.,..,.....",
"...,,..,,,.,...,..,,...",
".......................",
"----------------------*",
"-aaaaaaaaaaaaaaaaaaaab*",
"-a*******************b*",
"-a********,**********b*",
"-a***,,***,**********b*",
"-a***,,***,**********b*",
"-a**,**,**,,,********b*",
"-a**,**,**,**,*******b*",
"-a*,,,,,,*,**,*******b*",
"-a*,****,*,**,*******b*",
"-a*,****,*,,,********b*",
"-a*******************b*",
"-bbbbbbbbbbbbbbbbbbbbb*",
"***********************",
"......................."}
