/* XPM */
static char * tlabelededit_xpm[] = {
"23 23 143 2",
"  	c None",
". 	c #000000",
"+ 	c #929292",
"@ 	c #747474",
"# 	c #818181",
"$ 	c #7C7C7C",
"% 	c #7D7D7D",
"& 	c #777777",
"* 	c #7E7E7E",
"= 	c #878787",
"- 	c #888888",
"; 	c #7A7A7A",
"> 	c #858585",
", 	c #7B7B7B",
"' 	c #8A8A8A",
") 	c #868686",
"! 	c #787878",
"~ 	c #727272",
"{ 	c #0B0B0B",
"] 	c #030303",
"^ 	c #050505",
"/ 	c #0A0A0A",
"( 	c #040404",
"_ 	c #FFFFFF",
": 	c #FFFDFF",
"< 	c #FEFEFE",
"[ 	c #FDFFFE",
"} 	c #FDFEFF",
"| 	c #FDFDFF",
"1 	c #FDFBFF",
"2 	c #FEFCFF",
"3 	c #FEFEFF",
"4 	c #F9F9F9",
"5 	c #FFFFFD",
"6 	c #FCFCFC",
"7 	c #FDFDFD",
"8 	c #C2C2C2",
"9 	c #020003",
"0 	c #FFFAFF",
"a 	c #FEFCFD",
"b 	c #FBFBFB",
"c 	c #FEFFFF",
"d 	c #FCFFFF",
"e 	c #F8F8FF",
"f 	c #AA4747",
"g 	c #FCFDFF",
"h 	c #FEFFFD",
"i 	c #FAFBF3",
"j 	c #010000",
"k 	c #FFFEFF",
"l 	c #020202",
"m 	c #C5C5C5",
"n 	c #010103",
"o 	c #FFFBFF",
"p 	c #FBFAFF",
"q 	c #F6F9FF",
"r 	c #FBFEFF",
"s 	c #F9FAFF",
"t 	c #FBF9FF",
"u 	c #F6F8FF",
"v 	c #FCFBF6",
"w 	c #FAF5F9",
"x 	c #020005",
"y 	c #EEECF9",
"z 	c #FEFDFF",
"A 	c #F8FBFF",
"B 	c #F2F2FF",
"C 	c #F4F6FF",
"D 	c #000004",
"E 	c #F5F5FD",
"F 	c #FCFBFF",
"G 	c #F1EFFF",
"H 	c #F5F1FF",
"I 	c #F5F7FF",
"J 	c #F8F2FF",
"K 	c #000002",
"L 	c #000105",
"M 	c #F7FBFF",
"N 	c #F4F3FF",
"O 	c #F1F4FF",
"P 	c #F5F3FF",
"Q 	c #F9FBFF",
"R 	c #F2F5FF",
"S 	c #060A0B",
"T 	c #000103",
"U 	c #FBFFFF",
"V 	c #F4F8FF",
"W 	c #F3EFFF",
"X 	c #F3F6FF",
"Y 	c #F5F2FF",
"Z 	c #F8FAFF",
"` 	c #F0F6FF",
" .	c #000202",
"..	c #F9FEFF",
"+.	c #F8F1FF",
"@.	c #F1F1FF",
"#.	c #F7F1FF",
"$.	c #F7F9FF",
"%.	c #010602",
"&.	c #000201",
"*.	c #FAFAFF",
"=.	c #F7F6FF",
"-.	c #000200",
";.	c #000300",
">.	c #FEFFF4",
",.	c #010200",
"'.	c #050503",
").	c #FEFFFB",
"!.	c #FCFCFF",
"~.	c #FBFDFF",
"{.	c #FBFCFF",
"].	c #F5F8FF",
"^.	c #FCFFF2",
"/.	c #FFFFF3",
"(.	c #FEFFF5",
"_.	c #FFFFFB",
":.	c #F8F8F8",
"<.	c #C2C2C0",
"[.	c #C3C0C7",
"}.	c #C2C1C6",
"|.	c #C2C0CB",
"1.	c #C2BFD0",
"2.	c #C3C1CE",
"3.	c #BEBFBA",
"4.	c #C9CBC0",
"5.	c #BBBCB7",
"6.	c #BEBEBC",
"7.	c #B9B8B4",
"8.	c #C2C3BE",
"9.	c #B7B7B5",
"0.	c #CACACA",
"a.	c #B5B5B5",
"b.	c #BBBBBB",
"c.	c #FAFAFC",
"d.	c #FDFAFF",
"e.	c #FDFCFA",
"f.	c #FDFBFC",
"g.	c #FDF9FF",
"h.	c #FCF8FF",
"i.	c #FEFDF9",
"j.	c #F8F8F0",
"k.	c #FFFEFC",
"l.	c #FAF7FE",
"                                              ",
"    .                                 .       ",
"    .                                 .       ",
"    .                                 .       ",
"  . . .       . . .     .       .   . . .     ",
"    .       .       .     .   .       .       ",
"    .       . . . . .       .         .       ",
"    .       .             .   .       .       ",
"      . .     . . .     .       .       . .   ",
"+ @ # # # # # # # # $ $ % & * = - ; > , ' ) ! ",
"~ { . . . . . . . . ] ^ . / . . . ] . ( . . _ ",
"# . : : < < < [ } | 1 2 3 4 5 6 _ 7 6 _ 7 8 _ ",
"* 9 0 : a b c d d e f f g h i . j k l . _ m _ ",
"* n : o : p g q r s f f t u 5 v w x k _ _ m _ ",
"* n k y z f f f A B f f f f C c k D _ _ _ m _ ",
"* n E g F G H f f I f f J f f q d K _ _ _ m _ ",
"* L d M N f f f f O f f P f f Q R S c _ _ m _ ",
"* T U V f f W f f X f f Y f f Z `  .c _ _ m _ ",
"* T r ..f f +.f f @.f f #.f f $.U %.c _ _ m _ ",
"* &.d M *.f f f f e f f f f =.-.;.>.,.. _ m _ ",
"@ '.).d d g !.~.U U Q {.~.].d ^./.(._.:.7 m :.",
"' . <.8 [.}.<.<.}.|.1.2.3.4.5.6.7.8.9.0.a.b._ ",
"$ c.d.d.d.1 e.f.d.g.h.d.i.j.k.k : l._ _ _ _ 7 "};
