/* XPM */
static char * tlazcomponentqueue_xpm[] = {
"23 23 245 2",
"  	c None",
". 	c #000000",
"+ 	c #072A07",
"@ 	c #09260A",
"# 	c #2B7C2C",
"$ 	c #4FC851",
"% 	c #47C948",
"& 	c #2FBF30",
"* 	c #0C700D",
"= 	c #010C01",
"- 	c #153E16",
"; 	c #74DA74",
"> 	c #96F296",
", 	c #94F194",
"' 	c #82ED82",
") 	c #6AE76A",
"! 	c #43D643",
"~ 	c #0F9811",
"{ 	c #0B210C",
"] 	c #71DD72",
"^ 	c #9BF39B",
"/ 	c #B2F9B2",
"( 	c #ACF7AC",
"_ 	c #92F192",
": 	c #76EA76",
"< 	c #58E358",
"[ 	c #32D432",
"} 	c #055F06",
"| 	c #004C00",
"1 	c #3F953F",
"2 	c #509350",
"3 	c #283D28",
"4 	c #3B4E3B",
"5 	c #8ECA8E",
"6 	c #94F294",
"7 	c #77EA77",
"8 	c #59E359",
"9 	c #3BDB3B",
"0 	c #10BA10",
"a 	c #026302",
"b 	c #01B101",
"c 	c #00A600",
"d 	c #1C471C",
"e 	c #1D2D1D",
"f 	c #86EE86",
"g 	c #6DE86D",
"h 	c #52E152",
"i 	c #35DA35",
"j 	c #16D016",
"k 	c #01CC01",
"l 	c #00CD00",
"m 	c #007300",
"n 	c #070F07",
"o 	c #59BC59",
"p 	c #5CE45C",
"q 	c #44DE44",
"r 	c #2AD72A",
"s 	c #0FD00F",
"t 	c #003300",
"u 	c #0A1C0A",
"v 	c #398E39",
"w 	c #59D659",
"x 	c #56E256",
"y 	c #46DE46",
"z 	c #32D932",
"A 	c #1AD31A",
"B 	c #04CE04",
"C 	c #00C000",
"D 	c #050E05",
"E 	c #2D8B2D",
"F 	c #42DD42",
"G 	c #3ADB3A",
"H 	c #2DD82D",
"I 	c #1CD41C",
"J 	c #08CF08",
"K 	c #008C00",
"L 	c #322826",
"M 	c #775E5A",
"N 	c #4F3732",
"O 	c #0B330C",
"P 	c #082808",
"Q 	c #189F18",
"R 	c #13D113",
"S 	c #05CE05",
"T 	c #A08A85",
"U 	c #E4C1BA",
"V 	c #C3988E",
"W 	c #4B251C",
"X 	c #051305",
"Y 	c #2DBD2E",
"Z 	c #1FA11F",
"` 	c #062806",
" .	c #00B300",
"..	c #001900",
"+.	c #D0A096",
"@.	c #CC8170",
"#.	c #934737",
"$.	c #250E09",
"%.	c #114312",
"&.	c #4ED94F",
"*.	c #31D931",
"=.	c #128412",
"-.	c #011B01",
";.	c #005900",
">.	c #33201C",
",.	c #BF604C",
"'.	c #BA533D",
").	c #B84F39",
"!.	c #9A3A25",
"~.	c #3C160E",
"{.	c #257627",
"].	c #75EA75",
"^.	c #63E563",
"/.	c #49DF49",
"(.	c #2CD82C",
"_.	c #0CC30C",
":.	c #006600",
"<.	c #000E00",
"[.	c #060E01",
"}.	c #652619",
"|.	c #B4452E",
"1.	c #31120C",
"2.	c #59C65A",
"3.	c #95F295",
"4.	c #7BEB7B",
"5.	c #5CE35C",
"6.	c #18D318",
"7.	c #40170F",
"8.	c #813929",
"9.	c #C16552",
"0.	c #7B2F1F",
"a.	c #0F0503",
"b.	c #09340A",
"c.	c #8BE18C",
"d.	c #AAF7AA",
"e.	c #87EE87",
"f.	c #64E564",
"g.	c #40DD40",
"h.	c #1DD41D",
"i.	c #01CD01",
"j.	c #000D00",
"k.	c #51271E",
"l.	c #A56D61",
"m.	c #C3877A",
"n.	c #B97F73",
"o.	c #865044",
"p.	c #170A06",
"q.	c #0E600F",
"r.	c #A9F7A9",
"s.	c #9EF49E",
"t.	c #81ED81",
"u.	c #60E560",
"v.	c #3DDC3D",
"w.	c #017301",
"x.	c #141618",
"y.	c #585D67",
"z.	c #3F4045",
"A.	c #060A06",
"B.	c #050301",
"C.	c #362F23",
"D.	c #766A5A",
"E.	c #5B5143",
"F.	c #17130C",
"G.	c #34AD35",
"H.	c #68DF69",
"I.	c #6CE86C",
"J.	c #51E151",
"K.	c #11D111",
"L.	c #009900",
"M.	c #0F1011",
"N.	c #BDBFC4",
"O.	c #9B9CA0",
"P.	c #252627",
"Q.	c #51644D",
"R.	c #C5D2C2",
"S.	c #D2DECF",
"T.	c #CCDAC9",
"U.	c #96A891",
"V.	c #1C2B1A",
"W.	c #021602",
"X.	c #27C228",
"Y.	c #21A922",
"Z.	c #0A720B",
"`.	c #37D237",
" +	c #1FD41F",
".+	c #008000",
"++	c #002600",
"@+	c #004000",
"#+	c #2C3037",
"$+	c #202F1F",
"%+	c #8DA987",
"&+	c #E8EFE7",
"*+	c #BBCEB7",
"=+	c #9BB695",
"-+	c #4A6844",
";+	c #0B130A",
">+	c #011702",
",+	c #032E04",
"'+	c #0E9E0F",
")+	c #1ED31E",
"!+	c #09CF09",
"~+	c #0A0B0D",
"{+	c #404858",
"]+	c #365334",
"^+	c #658F5B",
"/+	c #A6BFA1",
"(+	c #779C6E",
"_+	c #648E5B",
":+	c #47713D",
"<+	c #1A2A17",
"[+	c #012401",
"}+	c #05BA05",
"|+	c #00CC00",
"1+	c #323946",
"2+	c #3C4455",
"3+	c #518146",
"4+	c #192517",
"5+	c #002500",
"6+	c #00B200",
"7+	c #051207",
"8+	c #3A3F48",
"9+	c #575F6E",
"0+	c #2D333F",
"a+	c #55804B",
"b+	c #68915E",
"c+	c #395C32",
"d+	c #090E07",
"e+	c #030304",
"f+	c #323438",
"g+	c #81858E",
"h+	c #90959F",
"i+	c #5E636E",
"j+	c #111419",
"k+	c #070B06",
"l+	c #395033",
"m+	c #89A783",
"n+	c #9BB795",
"o+	c #6B8964",
"p+	c #162414",
"q+	c #17191E",
"r+	c #31343B",
"s+	c #23262C",
"t+	c #070709",
"u+	c #364831",
"v+	c #293826",
"                  . . + . .                   ",
"              . @ # $ % & * =                 ",
"            . - ; > , ' ) ! ~ .               ",
"            { ] ^ / ( _ : < [ } . . | .       ",
"          . 1 2 3 4 5 6 7 8 9 0 a b c .       ",
"          . d .     e f g h i j k l m         ",
"                  . n o p q r s l l t         ",
"                u v w x y z A B l C .         ",
"                D E F G H I J l l K L M N     ",
"    . O .         . P Q R S l l l | T U V W   ",
"    X Y Z ` .         . t  .l l l ..+.@.@.#.$.",
"    %.&.y *.=.-..         . ;.C  .>.,.'.).!.~.",
"  . {.].^./.(._.:.<.        . [.t }.|.|.|.!.1.",
"  . 2.3.4.5.G 6.l  .| .     . 7.8.,.9.9.,.0.a.",
"  b.c.d.e.f.g.h.i.C :.j.        k.l.m.n.o.p.  ",
"  q.r.s.t.u.v.A w.. x.y.z.A.    B.C.D.E.F.    ",
". G.f H.I.J.z K.L.M.N.O.P.t     Q.R.S.T.U.V.  ",
"W.X.Y.Z.`.G  +S l .+++@+L.| #+$+%+&+*+=+=+-+;+",
">+,+. . '+)+!+l l l l l  .~+{+]+^+/+(+_+_+:+<+",
"        [+}+|+l l l l C ++1+2+]+3+3+3+3+3+:+4+",
"          5+6+l l l .+7+8+9+0+V.a+b+b+b+_+c+d+",
"            . ++t e+f+g+h+i+j+k+l+m+n+=+o+p+  ",
"                  . q+r+s+t+      4+u+v+d+    "};
