/* XPM */
static char * tlistbox_xpm[] = {
"20 19 245 2",
"  	c None",
". 	c #79797B",
"+ 	c #818085",
"@ 	c #7A797F",
"# 	c #848388",
"$ 	c #848587",
"% 	c #808183",
"& 	c #7C7C84",
"* 	c #7D7D89",
"= 	c #898795",
"- 	c #7A7987",
"; 	c #7A7A86",
"> 	c #82828A",
", 	c #828284",
"' 	c #858583",
") 	c #040500",
"! 	c #000100",
"~ 	c #090907",
"{ 	c #000002",
"] 	c #000005",
"^ 	c #0A0911",
"/ 	c #908F94",
"( 	c #FDFCFF",
"_ 	c #F6F5FD",
": 	c #FEFEFF",
"< 	c #FBFDFF",
"[ 	c #F2F6FF",
"} 	c #FCFDFF",
"| 	c #FCFCFF",
"1 	c #F5F5FF",
"2 	c #FEFBFF",
"3 	c #FEFCFF",
"4 	c #FCFBFF",
"5 	c #F8F7FD",
"6 	c #FFFFFF",
"7 	c #FDFEF8",
"8 	c #FFFFFD",
"9 	c #C3C2C8",
"0 	c #7A7981",
"a 	c #FFFDFF",
"b 	c #0B0A1A",
"c 	c #0A0C25",
"d 	c #0F1231",
"e 	c #05052B",
"f 	c #0D0C34",
"g 	c #0E0D37",
"h 	c #08062E",
"i 	c #0F0E2E",
"j 	c #080820",
"k 	c #F5F6FA",
"l 	c #050503",
"m 	c #FFFFFA",
"n 	c #7C7B77",
"o 	c #878586",
"p 	c #BEBCC1",
"q 	c #020005",
"r 	c #817F8A",
"s 	c #FBF9FF",
"t 	c #F5F3FF",
"u 	c #F9FBFF",
"v 	c #F5F7FF",
"w 	c #F2F3FF",
"x 	c #F9F8FF",
"y 	c #F4F3FF",
"z 	c #FBF8FF",
"A 	c #FBFAFF",
"B 	c #000000",
"C 	c #050400",
"D 	c #060503",
"E 	c #BBB9BC",
"F 	c #010002",
"G 	c #83818E",
"H 	c #FCF9FF",
"I 	c #11102F",
"J 	c #07093C",
"K 	c #030444",
"L 	c #151659",
"M 	c #000043",
"N 	c #131258",
"O 	c #040243",
"P 	c #030037",
"Q 	c #F9F9FF",
"R 	c #FAFAFF",
"S 	c #020202",
"T 	c #C1C2BC",
"U 	c #C9C8C3",
"V 	c #B7B6B2",
"W 	c #C2C0C1",
"X 	c #060405",
"Y 	c #82828C",
"Z 	c #FBFBFF",
"` 	c #EEF0FF",
" .	c #F5F8FF",
"..	c #F7F6FF",
"+.	c #F3F3FF",
"@.	c #F8F7FF",
"#.	c #F9F7FF",
"$.	c #F6F4FF",
"%.	c #FCFFFF",
"&.	c #010100",
"*.	c #010000",
"=.	c #7E8387",
"-.	c #FBFEFF",
";.	c #F5F9FF",
">.	c #090C39",
",.	c #070B4A",
"'.	c #02064F",
").	c #020650",
"!.	c #05084F",
"~.	c #040847",
"{.	c #050646",
"].	c #040349",
"^.	c #0C0C42",
"/.	c #000207",
"(.	c #FEFFFF",
"_.	c #BEC0BB",
":.	c #FFFFF8",
"<.	c #BDBEB8",
"[.	c #858994",
"}.	c #F8FCFF",
"|.	c #F3F6FF",
"1.	c #F7F9FF",
"2.	c #F3F5FF",
"3.	c #F2F4FF",
"4.	c #F4F6FF",
"5.	c #F7F7FF",
"6.	c #F8F5FF",
"7.	c #F1F3FF",
"8.	c #FBFFFF",
"9.	c #00000B",
"0.	c #B9BCC5",
"a.	c #BABCB7",
"b.	c #FFFFFB",
"c.	c #777992",
"d.	c #F6F8FF",
"e.	c #F8F8FF",
"f.	c #AB172F",
"g.	c #030416",
"h.	c #B7B8BD",
"i.	c #FDFEFF",
"j.	c #C0C0C0",
"k.	c #010101",
"l.	c #7D7DA1",
"m.	c #000019",
"n.	c #C9CCD5",
"o.	c #F4F4FE",
"p.	c #C8C8D0",
"q.	c #FFFEFF",
"r.	c #7A79A1",
"s.	c #F8F6FF",
"t.	c #E7E7FF",
"u.	c #F7F4FF",
"v.	c #F8F1FF",
"w.	c #F8F2FF",
"x.	c #F0ECFF",
"y.	c #F9F6FF",
"z.	c #000023",
"A.	c #FBFCFF",
"B.	c #C2C1D1",
"C.	c #C5C4CC",
"D.	c #030207",
"E.	c #6D6B92",
"F.	c #00001E",
"G.	c #BABCC9",
"H.	c #C0C1C6",
"I.	c #000004",
"J.	c #8A8AA4",
"K.	c #FAF8FF",
"L.	c #02020C",
"M.	c #FAFCF9",
"N.	c #C2C3BB",
"O.	c #F9FAF2",
"P.	c #BBBBB9",
"Q.	c #070709",
"R.	c #818090",
"S.	c #F2F1FF",
"T.	c #FAFDFF",
"U.	c #030500",
"V.	c #000200",
"W.	c #060702",
"X.	c #7E7F84",
"Y.	c #FCFEFF",
"Z.	c #F8F9FF",
"`.	c #0B0C2B",
" +	c #08083A",
".+	c #080743",
"++	c #141154",
"@+	c #050245",
"#+	c #090540",
"$+	c #100B4D",
"%+	c #09063B",
"&+	c #F9FAFF",
"*+	c #01010B",
"=+	c #FEFFFA",
"-+	c #FCFDF5",
";+	c #BBBCB7",
">+	c #7C7D7F",
",+	c #F4F1FF",
"'+	c #F2EFFF",
")+	c #FBF7FF",
"!+	c #F8F4FF",
"~+	c #F2EDFF",
"{+	c #F3F8F4",
"]+	c #070705",
"^+	c #C5C5C3",
"/+	c #797A7C",
"(+	c #FDFDFF",
"_+	c #09082A",
":+	c #110B55",
"<+	c #010051",
"[+	c #160F5C",
"}+	c #00003A",
"|+	c #100C47",
"1+	c #110E43",
"2+	c #0C0938",
"3+	c #F9FCF5",
"4+	c #FEFFEF",
"5+	c #000300",
"6+	c #7E7D83",
"7+	c #C4C3C9",
"8+	c #86858A",
"9+	c #F2ECFF",
"0+	c #FBF5FF",
"a+	c #F4F2FF",
"b+	c #F0EFFF",
"c+	c #FEFFF6",
"d+	c #F6FBE5",
"e+	c #080C00",
"f+	c #BBBEB5",
"g+	c #C7C6CC",
"h+	c #BBB9C6",
"i+	c #C1BFCA",
"j+	c #05040C",
"k+	c #7D7C82",
"l+	c #000007",
"m+	c #070614",
"n+	c #00000F",
"o+	c #00020F",
"p+	c #00000C",
"q+	c #040519",
"r+	c #000014",
"s+	c #060513",
"t+	c #070904",
"u+	c #000009",
"v+	c #00000E",
". + @ # $ % & * = - ; > , ' ) ! ~ { ] ^ ",
"/ ( _ : < [ } | 1 2 3 4 5 6 ! 7 8 : 9 ] ",
"0 a a b c d e f g h i j : k l m n o p q ",
"r a s t u v w x y z A 4 4 : B 7 C D E F ",
"G a H I J K L M N O P A Q R S T U V W X ",
"Y x 3 Z `  .` ..+.@.#.$.u %.{ &.! C *.B ",
"=.-.;.>.,.'.).!.~.{.].^.-.%./.(._.:.<.B ",
"[.}.|.1.2.3.4.4.3.5.6.5.7.8.9.0.(.a.b.l ",
"c.d.e.f.f.f.f.f.f.f.f...z Z g.%.h.i.j.k.",
"l.f.f.f.f.f.f.f.f.f.f.f.f.f.m.n.o.p.q.{ ",
"r.f.f.s.v ;.t.u.v.w.x.y.f.f.z.A.B.Z C.D.",
"E.f.f.f.f.f.f.f.f.f.f.f.f.f.F.G.: H.4 I.",
"J.Z s f.f.f.f.f.f.f.f.Q K.| L.M.N.O.P.Q.",
"R.+...A 2.e.@.S.x 5.#.Z } T.{ ! U.V.W.B ",
"X.Y.Z.`. +.+++@+#+#+$+%+&+%.*+(.=+-+;+l ",
">+: Y.| z ,+'+#.)+!+~+s Y.{+] (.B ]+^+B ",
"/+(+R _+:+<+[+}+|+1+2+| 3+4+5+3+, 6+7+I.",
"8+: : 2 9+0+6.s a+b+4 4.c+d+e+f+g+h+i+j+",
"k+l+9.m+n+o+9.p+q+r+s+l+! t+! ]+u+v+v+u+"};
