/* XPM */
static char * tlistview_xpm[] = {
"21 21 8 1",
" 	c None",
".	c #808080",
"+	c #000000",
"@	c #FFFFFF",
"#	c #C0C0C0",
"$	c #000080",
"%	c #FFFF00",
"&	c #FF0000",
".....................",
".+++++++++++++++++++@",
".+@@@@@@@@@@@@@@@@@#@",
".+@@$%@@@%$@@@%.@@@#@",
".+@@%%@@@&%@@@%&@@@#@",
".+@@@@@@@@@@@@@@@@@#@",
".+@++++@++++@++++@@#@",
".+@@@@@@@@@@@@@@@@@#@",
".+@@&$@@@%&@@@&%@@@#@",
".+@@%&@@@.%@@@%$@@@#@",
".+@@@@@@@@@@@@@@@@@#@",
".+@++++@++++@++++@@#@",
".+@@@@@@@@@@@@@@@@@#@",
".+@@$%@@@@@@@@@@@@@#@",
".+@@%%@@@@@@@@@@@@@#@",
".+@@@@@@@@@@@@@@@@@#@",
".+@++++@@@@@@@@@@@@#@",
".+@@@@@@@@@@@@@@@@@#@",
".+@@@@@@@@@@@@@@@@@#@",
".+##################@",
".@@@@@@@@@@@@@@@@@@@@"};
