/* XPM */
static char *graphic[] = {
"23 23 6 1",
". c None",
", c #848484",
"- c #FFFFFF",
"* c #424242",
"a c #D6D6CE",
"b c #000000",
".......................",
".......................",
",,,,,,,,,,,,,,,,,,,,,,-",
",********************a-",
",*-------------------a-",
",*---b------b--------a-",
",*-b-b-b--b-b-b------a-",
",*--bbb----bbb---------",
",*-b-b-b--b-b-b-bbbbb--",
",*---b------b-----b----",
",*----------------b--a-",
",*----------------b--a-",
",*----------------b--a-",
",*----------------b--a-",
",aaaaaaaaaaaaaaaa-b-aa-",
"------------------b----",
".................-b-...",
"...............---b---.",
"...............-bbbbb-.",
"...............-------.",
".......................",
".......................",
"......................."}
