/* XPM */
static char * tmaskedit_xpm[] = {
"23 16 139 2",
"  	c None",
". 	c #929292",
"+ 	c #747474",
"@ 	c #818181",
"# 	c #7C7C7C",
"$ 	c #7D7D7D",
"% 	c #777777",
"& 	c #7E7E7E",
"* 	c #878787",
"= 	c #888888",
"- 	c #7A7A7A",
"; 	c #858585",
"> 	c #7B7B7B",
", 	c #8A8A8A",
"' 	c #868686",
") 	c #787878",
"! 	c #727272",
"~ 	c #0B0B0B",
"{ 	c #000000",
"] 	c #030303",
"^ 	c #050505",
"/ 	c #0A0A0A",
"( 	c #040404",
"_ 	c #FFFFFF",
": 	c #F9F9F9",
"< 	c #FCFCFC",
"[ 	c #FDFDFD",
"} 	c #BEBEBE",
"| 	c #FFFDFF",
"1 	c #FEFEFE",
"2 	c #FDFFFE",
"3 	c #FDFEFF",
"4 	c #FDFDFF",
"5 	c #FDFBFF",
"6 	c #FEFCFF",
"7 	c #FEFEFF",
"8 	c #FFFFFD",
"9 	c #010000",
"0 	c #FFFEFF",
"a 	c #020202",
"b 	c #C2C2C2",
"c 	c #020003",
"d 	c #FFFAFF",
"e 	c #FEFCFD",
"f 	c #FBFBFB",
"g 	c #FEFFFF",
"h 	c #FCFFFF",
"i 	c #F8F8FF",
"j 	c #FCFDFF",
"k 	c #FEFFFD",
"l 	c #FAFBF3",
"m 	c #FFFFFA",
"n 	c #030004",
"o 	c #010103",
"p 	c #FFFBFF",
"q 	c #AA4747",
"r 	c #F9FAFF",
"s 	c #FCFBF6",
"t 	c #FAF5F9",
"u 	c #020005",
"v 	c #EEECF9",
"w 	c #F2F2FF",
"x 	c #000004",
"y 	c #F5F5FD",
"z 	c #F5F7FF",
"A 	c #F6F9FF",
"B 	c #000002",
"C 	c #000105",
"D 	c #F7FBFF",
"E 	c #F1F4FF",
"F 	c #F9FBFF",
"G 	c #F2F5FF",
"H 	c #060A0B",
"I 	c #000103",
"J 	c #FBFFFF",
"K 	c #F4F8FF",
"L 	c #F3F6FF",
"M 	c #F8FAFF",
"N 	c #F0F6FF",
"O 	c #000202",
"P 	c #FBFEFF",
"Q 	c #F9FEFF",
"R 	c #F1F1FF",
"S 	c #F7F9FF",
"T 	c #010602",
"U 	c #000201",
"V 	c #F5FBF9",
"W 	c #000300",
"X 	c #050503",
"Y 	c #FEFFFB",
"Z 	c #FCFCFF",
"` 	c #FBFDFF",
" .	c #FBFCFF",
"..	c #F5F8FF",
"+.	c #000200",
"@.	c #FEFFF4",
"#.	c #010200",
"$.	c #C5C5C5",
"%.	c #F8F8F8",
"&.	c #8D8D8D",
"*.	c #FDFEF9",
"=.	c #FCFEF9",
"-.	c #FDFDFB",
";.	c #FCFEFD",
">.	c #FCFEFB",
",.	c #FCFFF2",
"'.	c #FCFFF4",
").	c #F9FAFE",
"!.	c #FCFFF6",
"~.	c #FFFFF3",
"{.	c #FEFFF5",
"].	c #FFFFFB",
"^.	c #BCBCBC",
"/.	c #C2C2C0",
"(.	c #C3C0C7",
"_.	c #C2C1C6",
":.	c #C2C0CB",
"<.	c #C2BFD0",
"[.	c #C3C1CE",
"}.	c #BEBFBA",
"|.	c #C9CBC0",
"1.	c #BBBCB7",
"2.	c #BEBEBC",
"3.	c #B9B8B4",
"4.	c #C2C3BE",
"5.	c #B7B7B5",
"6.	c #CACACA",
"7.	c #B5B5B5",
"8.	c #BBBBBB",
"9.	c #FAFAFC",
"0.	c #FDFAFF",
"a.	c #FDFCFA",
"b.	c #FDFBFC",
"c.	c #FDF9FF",
"d.	c #FCF8FF",
"e.	c #FEFDF9",
"f.	c #F8F8F0",
"g.	c #FFFEFC",
"h.	c #FAF7FE",
". + @ @ @ @ @ @ @ @ # # $ % & * = - ; > , ' ) ",
"! ~ { { { { { { { { ] ^ { / { { { ] { ( { { _ ",
"@ { _ _ _ _ _ _ _ _ _ : _ < _ < _ [ < _ _ } _ ",
"@ { | | 1 1 1 2 3 4 5 6 7 : 8 { 9 0 a { [ b _ ",
"& c d | e f g h h i _ _ j k l m 0 n 0 _ _   _ ",
"& o | p _ q _ q _ r _ q _ q _ s t u 0 _ _   _ ",
"& o 0 v _ q _ q _ w _ q _ q _ g 0 x _ _ _   _ ",
"& o y j q q q q q z q q q q q A h B _ _ _   _ ",
"& C h D _ q _ q _ E _ q _ q _ F G H g _ _   _ ",
"& I J K q q q q q L q q q q q M N O g _ _   _ ",
"& I P Q _ q _ q _ R _ q _ q _ S J T g _ _   _ ",
"& U h D _ q _ q _ i _ q _ q _ P V W k _ _   _ ",
"+ X Y h h j Z ` J J F  .` ..h +.W @.#.{ [ $.%.",
"&.{ *.=.-.;.j >.,.'.g ).Y !.@.,.~.{.].%._ ^._ ",
", { /.b (._././._.:.<.[.}.|.1.2.3.4.5.6.7.8._ ",
"# 9.0.0.0.5 a.b.0.c.d.0.e.f.g.0 | h._ _ _ _ [ "};
