/* XPM */
static char *graphic[] = {
"23 23 6 1",
". c None",
", c #424242",
"- c #FFFFFF",
"* c #000000",
"a c #D6D6CE",
"b c #848484",
".......................",
".......................",
".......................",
".,,,,,,,,,,,,,,,,,,,,,.",
".,---------------*---*.",
".,-----*---------*-ab*.",
".,--*--*---------*****.",
".,-*-*-**---*----*aaa*.",
".,-***-*-*-*-----*---*.",
".,-*-*-*-*-*-----*-ab*.",
".,-*-*-**---*----*-bb*.",
".,---------------*aaa*.",
".,-*-*-*-*-***---*aaa*.",
".,--*--*-*--*----*aaa*.",
".,--*---*--*-----*aaa*.",
".,-*-*--*--***---*****.",
".,-----*---------*---*.",
".,---------------*-ab*.",
".,,,,,,,,,,,,,,,,,,,,,.",
".......................",
".......................",
".......................",
"......................."}
