/* XPM */
static char *graphic[] = {
"23 23 36 1",
". c None",
", c #C6C6C6",
"- c #A5A5A5",
"* c #9F9F9F",
"a c #949494",
"b c #535353",
"c c #FFF7EF",
"d c #E7DED7",
"e c #CEC6BF",
"f c #2D2D2D",
"g c #9D9D9D",
"h c #000000",
"i c #0000FF",
"j c #CECEC6",
"k c #BDB7AF",
"l c #272727",
"m c #ADA79F",
"n c #252525",
"o c #4B4B4B",
"p c #EFEFEF",
"q c #D6D6D6",
"r c #C7C7C7",
"s c #BDBDBD",
"t c #5E5E5E",
"u c #232323",
"v c #212121",
"w c #0E0E0E",
"x c #FFFFFF",
"y c #424242",
"z c #3F3F3F",
"A c #F7F7F7",
"B c #B7B7B7",
"C c #EFEFE7",
"D c #393939",
"E c #636363",
"F c #3B3B3B",
".......................",
".......................",
".......................",
",-*******************ab",
"-cdddddddddddddddddddef",
"gdhihhjhhjjhhjhjjjjjjkl",
"gdihiijhjjhjjhjjjjjjjkl",
"aekkkkkkkkkkkkkkkkkkkmn",
"opqrrrrrstuuuuuuuuuuuvw",
".qxxxxxxxy.............",
".rxhhxhxxz.............",
".rxxxxxxxz.............",
".rxhhhhhxz.............",
".rxxxxxxxz.............",
".rxhxhxhxz.............",
".rxxxxxxxz.............",
".rAhhhxhxz.............",
".rxxxxxxxz.............",
".rxhxhhxxz.............",
".BxxxxxxCD.............",
".EyzzzzzFn.............",
".......................",
"......................."}
