/* XPM */
static char * tmouse_xpm[] = {
"9 14 51 1",
" 	c None",
".	c #070244",
"+	c #000030",
"@	c #00002C",
"#	c #FBFAFF",
"$	c #00001E",
"%	c #0C0C2E",
"&	c #F7F8FF",
"*	c #F8FBFF",
"=	c #000009",
"-	c #000010",
";	c #FBFDFF",
">	c #FCFFFF",
",	c #FBFCFE",
"'	c #000200",
")	c #02050A",
"!	c #F2F6F9",
"~	c #FBFDF8",
"{	c #FEFFFA",
"]	c #070908",
"^	c #FCFEFB",
"/	c #FCFEF9",
"(	c #F6F9F2",
"_	c #FFFFFA",
":	c #000100",
"<	c #FEFFFB",
"[	c #F5F8F1",
"}	c #FFFFFD",
"|	c #000002",
"1	c #FAFAF8",
"2	c #F9F9F7",
"3	c #0B0B0B",
"4	c #000004",
"5	c #030208",
"6	c #FDFDFF",
"7	c #07060E",
"8	c #FAFAFC",
"9	c #FFFEFF",
"0	c #000005",
"a	c #08080A",
"b	c #FDFDFD",
"c	c #040406",
"d	c #08050E",
"e	c #010000",
"f	c #020003",
"g	c #090803",
"h	c #FDFCF7",
"i	c #FFFEFA",
"j	c #040301",
"k	c #010100",
"l	c #020200",
".+       ",
"@#$      ",
"%&*=     ",
"-;>,'    ",
")!>~{'   ",
"]^/{(_:  ",
":<<[{{}| ",
"| }123|45",
"4 6  |   ",
"7#4|894  ",
"=0 ab c  ",
"d   e}9f ",
"    ghij ",
"     kl  "};
