/* XPM */
static char * topenpicturedialog_xpm[] = {
"22 20 10 1",
" 	c None",
".	c #848484",
"+	c #FFFFFF",
"@	c #000000",
"#	c #0000FF",
"$	c #D6D6CE",
"%	c #CECECE",
"&	c #FFFF00",
"*	c #00FFFF",
"=	c #008400",
"......................",
".+@##############@+@+@",
".@@@@@@@@@@@@@@@@@@@@@",
".+$+$+$+$+$+$+$+$+$+$@",
".$+$+$+.............+@",
".+%+@@@.+++++++++++@$@",
".$+@&+&.+*$*+*+*+*+@+@",
".+$@+&+.+$&$*+*+*+*@$@",
".%+@&+&.+*$*+*+*+*=@+@",
".+$@+&+.++*+*+*+*==@$@",
".%+@&+&.+*+*@@@@@@@@+@",
".+$@+&+@@@@@$&$&$&@@$@",
".%+@&+@$&$&$&$&$&$@@+@",
".+$@+@$&$&$&$&$&$@#@$@",
".%+@&@&$&$&$&$&%&@@@+@",
".+$@@&$&$&$&%&$&@+$+$@",
".%+$@@@@@@@@@@@@+$+$+@",
".+$+$+$+$+$+$+$+$+$+$@",
".%+$+$+$+$+$+$+$+$+$+@",
".@@@@@@@@@@@@@@@@@@@@@"};
