/* XPM */
static char *graphic[] = {
"23 23 125 2",
".. c None",
"., c #9DFFFF",
".- c #84E7FF",
".* c #73DFFF",
".a c #6FD6FF",
".b c #6BCEFF",
".c c #67CEFF",
".d c #67CFFF",
".e c #5BC6FF",
".f c #4EBFF7",
".g c #33B7E7",
".h c #009DCE",
".i c #1AA7DF",
".j c #0D9FD6",
".k c #069FCE",
".l c #019DCE",
".m c #009CCF",
".n c #0097C6",
".o c #008CBF",
".p c #007FB7",
".q c #00679D",
".r c #000000",
".s c #059FCE",
".t c #0097CE",
".u c #0084B7",
".v c #0073A7",
".w c #006F9F",
".x c #006B9C",
".y c #006B9F",
".z c #00679E",
".A c #B7B7B7",
".B c #FFFFFF",
".C c #FFFFF7",
".D c #FFFFEF",
".E c #FFFFE7",
".F c #FFFFDF",
".G c #FFFFDE",
".H c #FFFFD6",
".I c #F7F7D7",
".J c #F7F7CF",
".K c #EFEFCF",
".L c #EFE7CF",
".M c #676700",
".N c #FFF7D7",
".O c #F7EFCF",
".P c #E7E7C7",
".Q c #FFFF9C",
".R c #FFFF97",
".S c #FFF794",
".T c #FFF78C",
".U c #CECE9D",
".V c #FFFFD7",
".W c #F7F7D6",
".X c #EFE7CE",
".Y c #FFFF9D",
".Z c #FFFFC6",
".0 c #FFF7B5",
".1 c #FFEF97",
".2 c #F7E77F",
".3 c #F7DF6F",
".4 c #E7E7C6",
".5 c #FFEF9D",
".6 c #F7D656",
".7 c #F7CF43",
".8 c #F7D63D",
".9 c #F7CE27",
".@ c #F7CF27",
".# c #EFC627",
".; c #E7C727",
".: c #DFB727",
".= c #DFDEC6",
".+ c #FFE78D",
".% c #F7CE2B",
".$ c #EFC715",
".( c #EFBF00",
".) c #EFB700",
".[ c #E7B700",
".] c #DFAD00",
",. c #CE9D00",
",, c #DEDFBF",
",- c #E7AF00",
",* c #DEDFC7",
",a c #DEDEBD",
",b c #FFFF96",
",c c #FFFF8E",
",d c #FFF784",
",e c #FFEF77",
",f c #FFEF67",
",g c #FFE757",
",h c #F7DE4F",
",i c #D79E00",
",j c #DEDEBF",
",k c #D6D7BF",
",l c #FFF7C6",
",m c #FFEF9C",
",n c #FFE784",
",o c #F7D756",
",p c #F7CE3D",
",q c #F7C625",
",r c #EFBF0C",
",s c #EFBD00",
",t c #DFDEBD",
",u c #D6D6BF",
",v c #FFFFBD",
",w c #FFF7AD",
",x c #DFAF00",
",y c #D7CFB7",
",z c #FFEF94",
",A c #E7AD00",
",B c #D6D6BD",
",C c #CFCEB5",
",D c #FFF795",
",E c #D7A500",
",F c #CECFB7",
",G c #CECEB5",
",H c #CEC7B5",
",I c #CFCFB7",
",J c #C6C7AF",
",K c #EFEFCE",
",L c #DEDEC6",
",M c #D7D6BF",
",N c #D6D7BD",
",O c #CFCFB5",
",P c #CEC6B5",
",Q c #C6C7AD",
"..............................................",
".,.-.*.a.b.b.c.c.c.c.c.c.c.d.d.d.d.d.e.f.g.h..",
".c.g.i.j.k.k.l.l.l.h.h.h.h.m.m.m.m.m.n.o.p.q.r",
".c.g.i.j.s.s.l.l.l.h.h.h.h.t.t.t.t.t.n.o.p.q.r",
".h.u.v.w.x.x.y.y.y.z.z.z.z.q.q.q.q.q.q.q.q.q.r",
".A.B.B.B.B.C.C.C.D.D.D.E.E.F.G.F.H.I.J.K.L.A.r",
".A.B.B.B.C.C.M.M.M.M.M.E.E.G.F.G.N.I.O.K.P.A.r",
".A.B.B.C.C.M.Q.R.S.T.U.M.G.F.G.V.W.J.K.X.P.A.r",
".A.B.B.C.M.Y.Z.0.1.2.3.U.M.M.M.M.M.M.M.4.4.A.r",
".A.B.C.C.M.Y.0.5.2.3.6.7.8.9.@.#.;.:.r.P.=.A.r",
".A.C.C.C.M.Y.5.+.3.6.7.%.$.(.).[.],..r.P,,.A.r",
".A.C.C.M.M.M.M.M.M.M.M.M.M.M.M,-.],..r,*,a.A.r",
".A.C.C.M.Y.Y.Y.Y,b,c,d,e,f,g,h.r,i,..r,j,k.A.r",
".A.C.C.M.Y.G,l,m,n.3,o,p,q,r,s.r,.,..r,t,u.A.r",
".A.C.D.D.M,v,w,n.3,o,p,q,r,s.[,x.r,..r,k,y.A.r",
".A.C.D.D.M.Y,z.3,o,p,q,r,s.[,A,i.r,..r,B,C.A.r",
".A.D.D.D.E.M,D,o,p,q,r,s.[,A,E,.,..r.r,y,F.A.r",
".A.D.D.E.E.M.Y,.,.,.,.,.,.,.,.,.,..r.r,G,H.A.r",
".A.D.D.E.E.E.r.r.r.r.r.r.r.r.r.r.r.r.r,I,J.A.r",
".A.D.D.E.E.F.G.G.G.I.W,K,K.P.4,L,M,N,O,P,Q.A.r",
".A.A.A.A.A.A.A.A.A.A.A.A.A.A.A.A.A.A.A.A.A.A.r",
"...r.r.r.r.r.r.r.r.r.r.r.r.r.r.r.r.r.r.r.r.r.r",
".............................................."}
