/* XPM */
static char *graphic[] = {
"23 23 147 2",
".. c None",
"., c #9DFFFF",
".- c #84E7FF",
".* c #73DFFF",
".a c #6FD6FF",
".b c #6BCEFF",
".c c #67CEFF",
".d c #67CFFF",
".e c #5BC6FF",
".f c #4EBFF7",
".g c #33B7E7",
".h c #009DCE",
".i c #1AA7DF",
".j c #0D9FD6",
".k c #069FCE",
".l c #019DCE",
".m c #009CCF",
".n c #0097C6",
".o c #008CBF",
".p c #007FB7",
".q c #00679D",
".r c #000000",
".s c #059FCE",
".t c #0097CE",
".u c #0084B7",
".v c #0073A7",
".w c #006F9F",
".x c #006B9C",
".y c #006B9F",
".z c #00679E",
".A c #B7B7B7",
".B c #FFFFFF",
".C c #FFFFF7",
".D c #FFFFEF",
".E c #FFFFE7",
".F c #FFFFDF",
".G c #FFFFDE",
".H c #FFFFD6",
".I c #F7F7D7",
".J c #F7F7CF",
".K c #EFEFCF",
".L c #EFE7CF",
".M c #356F9D",
".N c #29679D",
".O c #27679E",
".P c #376FA5",
".Q c #2F5B87",
".R c #F7EFCF",
".S c #E7E7C7",
".T c #3D7BAD",
".U c #2F73AF",
".V c #8EA7B7",
".W c #A5B5D7",
".X c #2B73AF",
".Y c #3F7BAD",
".Z c #3F7FB5",
".0 c #316794",
".1 c #EFE7CE",
".2 c #676700",
".3 c #3B87BD",
".4 c #94ADD6",
".5 c #FFFF5F",
".6 c #FFFF7B",
".7 c #A7B5CE",
".8 c #3986BD",
".9 c #478CBF",
".@ c #478EC7",
".# c #3773A5",
".; c #E7E7C6",
".: c #4B9FCE",
".= c #4A9DCF",
".+ c #AFBFE7",
".% c #C6CE9C",
".$ c #4B9DD6",
".( c #4B9CCE",
".) c #4B9FCF",
".[ c #4695D7",
".] c #4E9CDF",
",. c #57A56F",
",, c #DFDEC6",
",- c #52BFFF",
",* c #52BDFF",
",a c #43B5FF",
",b c #43B7FF",
",c c #4FBDFF",
",d c #4FB7FF",
",e c #84D6C6",
",f c #8EFFA5",
",g c #56AD47",
",h c #DEDFBF",
",i c #A7FFAD",
",j c #73E76F",
",k c #398639",
",l c #DEDFC7",
",m c #DEDEBD",
",n c #FFFF9D",
",o c #FFFF96",
",p c #FFFF8E",
",q c #FFF784",
",r c #FFEF77",
",s c #FFEF67",
",t c #FFE757",
",u c #F7DE4F",
",v c #63CE5E",
",w c #256325",
",x c #DEDEBF",
",y c #D6D7BF",
",z c #FFF7C6",
",A c #FFEF9C",
",B c #FFE784",
",C c #F7DF6F",
",D c #F7D756",
",E c #F7CE3D",
",F c #F7C625",
",G c #EFBF0C",
",H c #EFBD00",
",I c #3D9C67",
",J c #235314",
",K c #DFDEBD",
",L c #D6D6BF",
",M c #FFFFBD",
",N c #FFF7AD",
",O c #E7B700",
",P c #DFAF00",
",Q c #063B53",
",R c #D7CFB7",
",S c #FFEF94",
",T c #E7AD00",
",U c #D79E00",
",V c #CE9D00",
",W c #D6D6BD",
",X c #CFCEB5",
",Y c #FFF795",
",Z c #D7A500",
",0 c #CECFB7",
",1 c #CECEB5",
",2 c #CEC7B5",
",3 c #CFCFB7",
",4 c #C6C7AF",
",5 c #F7F7D6",
",6 c #EFEFCE",
",7 c #DEDEC6",
",8 c #D7D6BF",
",9 c #D6D7BD",
",@ c #CFCFB5",
",# c #CEC6B5",
",; c #C6C7AD",
"..............................................",
".,.-.*.a.b.b.c.c.c.c.c.c.c.d.d.d.d.d.e.f.g.h..",
".c.g.i.j.k.k.l.l.l.h.h.h.h.m.m.m.m.m.n.o.p.q.r",
".c.g.i.j.s.s.l.l.l.h.h.h.h.t.t.t.t.t.n.o.p.q.r",
".h.u.v.w.x.x.y.y.y.z.z.z.z.q.q.q.q.q.q.q.q.q.r",
".A.B.B.B.B.C.C.C.D.D.D.E.E.F.G.F.H.I.J.K.L.A.r",
".A.B.B.B.C.M.M.N.O.M.M.M.M.M.M.M.P.Q.R.K.S.A.r",
".A.B.B.C.C.T.U.V.W.X.T.Y.Y.Y.Y.Y.Z.0.K.1.S.A.r",
".A.B.B.C.2.3.4.5.6.7.8.9.9.9.9.9.@.#.2.;.;.A.r",
".A.B.C.C.2.:.=.+.%.$.:.(.(.(.).[.],..r.S,,.A.r",
".A.C.C.C.2,-,*,a,b,c,-,-,-,-,d,e,f,g.r.S,h.A.r",
".A.C.C.2.2.2.2.2.2.2.2.2.2.2.2,i,j,k.r,l,m.A.r",
".A.C.C.2,n,n,n,n,o,p,q,r,s,t,u.r,v,w.r,x,y.A.r",
".A.C.C.2,n.G,z,A,B,C,D,E,F,G,H.r,I,J.r,K,L.A.r",
".A.C.D.D.2,M,N,B,C,D,E,F,G,H,O,P.r,Q.r,y,R.A.r",
".A.C.D.D.2,n,S,C,D,E,F,G,H,O,T,U.r,V.r,W,X.A.r",
".A.D.D.D.E.2,Y,D,E,F,G,H,O,T,Z,V,V.r.r,R,0.A.r",
".A.D.D.E.E.2,n,V,V,V,V,V,V,V,V,V,V.r.r,1,2.A.r",
".A.D.D.E.E.E.r.r.r.r.r.r.r.r.r.r.r.r.r,3,4.A.r",
".A.D.D.E.E.F.G.G.G.I,5,6,6.S.;,7,8,9,@,#,;.A.r",
".A.A.A.A.A.A.A.A.A.A.A.A.A.A.A.A.A.A.A.A.A.A.r",
"...r.r.r.r.r.r.r.r.r.r.r.r.r.r.r.r.r.r.r.r.r.r",
".............................................."}
