/* XPM */
static char *graphic[] = {
"23 23 9 1",
". c None",
", c #FFFFFF",
"- c #080808",
"* c #000000",
"a c #030303",
"b c #848484",
"c c #020202",
"d c #050505",
"e c #010101",
".......................",
".......................",
".,,,,,,,,,-**********..",
".,........-....*....*..",
".,........-....*....*..",
".,........-....*....*..",
",,........,,,,,,,,,,,,a",
",....................b*",
",....................b*",
",....................b*",
",....................b*",
",....................b*",
",....................b*",
",....................b*",
",....................b*",
",....................b*",
",....................b*",
",....................b*",
",....................b*",
",bbbbbbbbbbbbbbbbbbbbb*",
"*c**d*e**e**********c*.",
".......................",
"......................."}
