/* XPM */
static char * popup_xpm[] = {
"25 25 154 2",
"  	c None",
". 	c None",
"+ 	c #777978",
"@ 	c #888C8F",
"# 	c #7D8089",
"$ 	c #7C7F8E",
"% 	c #797B90",
"& 	c #86879B",
"* 	c #82828E",
"= 	c #818086",
"- 	c #78777D",
"; 	c #7E7D82",
"> 	c #848486",
", 	c #88898B",
"' 	c #F9FCFF",
") 	c #FAFCFF",
"! 	c #FBFDFF",
"~ 	c #FBFBFF",
"{ 	c #F0F1FF",
"] 	c #FCFBFF",
"^ 	c #FFFEFF",
"/ 	c #FBFAFF",
"( 	c #000002",
"_ 	c #7A7E81",
": 	c #F8FAFF",
"< 	c #070920",
"[ 	c #04072A",
"} 	c #0A0B3B",
"| 	c #13123C",
"1 	c #08061C",
"2 	c #FFFDFF",
"3 	c #F9F8FE",
"4 	c #0C0B10",
"5 	c #818489",
"6 	c #FCFEFF",
"7 	c #FAFBFF",
"8 	c #F9FAFF",
"9 	c #F7F6FF",
"0 	c #F6F6FF",
"a 	c #FEFBFF",
"b 	c #FCFAFF",
"c 	c #F6F5FB",
"d 	c #000004",
"e 	c #C0C1BC",
"f 	c #7E8186",
"g 	c #F2F5FF",
"h 	c #0A0A30",
"i 	c #0C0C42",
"j 	c #000043",
"k 	c #100E4D",
"l 	c #EDEBF8",
"m 	c #F9F7FF",
"n 	c #010005",
"o 	c #7A7D84",
"p 	c #F6F8FF",
"q 	c #F6F3FF",
"r 	c #FDF9FF",
"s 	c #FDFCFF",
"t 	c #000005",
"u 	c #7A7C89",
"v 	c #FBFCFF",
"w 	c #070838",
"x 	c #00003E",
"y 	c #0B0859",
"z 	c #090551",
"A 	c #0B0835",
"B 	c #FEFCFF",
"C 	c #F8F7FF",
"D 	c #03030F",
"E 	c #7C8197",
"F 	c #04082D",
"G 	c #0A0C3F",
"H 	c #0A0B4B",
"I 	c #04034F",
"J 	c #0E0B58",
"K 	c #0D084B",
"L 	c #000034",
"M 	c #0E0A3C",
"N 	c #131138",
"O 	c #000017",
"P 	c #7B7EA1",
"Q 	c #050738",
"R 	c #EBEAFF",
"S 	c #F7F4FF",
"T 	c #EFECFF",
"U 	c #F9F5FF",
"V 	c #070244",
"W 	c #000030",
"X 	c #0B0A34",
"Y 	c #00001A",
"Z 	c #807EAF",
"` 	c #100D52",
" .	c #09035D",
"..	c #110A74",
"+.	c #050073",
"@.	c #09016E",
"#.	c #09064D",
"$.	c #00002C",
"%.	c #00001E",
"&.	c #020317",
"*.	c #7E7CA4",
"=.	c #0B054F",
"-.	c #040056",
";.	c #070062",
">.	c #0D075F",
",.	c #07043B",
"'.	c #0C0C2E",
").	c #F7F8FF",
"!.	c #F8FBFF",
"~.	c #000009",
"{.	c #82828C",
"].	c #F8F9FF",
"^.	c #FCFCFF",
"/.	c #000010",
"(.	c #FCFFFF",
"_.	c #FBFCFE",
":.	c #000200",
"<.	c #7F827B",
"[.	c #000100",
"}.	c #030502",
"|.	c #04070C",
"1.	c #02050A",
"2.	c #F2F6F9",
"3.	c #FBFDF8",
"4.	c #FEFFFA",
"5.	c #070908",
"6.	c #FCFEFB",
"7.	c #FCFEF9",
"8.	c #F6F9F2",
"9.	c #FFFFFA",
"0.	c #FEFFFB",
"a.	c #F5F8F1",
"b.	c #FFFFFD",
"c.	c #FFFFFF",
"d.	c #FAFAF8",
"e.	c #F9F9F7",
"f.	c #0B0B0B",
"g.	c #030208",
"h.	c #FDFDFF",
"i.	c #07060E",
"j.	c #FAFAFC",
"k.	c #08080A",
"l.	c #FDFDFD",
"m.	c #040406",
"n.	c #C0C1B9",
"o.	c #08050E",
"p.	c #010000",
"q.	c #020003",
"r.	c #090803",
"s.	c #FDFCF7",
"t.	c #FFFEFA",
"u.	c #040301",
"v.	c #010100",
"w.	c #020200",
". . . . . . . . . . . . . . . . . . . . . . . . . ",
". . . . . . . . . . . . . . . . . . . . . . . . . ",
". . . . + @ # $ % & * = - ; > . . . . . . . . . . ",
". . . . , ' ) ! ~ { ] ^ / ^ ( . . . . . . . . . . ",
". . . . _ : < [ } | 1 2 ] 3 4 . . . . . . . . . . ",
". . . . 5 6 7 8 9 0 a b ^ c d . . . . . . . . . . ",
". . . . f g h i j k a l m ^ n . . . . . . . . . . ",
". . . . o p / m q q r 2 2 s t . . . . . . . . . . ",
". . . . u v w x y z A a B C D . . . . . . . . . . ",
". . . . E F G H I J K L M N O . . . . . . . . . . ",
". . . . P Q C R S T U V W X Y . . . . . . . . . . ",
". . . . Z `  ...+.@.#.$./ %.&.. . . . . . . . . . ",
". . . . *.T =.-.;.>.,.'.).!.~.. . . . . . . . . . ",
". . . . {.6 ].^.^.).8 /.! (._.:.. . . . . . . . . ",
". . . . <.:.[.:.:.}.|.1.2.(.3.4.:.. . . . . . . . ",
". . . . . . . . . . . 5.6.7.4.8.9.[.. . . . . . . ",
". . . . . . . . . . . [.0.0.a.4.4.b.( . . . . . . ",
". . . . . . . . . . . ( c.b.d.e.f.( d g.. . . . . ",
". . . . . . . . . . . d c.h.c.c.( . . . . . . . . ",
". . . . . . . . . . . i./ d ( j.^ d . . . . . . . ",
". . . . . . . . . . . ~.t . k.l.c.m.. . . . . . . ",
". . . . . . . . . . . o.. . . p.b.^ q.. . . . . . ",
". . . . . . . . . . . . . . . r.s.t.u.. . . . . . ",
". . . . . . . . . . . . . . . . v.w.. . . . . . . ",
". . . . . . . . . . . . . . . . . . . . . . . . . "};
