/* XPM */
static char * tprinterdialog_xpm[] = {
"23 23 71 1",
" 	c None",
".	c #9DFFFF",
"+	c #84E7FF",
"@	c #73DFFF",
"#	c #6FD6FF",
"$	c #6BCEFF",
"%	c #67CEFF",
"&	c #67CFFF",
"*	c #5BC6FF",
"=	c #4EBFF7",
"-	c #33B7E7",
";	c #009DCE",
">	c #1AA7DF",
",	c #0D9FD6",
"'	c #069FCE",
")	c #019DCE",
"!	c #009CCF",
"~	c #0097C6",
"{	c #008CBF",
"]	c #007FB7",
"^	c #00679D",
"/	c #000000",
"(	c #059FCE",
"_	c #0097CE",
":	c #0084B7",
"<	c #0073A7",
"[	c #006F9F",
"}	c #006B9C",
"|	c #006B9F",
"1	c #00679E",
"2	c #B7B7B7",
"3	c #FFFFFF",
"4	c #FFFFF7",
"5	c #FFFFEF",
"6	c #FFFFE7",
"7	c #FFFFDF",
"8	c #FFFFDE",
"9	c #FFFFD6",
"0	c #F7F7D7",
"a	c #F7F7CF",
"b	c #EFEFCF",
"c	c #EFE7CF",
"d	c #FFF7D7",
"e	c #E7E7C7",
"f	c #F7EFCF",
"g	c #EFE7CE",
"h	c #E7E7C6",
"i	c #000084",
"j	c #D6D6CE",
"k	c #DFDEC6",
"l	c #DEDFBF",
"m	c #DEDFC7",
"n	c #DEDEBD",
"o	c #DEDEBF",
"p	c #D6D7BF",
"q	c #848484",
"r	c #D6D6BF",
"s	c #D7CFB7",
"t	c #CFCEB5",
"u	c #FF0000",
"v	c #CECECE",
"w	c #CECFB7",
"x	c #CECEB5",
"y	c #CEC7B5",
"z	c #D6CEB7",
"A	c #CFCFB7",
"B	c #C6C7AF",
"C	c #D6D7BD",
"D	c #CFCFB5",
"E	c #CEC6B5",
"F	c #C6C7AD",
"                       ",
".+@#$$%%%%%%%&&&&&*=-; ",
"%->,'')));;;;!!!!!~{]^/",
"%->,(()));;;;_____~{]^/",
";:<[}}|||1111^^^^^^^^^/",
"233334445556678790abc2/",
"2333444455666878d0abe2/",
"2334444455////////fge2/",
"2334444455/333333/bhh2/",
"234444445/3iiiij/0bek2/",
"244444445/333333/0bel2/",
"24444444/3iiiij/d0bmn2/",
"244444///333333////op2/",
"24444/jq////////qj3/r2/",
"2454/jjjjjjjjjjjj3q/s2/",
"245q3333333333333qq/t2/",
"255/3uujjjvjjjvjjqq/w2/",
"255/3jjjvjjjvjjjvq/xy2/",
"255qjqqqqqqqqqqqq/zAB2/",
"2555/////////////CDEF2/",
"2222222222222222222222/",
" //////////////////////",
"                       "};
