/* XPM */
static char * tprintersetupdialog_xpm[] = {
"23 23 63 1",
" 	c None",
".	c #9DFFFF",
"+	c #84E7FF",
"@	c #73DFFF",
"#	c #6FD6FF",
"$	c #6BCEFF",
"%	c #67CEFF",
"&	c #67CFFF",
"*	c #5BC6FF",
"=	c #4EBFF7",
"-	c #33B7E7",
";	c #009DCE",
">	c #1AA7DF",
",	c #0D9FD6",
"'	c #069FCE",
")	c #019DCE",
"!	c #009CCF",
"~	c #0097C6",
"{	c #008CBF",
"]	c #007FB7",
"^	c #00679D",
"/	c #000000",
"(	c #059FCE",
"_	c #0097CE",
":	c #0084B7",
"<	c #0073A7",
"[	c #006F9F",
"}	c #006B9C",
"|	c #006B9F",
"1	c #00679E",
"2	c #B7B7B7",
"3	c #FFFFFF",
"4	c #FFFFF7",
"5	c #FFFFEF",
"6	c #FFFFE7",
"7	c #FFFFDF",
"8	c #FFFFDE",
"9	c #FFFFD6",
"0	c #F7F7D7",
"a	c #F7F7CF",
"b	c #EFEFCF",
"c	c #EFE7CF",
"d	c #848484",
"e	c #E7E7C7",
"f	c #008484",
"g	c #00FFFF",
"h	c #E7E7C6",
"i	c #D6D6CE",
"j	c #DFDEC6",
"k	c #DEDFBF",
"l	c #DEDEBD",
"m	c #D6D7BF",
"n	c #D6D6BF",
"o	c #CECECE",
"p	c #D7CFB7",
"q	c #CFCEB5",
"r	c #FF0000",
"s	c #CECFB7",
"t	c #CEC6B5",
"u	c #CEC7B5",
"v	c #CFCFB5",
"w	c #C6C7AF",
"x	c #C6C7AD",
"                       ",
".+@#$$%%%%%%%&&&&&*=-; ",
"%->,'')));;;;!!!!!~{]^/",
"%->,(()));;;;_____~{]^/",
";:<[}}|||1111^^^^^^^^^/",
"233334445556678790abc2/",
"233344455566678d///de2/",
"23334455556667dfggg/e2/",
"23334d/////////gf//dh2/",
"23434/gfgggggggg/iaaj2/",
"24434d/////////gf//dk2/",
"244344555566678fggg/l2/",
"244343/////////////mm2/",
"24434/iddddddddddd3/n2/",
"2453/iiioiiioiidd3d/p2/",
"245d3333333333333dd/q2/",
"255/3rriiiioiiioidd/s2/",
"255/3iiioiiiioiiid/tu2/",
"255didddddddddddd/vtw2/",
"2555/////////////vvtx2/",
"2222222222222222222222/",
" //////////////////////",
"                       "};
