/* XPM */
static char * tprogressbar_xpm[] = {
"20 7 5 1",
" 	c None",
".	c #808080",
"+	c #C0C0C0",
"@	c #FFFFFF",
"#	c #AE0013",
"....................",
".++++++++++++++++++@",
".+###+###+###++++++@",
".+###+###+###++++++@",
".+###+###+###++++++@",
".++++++++++++++++++@",
".@@@@@@@@@@@@@@@@@@@"};
