/* XPM */
static char * tquery_xpm[] = {
"21 23 167 2",
"  	c None",
". 	c #08060B",
"+ 	c #010002",
"@ 	c #000000",
"# 	c #000100",
"$ 	c #000200",
"% 	c #070705",
"& 	c #000002",
"* 	c #010007",
"= 	c #020500",
"- 	c #06040F",
"; 	c #000007",
"> 	c #010300",
", 	c #040700",
"' 	c #060300",
") 	c #050102",
"! 	c #C6C6C4",
"~ 	c #030400",
"{ 	c #CBCDCA",
"] 	c #C1C2C6",
"^ 	c #C8C8D0",
"/ 	c #C4C5CA",
"( 	c #C6C5CA",
"_ 	c #BCBCBC",
": 	c #CCCCCC",
"< 	c #C8C5CC",
"[ 	c #CBCBC9",
"} 	c #C8CEB4",
"| 	c #C4CCB5",
"1 	c #BCBCC6",
"2 	c #C2C2CE",
"3 	c #C6C9B8",
"4 	c #CBCDB5",
"5 	c #C0C0B8",
"6 	c #030000",
"7 	c #060604",
"8 	c #0A0D04",
"9 	c #010312",
"0 	c #000013",
"a 	c #020317",
"b 	c #00000C",
"c 	c #020305",
"d 	c #020403",
"e 	c #000005",
"f 	c #000004",
"g 	c #000300",
"h 	c #000400",
"i 	c #020410",
"j 	c #060817",
"k 	c #000008",
"l 	c #050507",
"m 	c #060503",
"n 	c #C7CDC1",
"o 	c #FCFFFF",
"p 	c #F9F9FF",
"q 	c #F3F1FF",
"r 	c #FCFBFF",
"s 	c #FCFCFF",
"t 	c #FBFCFF",
"u 	c #C8CAC9",
"v 	c #F3F2FA",
"w 	c #FEFDFF",
"x 	c #F6FBFF",
"y 	c #F8FDFF",
"z 	c #EEEFFF",
"A 	c #F7F4FF",
"B 	c #FBF9FF",
"C 	c #F4F3FF",
"D 	c #FEFEFF",
"E 	c #F1F7E9",
"F 	c #010700",
"G 	c #FAF9FF",
"H 	c #FBF8FF",
"I 	c #EDEBFF",
"J 	c #FAFAFF",
"K 	c #FCFEFF",
"L 	c #C0C4C7",
"M 	c #F3F2FF",
"N 	c #F9071B",
"O 	c #F9F1FF",
"P 	c #C8CEC2",
"Q 	c #FBFFFF",
"R 	c #AF4D57",
"S 	c #FCFDFF",
"T 	c #BDC0C5",
"U 	c #FDFDFF",
"V 	c #FBFDFF",
"W 	c #030804",
"X 	c #F1F7ED",
"Y 	c #050C05",
"Z 	c #FAFDFF",
"` 	c #F7F1FF",
" .	c #FBF6FF",
"..	c #F9F7FF",
"+.	c #BFC2CB",
"@.	c #EFF5FF",
"#.	c #F7FAFF",
"$.	c #F8F6FF",
"%.	c #000302",
"&.	c #C7CCC6",
"*.	c #BCBECA",
"=.	c #FAFCFF",
"-.	c #FBFEFF",
";.	c #F7FFFF",
">.	c #F5FEFF",
",.	c #E7ECFF",
"'.	c #F5F6FF",
").	c #070904",
"!.	c #000102",
"~.	c #FAFFFB",
"{.	c #010609",
"].	c #ECE7FF",
"^.	c #EFEDFF",
"/.	c #C5C7D3",
"(.	c #F1F7FF",
"_.	c #F5FAFF",
":.	c #F4F5FF",
"<.	c #0A0B0D",
"[.	c #C1C5C4",
"}.	c #F6F9FF",
"|.	c #C6C8D4",
"1.	c #F6F6FE",
"2.	c #F7F8FF",
"3.	c #F8FCFF",
"4.	c #FBFAFF",
"5.	c #F8FAFF",
"6.	c #FEFFFF",
"7.	c #FBFFFE",
"8.	c #010409",
"9.	c #FCFAFF",
"0.	c #F8F7FF",
"a.	c #C3C3CB",
"b.	c #F9FCFF",
"c.	c #EDEFFF",
"d.	c #020202",
"e.	c #090907",
"f.	c #C4C6C5",
"g.	c #F7F6FF",
"h.	c #C3C4C9",
"i.	c #F0F3FC",
"j.	c #F0F3FF",
"k.	c #FFFEFF",
"l.	c #010100",
"m.	c #F7F9F8",
"n.	c #05060B",
"o.	c #F5F7FF",
"p.	c #BDBEC2",
"q.	c #F8F8F6",
"r.	c #FBFBFF",
"s.	c #FDFEFF",
"t.	c #F9F9FB",
"u.	c #010000",
"v.	c #CECECE",
"w.	c #F8F8FF",
"x.	c #F7F7FF",
"y.	c #C8C9CE",
"z.	c #F8FBFF",
"A.	c #050409",
"B.	c #08080A",
"C.	c #000105",
"D.	c #01040B",
"E.	c #00010A",
"F.	c #00000B",
"G.	c #000012",
"H.	c #02050A",
"I.	c #000205",
"J.	c #06060E",
". + @ @ # $ # # % & * + = $ - ; > , ' )   ",
"+ ! ~ { ] ^ / ( _ : < [ } | 1 2 3 4 5 6   ",
"7 8 $ # 9 0 a b c d e f g h i j k f l m   ",
"$ n g o p q r s t u v w x y z A B C D #   ",
"$ E F y G H I J K L D M N N N N N O D ,   ",
"$ P h Q R R R R S T U N N N N N N N V $   ",
"W X Y Z A `  ...S +.K N N @.#.$.N N S $   ",
"%.&.$ #.R R R R s *.=.-.;.>.,.N N N '.).  ",
"!.~.{.V H ]. .^.p /.D -.(._.N N N :.o #   ",
"<.[.e }.R R R R S |.1.2.3.N N N 4.5.6.#   ",
"# 7.8.S r 9.^.0.w a.6.K b.N N p c.b.6.d.  ",
"e.f.e =.R R R R g.h.6.i.j.N N J K 6.k.@   ",
"l.m.n.D K o.w w D p.q.D r.'.4.t o.s.t.&   ",
"u.v.f 6.w.o x.s J y.6.z.J N N V K 6.t.A.  ",
"u.@ B.& C.e D.E.F.F.b G.  N N   H.I.e J.  ",
"                                          ",
"                N N       N N       N     ",
"              N     N   N     N     N     ",
"                N       N     N     N     ",
"                  N     N     N     N     ",
"              N     N   N   N N     N     ",
"                N N       N N N     N N N ",
"                                N         "};
