/* XPM */
static char * treplacedialog_xpm[] = {
"23 23 158 2",
"  	c None",
". 	c #9DFFFF",
"+ 	c #84E7FF",
"@ 	c #73DFFF",
"# 	c #6FD6FF",
"$ 	c #6BCEFF",
"% 	c #67CEFF",
"& 	c #67CFFF",
"* 	c #5BC6FF",
"= 	c #4EBFF7",
"- 	c #33B7E7",
"; 	c #009DCE",
"> 	c #1AA7DF",
", 	c #0D9FD6",
"' 	c #069FCE",
") 	c #019DCE",
"! 	c #009CCF",
"~ 	c #0097C6",
"{ 	c #008CBF",
"] 	c #007FB7",
"^ 	c #00679D",
"/ 	c #000000",
"( 	c #059FCE",
"_ 	c #0097CE",
": 	c #0084B7",
"< 	c #0073A7",
"[ 	c #006F9F",
"} 	c #006B9C",
"| 	c #006B9F",
"1 	c #00679E",
"2 	c #B7B7B7",
"3 	c #FFFFFF",
"4 	c #FEFFFE",
"5 	c #FEFEFC",
"6 	c #FDFDFA",
"7 	c #FCFCF8",
"8 	c #FBFBF5",
"9 	c #FAFAF3",
"0 	c #F9F9F1",
"a 	c #F9F8EF",
"b 	c #F7F7ED",
"c 	c #F7F7EA",
"d 	c #F6F5E8",
"e 	c #F4F4E7",
"f 	c #F4F4E4",
"g 	c #F3F3E3",
"h 	c #F3F2E0",
"i 	c #F1F1DD",
"j 	c #EFF0DA",
"k 	c #EFEFD8",
"l 	c #EEEDD5",
"m 	c #FEFEFD",
"n 	c #FDFDFB",
"o 	c #FCFDF8",
"p 	c #FBFCF6",
"q 	c #F8F8F0",
"r 	c #F8F8EE",
"s 	c #F6F7EB",
"t 	c #F6F6EA",
"u 	c #F5F5E7",
"v 	c #000080",
"w 	c #F2F2E1",
"x 	c #F1F1DE",
"y 	c #F0F0DB",
"z 	c #EFEFD9",
"A 	c #EEEED6",
"B 	c #ECECD4",
"C 	c #FDFCF9",
"D 	c #FCFCF7",
"E 	c #808080",
"F 	c #F7F7EC",
"G 	c #F7F6EA",
"H 	c #F5F5E8",
"I 	c #F2F3E1",
"J 	c #F2F2DF",
"K 	c #F0F0DC",
"L 	c #EFEFDA",
"M 	c #EEEED7",
"N 	c #EDEDD4",
"O 	c #ECEBD1",
"P 	c #FEFDFC",
"Q 	c #FDFDF9",
"R 	c #FCFBF7",
"S 	c #FBFAF5",
"T 	c #F6F7EA",
"U 	c #EFEED7",
"V 	c #EDEDD5",
"W 	c #ECECD2",
"X 	c #EBEACF",
"Y 	c #FBFBF6",
"Z 	c #F5F4E7",
"` 	c #F4F3E5",
" .	c #ECECD3",
"..	c #EBEBD0",
"+.	c #EAEACE",
"@.	c #FAFAF4",
"#.	c #F9F8F0",
"$.	c #F4F4E6",
"%.	c #F3F4E3",
"&.	c #F3F2E1",
"*.	c #EFEEDA",
"=.	c #EBEBD1",
"-.	c #EAE9CB",
";.	c #F8F8EC",
">.	c #F3F3E2",
",.	c #F2F2E0",
"'.	c #F1F0DD",
").	c #EAE9CD",
"!.	c #E9E8CA",
"~.	c #FAFBF3",
"{.	c #FAF9F2",
"].	c #F7F8ED",
"^.	c #F6F6EB",
"/.	c #F6F5E9",
"(.	c #EFF0DB",
"_.	c #EEEDD6",
":.	c #ECEBD0",
"<.	c #EAEACD",
"[.	c #EAE9C9",
"}.	c #FAFBF4",
"|.	c #F9FAF2",
"1.	c #F9F9F0",
"2.	c #F6F7EC",
"3.	c #F6F6E9",
"4.	c #F4F4E5",
"5.	c #F4F3E3",
"6.	c #ECECD1",
"7.	c #E9E9CB",
"8.	c #E8E7C9",
"9.	c #EBEBC9",
"0.	c #F8F8EF",
"a.	c #F4F3E4",
"b.	c #F3F2E2",
"c.	c #F1F1DF",
"d.	c #EAEAC6",
"e.	c #F9F9F2",
"f.	c #F8F7ED",
"g.	c #ECEAD0",
"h.	c #F7F7EE",
"i.	c #F5F6E9",
"j.	c #F5F4E5",
"k.	c #F5F4E6",
"l.	c #F3F3E4",
"m.	c #F2F2E2",
"n.	c #F0F0DD",
"o.	c #EAE9CC",
"p.	c #F3F3E5",
"q.	c #F0EFDB",
"r.	c #EEEED8",
"s.	c #EDEBD2",
"t.	c #EBEBCF",
"u.	c #EAEACC",
"v.	c #E9E8C9",
"w.	c #F3F2E3",
"x.	c #F2F3E0",
"y.	c #F1F0DE",
"z.	c #EFEED9",
"A.	c #EDEDD3",
"                                              ",
". + @ # $ $ % % % % % % % & & & & & * = - ;   ",
"% - > , ' ' ) ) ) ; ; ; ; ! ! ! ! ! ~ { ] ^ / ",
"% - > , ( ( ) ) ) ; ; ; ; _ _ _ _ _ ~ { ] ^ / ",
"; : < [ } } | | | 1 1 1 1 ^ ^ ^ ^ ^ ^ ^ ^ ^ / ",
"2 3 4 5 6 7 8 9 0 a b c d e f g h i j k l 2 / ",
"2 3 m n o p / / q r s t u v g w x y z A B 2 / ",
"2 m n C D E / / E F G H v v I J K L M N O 2 / ",
"2 P Q R S / 8 / / T d v v v v v E U V W X 2 / ",
"2 6 7 Y E / / / / E Z ` v v x y v E  ...+.2 / ",
"2 o D @./ #.r F / / $.%.&.v K *.M v =.X -.2 / ",
"2 R 8 / / E ;.E / / / >.,.'.L M V v X ).!.2 / ",
"2 Y ~.{.a ].^./.Z ` >.w i (.k _. .:.<.!.[.2 / ",
"2 }.|.1.r 2.3.v 4.5.I x y z A  .6.+.7.8.9.2 / ",
"2 9 #.0.F t d v a.b.c.v z M V 6./ / / / d.2 / ",
"2 e.0.f.^./.u E v ,.x v v l  .g./ E [./ / 2 / ",
"2 #.h.s i.u j.g E v v v v v O +./ / / / [.2 / ",
"2 r F G d k.l.m.J n.z v v =.X o./ E [./ / 2 / ",
"2 F ^.i.$.p.b.,.i q.r.v s.t.u.v./ E [./ / 2 / ",
"2 2./.u 4.w.x.y.y z._.A...<.!.8./ / / / [.2 / ",
"2 2 2 2 2 2 2 2 2 2 2 2 2 2 2 2 2 2 2 2 2 2 / ",
"  / / / / / / / / / / / / / / / / / / / / / / ",
"                                              "};
