/* XPM */
static char * tsavepicturedialog_xpm[] = {
"22 20 12 1",
" 	c None",
".	c #848484",
"+	c #FFFFFF",
"@	c #000000",
"#	c #0000FF",
"$	c #D6D6CE",
"%	c #CECECE",
"&	c #FF0000",
"*	c #00FFFF",
"=	c #FFFF00",
"-	c #008400",
";	c #840000",
"......................",
".+@##############@+@+@",
".@@@@@@@@@@@@@@@@@@@@@",
".+$+$+$+$+$+$+$+$+$+$@",
".$+$.@@@@@@@@@@@@@@@+@",
".+%+@+&&@++++++++++@$@",
".$+$@&&&@*$*+*+*+*+@$@",
".+$+@&&&@$=$*+*+*+-@$@",
".$+%@&&&@*$*+*+*+--@$@",
".+%+@&&&@+*+*+*+---@$@",
".$+$@&&&@*+*+*+----@$@",
".+$+@&&&@######----@$@",
".%+$@&&&@##########@$@",
".+$+@&&@@@@@@@@@@@@@$@",
".%+$@&&@++++++@;;@$$$@",
".+$+@&&@+@@+++@&&@$+$@",
".$+$@&&@+@@+++@&&@$$+@",
".+%+.@@@@@@@@@@@@.$+$@",
".$+$+$$$$$$$$$$$$$$%+@",
".@@@@@@@@@@@@@@@@@@@@@"};
