/* XPM */
static char * tscrollbox_xpm[] = {
"22 22 5 1",
" 	c None",
".	c #000000",
"+	c #FFFFFF",
"@	c #BDBEBD",
"#	c #949194",
"......................",
".                .++@.",
".                .+.@.",
".   +++++#       .@@#.",
".   +@@@@#       .....",
".   +@@@@#       .+@+.",
".   ######       .@+@.",
".                .+@+.",
".                .@+@.",
".         +++++# .+@+.",
".         +@@@@# .@+@.",
". +++++#  +@@@@# .+@+.",
". +@@@@#  ###### .@+@.",
". +@@@@#         .....",
". ######         .++@.",
".                .+.@.",
".                .@@#.",
"......................",
".++@.@+@+@+@.++@.@@@@.",
".+.@.+@+@+@+.+.@.@@@@.",
".@@#.@+@+@+@.@@#.@@@@.",
"......................"};
