/* XPM */
static char *graphic[] = {
"23 23 6 1",
". c #000000",
", c None",
"- c #D6D6CE",
"* c #848484",
"a c #949594",
"b c #DFDFDF",
".................,,,,,,",
".----------------,----*",
".----------------,-**-*",
".---,,,,,a-------,-..-*",
".---,----a-------,----*",
".---,----a-------,*****",
".---aaaaaa--------b-b-b",
".----------------,,,,,,",
".----------------,----*",
".---------,,,,,a-,----*",
".---------,----a-,*****",
".-,,,,,a--,----a-,,,,,,",
".-,----a--aaaaaa-,----*",
".-,----a---------,-..-*",
".-aaaaaa---------,-**-*",
".----------------,----*",
".----------------,*****",
",,,,,,-,,,,,,,,,,------",
",----*b,--*,----*------",
",-*.-*-,--*,-.*-*------",
",-*.-*b,--*,-.*-*------",
",----*-,--*,----*------",
",*****b,***,*****------"}
