/* XPM */
static char *graphic[] = {
"23 23 134 2",
".. c None",
"., c #9DFFFF",
".- c #84E7FF",
".* c #73DFFF",
".a c #6FD6FF",
".b c #6BCEFF",
".c c #67CEFF",
".d c #67CFFF",
".e c #5BC6FF",
".f c #4EBFF7",
".g c #33B7E7",
".h c #009DCE",
".i c #1AA7DF",
".j c #0D9FD6",
".k c #069FCE",
".l c #019DCE",
".m c #009CCF",
".n c #0097C6",
".o c #008CBF",
".p c #007FB7",
".q c #00679D",
".r c #000000",
".s c #059FCE",
".t c #0097CE",
".u c #0084B7",
".v c #0073A7",
".w c #006F9F",
".x c #006B9C",
".y c #006B9F",
".z c #00679E",
".A c #B7B7B7",
".B c #FFFFFF",
".C c #FFFFF7",
".D c #FFFFEF",
".E c #FFFFE7",
".F c #FFFFDF",
".G c #FFFFDE",
".H c #FFFFD6",
".I c #F7F7D7",
".J c #F7F7CF",
".K c #EFEFCF",
".L c #EFE7CF",
".M c #FFF7D7",
".N c #F7EFCF",
".O c #E7E7C7",
".P c #676700",
".Q c #FFFFD7",
".R c #F7F7D6",
".S c #EFE7CE",
".T c #FFFF9D",
".U c #CECE9D",
".V c #EFEFCE",
".W c #E7E7C6",
".X c #DFDEC6",
".Y c #FFFFBF",
".Z c #FFFFAF",
".0 c #FFFFA5",
".1 c #FFFF87",
".2 c #FFFF7F",
".3 c #FFFF73",
".4 c #FFF757",
".5 c #FFEF4A",
".6 c #FFDF67",
".7 c #DEDFBF",
".8 c #FFFFCE",
".9 c #FFFFA7",
".@ c #FFF794",
".# c #FFF78D",
".; c #FFEF73",
".: c #FFE767",
".= c #FFE752",
".+ c #FFDE46",
".% c #FFDF39",
".$ c #F7CF21",
".( c #C7AF47",
".) c #DEDFC7",
".[ c #DEDEBD",
".] c #FFE76F",
",. c #FFDE5A",
",, c #FFD742",
",- c #FFD737",
",* c #FFCE2D",
",a c #F7C715",
",b c #EFBD09",
",c c #BFA539",
",d c #DEDEBF",
",e c #D6D7BF",
",f c #F7C709",
",g c #F7C700",
",h c #E7B700",
",i c #BD9C39",
",j c #DFDEBD",
",k c #D6D6BF",
",l c #FFF763",
",m c #FFCF21",
",n c #F7BF00",
",o c #EFBF00",
",p c #DFAD00",
",q c #B59D39",
",r c #DFDEBF",
",s c #D7CFB7",
",t c #FFE73D",
",u c #F7CF2B",
",v c #EFC71F",
",w c #EFB700",
",x c #E7B500",
",y c #DEAF00",
",z c #CE9E00",
",A c #A78C39",
",B c #DED7BD",
",C c #D6D6BD",
",D c #CFCEB5",
",E c #FFDF52",
",F c #BF9F39",
",G c #BD9D39",
",H c #B79E39",
",I c #B79739",
",J c #AF9739",
",K c #A78F39",
",L c #7B6B39",
",M c #CECFB7",
",N c #D7D7BD",
",O c #CECEB5",
",P c #CEC7B5",
",Q c #E7DFC6",
",R c #D7D6BF",
",S c #D6CEB7",
",T c #CFCFB7",
",U c #C6C7AF",
",V c #DEDEC6",
",W c #D6D7BD",
",X c #CFCFB5",
",Y c #CEC6B5",
",Z c #C6C7AD",
"..............................................",
".,.-.*.a.b.b.c.c.c.c.c.c.c.d.d.d.d.d.e.f.g.h..",
".c.g.i.j.k.k.l.l.l.h.h.h.h.m.m.m.m.m.n.o.p.q.r",
".c.g.i.j.s.s.l.l.l.h.h.h.h.t.t.t.t.t.n.o.p.q.r",
".h.u.v.w.x.x.y.y.y.z.z.z.z.q.q.q.q.q.q.q.q.q.r",
".A.B.B.B.B.C.C.C.D.D.D.E.E.F.G.F.H.I.J.K.L.A.r",
".A.B.B.B.C.C.C.D.D.D.E.E.E.G.F.G.M.I.N.K.O.A.r",
".A.B.B.C.C.C.C.P.P.P.P.P.G.F.G.Q.R.J.K.S.O.A.r",
".A.B.B.C.C.C.P.G.T.T.T.U.r.G.G.R.R.V.V.W.W.A.r",
".A.B.C.C.C.P.P.P.P.P.P.P.P.P.P.P.P.P.S.O.X.A.r",
".A.C.C.C.C.P.B.G.Y.Z.0.1.2.3.4.5.6.r.O.O.7.A.r",
".A.C.C.C.C.P.8.9.@.#.;.:.=.+.%.$.(.r.O.).[.A.r",
".A.C.C.C.D.P.0.#.].:,.,,,-,*,a,b,c.r.O,d,e.A.r",
".A.C.C.D.D.P.2.:,.,,,-,*,a,f,g,h,i.r.),j,k.A.r",
".A.C.D.D.D.P,l.=,-,*,m,f,g,n,o,p,q.r,r,e,s.A.r",
".A.C.D.D.D.P,t,u,v,b,w,x,x,p,y,z,A.r,B,C,D.A.r",
".A.D.D.D.E.P,E.(,c,F,G,H,q,I,J,K,L.r,k,s,M.A.r",
".A.D.D.E.E.P.r.r.r.r.r.r.r.r.r.r.r.r,N,O,P.A.r",
".A.D.D.E.E.E.F.F.G.Q.R.R.K.S.O,Q.[,R,S,T,U.A.r",
".A.D.D.E.E.F.G.G.G.I.R.V.V.O.W,V,R,W,X,Y,Z.A.r",
".A.A.A.A.A.A.A.A.A.A.A.A.A.A.A.A.A.A.A.A.A.A.r",
"...r.r.r.r.r.r.r.r.r.r.r.r.r.r.r.r.r.r.r.r.r.r",
".............................................."}
