/* XPM */
static char * tselectdirectorydialog_xpm[] = {
"22 20 123 2",
"  	c None",
". 	c #848484",
"+ 	c #FFFFFF",
"@ 	c #000000",
"# 	c #0000FF",
"$ 	c #D6D6CE",
"% 	c #CECECE",
"& 	c #4E331B",
"* 	c #CACAC2",
"= 	c #FCFCFC",
"- 	c #F4F4F4",
"; 	c #A4A49E",
"> 	c #ADADAD",
", 	c #8F8F8A",
"' 	c #B8B8B8",
") 	c #E5A566",
"! 	c #FED39A",
"~ 	c #FEC585",
"{ 	c #BCBCB5",
"] 	c #EBEBEB",
"^ 	c #FDC587",
"/ 	c #FEC282",
"( 	c #F8AC62",
"_ 	c #C1C1B9",
": 	c #FEC88A",
"< 	c #53504D",
"[ 	c #55524F",
"} 	c #5C5A57",
"| 	c #54514E",
"1 	c #565350",
"2 	c #C4864E",
"3 	c #524F4C",
"4 	c #F5F5F5",
"5 	c #ECECEC",
"6 	c #E4E4E4",
"7 	c #DCDCDC",
"8 	c #D4D4D4",
"9 	c #CBCBCB",
"0 	c #C4C4C4",
"a 	c #BCBCBC",
"b 	c #B5B5B5",
"c 	c #B3B3B3",
"d 	c #303030",
"e 	c #4A3119",
"f 	c #DBDBDB",
"g 	c #DFDFDE",
"h 	c #E8E8E7",
"i 	c #E6E6E4",
"j 	c #D2D2D1",
"k 	c #C7C7C6",
"l 	c #BABAB9",
"m 	c #ADADAC",
"n 	c #A0A09F",
"o 	c #949493",
"p 	c #494948",
"q 	c #9C9C9C",
"r 	c #979792",
"s 	c #B77D44",
"t 	c #53514E",
"u 	c #DADADA",
"v 	c #DBDBDA",
"w 	c #E1E1E0",
"x 	c #DDDDDC",
"y 	c #D6D6D5",
"z 	c #CBCBCA",
"A 	c #C1C1C0",
"B 	c #B6B6B5",
"C 	c #A9A9A8",
"D 	c #686867",
"E 	c #222221",
"F 	c #8C8C86",
"G 	c #E3E3E3",
"H 	c #493018",
"I 	c #CDCDCD",
"J 	c #CACAC9",
"K 	c #D5D5D4",
"L 	c #D2D2D0",
"M 	c #CCCCCB",
"N 	c #C2C2C1",
"O 	c #B9B9B8",
"P 	c #AFAFAE",
"Q 	c #A2A2A1",
"R 	c #959594",
"S 	c #82827E",
"T 	c #BEBEBC",
"U 	c #C4C4C2",
"V 	c #C6C6C5",
"W 	c #C3C3C2",
"X 	c #BFBFBE",
"Y 	c #AEAEAD",
"Z 	c #A5A5A4",
"` 	c #9E9E9D",
" .	c #6F6F6E",
"..	c #121212",
"+.	c #A7A7A7",
"@.	c #BEBEB7",
"#.	c #BDBDBD",
"$.	c #A6A6A5",
"%.	c #AAAAA8",
"&.	c #ADADAB",
"*.	c #AEAEAC",
"=.	c #ABABAA",
"-.	c #A7A7A6",
";.	c #A1A1A0",
">.	c #9A9A99",
",.	c #949492",
"'.	c #8D8D8B",
").	c #F1F1F1",
"!.	c #232323",
"~.	c #4A4A4A",
"{.	c #4A4A49",
"].	c #4C4C4B",
"^.	c #4C4C4C",
"/.	c #4B4B4A",
"(.	c #464646",
"_.	c #434343",
":.	c #414140",
"<.	c #343433",
"[.	c #1F1F1E",
"}.	c #D3D3CB",
"|.	c #B9B9B9",
"1.	c #AAAAAA",
"2.	c #8E8E89",
". . . . . . . . . . . . . . . . . . . . . . ",
". + @ # # # # # # # # # # # # # # @ + @ + @ ",
". @ @ @ @ @ @ @ @ @ @ @ @ @ @ @ @ @ @ @ @ @ ",
". + $ + $ + $ + $ + $ + $ + $ + $ + $ + $ @ ",
". % + % + $ + $ + $ + $ + $ + $ + $ + $ + @ ",
". + $ + & & & & * = $ + $ - ; > , ' * + $ @ ",
". % + & ) ! ~ ) & & & & & & & { ] * = $ + @ ",
". + $ & ! ^ / ( ( ( ( ( ( ( ( @ _ = $ + $ @ ",
". % + & : / & < < [ } | | 1 1 | @ @ @ * + @ ",
". + $ & / 2 3 4 4 5 6 7 8 9 0 a b c d ' $ @ ",
". % + & / e f g h i g j k l m n o p q r + @ ",
". + $ & s t u v w x y z A B C n D E F G $ @ ",
". % + & H I J K K L M N O P Q R p S b * + @ ",
". + $ & 1 % T U V W X B Y Z `  ...+.@.= $ @ ",
". % + & #.$.%.&.*.=.-.;.>.,.'.p q r ).$ + @ ",
". + $ !.~.{.].^.]./.p (._.:.<.[.F G }.+ $ @ ",
". % + * |., 1.2.1.2.1.2.1.2.1.2.' * + $ + @ ",
". + $ + $ + $ + $ + $ + $ + $ + $ + $ + $ @ ",
". % + $ + $ + $ + $ + $ + $ + $ + $ + $ + @ ",
". @ @ @ @ @ @ @ @ @ @ @ @ @ @ @ @ @ @ @ @ @ "};
