/* XPM */
static char * tsimpleipcclient_xpm[] = {
"20 20 118 2",
"  	c None",
". 	c #000000",
"+ 	c #041304",
"@ 	c #0E470F",
"# 	c #0D550E",
"$ 	c #052B06",
"% 	c #28662A",
"& 	c #6DD66E",
"* 	c #80E980",
"= 	c #69E269",
"- 	c #41D042",
"; 	c #0E740F",
"> 	c #29612A",
", 	c #90F090",
"' 	c #A9F7A9",
") 	c #A5F5A5",
"! 	c #87EE87",
"~ 	c #66E666",
"{ 	c #3BD73B",
"] 	c #065E06",
"^ 	c #001900",
"/ 	c #071808",
"( 	c #5FC75F",
"_ 	c #416941",
": 	c #465E46",
"< 	c #A3E8A3",
"[ 	c #8CEF8C",
"} 	c #69E769",
"| 	c #45DE45",
"1 	c #16BD16",
"2 	c #026302",
"3 	c #00B200",
"4 	c #004C00",
"5 	c #0A1C0A",
"6 	c #060F06",
"7 	c #253C25",
"8 	c #7DEC7D",
"9 	c #5EE45E",
"0 	c #3DDC3D",
"a 	c #1BD31B",
"b 	c #01CC01",
"c 	c #00CD00",
"d 	c #070F07",
"e 	c #275627",
"f 	c #63E563",
"g 	c #4BDF4B",
"h 	c #2ED82E",
"i 	c #0FD00F",
"j 	c #00A600",
"k 	c #091C09",
"l 	c #47C547",
"m 	c #50E150",
"n 	c #44DE44",
"o 	c #31D931",
"p 	c #18D318",
"q 	c #02CD02",
"r 	c #007300",
"s 	c #020902",
"t 	c #040E04",
"u 	c #1C7A1C",
"v 	c #23D623",
"w 	c #13D213",
"x 	c #03CD03",
"y 	c #004000",
"z 	c #27AF28",
"A 	c #198619",
"B 	c #020E02",
"C 	c #011A01",
"D 	c #008D00",
"E 	c #0A260A",
"F 	c #4ED54E",
"G 	c #46DE46",
"H 	c #2BCA2B",
"I 	c #0A690A",
"J 	c #000E00",
"K 	c #003300",
"L 	c #008C00",
"M 	c #1B5E1C",
"N 	c #7FEC7F",
"O 	c #68E768",
"P 	c #47DE47",
"Q 	c #21D521",
"R 	c #02B402",
"S 	c #479F48",
"T 	c #A3F5A3",
"U 	c #80ED80",
"V 	c #58E358",
"W 	c #07CE07",
"X 	c #008000",
"Y 	c #031503",
"Z 	c #79DB7A",
"` 	c #83ED83",
" .	c #59E359",
"..	c #2FD82F",
"+.	c #08B508",
"@.	c #084209",
"#.	c #7AE67B",
"$.	c #7BE87B",
"%.	c #6EE86E",
"&.	c #25D625",
"*.	c #03C103",
"=.	c #000D00",
"-.	c #002600",
";.	c #0B710C",
">.	c #2BAF2C",
",.	c #085B09",
"'.	c #39D339",
").	c #32D932",
"!.	c #11D111",
"~.	c #009900",
"{.	c #011702",
"].	c #0C920C",
"^.	c #12D012",
"/.	c #01CD01",
"(.	c #02A302",
"_.	c #00CC00",
":.	c #00C000",
"<.	c #006600",
"                                        ",
"                . + @ # $ .             ",
"              . % & * = - ; .           ",
"            . > , ' ) ! ~ { ] . . ^     ",
"            / ( _ : < [ } | 1 2 3 4     ",
"            5 6     7 8 9 0 a b c ^     ",
"                . d e f g h i c j .     ",
"                k l m n o p q c r       ",
"      . s .       t u v w x c c y       ",
"      . z A B .     . C D c c c .       ",
"      E F G H I J       . K j L .       ",
"      M N O P Q R 4 .       . ^         ",
"    . S T U V h W c X .                 ",
"    Y Z ' `  ...+.4 .                   ",
"    @.#.$.%.g &.*.=.  . -..             ",
"  . ;.>.,.'.).!.c j K r ~..             ",
"  . {.. . ].^./.c c c c K               ",
"          =.(._.c c :.4 .               ",
"            J 4 <.4 =.                  ",
"                .                       "};
