/* XPM */
static char * tspeedbutton_xpm[] = {
"19 17 7 1",
" 	c None",
".	c #FFFFFF",
"+	c #BEBEBE",
"@	c #000000",
"#	c #666666",
"$	c #FFFF00",
"%	c #BABABA",
"...................",
".+++++++++++++++++@",
".+++##########++++@",
".+++#$$$$$$$$#++++@",
".++#$$$$$$$$#%++++@",
".+#$$$$$$$$#++++++@",
".+####$$$$$####+++@",
".++++#$$$$$$$$#+++@",
".+++#$$$$$$$$#++++@",
".++#$$$$$$$$#+++++@",
".++#####$$$$##++++@",
".++++++#$$$$$#++++@",
".+++++#$$$$##+++++@",
".++++#$$$##+++++++@",
".++++####+++++++++@",
".+++++++++++++++++@",
"@@@@@@@@@@@@@@@@@@@"};
