/* XPM */
static char * ttimer_xpm[] = {
"17 17 5 1",
" 	c None",
".	c #000000",
"+	c #FFFFFF",
"@	c #840000",
"#	c #D6D6CE",
"      .....      ",
"    ..+++++..    ",
"   .++++.++++.   ",
"  .++@++.#+@++.  ",
" .++++++.#+++++. ",
" .+@++++.#+++@+. ",
".+++++++.#++++++.",
".+++++++.#++++++.",
".+@+++++....++@+.",
".++++++++####+++.",
".+++++++++++++++.",
" .+@+++++++++@+. ",
" .+++++++++++++. ",
"  .++@+++++@++.  ",
"   .++++@++++.   ",
"    ..+++++..    ",
"      .....      "};
