/* XPM */
static char *graphic[] = {
"23 23 5 1",
". c None",
", c #FFFFFF",
"- c #000000",
"* c #C6C6C6",
"a c #848484",
".......................",
".......................",
".......................",
".......................",
".....,,,,,,-...........",
".....,****a-...........",
".....,****a-...........",
".aaaa,****a-aaaaaaaaaa.",
".a***,****a-*********,.",
".,,,,,****a-,,,,,,,,,,.",
".....,****a-...........",
"......a**a-............",
".......aa-.............",
"........-..............",
".......................",
".......................",
".-..-..-..-..-..-..-..-",
".-..-..-..-..-..-..-..-",
".......................",
".......................",
".......................",
".......................",
"......................."}
