/* XPM */
static char * ttrayicon_xpm[] = {
"23 23 60 1",
" 	c None",
".	c #4B4B4B",
"+	c #C8C8C8",
"@	c #CCC0AE",
"#	c #B89F79",
"$	c #9B9B9B",
"%	c #EAC286",
"&	c #F1B456",
"*	c #E7B76A",
"=	c #F0DDBC",
"-	c #FAEFD6",
";	c #FDEEC8",
">	c #F2CE87",
",	c #EEAF4E",
"'	c #F0DDBE",
")	c #FEFDF6",
"!	c #FEF9DB",
"~	c #FCF3AF",
"{	c #FCF1A2",
"]	c #FAC65B",
"^	c #000000",
"/	c #CDBEA7",
"(	c #ECC486",
"_	c #FBEFD7",
":	c #FEFADC",
"<	c #FDF8CE",
"[	c #FCF3A5",
"}	c #FCEE7D",
"|	c #FCE369",
"1	c #E9AF55",
"2	c #D7C19F",
"3	c #B6A284",
"4	c #EDB257",
"5	c #FDEFCC",
"6	c #FDF4B0",
"7	c #FDF3A6",
"8	c #FCEF8B",
"9	c #FCEB67",
"0	c #FCE459",
"a	c #F6AE40",
"b	c #CCA364",
"c	c #F1CF8C",
"d	c #FCF2A3",
"e	c #FCEB66",
"f	c #FCE856",
"g	c #FACD47",
"h	c #EFB04D",
"i	c #FBC961",
"j	c #FBE46E",
"k	c #FCE55B",
"l	c #FBCE47",
"m	c #FAB43E",
"n	c #9D9D9D",
"o	c #DBC39F",
"p	c #CEAF7F",
"q	c #EBAF54",
"r	c #F5AE3F",
"s	c #E7B974",
"t	c #D9C09B",
"u	c #C8A46B",
"                       ",
"                       ",
"                       ",
"                       ",
"                       ",
"                       ",
"                       ",
"                       ",
"                       ",
"   ....................",
"   +++++++@#+++++++++++",
"  +$$$$$$$%&$$$$$$$$$$$",
" +$$$$$$*=-;>,$$$$$$$$$",
" +$$$$$$')!~{]$$$^^$^^$",
"+$$$$$/(_:<[}|12$^^$^^$",
"+$$$$$34567890ab$^^$^^$",
"$$$$$$$$cd}efg$$$^^$^^$",
"$$$$$$$$hijklm$$$$$$$$$",
"nnnnnn$op$qr$$s$$$$$$$$",
"..........tu...........",
"                       ",
"                       ",
"                       "};
