/* XPM */
static char * ttreeview_xpm[] = {
"21 21 9 1",
" 	c None",
".	c #808080",
"+	c #000000",
"@	c #FFFFFF",
"#	c #C0C0C0",
"$	c #F9D51D",
"%	c #AF910A",
"&	c #8E8E8E",
"*	c #595959",
".....................",
".+++++++++++++++++++@",
".+@@@@@@@@@@@@@@@@@#@",
".+@$%%@@@@@@@@@@@@@#@",
".+@%$%@@@&**&*@@@@@#@",
".+@@&@@@@@@@@@@@@@@#@",
".+@@&&$%%@@@@@@@@@@#@",
".+@@@@%$%@@**&&@@@@#@",
".+@@@@@&@@@@@@@@@@@#@",
".+@@@@@&&$%%@@@@@@@#@",
".+@@@@@&@%$%@@&**@@#@",
".+@@@@@&@@@@@@@@@@@#@",
".+@@@@$%%@@@@@@@@@@#@",
".+@@@@%$%@@&***@@@@#@",
".+@@@@@&@@@@@@@@@@@#@",
".+@@@@@&&%%%@@@@@@@#@",
".+@@@@@@@%$%@@&*&@@#@",
".+@@@@@@@@@@@@@@@@@#@",
".+@@@@@@@@@@@@@@@@@#@",
".+##################@",
".@@@@@@@@@@@@@@@@@@@@"};
