/* XPM */
static char *graphic[] = {
"23 23 23 1",
". c #848484",
", c #FFFFFF",
"- c #424242",
"* c #D6D6CE",
"a c #B5EFFF",
"b c #3177A5",
"c c #000000",
"d c #185286",
"e c #FF2121",
"f c #AF4242",
"g c #954242",
"h c #FFFF7F",
"i c #007FFF",
"j c #003FFF",
"k c #C6C6C6",
"l c #27537F",
"m c #1D3D5A",
"n c #FFFFDE",
"o c #DFAF00",
"p c #D6A500",
"q c #565656",
"r c #2B2B2B",
"s c None",
"......................,",
".--------------------*,",
".-...,,,,,,,,,,,,,,,,*,",
".-.ab,ccccc,,,,,,,,,,*,",
".-.bd,,,,,,,,,,,,,,,,*,",
".-,,....,,,,,,,,,,,,,*,",
".-,,.ef.,ccccccc,,,,,*,",
".-,,.fg.,,,,,,,,,,,,,*,",
".-,,....,,,,,,,,,,,,,*,",
".-,,.hi.,ccc,ccc,,,,,*,",
".-,,.ij.,,,,,,,,,,,,,*,",
".-,,.......,,,,,,,,,,*,",
".-,,,,..kl.,cccccc,,,*,",
".-,,,,..lm.,,,,,,,,,,*,",
".-,,.......,,,,,,,,,,*,",
".-,,.no.,ccccccc,,,,,*,",
".-,,.op.,,,,,,,,,,,,,*,",
".-,,.......,,,,,,,,,,*,",
".-,,,,..kq.,cccccc,,,*,",
".-,,,,,.qr.,,,,,,,,,,*,",
".*********************,",
",,,,,,,,,,,,,,,,,,,,,,,",
"sssssssssssssssssssssss"}
