/* XPM */
static char * txmlcfg_xpm[] = {
"24 24 2 1",
" 	c None",
".	c #00DC24",
"                        ",
"                        ",
"                        ",
"                        ",
"                        ",
"                        ",
"                        ",
"                        ",
"                        ",
"                        ",
"                        ",
"                        ",
"                        ",
"                        ",
"  .    . ..    .  .     ",
"  ..  .  ..   ..  .     ",
"   . .   ..   ..  .     ",
"    ..   . . . .  .     ",
"    ..   . . . .  .     ",
"   . .   . ... .  .     ",
"  .   .  .  .  .  .     ",
"  .    . .     .  ..... ",
"                        ",
"                        "};
